<?xml version="1.0" encoding="utf-8"?>
<!-- Generator: Adobe Illustrator 19.2.1, SVG Export Plug-In . SVG Version: 6.00 Build 0)  -->
<svg version="1.1" id="Layer_1" xmlns="http://www.w3.org/2000/svg" xmlns:xlink="http://www.w3.org/1999/xlink" x="0px" y="0px"
	 viewBox="0 0 50 50" style="enable-background:new 0 0 50 50;" xml:space="preserve">
<style type="text/css">
	.st0{fill:#FBC04E;}
	.st1{display:none;}
	.st2{display:inline;fill:#FFFFFF;}
	.st3{fill:#262626;}
</style>
<polygon class="st0" points="0,0 0,50 50,0 "/>
<g class="st1">
	<path class="st2" d="M9.7,32.2l-0.9,0.9l-4.4-4.4l2.5-2.5L7.7,27l-1.6,1.6l1.1,1.1l1.5-1.5L9.5,29L8,30.5L9.7,32.2z"/>
	<path class="st2" d="M11.4,21.7l2.9,2.9c0.3,0.3,0.5,0.7,0.6,1.1s0.1,0.8-0.1,1.2c-0.1,0.4-0.4,0.8-0.8,1.2
		c-0.6,0.6-1.2,0.9-1.8,0.9s-1.2-0.2-1.7-0.7l-2.8-2.8l0.9-0.9l2.7,2.7c0.3,0.3,0.7,0.5,1,0.5s0.6-0.1,0.9-0.4
		c0.3-0.3,0.4-0.6,0.4-0.9s-0.2-0.6-0.5-1l-2.7-2.7L11.4,21.7z"/>
	<path class="st2" d="M20.8,21.1l-1.2,1.2l-5.3-1.4l0,0c0.6,0.6,1.1,1,1.3,1.2l2.1,2.1L16.9,25l-4.4-4.4l1.2-1.2l5.2,1.4l0,0
		c-0.6-0.5-1-0.9-1.3-1.2l-2.1-2.1l0.8-0.8L20.8,21.1z"/>
	<path class="st2" d="M23.3,14.1c0.7,0.7,1.1,1.5,1,2.3c0,0.8-0.4,1.6-1.2,2.4L21.9,20l-4.4-4.4l1.4-1.4c0.7-0.7,1.5-1.1,2.2-1.1
		S22.6,13.4,23.3,14.1z M22.3,15.1c-0.9-0.9-1.8-1-2.7-0.2l-0.5,0.5l2.9,2.9l0.4-0.4C23.3,17,23.3,16.1,22.3,15.1z"/>
	<path class="st2" d="M29,12.9l-2.5,2.5L22,11l2.5-2.5l0.8,0.8l-1.6,1.6l1,1l1.5-1.5l0.8,0.8l-1.5,1.5l1.1,1.1l1.6-1.6L29,12.9z"/>
	<path class="st2" d="M31.3,6.1c0.7,0.7,1.1,1.5,1,2.3s-0.4,1.6-1.2,2.4L29.9,12l-4.4-4.4l1.4-1.4c0.7-0.7,1.5-1.1,2.2-1.1
		S30.6,5.4,31.3,6.1z M30.4,7.1c-0.9-0.9-1.8-1-2.7-0.2l-0.5,0.5l2.9,2.9l0.4-0.4C31.4,9,31.3,8,30.4,7.1z"/>
</g>
<g>
	<g>
		<path class="st3" d="M9.7,32.2l-1.3-0.7l-1.6,1.6l0.7,1.3l-1,1l-2.8-5.8l1.1-1.1l5.8,2.8L9.7,32.2z M7.4,31
			c-1.2-0.6-1.9-1-2.1-1.1C5.2,29.8,5,29.7,5,29.7c0.2,0.3,0.6,1.1,1.3,2.4L7.4,31z"/>
		<path class="st3" d="M10.4,22.9l2.8,2.8c0.3,0.3,0.5,0.7,0.6,1c0.1,0.4,0.1,0.8-0.1,1.2c-0.1,0.4-0.4,0.8-0.8,1.1
			c-0.6,0.6-1.1,0.8-1.7,0.9c-0.6,0-1.1-0.2-1.6-0.7l-2.8-2.8l0.9-0.9l2.6,2.6c0.3,0.3,0.6,0.5,0.9,0.5c0.3,0,0.6-0.1,0.9-0.4
			c0.3-0.3,0.4-0.6,0.4-0.9s-0.2-0.6-0.5-0.9l-2.6-2.6L10.4,22.9z"/>
		<path class="st3" d="M14,20.7c-0.3,0.3-0.5,0.7-0.4,1.2c0.1,0.4,0.3,0.9,0.8,1.4c1,1,1.8,1.1,2.5,0.4c0.3-0.3,0.6-0.7,0.9-1.3
			l0.8,0.8c-0.2,0.5-0.5,1-1,1.4c-0.6,0.6-1.3,0.9-2,0.9c-0.7,0-1.4-0.4-2.1-1.1c-0.4-0.4-0.8-0.9-0.9-1.4c-0.2-0.5-0.2-1-0.1-1.5
			c0.1-0.5,0.4-0.9,0.8-1.3c0.4-0.4,0.9-0.7,1.6-1l0.4,1c-0.2,0.1-0.5,0.2-0.7,0.3C14.3,20.5,14.1,20.6,14,20.7z"/>
		<path class="st3" d="M21.2,20.7l-0.9,0.9l-3.5-3.5l-1.2,1.2l-0.8-0.8l3.2-3.2l0.8,0.8l-1.2,1.2L21.2,20.7z"/>
		<path class="st3" d="M23.1,18.9l-4.3-4.3l0.9-0.9l4.3,4.3L23.1,18.9z"/>
		<path class="st3" d="M26.8,10.8c0.7,0.7,1.1,1.4,1.1,2.2c0,0.7-0.3,1.4-0.9,2.1c-0.7,0.7-1.4,1-2.1,0.9c-0.7,0-1.5-0.4-2.2-1.1
			c-0.7-0.7-1.1-1.4-1.1-2.2c0-0.7,0.3-1.4,1-2.1c0.7-0.7,1.4-1,2.1-0.9C25.4,9.7,26.1,10.1,26.8,10.8z M23.7,14
			c0.5,0.5,0.9,0.7,1.4,0.8c0.4,0.1,0.8-0.1,1.2-0.5c0.7-0.7,0.6-1.6-0.4-2.5c-1-1-1.8-1.1-2.5-0.4c-0.4,0.4-0.5,0.8-0.5,1.2
			C22.9,13,23.2,13.5,23.7,14z"/>
		<path class="st3" d="M33.6,8.3l-1.2,1.2l-5.1-1.4l0,0c0.6,0.5,1,0.9,1.3,1.2l2,2l-0.8,0.8l-4.3-4.3l1.1-1.1L31.8,8l0,0
			c-0.6-0.5-1-0.9-1.2-1.1l-2-2L29.4,4L33.6,8.3z"/>
	</g>
</g>
</svg>
