<?xml version="1.0" encoding="utf-8"?>
<!-- Generator: Adobe Illustrator 15.0.0, SVG Export Plug-In . SVG Version: 6.00 Build 0)  -->
<!DOCTYPE svg PUBLIC "-//W3C//DTD SVG 1.1//EN" "http://www.w3.org/Graphics/SVG/1.1/DTD/svg11.dtd">
<svg version="1.1" id="Layer_1" xmlns="http://www.w3.org/2000/svg" xmlns:xlink="http://www.w3.org/1999/xlink" x="0px" y="0px"
	 width="32px" height="32px" viewBox="0 0 32 32" enable-background="new 0 0 32 32" xml:space="preserve">
<path fill="#1DB5B6" d="M32,15.724c0,2.142-0.399,4.168-1.197,6.081c-0.799,1.91-1.949,3.589-3.45,5.036
	c-1.556,1.488-3.31,2.627-5.262,3.419c-1.951,0.792-3.972,1.188-6.06,1.188c-1.83,0-3.62-0.312-5.375-0.932
	c-1.753-0.62-3.361-1.511-4.821-2.672c-1.884-1.503-3.327-3.296-4.33-5.385C0.501,20.371,0,18.125,0,15.724
	c0-2.157,0.396-4.18,1.188-6.07c0.791-1.891,1.951-3.573,3.48-5.047c1.501-1.46,3.245-2.593,5.231-3.398S13.928,0,16.031,0
	c2.088,0,4.12,0.403,6.09,1.208c1.972,0.805,3.717,1.938,5.231,3.398c1.515,1.474,2.668,3.16,3.46,5.057S32,13.581,32,15.724z
	 M16.031,25.735c2.715,0,4.958-0.952,6.725-2.856s2.651-4.289,2.651-7.155c0-2.839-0.895-5.228-2.682-7.166
	c-1.787-1.938-4.019-2.907-6.695-2.907c-2.717,0-4.969,0.966-6.756,2.897c-1.787,1.932-2.682,4.323-2.682,7.176
	c0,2.893,0.88,5.286,2.641,7.176S13.261,25.735,16.031,25.735z"/>
</svg>
