<?xml version="1.0" encoding="utf-8"?>
<!-- Generator: Adobe Illustrator 15.0.0, SVG Export Plug-In . SVG Version: 6.00 Build 0)  -->
<!DOCTYPE svg PUBLIC "-//W3C//DTD SVG 1.1//EN" "http://www.w3.org/Graphics/SVG/1.1/DTD/svg11.dtd">
<svg version="1.1" id="Layer_1" xmlns="http://www.w3.org/2000/svg" xmlns:xlink="http://www.w3.org/1999/xlink" x="0px" y="0px"
	 width="100px" height="35px" viewBox="0 0 100 35" enable-background="new 0 0 100 35" xml:space="preserve">
<g>
	<g>
		<g>
			<path fill="#262626" d="M50.526,16.775c2.763-4.327,1.377-4.992,1.236-4.912c-2.688,1.514-4.734,6.071-4.562,7.589
				C47.437,21.541,49.059,19.072,50.526,16.775 M60.991,12.804c-0.521,0.878-0.816,1.929-0.951,2.89
				c-0.071,0.507-0.154,2.712-0.135,3.012c0,0.03,0.07,1.032,0.186,1.449c0.065,0.239,0.475,1.098-0.839,1.278
				c-0.773,0.106-0.758-1.829-0.773-2.146c-0.029-0.675,0.082-3.046,0.153-3.398c0.076-0.36-0.075,0.021-0.217,0.257
				c-0.328,0.549-0.708,1.29-1.166,2.021c-0.599,0.96-1.938,3.249-3.762,3.112c-0.683-0.052-1.377-0.14-1.773-2.042
				c-0.153-0.729-0.094-1.687-0.078-2.263c-0.019-0.118-0.002-0.254-0.102-0.199c-0.646,1.508-2.745,5.951-5.116,4.952
				c-1.098-0.46-1.639-1.878-0.427-4.647c1.181-2.698,4.16-6.044,5.347-6.27c1.058-0.201,1.168,0.332,1.168,0.332
				c0.096-0.197,0.755-0.174,0.899,0.108c0.193,0.377,0.322,0.443,0.193,1.437c-0.073,0.574-0.606,4.164-0.514,5.397
				c0.043,0.579,0.142,2.002,0.729,2.071c1.026,0.123,2.27-2.06,2.411-2.288c0.276-0.446,2.491-4.158,2.763-4.7
				c0.293-0.584,0.479-1.011,0.668-1.383c0.188-0.372,0.759-0.414,1.256-0.075C61.412,12.049,61.161,12.516,60.991,12.804z
				 M14.137,14.623c-1.302,0.14-3.675,3.287-4.165,4.404c-0.5,1.141-0.68,2.242-0.087,2.7c1.228,0.954,2.498-0.662,2.872-1.039
				c0.231-0.231,1.847-1.993,2.252-3.783C15.278,15.724,15.402,14.487,14.137,14.623z M14.815,28.59
				c-0.089,0.161-0.182,0.32-0.277,0.478c-0.958,1.592-2.217,3.013-3.777,4.038c-2.112,1.386-4.097,1.919-6.315,1.893
				c-1.289-0.015-2.532-0.224-3.593-0.898c-0.869-0.553-0.993-1.417-0.729-1.988c0.366-0.795,1.508-0.717,1.994-0.262
				c1.213,1.138,1.938,1.579,3.498,1.504c1.227-0.061,2.595-0.455,3.659-1.076c6.454-3.769,6.394-10.543,6.656-14.625
				c0.027-0.249-0.107-0.068-0.153,0.067c-0.232,0.687-0.62,1.546-1.152,2.511c-0.461,0.836-1.339,2.06-2.731,2.979
				c-0.817,0.54-2.145,0.801-3.079,0.192c-0.339-0.222-2.32-1.382-0.641-4.837c1.056-2.174,3.278-3.682,3.78-4.002
				c1.226-0.783,2.102-1.155,3.02-1.084c0.468,0.035,0.536,0.218,0.883,0.209c0.199-0.233,0.308-0.403,0.633-0.493
				c0.437-0.07,0.956,0.296,1.156,0.991c0.199,0.694-0.32,1.809-0.452,2.345C17.195,16.53,17.656,23.485,14.815,28.59z
				 M22.167,12.92c-0.79,0.015-0.726,0.586-0.891,1.085c-0.161,0.498-1.524,4.977-1.697,5.779c-0.174,0.802-0.292,1.524-0.042,2.626
				c0.254,1.126,1.545,0.797,1.683,0.6c0.63-0.883,0.072-1.144,0.052-1.761c-0.017-0.645,0.16-1.321,0.293-2.194
				c0.047-0.311,0.143-1.727,0.189-1.918c0.053-0.208,0.498-1.784,1.14-2.741C23.168,13.984,23.41,12.899,22.167,12.92z
				 M24.32,7.683c-0.108-0.222-0.696-0.922-1.465-0.378c-1.143,0.809,0.174,1.927,0.387,2.476c0.211,0.546,1.353,1.007,1.187-0.074
				C24.404,9.55,24.634,8.327,24.32,7.683z M36.934,12.958c-0.373,0.083-1.115,0.232-1.581,0.311
				c-0.707,0.118-1.092,0.564-1.065,1.013c0.027,0.453,0.181,0.666,0.812,0.546c0.57-0.107,1.057-0.593,1.557-0.595
				c0,0-1.031,4.345-1.099,4.928c-0.067,0.582-0.372,2.175,0.254,3.08c1.394,2.011,4.18-0.295,4.44-0.545
				c0.191-0.187,1.952-1.729,2.549-2.968c0.302-0.628-0.213-0.767-0.562-0.895c-0.348-0.128-1.084,0.093-1.187,0.553
				c-0.224,0.998-2.662,3.69-3.869,3.15c-1.422-0.637,1.144-7.777,1.144-7.777c0.306-0.137,1.855-0.537,3.321-0.914
				c1.692-0.434,6.864-1.455,5.696-2.999c-0.571-0.756-2.047,0.395-2.547,0.636c-1.793,0.859-6.181,2.121-6.181,2.121
				s0.569-2.566,0.754-3.073c0.212-0.578,0.993-0.957,1.107-1.987c0.134-1.198-1.31-1.744-1.999-0.432
				c-0.143,0.269-0.339,1.012-0.358,1.03c-0.185,0.178-1.778,0.814-3.345,1.562c-0.494,0.235-3.299,1.255-3.304,1.248
				c0.004-0.021,0.852-2.709,1.834-4.952c0.654-1.491,1.575-3.566,3.206-3.988c1.528-0.394,0.807,1.198,1.495,1.611
				c0.872,0.524,1.407-0.137,1.541-0.769c0.104-0.496,0.077-3.095-2.566-2.834c-2.514,0.248-4.518,4.085-6.995,11.258
				c-0.027,0.029-1.995,1.3-3.626,1.626c-0.807,0.162-1.163,0.231-1.27,0.52c-0.277,0.743,0.204,1.283,0.297,1.359
				c0.465,0.555,4.098-1.85,4.093-1.833c-0.074,0.098-3.054,11.454-3.078,11.586c-0.171,0.946-1.132,3.439-1.081,4.571
				c0.029,0.582,0.257,1.794,1.096,1.74c1.755,0.115,1.417-2.352,1.299-2.804c-0.246-0.936,1.016-7.12,2.147-11.679
				c0.231-0.93,0.705-2.455,0.787-2.817c0.138-0.617,0.499-1.026,0.922-1.221c0,0,6.312-2.975,6.37-2.958
				C37.942,9.373,36.934,12.958,36.934,12.958z M80.172,18.635c1.221,1.155,2.437,0.422,3.063-0.083
				c1.918-1.542,5.874-8.574,5.874-8.574c0.022,0.235-1.648,8.299,0.585,9.193c1.432,0.572,4.766-2.271,5.147-2.535
				c2.201-1.519,0.853-2.074,0.428-2.076c-1.135-0.003-0.931,0.819-1.241,1.188c-0.512,0.61-2.57,2.727-3.578,2.165
				c-0.542-0.304-0.409-2.095-0.354-2.508c0.317-4.268,0.402-5.039,0.65-6.021c0.14-0.546,0.805-0.531,1.211-0.606
				c5.496-1.015,6.482-0.605,7.167-0.939c0.544-0.268,0.641-1.419-0.13-1.667c-0.353-0.111-0.8,0.158-1.609,0.459
				c-0.805,0.297-4.86,1.194-5.457,1.283c-0.549,0.08-0.667,0.002-0.801-0.17c-0.132-0.17,0.121-2.173,0.909-3.833
				c0.343-0.718,0.352-1.818-0.767-1.903c-0.461-0.033-0.852,0.098-1.026,0.49c-0.174,0.39-0.51,3.947-0.588,4.184
				c-0.08,0.233-0.504,0.417-0.598,0.822s-0.029,0.659-0.302,0.75c-0.276,0.093-1.032,0.167-1.344,0.241
				c-0.327,0.08-0.521,0.706-0.534,1.068c-0.011,0.362,0.572,0.146,0.854,0.105c0.322-0.046,1.108-0.44,0.549,0.234
				c-0.212,0.257-4.027,6.221-5.517,7.449c-1.714,1.411-1.592-1.363-1.549-1.836c0.259-2.83,1.497-4.728,1.675-5.179
				c0.175-0.453,0.249-1.793-1.213-1.498c-0.46,0.092-0.711,0.555-0.732,0.687c-0.004,0.019-0.004,0.03-0.004,0.03
				C80.796,10.88,78.258,16.823,80.172,18.635z M82.4,4.789c0.45,0.878,1.22,0.568,1.351,0.341c0.131-0.225,0.236-0.272,0.609-0.422
				c0.685-0.274-0.498-1.503-1.623-1.157c-0.235,0.074-0.258,0.366-0.258,0.366C82.51,4.175,82.247,4.496,82.4,4.789z
				 M68.604,11.689c0,0,0.738-0.637,1.051-0.62c0.145,0.007-0.108,0.409,0.399,0.657c0.269,0.133-0.295,1.928-1.41,3.65
				c-2.561,3.954-3.775,3.776-3.881,2.575C64.548,15.446,67.862,12.199,68.604,11.689z M69.904,14.931c0,0-0.01,0.852,0.057,1.58
				c0.061,0.654,0.283,2.022,0.514,2.465c0.356,0.682,1.113,0.682,1.696,0.348c0.763-0.438,0.402-1.258,0.112-1.531
				c-0.254-0.24-0.87-0.549-1.057-1.578c-0.11-0.609-0.02-3.355,0.161-4.315c0.117-0.624,0.518-1.941,0.833-2.564
				c0.304-0.599,2.135-4.032,2.161-5.184c0.011-0.503-0.507-0.92-1.354-0.833c-0.847,0.087-1.057,0.765-1.059,1.209
				c-0.002,0.442-0.898,3.553-0.944,3.695c-0.075,0.213-0.221,1.486-0.658,1.489c-1.026,0.006-1.868,0.276-2.691,0.901
				c-0.422,0.319-1.854,1.433-2.681,2.596c-0.375,0.526-2.081,2.718-1.888,5.335c0.176,2.38,1.841,1.958,2.319,1.882
				c2.173-0.349,3.7-3.923,3.922-4.361C69.737,15.287,69.605,15.497,69.904,14.931z M61.345,6.237
				c-0.16,0.196-0.12,0.816,0.227,1.137c0.261,0.242,0.298,0.287,0.306,0.482c0.015,0.361,0.245,0.38,0.6,0.375
				c0.434-0.006,0.789-0.307,0.833-0.919c0.044-0.613-0.549-1.137-1.027-1.255C61.806,5.939,61.551,5.981,61.345,6.237z"/>
		</g>
	</g>
</g>
</svg>
