<?xml version="1.0" encoding="utf-8"?>
<!-- Generator: Adobe Illustrator 15.0.0, SVG Export Plug-In . SVG Version: 6.00 Build 0)  -->
<!DOCTYPE svg PUBLIC "-//W3C//DTD SVG 1.1//EN" "http://www.w3.org/Graphics/SVG/1.1/DTD/svg11.dtd">
<svg version="1.1" id="Layer_1" xmlns="http://www.w3.org/2000/svg" xmlns:xlink="http://www.w3.org/1999/xlink" x="0px" y="0px"
	 width="163px" height="30px" viewBox="0 0 163 30" enable-background="new 0 0 163 30" xml:space="preserve">
<g>
	<path fill="#FFFFFF" d="M0,29.238V0.645h7.793c3.073,0,5.495,0.215,7.266,0.645c1.771,0.43,3.326,1.146,4.668,2.148
		c1.732,1.289,3.044,2.913,3.936,4.873C24.555,10.27,25,12.5,25,15c0,2.539-0.456,4.789-1.367,6.748
		c-0.912,1.959-2.246,3.578-4.004,4.854c-1.303,0.938-2.75,1.611-4.346,2.021c-1.595,0.41-3.929,0.615-7.002,0.615H6.113H0z
		 M6.113,24.082h3.398c3.203,0,5.537-0.729,7.002-2.188c1.465-1.459,2.197-3.771,2.197-6.935c0-3.151-0.732-5.459-2.197-6.924
		C15.048,6.571,12.715,5.84,9.512,5.84H6.113V24.082z"/>
	<path fill="#1DB5B6" d="M59.395,15c0,2.043-0.381,3.977-1.143,5.801c-0.762,1.822-1.859,3.424-3.291,4.805
		c-1.484,1.42-3.157,2.506-5.02,3.263C48.08,29.623,46.152,30,44.16,30c-1.745,0-3.453-0.297-5.127-0.889
		c-1.673-0.592-3.207-1.441-4.6-2.549c-1.797-1.435-3.174-3.146-4.131-5.138c-0.957-1.991-1.435-4.134-1.435-6.425
		c0-2.058,0.378-3.988,1.133-5.791c0.755-1.804,1.861-3.408,3.32-4.814c1.433-1.393,3.096-2.474,4.99-3.242S42.154,0,44.16,0
		c1.992,0,3.93,0.384,5.811,1.152c1.881,0.768,3.545,1.849,4.99,3.242c1.445,1.406,2.545,3.014,3.301,4.824
		C59.018,11.028,59.395,12.956,59.395,15z M44.16,24.551c2.591,0,4.729-0.908,6.416-2.725c1.686-1.816,2.529-4.092,2.529-6.826
		c0-2.708-0.854-4.987-2.559-6.836s-3.834-2.773-6.387-2.773c-2.592,0-4.74,0.921-6.445,2.764C36.01,9.997,35.156,12.279,35.156,15
		c0,2.76,0.84,5.043,2.52,6.846C39.356,23.648,41.518,24.551,44.16,24.551z"/>
	<path fill="#FFFFFF" d="M64.551,29.238V0.645h6.348l12.656,16.641c0.365,0.469,0.766,1.129,1.201,1.981s0.889,1.859,1.357,3.019
		c-0.143-0.849-0.248-1.687-0.312-2.521s-0.098-1.875-0.098-3.125V0.645h5.84v28.594h-5.996L72.539,12.285
		c-0.365-0.469-0.762-1.13-1.191-1.982c-0.43-0.853-0.885-1.872-1.367-3.057c0.143,0.82,0.248,1.65,0.312,2.49
		c0.064,0.84,0.098,1.898,0.098,3.174v16.328H64.551z"/>
	<path fill="#FFFFFF" d="M94.512,29.238l10.879-28.594h6.992l11.035,28.594h-6.953l-2.324-6.074h-11.074l-1.991,6.074H94.512z
		 M112.715,18.359l-3.203-9.238c-0.092-0.273-0.209-0.742-0.352-1.406s-0.293-1.478-0.449-2.441c-0.17,0.924-0.332,1.754-0.488,2.49
		c-0.156,0.736-0.272,1.227-0.352,1.475l-3.086,9.12H112.715L112.715,18.359z"/>
	<path fill="#FFFFFF" d="M134.922,5.84v23.398h-6.133V5.84h-6.992V0.645h20.117V5.84H134.922z"/>
	<path fill="#FFFFFF" d="M145.918,29.238V0.645h16.836v5.156h-10.723v5.879h10.723v5.196h-10.723v7.167h10.723v5.195H145.918z"/>
</g>
</svg>
