<?xml version="1.0" encoding="utf-8"?>
<!-- Generator: Adobe Illustrator 15.0.0, SVG Export Plug-In . SVG Version: 6.00 Build 0)  -->
<!DOCTYPE svg PUBLIC "-//W3C//DTD SVG 1.1//EN" "http://www.w3.org/Graphics/SVG/1.1/DTD/svg11.dtd">
<svg version="1.1" id="Layer_1" xmlns="http://www.w3.org/2000/svg" xmlns:xlink="http://www.w3.org/1999/xlink" x="0px" y="0px"
	 width="100px" height="31px" viewBox="0 0 100 31" enable-background="new 0 0 100 31" xml:space="preserve">
<rect fill="#FFFFFF" width="100" height="17"/>
<rect y="17" fill="#4F4F4F" width="100" height="14"/>
<g>
	<path fill="#FFFFFF" d="M6.173,21.072h3.348v0.752H7.018v1.801h2.418v0.757H7.018v1.835h2.583v0.752H6.173V21.072z"/>
	<path fill="#FFFFFF" d="M10.64,26.97v-5.897h1.991c0.803,0,1.439,0.12,1.907,0.361c0.468,0.241,0.84,0.595,1.116,1.063
		c0.276,0.468,0.414,0.978,0.414,1.53c0,0.395-0.076,0.772-0.228,1.133c-0.152,0.361-0.369,0.678-0.651,0.951
		c-0.287,0.282-0.621,0.495-1.002,0.638c-0.223,0.087-0.427,0.146-0.613,0.176c-0.186,0.029-0.541,0.044-1.065,0.044H10.64z
		 M12.543,21.825h-1.057v4.393h1.082c0.423,0,0.751-0.029,0.985-0.087s0.429-0.131,0.585-0.22c0.156-0.089,0.299-0.198,0.429-0.328
		c0.417-0.423,0.625-0.957,0.625-1.603c0-0.634-0.214-1.151-0.643-1.551c-0.158-0.149-0.339-0.272-0.543-0.368
		c-0.205-0.096-0.398-0.159-0.582-0.19S12.949,21.825,12.543,21.825z"/>
	<path fill="#FFFFFF" d="M21.364,21.072h0.85v3.352c0,0.454-0.033,0.796-0.099,1.027c-0.066,0.231-0.148,0.424-0.245,0.577
		c-0.097,0.154-0.216,0.291-0.357,0.412c-0.468,0.403-1.08,0.605-1.835,0.605c-0.77,0-1.387-0.2-1.852-0.601
		c-0.141-0.124-0.26-0.263-0.357-0.417c-0.098-0.153-0.178-0.342-0.241-0.564c-0.063-0.222-0.095-0.572-0.095-1.048v-3.344h0.85
		v3.352c0,0.556,0.063,0.941,0.19,1.159c0.127,0.217,0.32,0.391,0.579,0.522s0.565,0.197,0.917,0.197
		c0.502,0,0.91-0.131,1.226-0.394c0.166-0.141,0.286-0.307,0.359-0.499c0.073-0.192,0.11-0.52,0.11-0.985V21.072z"/>
	<path fill="#FFFFFF" d="M28.605,25.608v0.93c-0.62,0.338-1.336,0.508-2.147,0.508c-0.66,0-1.219-0.132-1.679-0.397
		c-0.459-0.265-0.823-0.63-1.09-1.095c-0.268-0.465-0.402-0.968-0.402-1.509c0-0.859,0.307-1.583,0.919-2.168
		c0.613-0.586,1.369-0.879,2.268-0.879c0.62,0,1.309,0.162,2.067,0.486v0.909c-0.69-0.395-1.365-0.592-2.025-0.592
		c-0.677,0-1.238,0.213-1.685,0.641c-0.447,0.427-0.67,0.961-0.67,1.604c0,0.648,0.22,1.181,0.66,1.598s1.002,0.626,1.687,0.626
		C27.224,26.268,27.923,26.048,28.605,25.608z"/>
	<path fill="#FFFFFF" d="M31.876,21.039h0.594l2.648,5.939h-0.865l-0.788-1.75h-2.52l-0.738,1.75h-0.869L31.876,21.039z
		 M33.119,24.475l-0.953-2.139l-0.884,2.139H33.119z"/>
	<path fill="#FFFFFF" d="M34.525,21.063h4.934v0.753H37.4v5.162h-0.85v-5.162h-2.025V21.063z"/>
	<path fill="#FFFFFF" d="M40.396,21.072h0.845v5.906h-0.845V21.072z"/>
	<path fill="#FFFFFF" d="M45.58,20.987c0.913,0,1.672,0.289,2.279,0.867c0.606,0.578,0.91,1.302,0.91,2.173
		c0,0.871-0.306,1.592-0.918,2.162c-0.613,0.571-1.385,0.856-2.317,0.856c-0.89,0-1.631-0.286-2.225-0.856
		c-0.593-0.57-0.889-1.286-0.889-2.146c0-0.882,0.298-1.612,0.896-2.19S44.668,20.987,45.58,20.987z M45.614,21.791
		c-0.676,0-1.231,0.211-1.667,0.634c-0.435,0.423-0.652,0.963-0.652,1.619c0,0.637,0.218,1.167,0.655,1.59
		c0.437,0.422,0.983,0.634,1.639,0.634c0.659,0,1.208-0.216,1.65-0.647c0.44-0.431,0.661-0.968,0.661-1.611
		c0-0.625-0.221-1.152-0.661-1.579C46.797,22.004,46.256,21.791,45.614,21.791z"/>
	<path fill="#FFFFFF" d="M54.632,21.072h0.803v5.906h-0.727L50.76,22.43v4.548h-0.795v-5.906h0.685l3.982,4.587V21.072z"/>
	<path fill="#FFFFFF" d="M58.715,21.039h0.594l2.648,5.939h-0.865l-0.787-1.75h-2.52l-0.738,1.75h-0.869L58.715,21.039z
		 M59.958,24.475l-0.953-2.139l-0.883,2.139H59.958z"/>
	<path fill="#FFFFFF" d="M62.734,21.072h0.845v5.136h2.659v0.77h-3.504V21.072z"/>
	<path fill="#FFFFFF" d="M68.059,21.063h4.934v0.753h-2.059v5.162h-0.85v-5.162h-2.025V21.063z"/>
	<path fill="#FFFFFF" d="M73.946,26.978v-5.906h1.479c0.598,0,1.072,0.148,1.423,0.444c0.351,0.296,0.526,0.696,0.526,1.201
		c0,0.344-0.086,0.641-0.258,0.892c-0.172,0.251-0.418,0.438-0.74,0.562c0.189,0.124,0.374,0.293,0.554,0.507
		c0.18,0.214,0.434,0.587,0.761,1.121c0.206,0.335,0.371,0.587,0.495,0.756l0.312,0.423h-1.006l-0.258-0.389
		c-0.009-0.014-0.025-0.038-0.05-0.072l-0.165-0.233l-0.262-0.431l-0.282-0.461c-0.175-0.243-0.335-0.436-0.48-0.579
		c-0.145-0.144-0.277-0.247-0.394-0.31c-0.117-0.063-0.313-0.095-0.59-0.095h-0.22v2.57H73.946z M75.045,21.791h-0.254v1.864h0.322
		c0.428,0,0.722-0.037,0.881-0.11c0.159-0.073,0.283-0.184,0.372-0.332s0.133-0.316,0.133-0.505c0-0.186-0.05-0.354-0.148-0.505
		c-0.099-0.151-0.237-0.257-0.416-0.319C75.756,21.822,75.46,21.791,75.045,21.791z"/>
	<path fill="#FFFFFF" d="M83.131,21.072h0.85v3.352c0,0.454-0.034,0.796-0.1,1.027c-0.066,0.231-0.148,0.424-0.246,0.577
		c-0.097,0.154-0.216,0.291-0.357,0.412c-0.468,0.403-1.08,0.605-1.834,0.605c-0.77,0-1.387-0.2-1.852-0.601
		c-0.141-0.124-0.26-0.263-0.357-0.417c-0.097-0.153-0.178-0.342-0.241-0.564c-0.063-0.222-0.095-0.572-0.095-1.048v-3.344h0.85
		v3.352c0,0.556,0.063,0.941,0.19,1.159c0.127,0.217,0.32,0.391,0.58,0.522c0.259,0.131,0.565,0.197,0.917,0.197
		c0.501,0,0.911-0.131,1.226-0.394c0.167-0.141,0.286-0.307,0.359-0.499c0.073-0.192,0.11-0.52,0.11-0.985V21.072z"/>
	<path fill="#FFFFFF" d="M86.745,24.503l-0.643-0.39c-0.403-0.246-0.69-0.488-0.86-0.727s-0.256-0.512-0.256-0.822
		c0-0.465,0.162-0.843,0.484-1.133c0.323-0.291,0.742-0.436,1.258-0.436c0.493,0,0.945,0.138,1.357,0.416v0.96
		c-0.426-0.41-0.884-0.615-1.374-0.615c-0.276,0-0.503,0.064-0.681,0.192s-0.266,0.291-0.266,0.49c0,0.177,0.065,0.343,0.196,0.497
		c0.131,0.155,0.342,0.317,0.631,0.487l0.646,0.382c0.721,0.43,1.081,0.978,1.081,1.643c0,0.474-0.158,0.858-0.476,1.154
		c-0.317,0.296-0.729,0.444-1.237,0.444c-0.583,0-1.114-0.179-1.593-0.539v-1.074c0.457,0.579,0.985,0.868,1.585,0.868
		c0.265,0,0.486-0.074,0.662-0.221c0.176-0.147,0.264-0.332,0.264-0.554C87.523,25.167,87.264,24.826,86.745,24.503z"/>
	<path fill="#FFFFFF" d="M88.875,21.063h4.934v0.753H91.75v5.162h-0.85v-5.162h-2.025V21.063z"/>
</g>
<g>
	<path fill="#4F4F4F" d="M9.283,13.393h-3.11V4.206H8.58c0.759,0,1.351,0.102,1.776,0.306c0.425,0.204,0.75,0.484,0.973,0.842
		s0.335,0.771,0.335,1.24c0,0.903-0.467,1.55-1.401,1.94c0.671,0.127,1.205,0.403,1.601,0.829c0.397,0.425,0.595,0.934,0.595,1.526
		c0,0.469-0.121,0.888-0.361,1.256c-0.241,0.368-0.595,0.668-1.062,0.901C10.569,13.276,9.985,13.393,9.283,13.393z M8.619,5.376
		H7.488v2.762h0.875c0.701,0,1.2-0.134,1.496-0.401c0.296-0.267,0.444-0.614,0.444-1.039C10.303,5.817,9.741,5.376,8.619,5.376z
		 M8.718,9.309h-1.23v2.914h1.296c0.719,0,1.207-0.056,1.463-0.168c0.257-0.112,0.463-0.286,0.618-0.522
		c0.156-0.237,0.234-0.491,0.234-0.763c0-0.28-0.083-0.537-0.247-0.77c-0.164-0.232-0.397-0.405-0.7-0.52
		C9.849,9.366,9.371,9.309,8.718,9.309z"/>
	<path fill="#4F4F4F" d="M13.97,4.206h1.315v9.187H13.97V4.206z"/>
	<path fill="#4F4F4F" d="M19.802,9.543l-1-0.607c-0.627-0.383-1.073-0.759-1.338-1.13s-0.398-0.797-0.398-1.279
		c0-0.723,0.251-1.311,0.753-1.762s1.154-0.677,1.957-0.677c0.767,0,1.471,0.215,2.111,0.646v1.493
		c-0.662-0.637-1.375-0.955-2.137-0.955c-0.43,0-0.783,0.1-1.059,0.298c-0.276,0.199-0.415,0.453-0.415,0.763
		c0,0.275,0.102,0.533,0.305,0.773s0.531,0.493,0.982,0.757l1.004,0.594c1.12,0.669,1.681,1.521,1.681,2.556
		c0,0.737-0.247,1.335-0.74,1.795c-0.493,0.46-1.135,0.69-1.923,0.69c-0.908,0-1.734-0.279-2.479-0.836v-1.67
		c0.71,0.9,1.532,1.35,2.466,1.35c0.412,0,0.755-0.114,1.029-0.344c0.274-0.229,0.411-0.517,0.411-0.861
		C21.012,10.576,20.608,10.045,19.802,9.543z"/>
	<path fill="#4F4F4F" d="M30.374,4.206h1.315v9.187h-1.315V9.394h-5.162v3.999h-1.315V4.206h1.315v3.972h5.162V4.206z"/>
	<path fill="#4F4F4F" d="M38.425,4.074c1.419,0,2.602,0.449,3.545,1.348c0.944,0.898,1.417,2.025,1.417,3.38
		c0,1.355-0.477,2.476-1.43,3.364c-0.953,0.888-2.154,1.332-3.604,1.332c-1.384,0-2.538-0.444-3.46-1.332s-1.383-2-1.383-3.337
		c0-1.372,0.464-2.508,1.393-3.406C35.831,4.523,37.005,4.074,38.425,4.074z M38.478,5.324c-1.051,0-1.915,0.329-2.592,0.986
		s-1.015,1.497-1.015,2.519c0,0.991,0.339,1.815,1.019,2.473c0.678,0.658,1.528,0.986,2.549,0.986c1.025,0,1.88-0.335,2.565-1.006
		c0.686-0.671,1.028-1.506,1.028-2.506c0-0.973-0.343-1.792-1.028-2.456S39.476,5.324,38.478,5.324z"/>
	<path fill="#4F4F4F" d="M45.134,13.393v-9.2h2.913c0.877,0,1.577,0.237,2.098,0.71c0.521,0.473,0.783,1.109,0.783,1.907
		c0,0.535-0.134,1.009-0.401,1.421s-0.633,0.711-1.098,0.897s-1.131,0.279-1.999,0.279h-0.974v3.985H45.134z M47.817,5.363h-1.361
		v2.874h1.44c0.535,0,0.947-0.126,1.236-0.378c0.289-0.252,0.434-0.613,0.434-1.082C49.566,5.834,48.983,5.363,47.817,5.363z"/>
	<path fill="#4F4F4F" d="M54.549,9.543l-1-0.607c-0.627-0.383-1.073-0.759-1.338-1.13c-0.265-0.371-0.397-0.797-0.397-1.279
		c0-0.723,0.251-1.311,0.752-1.762c0.502-0.452,1.154-0.677,1.957-0.677c0.768,0,1.471,0.215,2.111,0.646v1.493
		c-0.662-0.637-1.375-0.955-2.138-0.955c-0.43,0-0.782,0.1-1.059,0.298c-0.276,0.199-0.414,0.453-0.414,0.763
		c0,0.275,0.102,0.533,0.305,0.773c0.203,0.24,0.53,0.493,0.981,0.757l1.004,0.594c1.121,0.669,1.681,1.521,1.681,2.556
		c0,0.737-0.247,1.335-0.74,1.795c-0.493,0.46-1.134,0.69-1.923,0.69c-0.908,0-1.734-0.279-2.479-0.836v-1.67
		c0.71,0.9,1.532,1.35,2.466,1.35c0.412,0,0.755-0.114,1.029-0.344c0.274-0.229,0.411-0.517,0.411-0.861
		C55.759,10.576,55.356,10.045,54.549,9.543z"/>
	<path fill="#4F4F4F" d="M58.645,4.206h1.315v7.99h4.136v1.197h-5.451V4.206z"/>
	<path fill="#4F4F4F" d="M68.382,4.153h0.924l4.12,9.24H72.08l-1.225-2.723h-3.919l-1.148,2.723h-1.352L68.382,4.153z M70.314,9.5
		l-1.482-3.328L67.458,9.5H70.314z"/>
	<path fill="#4F4F4F" d="M81.934,4.206h1.25v9.187h-1.131L75.91,6.317v7.075h-1.237V4.206h1.065l6.195,7.135V4.206z"/>
	<path fill="#4F4F4F" d="M85.364,13.379V4.206h3.097c1.25,0,2.238,0.188,2.966,0.562c0.728,0.375,1.307,0.926,1.736,1.654
		c0.43,0.728,0.645,1.521,0.645,2.38c0,0.614-0.118,1.201-0.355,1.763c-0.237,0.561-0.575,1.054-1.013,1.479
		c-0.447,0.438-0.967,0.77-1.559,0.993c-0.346,0.136-0.664,0.227-0.953,0.273c-0.29,0.046-0.842,0.069-1.657,0.069H85.364z
		 M88.323,5.376H86.68v6.833h1.683c0.658,0,1.168-0.045,1.533-0.135c0.364-0.09,0.667-0.204,0.911-0.342s0.466-0.308,0.667-0.51
		c0.649-0.657,0.973-1.488,0.973-2.492c0-0.986-0.333-1.791-1-2.414c-0.246-0.232-0.527-0.423-0.845-0.572
		c-0.318-0.149-0.619-0.248-0.904-0.296C89.413,5.4,88.955,5.376,88.323,5.376z"/>
</g>
</svg>
