<?xml version="1.0" encoding="utf-8"?>
<!-- Generator: Adobe Illustrator 20.1.0, SVG Export Plug-In . SVG Version: 6.00 Build 0)  -->
<svg version="1.1" id="Layer_1" xmlns="http://www.w3.org/2000/svg" xmlns:xlink="http://www.w3.org/1999/xlink" x="0px" y="0px"
	 viewBox="0 0 163 30" style="enable-background:new 0 0 163 30;" xml:space="preserve">
<style type="text/css">
	.st0{fill:#FFFFFF;}
</style>
<g>
	<path class="st0" d="M0,29.2V0.6h7.8c3.1,0,5.5,0.2,7.3,0.6s3.3,1.1,4.7,2.1c1.7,1.3,3,2.9,3.9,4.9c0.9,2,1.3,4.2,1.3,6.7
		c0,2.5-0.5,4.8-1.4,6.7c-0.9,2-2.2,3.6-4,4.9c-1.3,0.9-2.8,1.6-4.3,2c-1.6,0.4-3.9,0.6-7,0.6H6.1H0z M6.1,24.1h3.4
		c3.2,0,5.5-0.7,7-2.2s2.2-3.8,2.2-6.9c0-3.2-0.7-5.5-2.2-6.9c-1.5-1.5-3.8-2.2-7-2.2H6.1V24.1z"/>
	<path class="st0" d="M59.4,15c0,2-0.4,4-1.1,5.8c-0.8,1.8-1.9,3.4-3.3,4.8c-1.5,1.4-3.2,2.5-5,3.3c-1.9,0.8-3.8,1.1-5.8,1.1
		c-1.7,0-3.5-0.3-5.1-0.9c-1.7-0.6-3.2-1.4-4.6-2.5c-1.8-1.4-3.2-3.1-4.1-5.1c-1-2-1.4-4.1-1.4-6.4c0-2.1,0.4-4,1.1-5.8
		c0.8-1.8,1.9-3.4,3.3-4.8c1.4-1.4,3.1-2.5,5-3.2S42.2,0,44.2,0c2,0,3.9,0.4,5.8,1.2s3.5,1.8,5,3.2c1.4,1.4,2.5,3,3.3,4.8
		C59,11,59.4,13,59.4,15z M44.2,24.6c2.6,0,4.7-0.9,6.4-2.7c1.7-1.8,2.5-4.1,2.5-6.8c0-2.7-0.9-5-2.6-6.8s-3.8-2.8-6.4-2.8
		c-2.6,0-4.7,0.9-6.4,2.8C36,10,35.2,12.3,35.2,15c0,2.8,0.8,5,2.5,6.8C39.4,23.6,41.5,24.6,44.2,24.6z"/>
	<path class="st0" d="M64.6,29.2V0.6h6.3l12.7,16.6c0.4,0.5,0.8,1.1,1.2,2s0.9,1.9,1.4,3c-0.1-0.8-0.2-1.7-0.3-2.5s-0.1-1.9-0.1-3.1
		v-16h5.8v28.6h-6l-13-17c-0.4-0.5-0.8-1.1-1.2-2c-0.4-0.9-0.9-1.9-1.4-3.1c0.1,0.8,0.2,1.6,0.3,2.5c0.1,0.8,0.1,1.9,0.1,3.2v16.3
		C70.4,29.2,64.6,29.2,64.6,29.2z"/>
	<path class="st0" d="M94.5,29.2l10.9-28.6h7l11,28.6h-7l-2.3-6.1h-11.1l-2,6.1H94.5z M112.7,18.4l-3.2-9.2
		c-0.1-0.3-0.2-0.7-0.4-1.4s-0.3-1.5-0.4-2.4c-0.2,0.9-0.3,1.8-0.5,2.5S108,9,107.9,9.2l-3.1,9.1H112.7L112.7,18.4z"/>
	<path class="st0" d="M134.9,5.8v23.4h-6.1V5.8h-7V0.6h20.1v5.2H134.9z"/>
	<path class="st0" d="M145.9,29.2V0.6h16.8v5.2H152v5.9h10.7v5.2H152V24h10.7v5.2C162.8,29.2,145.9,29.2,145.9,29.2z"/>
</g>
</svg>
