<?xml version="1.0" encoding="utf-8"?>
<!-- Generator: Adobe Illustrator 19.2.1, SVG Export Plug-In . SVG Version: 6.00 Build 0)  -->
<svg version="1.1" id="Layer_1" xmlns="http://www.w3.org/2000/svg" xmlns:xlink="http://www.w3.org/1999/xlink" x="0px" y="0px"
	 viewBox="0 0 50 50" style="enable-background:new 0 0 50 50;" xml:space="preserve">
<style type="text/css">
	.st0{fill:#1AB4B5;}
	.st1{display:none;}
	.st2{display:inline;fill:#FFFFFF;}
	.st3{fill:#262626;}
</style>
<polygon class="st0" points="0,0 0,50 50,0 "/>
<g class="st1">
	<path class="st2" d="M9.7,32.2l-0.9,0.9l-4.4-4.4l2.5-2.5L7.7,27l-1.6,1.6l1.1,1.1l1.5-1.5L9.5,29L8,30.5L9.7,32.2z"/>
	<path class="st2" d="M11.4,21.7l2.9,2.9c0.3,0.3,0.5,0.7,0.6,1.1s0.1,0.8-0.1,1.2c-0.1,0.4-0.4,0.8-0.8,1.2
		c-0.6,0.6-1.2,0.9-1.8,0.9s-1.2-0.2-1.7-0.7l-2.8-2.8l0.9-0.9l2.7,2.7c0.3,0.3,0.7,0.5,1,0.5s0.6-0.1,0.9-0.4
		c0.3-0.3,0.4-0.6,0.4-0.9s-0.2-0.6-0.5-1l-2.7-2.7L11.4,21.7z"/>
	<path class="st2" d="M20.8,21.1l-1.2,1.2l-5.3-1.4l0,0c0.6,0.6,1.1,1,1.3,1.2l2.1,2.1L16.9,25l-4.4-4.4l1.2-1.2l5.2,1.4l0,0
		c-0.6-0.5-1-0.9-1.3-1.2l-2.1-2.1l0.8-0.8L20.8,21.1z"/>
	<path class="st2" d="M23.3,14.1c0.7,0.7,1.1,1.5,1,2.3c0,0.8-0.4,1.6-1.2,2.4L21.9,20l-4.4-4.4l1.4-1.4c0.7-0.7,1.5-1.1,2.2-1.1
		S22.6,13.4,23.3,14.1z M22.3,15.1c-0.9-0.9-1.8-1-2.7-0.2l-0.5,0.5l2.9,2.9l0.4-0.4C23.3,17,23.3,16.1,22.3,15.1z"/>
	<path class="st2" d="M29,12.9l-2.5,2.5L22,11l2.5-2.5l0.8,0.8l-1.6,1.6l1,1l1.5-1.5l0.8,0.8l-1.5,1.5l1.1,1.1l1.6-1.6L29,12.9z"/>
	<path class="st2" d="M31.3,6.1c0.7,0.7,1.1,1.5,1,2.3s-0.4,1.6-1.2,2.4L29.9,12l-4.4-4.4l1.4-1.4c0.7-0.7,1.5-1.1,2.2-1.1
		S30.6,5.4,31.3,6.1z M30.4,7.1c-0.9-0.9-1.8-1-2.7-0.2l-0.5,0.5l2.9,2.9l0.4-0.4C31.4,9,31.3,8,30.4,7.1z"/>
</g>
<g>
	<g>
		<path class="st3" d="M7.1,28.9c0.5,0.5,0.7,1,0.6,1.5c0,0.5-0.3,1.1-0.9,1.6l-0.4,0.4L8,33.9l-0.9,0.9l-4.3-4.3l1.4-1.4
			c0.5-0.5,1-0.8,1.5-0.8C6.2,28.3,6.6,28.5,7.1,28.9z M5.7,31.7L6,31.4c0.3-0.3,0.4-0.5,0.5-0.8c0-0.3-0.1-0.5-0.3-0.7
			c-0.2-0.2-0.4-0.3-0.6-0.3c-0.2,0-0.5,0.1-0.7,0.4l-0.4,0.4L5.7,31.7z"/>
		<path class="st3" d="M10.1,28.5l1.6,1.6l-0.9,0.9l-4.3-4.3l1.2-1.2c0.6-0.6,1.1-0.9,1.6-1s1,0.1,1.4,0.5c0.3,0.3,0.4,0.5,0.5,0.9
			c0.1,0.3,0,0.7-0.1,1.1c1.6,0.3,2.7,0.5,3.1,0.6l-1,1L10.6,28L10.1,28.5z M9.4,27.8l0.3-0.3c0.3-0.3,0.5-0.5,0.5-0.8
			s0-0.5-0.2-0.7c-0.2-0.2-0.4-0.3-0.6-0.2c-0.2,0.1-0.5,0.2-0.8,0.5l-0.3,0.3L9.4,27.8z"/>
		<path class="st3" d="M16.6,21.1c0.7,0.7,1.1,1.4,1.1,2.2c0,0.7-0.3,1.4-0.9,2.1c-0.7,0.7-1.4,1-2.1,0.9s-1.5-0.4-2.2-1.1
			c-0.7-0.7-1.1-1.4-1.1-2.2c0-0.7,0.3-1.4,1-2.1c0.7-0.7,1.4-1,2.1-0.9C15.1,20,15.8,20.4,16.6,21.1z M13.4,24.2
			c0.5,0.5,0.9,0.7,1.4,0.8c0.4,0.1,0.8-0.1,1.2-0.5c0.7-0.7,0.6-1.6-0.4-2.5c-1-1-1.8-1.1-2.5-0.4c-0.4,0.4-0.5,0.8-0.5,1.2
			C12.7,23.3,12.9,23.7,13.4,24.2z"/>
		<path class="st3" d="M21,16.6c0.7,0.7,1,1.4,1,2.2c0,0.8-0.4,1.5-1.2,2.3l-1.2,1.2L15.3,18l1.3-1.3c0.7-0.7,1.4-1.1,2.2-1.1
			C19.6,15.6,20.3,15.9,21,16.6z M20,17.6c-0.9-0.9-1.8-1-2.6-0.2L17,17.9l2.8,2.8l0.4-0.4C21,19.4,21,18.5,20,17.6z"/>
		<path class="st3" d="M23.2,10.1l2.8,2.8c0.3,0.3,0.5,0.7,0.6,1c0.1,0.4,0.1,0.8-0.1,1.2c-0.1,0.4-0.4,0.8-0.8,1.1
			c-0.6,0.6-1.1,0.8-1.7,0.9c-0.6,0-1.1-0.2-1.6-0.7l-2.8-2.8l0.9-0.9l2.6,2.6c0.3,0.3,0.6,0.5,0.9,0.5c0.3,0,0.6-0.1,0.9-0.4
			c0.3-0.3,0.4-0.6,0.4-0.9c0-0.3-0.2-0.6-0.5-0.9L22.3,11L23.2,10.1z"/>
		<path class="st3" d="M26.8,7.9c-0.3,0.3-0.5,0.7-0.4,1.2c0.1,0.4,0.3,0.9,0.8,1.4c1,1,1.8,1.1,2.5,0.4c0.3-0.3,0.6-0.7,0.9-1.3
			l0.8,0.8c-0.2,0.5-0.5,1-1,1.4c-0.6,0.6-1.3,0.9-2,0.9s-1.4-0.4-2.1-1.1c-0.4-0.4-0.8-0.9-0.9-1.4c-0.2-0.5-0.2-1-0.1-1.5
			c0.1-0.5,0.4-0.9,0.8-1.3c0.4-0.4,0.9-0.7,1.6-1l0.4,1c-0.2,0.1-0.5,0.2-0.7,0.3C27.2,7.6,27,7.8,26.8,7.9z"/>
		<path class="st3" d="M34.1,7.9l-0.9,0.9l-3.5-3.5l-1.2,1.2l-0.8-0.8l3.2-3.2l0.8,0.8l-1.2,1.2L34.1,7.9z"/>
	</g>
</g>
</svg>
