<?xml version="1.0" encoding="utf-8"?>
<!-- Generator: Adobe Illustrator 20.1.0, SVG Export Plug-In . SVG Version: 6.00 Build 0)  -->
<svg version="1.1" id="Layer_1" xmlns="http://www.w3.org/2000/svg" xmlns:xlink="http://www.w3.org/1999/xlink" x="0px" y="0px"
	 viewBox="0 0 40 40" style="enable-background:new 0 0 40 40;" xml:space="preserve">
<style type="text/css">
	.st0{fill:#CCCCCC;}
</style>
<path class="st0" d="M0.9,39.1c1.3,1.3,3.3,1.3,4.6,0l9.6-9.6c2.5,1.7,5.6,2.7,8.9,2.7C32.8,32.2,40,25,40,16.1
	C40,7.2,32.8,0,23.9,0S7.8,7.2,7.8,16.1c0,3.3,1,6.3,2.7,8.9l-9.6,9.6C-0.3,35.8-0.3,37.8,0.9,39.1z M13.5,16.1
	c0-5.8,4.7-10.5,10.5-10.5s10.5,4.7,10.5,10.5c0,5.8-4.7,10.5-10.5,10.5S13.5,21.8,13.5,16.1z"/>
</svg>
