<svg style="position: absolute; width: 0; height: 0;" width="0" height="0" version="1.1" xmlns="http://www.w3.org/2000/svg" xmlns:xlink="http://www.w3.org/1999/xlink">
<defs>
<symbol id="icon-giftaid" viewBox="0 0 2926 1024">
	<title>giftaid</title>
	<path class="path1" d="M1478.246 490.789c80.837-126.596 40.287-146.052 36.162-143.711-78.643 44.295-138.503 177.62-133.471 222.032 6.934 61.118 54.389-11.118 97.309-78.321zM1784.422 374.608c-15.243 25.688-23.874 56.437-27.824 84.553-2.077 14.833-4.506 79.345-3.95 88.123 0 0.878 2.048 30.193 5.442 42.394 1.902 6.992 13.897 32.124-24.547 37.391-22.616 3.101-22.177-53.511-22.616-62.786-0.848-19.749 2.399-89.117 4.476-99.416 2.224-10.533-2.194 0.614-6.349 7.519-9.596 16.062-20.714 37.742-34.114 59.129-17.525 28.087-56.7 95.056-110.065 91.048-19.983-1.521-40.287-4.096-51.873-59.743-4.476-21.328-2.75-49.357-2.282-66.209-0.556-3.452-0.059-7.431-2.984-5.822-18.9 44.12-80.311 174.109-149.68 144.881-32.124-13.458-47.952-54.945-12.493-135.958 34.553-78.936 121.71-176.83 156.438-183.442 30.954-5.881 34.172 9.713 34.172 9.713 2.809-5.764 22.089-5.091 26.302 3.16 5.647 11.030 9.421 12.961 5.647 42.043-2.136 16.794-17.73 121.827-15.038 157.901 1.258 16.94 4.155 58.573 21.328 60.592 30.018 3.599 66.414-60.27 70.539-66.94 8.075-13.049 72.88-121.651 80.837-137.509 8.572-17.086 14.014-29.579 19.544-40.463 5.5-10.884 22.206-12.112 36.747-2.194 14.658 9.947 7.314 23.611 2.341 32.037zM413.608 427.827c-38.093 4.096-107.52 96.168-121.856 128.848-14.629 33.382-19.895 65.595-2.545 78.994 35.928 27.911 73.084-19.368 84.027-30.398 6.758-6.758 54.038-58.309 65.887-110.68 7.87-34.553 11.498-70.744-25.512-66.765zM433.445 836.462c-2.604 4.71-5.325 9.362-8.104 13.985-28.028 46.577-64.863 88.152-110.504 118.14-61.791 40.55-119.867 56.144-184.759 55.384-37.712-0.439-74.079-6.554-105.121-26.273-25.424-16.179-29.052-41.457-21.328-58.163 10.708-23.259 44.12-20.977 58.339-7.665 35.489 33.295 56.7 46.197 102.341 44.003 35.899-1.785 75.922-13.312 107.052-31.481 188.826-110.27 187.070-308.458 194.736-427.886 0.79-7.285-3.131-1.989-4.476 1.96-6.788 20.1-18.139 45.232-33.704 73.465-13.488 24.459-39.175 60.27-79.901 87.157-23.903 15.799-62.757 23.435-90.083 5.617-9.918-6.495-67.877-40.433-18.754-141.517 30.896-63.605 95.905-107.725 110.592-117.087 35.869-22.908 61.499-33.792 88.357-31.715 13.692 1.024 15.682 6.378 25.834 6.115 5.822-6.817 9.011-11.791 18.52-14.424 12.785-2.048 27.97 8.66 33.821 28.994 5.822 20.304-9.362 52.926-13.224 68.608 0-0.059 13.488 203.425-69.632 352.783zM648.543 378.002c-23.113 0.439-21.241 17.145-26.068 31.744-4.71 14.57-44.588 145.613-49.649 169.077-5.091 23.464-8.543 44.588-1.229 76.829 7.431 32.944 45.202 23.318 49.24 17.554 18.432-25.834 2.107-33.47 1.521-51.522-0.497-18.871 4.681-38.649 8.572-64.19 1.375-9.099 4.184-50.527 5.53-56.115 1.551-6.085 14.57-52.195 33.353-80.194 8.016-12.054 15.097-43.798-21.27-43.184zM711.534 224.783c-3.16-6.495-20.363-26.975-42.862-11.059-33.441 23.669 5.091 56.379 11.323 72.441 6.173 15.974 39.585 29.462 34.728-2.165-0.731-4.593 5.998-40.375-3.189-59.216zM1080.583 379.114c-10.913 2.428-32.622 6.788-46.256 9.099-20.685 3.452-31.949 16.501-31.159 29.637 0.79 13.253 5.296 19.485 23.757 15.974 16.677-3.131 30.925-17.349 45.553-17.408 0 0-30.164 127.122-32.154 144.179-1.96 17.028-10.884 63.634 7.431 90.112 40.784 58.836 122.295-8.631 129.902-15.945 5.588-5.471 57.11-50.586 74.576-86.835 8.836-18.373-6.232-22.44-16.443-26.185-10.181-3.745-31.715 2.721-34.728 16.179-6.554 29.199-77.883 107.959-113.196 92.16-41.604-18.637 33.47-227.533 33.47-227.533 8.953-4.008 54.272-15.711 97.163-26.741 49.503-12.698 200.821-42.569 166.649-87.742-16.706-22.118-59.889 11.557-74.518 18.608-52.458 25.132-180.838 62.054-180.838 62.054s16.647-75.074 22.060-89.907c6.203-16.911 29.052-27.999 32.388-58.134 3.92-35.050-38.327-51.024-58.485-12.639-4.184 7.87-9.918 29.608-10.474 30.135-5.413 5.208-52.019 23.815-97.865 45.7-14.453 6.875-96.519 36.718-96.666 36.513 0.117-0.614 24.927-79.258 53.658-144.881 19.134-43.622 46.080-104.331 93.798-116.677 44.705-11.527 23.611 35.050 43.739 47.133 25.512 15.331 41.165-4.008 45.085-22.499 3.043-14.512 2.253-90.551-75.074-82.915-73.552 7.256-132.184 119.515-204.654 329.377-0.79 0.848-58.368 38.034-106.086 47.572-23.611 4.74-34.026 6.758-37.157 15.214-8.104 21.738 5.968 37.537 8.689 39.76 13.605 16.238 119.896-54.126 119.749-53.628-2.165 2.867-89.351 335.111-90.053 338.973-5.003 27.677-33.119 100.615-31.627 133.734 0.848 17.028 7.519 52.487 32.066 50.907 51.346 3.365 41.457-68.813 38.005-82.037-7.197-27.385 29.725-208.311 62.815-341.694 6.758-27.209 20.626-71.826 23.025-82.417 4.037-18.052 14.599-30.018 26.975-35.723 0 0 184.671-87.040 186.368-86.543 0 0.176-29.491 105.062-29.491 105.062zM2345.604 545.207c35.723 33.792 71.3 12.347 89.615-2.428 56.115-45.115 171.856-250.851 171.856-250.851 0.644 6.875-48.216 242.805 17.115 268.961 41.896 16.735 139.44-66.443 150.587-74.167 64.395-44.442 24.956-60.679 12.522-60.738-33.207-0.088-27.238 23.962-36.308 34.757-14.98 17.847-75.191 79.784-104.682 63.342-15.857-8.894-11.966-61.294-10.357-73.377 9.275-124.869 11.761-147.427 19.017-176.157 4.096-15.974 23.552-15.536 35.43-17.73 160.797-29.696 189.645-17.701 209.686-27.472 15.916-7.841 18.754-41.516-3.803-48.772-10.328-3.248-23.406 4.623-47.075 13.429-23.552 8.689-142.19 34.933-159.656 37.537-16.062 2.341-19.515 0.059-23.435-4.974-3.862-4.974 3.54-63.576 26.595-112.143 10.035-21.007 10.299-53.189-22.44-55.676-13.488-0.965-24.927 2.867-30.018 14.336-5.091 11.41-14.921 115.478-17.203 122.412-2.341 6.817-14.746 12.2-17.496 24.049s-0.848 19.28-8.836 21.943c-8.075 2.721-30.193 4.886-39.322 7.051-9.567 2.341-15.243 20.656-15.623 31.247-0.322 10.591 16.735 4.272 24.986 3.072 9.421-1.346 32.417-12.873 16.062 6.846-6.203 7.519-117.819 182.009-161.412 217.936-50.147 41.282-46.577-39.877-45.319-53.716 7.578-82.798 43.798-138.328 49.006-151.523 5.12-13.253 7.285-52.458-35.489-43.827-13.458 2.692-20.802 16.238-21.416 20.1-0.117 0.556-0.117 0.878-0.117 0.878-4.213 38.766-78.468 212.641-22.469 265.655zM2410.789 140.112c13.166 25.688 35.694 16.618 39.526 9.977 3.833-6.583 6.905-7.958 17.818-12.347 20.041-8.016-14.57-43.973-47.484-33.851-6.875 2.165-7.548 10.708-7.548 10.708 0.907 7.548-6.788 16.94-2.311 25.512zM2007.157 341.987c0 0 21.592-18.637 30.749-18.139 4.242 0.205-3.16 11.966 11.674 19.222 7.87 3.891-8.631 56.408-41.253 106.789-74.928 115.683-110.446 110.475-113.547 75.337-6.29-73.289 90.668-168.287 112.377-183.208zM2045.191 436.838c0 0-0.293 24.927 1.668 46.226 1.785 19.134 8.28 59.158 15.038 72.119 10.416 19.953 32.563 19.953 49.62 10.181 22.323-12.815 11.761-36.805 3.277-44.793-7.431-7.022-25.454-16.062-30.925-46.168-3.218-17.818-0.585-98.158 4.71-126.245 3.423-18.256 15.155-56.788 24.371-75.015 8.894-17.525 62.464-117.965 63.225-151.669 0.322-14.716-14.833-26.917-39.614-24.371s-30.925 22.382-30.983 35.372c-0.059 12.932-26.273 103.951-27.619 108.105-2.194 6.232-6.466 43.476-19.251 43.564-30.018 0.176-54.652 8.075-78.731 26.361-12.347 9.333-54.243 41.925-78.438 75.952-10.971 15.389-60.884 79.521-55.237 156.087 5.149 69.632 53.862 57.285 67.847 55.062 63.576-10.211 108.251-114.776 114.747-127.59 11.41-22.762 7.548-16.618 16.296-33.178zM1794.779 182.477c-4.681 5.734-3.511 23.874 6.641 33.265 7.636 7.080 8.719 8.397 8.953 14.102 0.439 10.562 7.168 11.118 17.554 10.971 12.698-0.176 23.084-8.982 24.371-26.887 1.287-17.935-16.062-33.265-30.047-36.718s-21.445-2.224-27.472 5.266z"></path>
</symbol>
<symbol id="icon-tick" viewBox="0 0 1070 1024">
	<title>tick</title>
	<path class="path1" d="M1060.227 112.981c-4.665-3.391 2.23-8.988 3.209-13.403-4.301-6.44-10.49 1.047-6.94-8.988-5.825-4.938 15.064-14.746 5.825-19.046-8.943-5.757-10.217-21.072-12.538-36.295-2.571-15.064-5.211-30.834-20.23-35.248-10.945 3.026-26.761 17.067-36.181 17.613-83.24 60.188-147.979 123.176-228.079 204.345-35.317 40.755-71.43 81.624-106.45 123.858-34.93 41.893-69.177 86.835-98.782 131.004-70.997 97.644-129.957 191.329-188.689 282.624l-9.944 15.246-2.935 4.346c-2.116 2.753-3.891 6.144-7.122 7.873-1.98 0.273-3.049-1.82-3.8-3.3-0.842-1.593-1.479-3.322-2.185-5.074l-2.253-5.211-1.638-3.322c-3.573-7.373-7.691-15.519-11.878-23.233-12.993-26.943-30.037-54.886-49.63-80.395-19.046-25.077-40.186-48.765-62.555-71.020-22.346-22.3-45.898-43.19-70.064-62.942-24.303-19.82-48.674-38.229-75.002-56.206-6.895 0.25-12.334 1.889-16.498 4.369-1.047 0.637-2.025 1.297-2.89 2.048-1.001 0.66-2.435 1.138-2.753 2.207-1.047 1.843-2.116 3.755-3.095 5.666-2.549 8.397-2.321 18.045-1.161 26.078-12.242 17.818-13.79 45.739-29.241 55.25 4.233 14.677-1.889 24.895-7.669 34.839-5.871 9.967-11.446 19.684-8.033 32.927 44.442 31.949 89.498 71.202 126.635 114.347 19.092 22.187 34.065 42.712 47.423 66.492 3.368 5.916 6.576 11.947 9.739 18.136l2.344 4.665 4.551 9.694c3.391 7.418 6.645 14.837 9.694 22.391 12.379 29.855 23.324 62.942 38.389 86.221 17.954 27.694 32.358 40.050 45.147 51.018 7.054 0.614 16.566 5.689 32.427 9.239 7.964 1.82 17.226 2.571 24.098 1.911 7.168-0.228 13.517-0.569 19.41-2.389 6.667-5.12 15.132-6.94 23.643-10.399 8.442-3.504 16.794-8.67 20.776-18.66 8.488-7.031 7.145 1.388 14.541-4.437 8.693-15.656 18.728-27.557 30.879-42.485 12.038-14.791 26.305-32.973 40.459-58.186 7.305-12.925 12.015-18 16.134-22.187 2.799-2.048 5.53-3.777 8.806-9.603 0.887-18.318 19.342-28.126 25.896-48.401 4.073-5.916 6.849-1.252 10.718-5.689-10.194 0.978 3.322-19.024 6.053-8.943 4.142-9.239 8.010-20.366 13.449-29.992 26.055-45.921 41.074-60.348 63.738-91.955 11.15-12.038-0.387-12.925 10.854-24.895 17.226-19.206 31.812-42.667 47.514-67.197 15.724-24.622 32.222-50.222 53.089-72.818 6.918-18.91 21.14-32.95 47.081-61.963 4.187-14.632 11.56-22.278 18.842-32.609 10.581-13.449 18.295-16.202 27.511-24.371-2.571-9.079 3.3-7.873 12.789-16.907 9.284-9.717 9.466-16.68 12.834-24.644-4.756 4.005-10.354 10.854-13.266 9.057 9.011-14.768 31.448-12.607 22.642-22.209 11.127-17.431-11.446 4.597-13.426 1.183 15.815-21.072 35.977-43.145 61.872-66.173 8.715-6.827-0.751 11.059 13.471-0.774 4.551-23.757 51.86-57.367 68.927-83.194-5.074 3.732-11.196 10.194-13.972 8.192 21.618-13.335 0.683-17.385 11.355-28.285 4.938-1.866 19.297-7.578 10.536-12.538-4.278 3.777-11.287 7.737-5.916 1.274 13.38-4.028 34.315-26.078 51.519-38.525zM845.983 369.345c-4.619 3.823-4.050 0.068-1.98-2.025-6.098 0.182-13.653 5.097-22.482 14.746-13.426 9.739 22.619-31.016 20.321-24.553 6.667-8.92 6.485-17.931 16.839-20.685 1.32 9.216-12.151 22.733-12.698 32.518zM801.155 399.064c6.645-8.306 11.856-11.492 15.019-7.418l-10.945 11.423-4.073-4.005zM801.587 406.892c-1.934 15.36-21.754 8.533 0 0v0zM785.681 428.009c-1.661-2.935 2.435-4.938 3.55-3.823 1.661 2.935-2.435 4.915-3.55 3.823zM816.538 399.451c-2.935 0.91 0.091-5.302 1.638-5.78 2.935-0.956-0.091 5.257-1.638 5.78zM836.585 374.83c0.205 5.166-4.187 11.765-10.718 19.069-9.785-2.253 4.574-11.992 10.718-19.069zM782.7 439.615c5.12-17.021-3.345 16.475 0 0v0zM746.45 497.892c-2.844 1.092-0.319-5.211 1.206-5.803 2.799-1.070 0.296 5.234-1.206 5.803zM554.849 783.019c-2.776 1.456-0.796-5.279 0.683-6.098 2.753-1.456 0.774 5.348-0.683 6.098z"></path>
</symbol>
</defs>
</svg>
