<?xml version="1.0" encoding="utf-8"?>
<!-- Generator: Adobe Illustrator 15.0.0, SVG Export Plug-In . SVG Version: 6.00 Build 0)  -->
<!DOCTYPE svg PUBLIC "-//W3C//DTD SVG 1.1//EN" "http://www.w3.org/Graphics/SVG/1.1/DTD/svg11.dtd">
<svg version="1.1" id="Layer_1" xmlns="http://www.w3.org/2000/svg" xmlns:xlink="http://www.w3.org/1999/xlink" x="0px" y="0px"
	 width="40px" height="40px" viewBox="0 0 40 40" enable-background="new 0 0 40 40" xml:space="preserve">
<rect x="8" y="6.939" fill="#FFFFFF" width="22.667" height="25.667"/>
<path fill="#2AA9E0" d="M33.75,0H6.25C2.798,0,0,2.8,0,6.25v27.5C0,37.202,2.798,40,6.25,40h27.5c3.452,0,6.25-2.798,6.25-6.25V6.25
	C40,2.8,37.202,0,33.75,0z M27.953,15.923c0.009,0.176,0.012,0.352,0.012,0.529c0,5.423-4.127,11.676-11.675,11.676
	c-2.318,0-4.474-0.68-6.29-1.844c0.322,0.039,0.648,0.057,0.979,0.057c1.924,0,3.691-0.654,5.095-1.756
	c-1.794-0.031-3.311-1.219-3.832-2.85c0.251,0.049,0.507,0.074,0.771,0.074c0.375,0,0.737-0.049,1.081-0.145
	c-1.875-0.376-3.291-2.036-3.291-4.023c0-0.018,0-0.034,0-0.051c0.554,0.307,1.186,0.492,1.858,0.512
	c-1.101-0.734-1.825-1.992-1.825-3.415c0-0.752,0.203-1.455,0.556-2.063c2.022,2.483,5.048,4.117,8.457,4.287
	c-0.069-0.3-0.106-0.612-0.106-0.935c0-2.266,1.838-4.102,4.104-4.102c1.179,0,2.246,0.498,2.994,1.294
	c0.935-0.184,1.813-0.525,2.606-0.994c-0.308,0.957-0.957,1.764-1.805,2.269c0.83-0.098,1.621-0.317,2.356-0.645
	C29.45,14.622,28.755,15.345,27.953,15.923z"/>
</svg>
