<?xml version="1.0" encoding="utf-8"?>
<!-- Generator: Adobe Illustrator 15.0.0, SVG Export Plug-In . SVG Version: 6.00 Build 0)  -->
<!DOCTYPE svg PUBLIC "-//W3C//DTD SVG 1.1//EN" "http://www.w3.org/Graphics/SVG/1.1/DTD/svg11.dtd">
<svg version="1.1" id="Layer_1" xmlns="http://www.w3.org/2000/svg" xmlns:xlink="http://www.w3.org/1999/xlink" x="0px" y="0px"
	 width="190px" height="60px" viewBox="0 0 190 60" enable-background="new 0 0 190 60" xml:space="preserve">
<g>
	<g>
		<path fill="#FFFFFF" d="M0,8.17V0.453h1.895c0.562,0,0.976,0.03,1.24,0.093c0.265,0.062,0.497,0.161,0.692,0.302
			c0.241,0.18,0.432,0.421,0.568,0.726c0.138,0.305,0.205,0.639,0.205,1.004S4.533,3.279,4.396,3.589
			C4.259,3.898,4.07,4.141,3.827,4.316C3.632,4.457,3.4,4.558,3.136,4.617c-0.265,0.059-0.679,0.09-1.239,0.09H1.648H1.176V8.17H0z
			 M1.255,3.689h0.321c0.695,0,1.159-0.076,1.391-0.229c0.232-0.151,0.349-0.422,0.349-0.809c0-0.415-0.124-0.708-0.372-0.878
			c-0.247-0.17-0.704-0.256-1.367-0.256H1.255V3.689z"/>
		<path fill="#FFFFFF" d="M5.119,5.676c0-0.364,0.068-0.71,0.208-1.035c0.137-0.325,0.336-0.613,0.596-0.867
			c0.255-0.249,0.551-0.441,0.883-0.574c0.333-0.133,0.682-0.201,1.046-0.201c0.374,0,0.728,0.068,1.06,0.201
			c0.33,0.133,0.627,0.331,0.891,0.59c0.263,0.258,0.463,0.547,0.598,0.87c0.137,0.323,0.206,0.663,0.206,1.017
			c0,0.369-0.067,0.716-0.203,1.039c-0.135,0.322-0.331,0.609-0.59,0.858C9.538,7.837,9.235,8.036,8.903,8.172
			C8.57,8.307,8.22,8.375,7.852,8.375c-0.361,0-0.708-0.068-1.041-0.203c-0.331-0.136-0.628-0.33-0.888-0.588
			C5.66,7.324,5.46,7.032,5.325,6.709C5.188,6.387,5.119,6.041,5.119,5.676z M6.315,5.687c0,0.467,0.15,0.862,0.452,1.187
			c0.3,0.322,0.665,0.484,1.095,0.484s0.794-0.162,1.095-0.484c0.302-0.324,0.452-0.72,0.452-1.187c0-0.466-0.15-0.861-0.449-1.186
			C8.661,4.178,8.295,4.016,7.862,4.016c-0.43,0-0.795,0.162-1.095,0.485C6.466,4.825,6.315,5.221,6.315,5.687z"/>
		<path fill="#FFFFFF" d="M10.807,3.173h1.218l1.123,2.408c0.046,0.102,0.09,0.241,0.135,0.419c0.043,0.179,0.081,0.373,0.112,0.588
			c0.005-0.127,0.025-0.258,0.063-0.396c0.038-0.137,0.104-0.306,0.195-0.506l1.223-2.698h0.095l1.243,2.698
			c0.078,0.169,0.135,0.326,0.172,0.47s0.06,0.288,0.066,0.432c0.031-0.189,0.072-0.369,0.12-0.537
			c0.05-0.169,0.105-0.322,0.169-0.459l1.102-2.419h1.207L16.452,8.47l-1.154-2.599c-0.088-0.2-0.159-0.378-0.217-0.535
			c-0.057-0.156-0.106-0.31-0.152-0.461c-0.078,0.229-0.146,0.425-0.205,0.588c-0.06,0.164-0.107,0.286-0.144,0.366L13.395,8.47
			L10.807,3.173z"/>
		<path fill="#FFFFFF" d="M19.235,5.687c0-0.784,0.246-1.427,0.735-1.932c0.49-0.505,1.12-0.757,1.89-0.757
			c0.805,0,1.432,0.231,1.882,0.691c0.449,0.46,0.675,1.105,0.675,1.934V5.84h-3.996c0.028,0.462,0.168,0.824,0.417,1.082
			c0.249,0.259,0.581,0.389,0.996,0.389c0.369,0,0.677-0.077,0.923-0.229c0.246-0.153,0.459-0.4,0.643-0.74l0.965,0.532
			c-0.281,0.506-0.629,0.883-1.044,1.13c-0.415,0.248-0.901,0.372-1.46,0.372c-0.801,0-1.439-0.244-1.913-0.732
			C19.473,7.153,19.235,6.502,19.235,5.687z M20.495,5.07h2.736c-0.047-0.358-0.184-0.631-0.411-0.819
			c-0.229-0.188-0.542-0.282-0.938-0.282c-0.376,0-0.679,0.091-0.906,0.274C20.747,4.426,20.586,4.701,20.495,5.07z"/>
		<path fill="#FFFFFF" d="M25.446,8.17V3.162h1.143v0.785c0.123-0.322,0.287-0.561,0.488-0.717c0.201-0.153,0.451-0.232,0.75-0.232
			c0.163,0,0.32,0.021,0.479,0.059c0.156,0.039,0.309,0.094,0.46,0.168l-0.411,0.951c-0.099-0.071-0.204-0.123-0.318-0.157
			c-0.115-0.032-0.241-0.05-0.382-0.05c-0.38,0-0.652,0.152-0.817,0.458c-0.164,0.306-0.248,0.819-0.248,1.54V8.17H25.446z"/>
		<path fill="#FFFFFF" d="M28.89,5.687c0-0.784,0.245-1.427,0.735-1.932s1.12-0.757,1.89-0.757c0.805,0,1.432,0.231,1.882,0.691
			c0.448,0.46,0.675,1.105,0.675,1.934V5.84h-3.996c0.028,0.462,0.168,0.824,0.417,1.082c0.249,0.259,0.581,0.389,0.996,0.389
			c0.369,0,0.676-0.077,0.922-0.229c0.247-0.153,0.46-0.4,0.644-0.74l0.965,0.532c-0.281,0.506-0.629,0.883-1.044,1.13
			c-0.415,0.248-0.901,0.372-1.46,0.372c-0.801,0-1.439-0.244-1.913-0.732C29.127,7.153,28.89,6.502,28.89,5.687z M30.149,5.07
			h2.735c-0.046-0.358-0.183-0.631-0.411-0.819s-0.541-0.282-0.938-0.282c-0.376,0-0.68,0.091-0.907,0.274
			C30.401,4.426,30.24,4.701,30.149,5.07z"/>
		<path fill="#FFFFFF" d="M34.73,5.666c0-0.798,0.208-1.441,0.622-1.932c0.415-0.49,0.956-0.736,1.624-0.736
			c0.407,0,0.756,0.087,1.046,0.257s0.502,0.415,0.635,0.734V0h1.145v8.17h-1.145V7.521c-0.204,0.288-0.441,0.503-0.714,0.644
			s-0.584,0.211-0.936,0.211c-0.706,0-1.262-0.241-1.669-0.725C34.934,7.167,34.73,6.506,34.73,5.666z M35.928,5.697
			c0,0.531,0.119,0.939,0.358,1.229c0.238,0.289,0.575,0.432,1.012,0.432c0.414,0,0.749-0.155,1.006-0.466
			c0.258-0.312,0.385-0.724,0.385-1.236c0-0.517-0.119-0.919-0.36-1.206c-0.241-0.289-0.577-0.434-1.01-0.434
			s-0.772,0.148-1.02,0.446C36.052,4.758,35.928,5.17,35.928,5.697z"/>
		<path fill="#FFFFFF" d="M44.315,8.17V0h1.144v3.989c0.133-0.315,0.347-0.56,0.641-0.732c0.294-0.172,0.645-0.259,1.051-0.259
			c0.664,0,1.203,0.246,1.616,0.736c0.412,0.49,0.618,1.134,0.618,1.932c0,0.84-0.202,1.501-0.608,1.984s-0.962,0.725-1.668,0.725
			c-0.352,0-0.662-0.07-0.936-0.211c-0.272-0.141-0.51-0.355-0.714-0.644V8.17H44.315z M45.422,5.655
			c0,0.511,0.13,0.921,0.393,1.233s0.6,0.469,1.015,0.469c0.432,0,0.768-0.143,1.004-0.432c0.237-0.289,0.355-0.697,0.355-1.229
			c0-0.527-0.123-0.939-0.371-1.235c-0.247-0.298-0.588-0.446-1.02-0.446c-0.433,0-0.77,0.145-1.012,0.434
			C45.544,4.736,45.422,5.139,45.422,5.655z"/>
		<path fill="#FFFFFF" d="M49.655,3.173h1.265l0.917,2.588c0.053,0.158,0.1,0.318,0.141,0.482c0.041,0.163,0.072,0.329,0.097,0.498
			c0.046-0.176,0.155-0.455,0.327-0.838l0.026-0.063l1.233-2.667h1.238l-3.605,7.347h-1.175l1.37-2.782L49.655,3.173z"/>
		<path fill="#FFFFFF" d="M58.549,8.17V0.453h1.692c1.1,0,1.873,0.055,2.321,0.166s0.841,0.297,1.178,0.557
			c0.447,0.342,0.784,0.779,1.016,1.314c0.229,0.535,0.345,1.146,0.345,1.832c0,0.684-0.115,1.289-0.345,1.817
			c-0.231,0.529-0.568,0.965-1.016,1.31c-0.337,0.259-0.721,0.443-1.151,0.554s-1.1,0.167-2.01,0.167h-0.338H58.549z M59.804,7.047
			h1.054c0.58,0,1.015-0.038,1.305-0.116s0.541-0.208,0.757-0.392c0.291-0.249,0.51-0.56,0.656-0.932
			c0.146-0.371,0.218-0.804,0.218-1.297c0-0.492-0.072-0.924-0.218-1.296c-0.146-0.371-0.365-0.683-0.656-0.932
			C62.701,1.9,62.44,1.77,62.136,1.691c-0.304-0.077-0.778-0.115-1.426-0.115h-0.453h-0.453V7.047z"/>
		<path fill="#FFFFFF" d="M66.398,8.17V0.453h1.255V8.17H66.398z"/>
		<path fill="#FFFFFF" d="M68.957,4.327c0-0.582,0.099-1.12,0.298-1.612s0.493-0.926,0.883-1.303
			c0.375-0.368,0.817-0.648,1.322-0.843c0.506-0.193,1.049-0.29,1.624-0.29c0.608,0,1.153,0.11,1.633,0.332s0.907,0.56,1.284,1.018
			l-0.92,0.689c-0.259-0.301-0.554-0.526-0.88-0.674c-0.327-0.147-0.691-0.222-1.096-0.222c-0.837,0-1.521,0.268-2.048,0.804
			c-0.528,0.536-0.793,1.233-0.793,2.09c0,0.872,0.265,1.579,0.793,2.121c0.527,0.543,1.215,0.814,2.058,0.814
			c0.718,0,1.281-0.166,1.692-0.499c0.41-0.333,0.616-0.786,0.616-1.36V5.281h-1.85V4.217h3.057c0,0.053,0.002,0.127,0.005,0.223
			c0.011,0.25,0.016,0.42,0.016,0.508c0,1.085-0.311,1.927-0.934,2.527c-0.623,0.6-1.501,0.9-2.634,0.9
			c-0.633,0-1.196-0.094-1.692-0.279c-0.495-0.187-0.928-0.469-1.301-0.844c-0.365-0.371-0.646-0.809-0.841-1.312
			C69.055,5.438,68.957,4.9,68.957,4.327z"/>
		<path fill="#FFFFFF" d="M80.196,4.19V3.173h0.875V1.297h1.144v1.876h0.875V4.19h-0.875V8.17h-1.144V4.19H80.196z"/>
		<path fill="#FFFFFF" d="M83.544,5.687c0-0.784,0.246-1.427,0.736-1.932c0.489-0.505,1.119-0.757,1.889-0.757
			c0.806,0,1.433,0.231,1.881,0.691c0.45,0.46,0.675,1.105,0.675,1.934V5.84H84.73c0.027,0.462,0.167,0.824,0.416,1.082
			c0.249,0.259,0.581,0.389,0.996,0.389c0.369,0,0.676-0.077,0.923-0.229c0.246-0.153,0.46-0.4,0.643-0.74l0.964,0.532
			c-0.28,0.506-0.628,0.883-1.043,1.13c-0.415,0.248-0.901,0.372-1.46,0.372c-0.801,0-1.438-0.244-1.913-0.732
			C83.782,7.153,83.544,6.502,83.544,5.687z M84.804,5.07h2.735c-0.046-0.358-0.183-0.631-0.411-0.819
			C86.9,4.062,86.587,3.969,86.19,3.969c-0.375,0-0.679,0.091-0.906,0.274C85.056,4.426,84.896,4.701,84.804,5.07z"/>
		<path fill="#FFFFFF" d="M89.386,5.687c0-0.805,0.254-1.453,0.762-1.946c0.507-0.495,1.173-0.742,1.999-0.742
			c0.261,0,0.5,0.027,0.718,0.079c0.217,0.051,0.422,0.13,0.611,0.237v1.292C93.3,4.414,93.095,4.27,92.861,4.168
			s-0.486-0.152-0.757-0.152c-0.468,0-0.842,0.15-1.122,0.45c-0.28,0.299-0.422,0.695-0.422,1.189c0,0.516,0.142,0.92,0.425,1.214
			c0.282,0.293,0.673,0.441,1.172,0.441c0.278,0,0.526-0.053,0.744-0.154c0.217-0.104,0.409-0.258,0.574-0.468v1.323
			c-0.211,0.12-0.437,0.212-0.678,0.271c-0.241,0.062-0.496,0.092-0.767,0.092c-0.784,0-1.421-0.25-1.91-0.749
			C89.63,7.127,89.386,6.481,89.386,5.687z"/>
		<path fill="#FFFFFF" d="M94.493,8.17V0h1.075v3.989c0.229-0.343,0.497-0.595,0.807-0.753s0.686-0.238,1.128-0.238
			c0.371,0,0.686,0.061,0.946,0.178c0.259,0.117,0.464,0.292,0.61,0.524c0.087,0.137,0.15,0.296,0.188,0.479
			c0.039,0.183,0.059,0.502,0.059,0.959V8.17h-1.144V5.603c0-0.657-0.081-1.094-0.24-1.31c-0.159-0.217-0.444-0.324-0.851-0.324
			c-0.268,0-0.505,0.049-0.715,0.147c-0.209,0.099-0.373,0.237-0.492,0.416c-0.085,0.12-0.145,0.273-0.177,0.462
			c-0.033,0.188-0.05,0.487-0.05,0.898V8.17H94.493z"/>
		<path fill="#FFFFFF" d="M100.677,8.17V3.173h1.076v0.816c0.228-0.343,0.496-0.595,0.806-0.753s0.685-0.238,1.128-0.238
			c0.37,0,0.686,0.061,0.946,0.178c0.26,0.117,0.464,0.292,0.609,0.524c0.087,0.137,0.151,0.296,0.189,0.479
			c0.038,0.183,0.058,0.502,0.058,0.959V8.17h-1.145V5.603c0-0.657-0.079-1.094-0.239-1.31c-0.159-0.217-0.443-0.324-0.851-0.324
			c-0.268,0-0.505,0.049-0.715,0.147c-0.209,0.099-0.372,0.237-0.492,0.416c-0.084,0.12-0.144,0.273-0.177,0.462
			s-0.051,0.487-0.051,0.898V8.17H100.677z"/>
		<path fill="#FFFFFF" d="M106.492,5.676c0-0.364,0.068-0.71,0.208-1.035c0.137-0.325,0.336-0.613,0.596-0.867
			c0.255-0.249,0.551-0.441,0.883-0.574c0.333-0.133,0.682-0.201,1.046-0.201c0.374,0,0.728,0.068,1.06,0.201
			c0.33,0.133,0.627,0.331,0.891,0.59c0.263,0.258,0.463,0.547,0.598,0.87c0.137,0.323,0.206,0.663,0.206,1.017
			c0,0.369-0.067,0.716-0.203,1.039c-0.135,0.322-0.332,0.609-0.59,0.858c-0.274,0.264-0.577,0.463-0.909,0.599
			c-0.334,0.135-0.684,0.203-1.052,0.203c-0.361,0-0.708-0.068-1.041-0.203c-0.332-0.136-0.628-0.33-0.888-0.588
			c-0.263-0.26-0.463-0.552-0.599-0.875C106.561,6.387,106.492,6.041,106.492,5.676z M107.688,5.687
			c0,0.467,0.149,0.862,0.451,1.187c0.301,0.322,0.666,0.484,1.096,0.484s0.794-0.162,1.095-0.484
			c0.302-0.324,0.452-0.72,0.452-1.187c0-0.466-0.15-0.861-0.449-1.186c-0.299-0.323-0.665-0.485-1.098-0.485
			c-0.43,0-0.795,0.162-1.096,0.485C107.838,4.825,107.688,5.221,107.688,5.687z"/>
		<path fill="#FFFFFF" d="M113.099,8.17V0h1.144v8.17H113.099z"/>
		<path fill="#FFFFFF" d="M115.345,5.676c0-0.364,0.068-0.71,0.209-1.035c0.137-0.325,0.335-0.613,0.596-0.867
			c0.255-0.249,0.551-0.441,0.882-0.574c0.333-0.133,0.682-0.201,1.046-0.201c0.375,0,0.728,0.068,1.061,0.201
			c0.33,0.133,0.627,0.331,0.891,0.59c0.262,0.258,0.462,0.547,0.598,0.87c0.137,0.323,0.205,0.663,0.205,1.017
			c0,0.369-0.067,0.716-0.203,1.039c-0.134,0.322-0.331,0.609-0.59,0.858c-0.273,0.264-0.577,0.463-0.909,0.599
			c-0.333,0.135-0.684,0.203-1.052,0.203c-0.361,0-0.707-0.068-1.041-0.203c-0.331-0.136-0.628-0.33-0.887-0.588
			c-0.263-0.26-0.463-0.552-0.599-0.875C115.413,6.387,115.345,6.041,115.345,5.676z M116.542,5.687
			c0,0.467,0.149,0.862,0.451,1.187c0.301,0.322,0.665,0.484,1.096,0.484c0.429,0,0.794-0.162,1.095-0.484
			c0.302-0.324,0.452-0.72,0.452-1.187c0-0.466-0.15-0.861-0.45-1.186c-0.299-0.323-0.665-0.485-1.097-0.485
			c-0.431,0-0.795,0.162-1.096,0.485C116.691,4.825,116.542,5.221,116.542,5.687z"/>
		<path fill="#FFFFFF" d="M121.528,5.666c0-0.798,0.207-1.441,0.622-1.932s0.955-0.736,1.623-0.736c0.407,0,0.757,0.087,1.047,0.257
			s0.501,0.415,0.635,0.734V3.173h1.144v4.686c0,0.976-0.195,1.664-0.585,2.063s-1.048,0.598-1.972,0.598
			c-0.689,0-1.238-0.146-1.649-0.438c-0.411-0.292-0.62-0.681-0.627-1.167l1.228-0.006c0.018,0.21,0.117,0.368,0.301,0.477
			c0.183,0.11,0.439,0.165,0.77,0.165c0.488,0,0.84-0.105,1.054-0.316c0.216-0.21,0.323-0.563,0.327-1.059l0.011-0.654
			c-0.204,0.288-0.441,0.503-0.714,0.644c-0.273,0.141-0.584,0.211-0.937,0.211c-0.706,0-1.262-0.241-1.667-0.725
			C121.731,7.167,121.528,6.506,121.528,5.666z M122.725,5.697c0,0.531,0.12,0.939,0.358,1.229s0.576,0.432,1.012,0.432
			c0.412,0,0.746-0.156,1.004-0.469c0.259-0.312,0.388-0.723,0.388-1.233c0-0.517-0.12-0.919-0.36-1.206
			c-0.241-0.289-0.578-0.434-1.01-0.434s-0.771,0.148-1.02,0.446C122.849,4.758,122.725,5.17,122.725,5.697z"/>
		<path fill="#FFFFFF" d="M127.237,3.173h1.266l0.917,2.588c0.053,0.158,0.099,0.318,0.14,0.482c0.04,0.163,0.072,0.329,0.098,0.498
			c0.046-0.176,0.153-0.455,0.326-0.838l0.026-0.063l1.233-2.667h1.238l-3.604,7.347h-1.176l1.37-2.782L127.237,3.173z"/>
	</g>
	<g>
		<rect y="17.275" fill="#3C3D40" width="13.269" height="13.267"/>
		<rect x="14.618" y="17.05" fill="#3C3D40" width="13.268" height="13.268"/>
		<rect x="0.001" y="31.891" fill="#3C3D40" width="13.269" height="13.268"/>
		<rect x="15.292" y="31.217" fill="#3C3D40" width="13.269" height="13.267"/>
		<rect x="30.134" y="31.891" fill="#3C3D40" width="13.268" height="13.268"/>
		<rect x="29.683" y="46.732" fill="#3C3D40" width="13.269" height="13.268"/>
		<rect x="15.066" y="46.282" fill="#3C3D40" width="13.269" height="13.268"/>
		<rect x="0.675" y="46.059" fill="#3C3D40" width="13.269" height="13.267"/>
		<rect x="29.233" y="16.824" fill="#FFFFFF" width="13.27" height="13.268"/>
	</g>
	<g>
		<path fill="#FFFFFF" d="M53.46,43.209v-21.22h4.652c3.023,0,5.152,0.153,6.383,0.458c1.234,0.304,2.312,0.815,3.24,1.531
			c1.228,0.938,2.157,2.144,2.789,3.613c0.634,1.471,0.95,3.149,0.95,5.036c0,1.882-0.316,3.549-0.95,5
			c-0.632,1.454-1.562,2.651-2.789,3.597c-0.928,0.715-1.982,1.224-3.166,1.528c-1.184,0.304-3.027,0.456-5.529,0.456h-0.928H53.46z
			 M56.909,40.121h2.898c1.594,0,2.791-0.106,3.586-0.318c0.799-0.214,1.492-0.572,2.081-1.075c0.802-0.688,1.403-1.542,1.804-2.563
			c0.402-1.022,0.603-2.209,0.603-3.565c0-1.354-0.2-2.543-0.603-3.565c-0.4-1.021-1.002-1.875-1.804-2.562
			c-0.6-0.504-1.315-0.861-2.151-1.074c-0.837-0.213-2.145-0.32-3.922-0.32h-1.246h-1.246V40.121z"/>
		<path fill="#FFFFFF" d="M75.045,43.209v-21.22h3.449v21.22H75.045z"/>
		<path fill="#FFFFFF" d="M82.078,32.645c0-1.604,0.272-3.084,0.819-4.436c0.545-1.354,1.354-2.547,2.427-3.581
			c1.035-1.015,2.247-1.787,3.638-2.319c1.392-0.531,2.879-0.797,4.465-0.797c1.673,0,3.169,0.305,4.488,0.913
			c1.32,0.608,2.498,1.542,3.533,2.797l-2.529,1.898c-0.715-0.831-1.521-1.448-2.42-1.854s-1.904-0.609-3.015-0.609
			c-2.3,0-4.177,0.736-5.63,2.211c-1.455,1.473-2.183,3.389-2.183,5.748c0,2.396,0.728,4.34,2.183,5.832
			c1.453,1.493,3.34,2.239,5.659,2.239c1.971,0,3.522-0.458,4.652-1.373c1.131-0.915,1.696-2.163,1.696-3.744v-0.304h-5.088v-2.928
			h8.406c0,0.146,0.005,0.35,0.015,0.611c0.028,0.691,0.043,1.156,0.043,1.4c0,2.981-0.856,5.297-2.569,6.948
			c-1.712,1.651-4.126,2.476-7.242,2.476c-1.739,0-3.291-0.255-4.652-0.768c-1.363-0.512-2.557-1.285-3.58-2.319
			c-1.006-1.023-1.775-2.228-2.312-3.607C82.347,35.697,82.078,34.219,82.078,32.645z"/>
	</g>
	<g>
		<path fill="#FFFFFF" d="M53.46,53.369V47.1h1.373c0.895,0,1.523,0.045,1.887,0.136c0.364,0.089,0.684,0.239,0.957,0.451
			c0.362,0.276,0.638,0.633,0.825,1.067c0.187,0.436,0.28,0.931,0.28,1.488c0,0.556-0.094,1.049-0.28,1.478
			c-0.188,0.431-0.463,0.783-0.825,1.062c-0.273,0.212-0.584,0.362-0.936,0.452c-0.35,0.09-0.895,0.135-1.634,0.135h-0.274H53.46z
			 M54.479,52.457h0.856c0.47,0,0.823-0.031,1.06-0.096c0.235-0.062,0.439-0.168,0.613-0.316c0.237-0.203,0.415-0.457,0.534-0.758
			c0.118-0.302,0.178-0.652,0.178-1.053c0-0.401-0.06-0.752-0.178-1.053c-0.119-0.302-0.297-0.556-0.534-0.758
			c-0.177-0.149-0.389-0.255-0.635-0.317c-0.248-0.063-0.634-0.096-1.16-0.096h-0.367h-0.367V52.457z"/>
		<path fill="#FFFFFF" d="M59.837,53.369V47.1h1.018v6.27H59.837z"/>
		<path fill="#FFFFFF" d="M61.915,50.247c0-0.475,0.08-0.91,0.242-1.312c0.16-0.398,0.4-0.752,0.717-1.057
			c0.306-0.3,0.664-0.527,1.074-0.685c0.412-0.158,0.851-0.235,1.319-0.235c0.494,0,0.937,0.089,1.325,0.27
			c0.391,0.179,0.738,0.454,1.046,0.826l-0.749,0.56c-0.211-0.245-0.449-0.427-0.714-0.548c-0.267-0.118-0.562-0.18-0.891-0.18
			c-0.681,0-1.235,0.218-1.664,0.654c-0.43,0.435-0.645,1.002-0.645,1.698c0,0.707,0.215,1.282,0.645,1.722
			c0.429,0.441,0.986,0.662,1.672,0.662c0.583,0,1.041-0.135,1.376-0.405c0.333-0.271,0.5-0.64,0.5-1.106v-0.09h-1.503v-0.865h2.483
			c0,0.043,0.002,0.104,0.004,0.182c0.01,0.203,0.014,0.342,0.014,0.412c0,0.882-0.253,1.566-0.76,2.055
			c-0.506,0.488-1.22,0.73-2.14,0.73c-0.514,0-0.972-0.076-1.374-0.226c-0.403-0.151-0.757-0.381-1.059-0.686
			c-0.297-0.303-0.524-0.659-0.684-1.065C61.993,51.149,61.915,50.712,61.915,50.247z"/>
		<path fill="#FFFFFF" d="M69.119,53.369V47.1h1.019v6.27H69.119z"/>
		<path fill="#FFFFFF" d="M70.812,47.963V47.1h4.342v0.863h-1.657v5.406h-1.019v-5.406H70.812z"/>
		<path fill="#FFFFFF" d="M74.949,53.369l3.038-6.518l3.029,6.518h-1.073l-0.712-1.598h-2.483l-0.728,1.598H74.949z M77.125,50.906
			h1.747l-0.642-1.43c-0.037-0.092-0.077-0.196-0.116-0.314c-0.039-0.119-0.08-0.251-0.119-0.397
			c-0.035,0.137-0.072,0.265-0.11,0.384s-0.077,0.228-0.117,0.328L77.125,50.906z"/>
		<path fill="#FFFFFF" d="M81.477,53.369V47.1h1.021v5.357h2.276v0.912H81.477z"/>
		<path fill="#FFFFFF" d="M88.001,53.369V47.1h1.019v6.27H88.001z"/>
		<path fill="#FFFFFF" d="M90.353,53.369v-6.518l3.979,3.832c0.109,0.109,0.218,0.224,0.33,0.348c0.11,0.123,0.228,0.26,0.35,0.415
			V47.1h0.93v6.512l-4.056-3.9c-0.109-0.105-0.214-0.216-0.315-0.333c-0.101-0.118-0.197-0.24-0.288-0.368v4.359H90.353z"/>
		<path fill="#FFFFFF" d="M97.267,53.369V47.1h3.498v0.863h-2.479v1.564h2.479v0.895h-2.479v2.947H97.267z"/>
		<path fill="#FFFFFF" d="M101.464,50.242c0-0.447,0.083-0.869,0.248-1.266c0.166-0.396,0.408-0.751,0.729-1.064
			c0.32-0.311,0.683-0.548,1.087-0.711c0.405-0.162,0.835-0.242,1.29-0.242c0.451,0,0.879,0.08,1.282,0.242
			c0.404,0.163,0.765,0.4,1.085,0.711c0.32,0.316,0.562,0.674,0.73,1.071c0.167,0.396,0.25,0.817,0.25,1.259
			c0,0.446-0.083,0.867-0.25,1.266c-0.168,0.396-0.41,0.751-0.73,1.064c-0.322,0.311-0.686,0.549-1.092,0.715
			c-0.405,0.166-0.83,0.248-1.275,0.248c-0.452,0-0.882-0.084-1.292-0.251c-0.409-0.167-0.771-0.405-1.085-0.712
			c-0.32-0.313-0.562-0.666-0.729-1.061C101.547,51.116,101.464,50.693,101.464,50.242z M102.526,50.242
			c0,0.316,0.056,0.617,0.171,0.9c0.114,0.283,0.279,0.537,0.497,0.761c0.217,0.223,0.463,0.394,0.74,0.511
			c0.276,0.117,0.572,0.175,0.883,0.175c0.306,0,0.595-0.058,0.87-0.175s0.524-0.288,0.743-0.511c0.218-0.224,0.385-0.478,0.5-0.761
			c0.115-0.285,0.173-0.586,0.173-0.9c0-0.316-0.058-0.618-0.173-0.904c-0.115-0.287-0.282-0.542-0.5-0.765
			c-0.211-0.22-0.455-0.39-0.733-0.508c-0.279-0.119-0.572-0.179-0.88-0.179c-0.309,0-0.603,0.06-0.88,0.177
			c-0.278,0.117-0.526,0.287-0.743,0.51c-0.218,0.221-0.383,0.474-0.497,0.76C102.582,49.619,102.526,49.922,102.526,50.242z"/>
		<path fill="#FFFFFF" d="M109.202,53.369V47.1h1.422c0.416,0,0.74,0.027,0.97,0.08c0.23,0.056,0.426,0.144,0.589,0.269
			c0.193,0.151,0.344,0.347,0.449,0.585s0.16,0.501,0.16,0.784c0,0.503-0.123,0.897-0.366,1.183
			c-0.241,0.283-0.601,0.455-1.073,0.512l2.158,2.857h-1.152l-2.086-2.811h-0.115v2.811H109.202z M110.222,49.767h0.184
			c0.54,0,0.898-0.063,1.075-0.19c0.177-0.125,0.265-0.348,0.265-0.668c0-0.347-0.095-0.59-0.284-0.73
			c-0.19-0.143-0.542-0.215-1.056-0.215h-0.184V49.767z"/>
		<path fill="#FFFFFF" d="M113.379,53.369l1.481-6.536l1.853,3.958c0.028,0.062,0.072,0.166,0.131,0.312
			c0.059,0.145,0.13,0.326,0.213,0.539c0.061-0.18,0.154-0.408,0.283-0.686c0.034-0.073,0.061-0.13,0.077-0.171l1.811-3.953
			l1.512,6.536h-0.954l-0.694-3.096c-0.011-0.049-0.029-0.184-0.056-0.402c-0.021-0.184-0.042-0.336-0.06-0.455
			c-0.025,0.144-0.061,0.285-0.108,0.428c-0.048,0.145-0.107,0.289-0.179,0.438l-1.641,3.34l-1.64-3.408
			c-0.068-0.141-0.128-0.275-0.178-0.407c-0.051-0.132-0.094-0.261-0.13-0.39c-0.004,0.132-0.016,0.269-0.033,0.412
			c-0.02,0.145-0.047,0.295-0.084,0.452l-0.675,3.089H113.379z"/>
		<path fill="#FFFFFF" d="M120.565,53.369l3.037-6.518l3.03,6.518h-1.073l-0.712-1.598h-2.484l-0.728,1.598H120.565z
			 M122.741,50.906h1.746l-0.642-1.43c-0.036-0.092-0.076-0.196-0.115-0.314c-0.04-0.119-0.081-0.251-0.12-0.397
			c-0.034,0.137-0.071,0.265-0.109,0.384s-0.078,0.228-0.117,0.328L122.741,50.906z"/>
		<path fill="#FFFFFF" d="M126.434,47.963V47.1h4.342v0.863h-1.657v5.406h-1.02v-5.406H126.434z"/>
		<path fill="#FFFFFF" d="M131.441,53.369V47.1h1.018v6.27H131.441z"/>
		<path fill="#FFFFFF" d="M133.519,50.242c0-0.447,0.083-0.869,0.248-1.266c0.166-0.396,0.408-0.751,0.729-1.064
			c0.32-0.311,0.682-0.548,1.087-0.711c0.406-0.162,0.835-0.242,1.29-0.242c0.45,0,0.879,0.08,1.281,0.242
			c0.405,0.163,0.766,0.4,1.087,0.711c0.319,0.316,0.562,0.674,0.729,1.071c0.168,0.396,0.25,0.817,0.25,1.259
			c0,0.446-0.082,0.867-0.25,1.266c-0.167,0.396-0.41,0.751-0.729,1.064c-0.323,0.311-0.688,0.549-1.093,0.715
			c-0.404,0.166-0.83,0.248-1.275,0.248c-0.452,0-0.882-0.084-1.291-0.251c-0.41-0.167-0.772-0.405-1.086-0.712
			c-0.32-0.313-0.562-0.666-0.729-1.061C133.602,51.116,133.519,50.693,133.519,50.242z M134.58,50.242
			c0,0.316,0.058,0.617,0.172,0.9s0.279,0.537,0.497,0.761c0.217,0.223,0.464,0.394,0.74,0.511s0.571,0.175,0.883,0.175
			c0.306,0,0.596-0.058,0.871-0.175s0.522-0.288,0.743-0.511c0.218-0.224,0.383-0.478,0.499-0.761
			c0.115-0.285,0.173-0.586,0.173-0.9c0-0.316-0.058-0.618-0.173-0.904c-0.116-0.287-0.281-0.542-0.499-0.765
			c-0.211-0.22-0.456-0.39-0.733-0.508c-0.28-0.119-0.572-0.179-0.881-0.179s-0.602,0.06-0.881,0.177
			c-0.277,0.117-0.525,0.287-0.742,0.51c-0.218,0.221-0.383,0.474-0.497,0.76S134.58,49.922,134.58,50.242z"/>
		<path fill="#FFFFFF" d="M141.259,53.369v-6.518l3.979,3.832c0.108,0.109,0.218,0.224,0.329,0.348
			c0.111,0.123,0.229,0.26,0.351,0.415V47.1h0.93v6.512l-4.056-3.9c-0.109-0.105-0.214-0.216-0.315-0.333
			c-0.101-0.118-0.197-0.24-0.288-0.368v4.359H141.259z"/>
		<path fill="#FFFFFF" d="M150.228,51.729c0-0.357,0.11-0.686,0.332-0.987c0.223-0.301,0.574-0.604,1.058-0.905l-0.253-0.274
			c-0.139-0.151-0.245-0.317-0.319-0.497c-0.073-0.18-0.111-0.361-0.111-0.547c0-0.414,0.151-0.754,0.452-1.02
			c0.302-0.266,0.689-0.398,1.163-0.398s0.851,0.119,1.128,0.359c0.278,0.24,0.418,0.563,0.418,0.973
			c0,0.305-0.098,0.584-0.293,0.837c-0.194,0.253-0.506,0.503-0.935,0.751l1.306,1.517c0.127-0.126,0.255-0.27,0.387-0.429
			s0.271-0.344,0.419-0.552l0.6,0.638c-0.113,0.184-0.241,0.355-0.381,0.52s-0.291,0.318-0.453,0.461l1.053,1.195h-1.179
			l-0.504-0.596c-0.296,0.254-0.603,0.442-0.914,0.562c-0.313,0.122-0.656,0.183-1.031,0.183c-0.574,0-1.042-0.167-1.401-0.501
			S150.228,52.254,150.228,51.729z M151.2,51.703c0,0.277,0.096,0.512,0.291,0.702c0.193,0.191,0.433,0.286,0.722,0.286
			c0.215,0,0.432-0.048,0.652-0.146c0.22-0.097,0.444-0.243,0.675-0.441l-1.38-1.579l-0.157,0.106
			c-0.299,0.195-0.508,0.372-0.625,0.534C151.259,51.326,151.2,51.506,151.2,51.703z M151.889,48.5c0,0.088,0.017,0.174,0.05,0.257
			s0.084,0.161,0.153,0.235l0.315,0.376l0.232-0.132c0.161-0.095,0.28-0.204,0.362-0.328c0.081-0.124,0.12-0.264,0.12-0.418
			c0-0.176-0.054-0.321-0.163-0.435c-0.11-0.111-0.252-0.169-0.427-0.169c-0.193,0-0.348,0.058-0.467,0.172
			C151.948,48.173,151.889,48.319,151.889,48.5z"/>
		<path fill="#FFFFFF" d="M158.679,50.247c0-0.475,0.08-0.91,0.242-1.312c0.16-0.398,0.4-0.752,0.717-1.057
			c0.306-0.3,0.664-0.527,1.075-0.685c0.411-0.158,0.85-0.235,1.318-0.235c0.495,0,0.937,0.089,1.326,0.27
			c0.39,0.179,0.738,0.454,1.045,0.826l-0.749,0.56c-0.211-0.245-0.448-0.427-0.714-0.548c-0.267-0.118-0.562-0.18-0.891-0.18
			c-0.68,0-1.234,0.218-1.664,0.654c-0.43,0.435-0.645,1.002-0.645,1.698c0,0.707,0.215,1.282,0.645,1.722
			c0.43,0.441,0.987,0.662,1.672,0.662c0.583,0,1.041-0.135,1.376-0.405c0.333-0.271,0.5-0.64,0.5-1.106v-0.09h-1.503v-0.865h2.483
			c0,0.043,0.001,0.104,0.004,0.182c0.01,0.203,0.014,0.342,0.014,0.412c0,0.882-0.253,1.566-0.759,2.055
			c-0.507,0.488-1.221,0.73-2.141,0.73c-0.513,0-0.972-0.076-1.374-0.226c-0.402-0.151-0.756-0.381-1.058-0.686
			c-0.298-0.303-0.524-0.659-0.684-1.065C158.758,51.149,158.679,50.712,158.679,50.247z"/>
		<path fill="#FFFFFF" d="M165.884,53.369V47.1h1.018v6.27H165.884z"/>
		<path fill="#FFFFFF" d="M167.431,47.1h1.057l1.405,3.34c0.083,0.193,0.151,0.373,0.206,0.538c0.054,0.163,0.096,0.319,0.127,0.469
			c0.037-0.157,0.084-0.32,0.142-0.489c0.058-0.168,0.125-0.341,0.201-0.518l1.4-3.34h1.055l-2.798,6.512L167.431,47.1z"/>
		<path fill="#FFFFFF" d="M173.541,53.369V47.1h1.019v6.27H173.541z"/>
		<path fill="#FFFFFF" d="M175.894,53.369v-6.518l3.979,3.832c0.108,0.109,0.218,0.224,0.33,0.348
			c0.11,0.123,0.228,0.26,0.351,0.415V47.1h0.929v6.512l-4.056-3.9c-0.109-0.105-0.214-0.216-0.314-0.333
			c-0.102-0.118-0.198-0.24-0.289-0.368v4.359H175.894z"/>
		<path fill="#FFFFFF" d="M182.532,50.247c0-0.475,0.08-0.91,0.243-1.312c0.16-0.398,0.399-0.752,0.716-1.057
			c0.307-0.3,0.664-0.527,1.075-0.685c0.412-0.158,0.851-0.235,1.319-0.235c0.494,0,0.936,0.089,1.326,0.27
			c0.389,0.179,0.737,0.454,1.044,0.826l-0.748,0.56c-0.211-0.245-0.449-0.427-0.715-0.548c-0.266-0.118-0.562-0.18-0.891-0.18
			c-0.68,0-1.233,0.218-1.664,0.654c-0.429,0.435-0.644,1.002-0.644,1.698c0,0.707,0.215,1.282,0.644,1.722
			c0.431,0.441,0.987,0.662,1.673,0.662c0.582,0,1.04-0.135,1.375-0.405c0.333-0.271,0.501-0.64,0.501-1.106v-0.09h-1.504v-0.865
			h2.483c0,0.043,0.002,0.104,0.005,0.182c0.009,0.203,0.013,0.342,0.013,0.412c0,0.882-0.253,1.566-0.758,2.055
			c-0.507,0.488-1.221,0.73-2.141,0.73c-0.514,0-0.973-0.076-1.374-0.226c-0.403-0.151-0.757-0.381-1.059-0.686
			c-0.297-0.303-0.524-0.659-0.684-1.065C182.612,51.149,182.532,50.712,182.532,50.247z"/>
	</g>
</g>
</svg>
