<?xml version="1.0" encoding="utf-8"?>
<!-- Generator: Adobe Illustrator 15.0.0, SVG Export Plug-In . SVG Version: 6.00 Build 0)  -->
<!DOCTYPE svg PUBLIC "-//W3C//DTD SVG 1.1//EN" "http://www.w3.org/Graphics/SVG/1.1/DTD/svg11.dtd">
<svg version="1.1" id="Layer_1" xmlns="http://www.w3.org/2000/svg" xmlns:xlink="http://www.w3.org/1999/xlink" x="0px" y="0px"
	 width="47px" height="45px" viewBox="0 0 47 45" enable-background="new 0 0 47 45" xml:space="preserve">
<g>
	<path fill-rule="evenodd" clip-rule="evenodd" fill="#1DB5B6" d="M46.592,4.965c-0.205-0.149,0.098-0.395,0.141-0.589
		c-0.189-0.283-0.461,0.046-0.305-0.395c-0.256-0.217,0.662-0.648,0.256-0.837c-0.393-0.253-0.449-0.926-0.551-1.595
		C46.02,0.887,45.904,0.194,45.244,0c-0.481,0.133-1.176,0.75-1.59,0.774c-3.658,2.645-6.503,5.413-10.023,8.98
		c-1.552,1.791-3.139,3.587-4.678,5.443c-1.535,1.841-3.04,3.816-4.341,5.757c-3.12,4.291-5.711,8.408-8.292,12.42l-0.437,0.67
		l-0.129,0.191c-0.093,0.121-0.171,0.27-0.313,0.346c-0.087,0.012-0.134-0.08-0.167-0.145c-0.037-0.07-0.065-0.146-0.096-0.223
		l-0.099-0.229l-0.072-0.146c-0.157-0.324-0.338-0.682-0.522-1.021c-0.571-1.184-1.32-2.412-2.181-3.533
		c-0.837-1.102-1.766-2.143-2.749-3.121c-0.982-0.98-2.017-1.898-3.079-2.766c-1.068-0.871-2.139-1.68-3.296-2.47
		c-0.303,0.011-0.542,0.083-0.725,0.192c-0.046,0.028-0.089,0.057-0.127,0.09c-0.044,0.029-0.107,0.05-0.121,0.097
		c-0.046,0.081-0.093,0.165-0.136,0.249c-0.112,0.369-0.102,0.793-0.051,1.146c-0.538,0.783-0.606,2.01-1.285,2.428
		c0.186,0.645-0.083,1.094-0.337,1.531c-0.258,0.438-0.503,0.865-0.353,1.447c1.953,1.404,3.933,3.129,5.565,5.025
		c0.839,0.975,1.497,1.877,2.084,2.922c0.148,0.26,0.289,0.525,0.428,0.797l0.103,0.205l0.2,0.426
		c0.149,0.326,0.292,0.652,0.426,0.984c0.544,1.312,1.025,2.766,1.687,3.789c0.789,1.217,1.422,1.76,1.984,2.242
		c0.31,0.027,0.728,0.25,1.425,0.406c0.35,0.08,0.757,0.113,1.059,0.084c0.315-0.01,0.594-0.025,0.853-0.105
		c0.293-0.225,0.665-0.305,1.039-0.457c0.371-0.154,0.738-0.381,0.913-0.82c0.373-0.309,0.314,0.061,0.639-0.195
		c0.382-0.688,0.823-1.211,1.357-1.867c0.529-0.65,1.156-1.449,1.778-2.557c0.321-0.568,0.528-0.791,0.709-0.975
		c0.123-0.09,0.243-0.166,0.387-0.422c0.039-0.805,0.85-1.236,1.138-2.127c0.179-0.26,0.301-0.055,0.471-0.25
		c-0.448,0.043,0.146-0.836,0.266-0.393c0.182-0.406,0.352-0.895,0.591-1.318c1.145-2.018,1.805-2.652,2.801-4.041
		c0.49-0.529-0.017-0.568,0.477-1.094c0.757-0.844,1.398-1.875,2.088-2.953c0.691-1.082,1.416-2.207,2.333-3.2
		c0.304-0.831,0.929-1.448,2.069-2.723c0.184-0.643,0.508-0.979,0.828-1.433c0.465-0.591,0.804-0.712,1.209-1.071
		c-0.113-0.399,0.145-0.346,0.562-0.743c0.408-0.427,0.416-0.733,0.564-1.083c-0.209,0.176-0.455,0.477-0.583,0.398
		c0.396-0.649,1.382-0.554,0.995-0.976c0.489-0.766-0.503,0.202-0.59,0.052c0.695-0.926,1.581-1.896,2.719-2.908
		c0.383-0.3-0.033,0.486,0.592-0.034c0.2-1.044,2.279-2.521,3.029-3.656c-0.223,0.164-0.492,0.448-0.614,0.36
		c0.95-0.586,0.03-0.764,0.499-1.243c0.217-0.082,0.848-0.333,0.463-0.551c-0.188,0.166-0.496,0.34-0.26,0.056
		C44.916,6.481,45.836,5.512,46.592,4.965z M37.177,16.231c-0.203,0.168-0.178,0.003-0.087-0.089
		c-0.268,0.008-0.6,0.224-0.988,0.648c-0.59,0.428,0.994-1.363,0.893-1.079c0.293-0.392,0.285-0.788,0.74-0.909
		C37.793,15.207,37.201,15.801,37.177,16.231z M35.207,17.537c0.292-0.365,0.521-0.505,0.66-0.326l-0.481,0.502L35.207,17.537z
		 M35.226,17.881C35.141,18.556,34.27,18.256,35.226,17.881L35.226,17.881z M34.527,18.809c-0.073-0.129,0.107-0.217,0.156-0.168
		C34.756,18.77,34.576,18.857,34.527,18.809z M35.883,17.554c-0.129,0.04,0.004-0.233,0.072-0.254
		C36.084,17.258,35.951,17.531,35.883,17.554z M36.764,16.472c0.009,0.227-0.184,0.517-0.471,0.838
		C35.863,17.211,36.494,16.783,36.764,16.472z M34.396,19.319C34.621,18.571,34.249,20.043,34.396,19.319L34.396,19.319z
		 M32.803,21.88c-0.125,0.048-0.014-0.229,0.053-0.255C32.979,21.578,32.869,21.855,32.803,21.88z M24.383,34.41
		c-0.122,0.064-0.035-0.232,0.03-0.268C24.534,34.078,24.447,34.377,24.383,34.41z"/>
</g>
</svg>
