<?xml version="1.0" encoding="utf-8"?>
<!-- Generator: Adobe Illustrator 15.0.0, SVG Export Plug-In . SVG Version: 6.00 Build 0)  -->
<!DOCTYPE svg PUBLIC "-//W3C//DTD SVG 1.1//EN" "http://www.w3.org/Graphics/SVG/1.1/DTD/svg11.dtd">
<svg version="1.1" id="Layer_1" xmlns="http://www.w3.org/2000/svg" xmlns:xlink="http://www.w3.org/1999/xlink" x="0px" y="0px"
	 width="50px" height="50px" viewBox="0 0 50 50" enable-background="new 0 0 50 50" xml:space="preserve">
<g>
	<path fill="#1DB5B6" d="M33.513,18.465c-0.648-0.051-0.65-0.051-0.887,0.5c-0.07,0.165-0.113,0.345-0.195,0.501
		c-0.443,0.854-1.154,1.286-1.975,0.548c-0.328-0.295-0.463-0.291-0.684,0.11c-0.223,0.4-0.375,0.845-0.568,1.264
		c-0.232,0.507-0.469,1.013-0.719,1.51c-0.291,0.576-0.561,1.171-0.908,1.703c-0.457,0.7-0.957,1.377-1.766,1.644
		c-0.168,0.055-0.324,0.164-0.494,0.202c-0.928,0.201-1.293-0.701-1.125-1.428c0.047-0.202,0.129-0.373,0.004-0.577
		c-0.039-0.064-0.008-0.185,0.002-0.278c0.051-0.54,0.104-1.079,0.156-1.618c0.008-0.072,0.006-0.149,0.027-0.215
		c0.23-0.682,0.377-1.421,0.723-2.025c0.41-0.72,0.529-1.495,0.693-2.28c0.08-0.385,0.242-0.748,0.359-1.123
		c0.051-0.17,0.072-0.35,0.125-0.518c0.182-0.564,0.361-1.13,0.562-1.688c0.105-0.291,0.057-0.512-0.094-0.775
		c-0.314-0.548-0.533-1.168-0.395-1.809c0.064-0.297,0.352-0.567,0.588-0.781c0.643-0.58,1.318-1.116,1.971-1.688
		c0.186-0.164,0.379-0.357,0.484-0.584c0.375-0.806,1.045-1.027,1.773-1.214c0.457-0.116,0.715,0.153,1.006,0.416
		c0.143,0.13,0.271,0.282,0.422,0.397c0.861,0.664,1.516,1.537,2.105,2.473c0.268,0.424,0.496,0.877,0.766,1.298
		c0.066,0.103,0.234,0.197,0.344,0.183c0.205-0.028,0.293,0.072,0.275,0.246c-0.057,0.567-0.137,1.133-0.221,1.697
		c-0.029,0.186-0.137,0.365-0.141,0.549c-0.014,0.729-0.289,1.364-0.588,1.983c-0.316,0.657-0.879,1.033-1.463,1.36
		C33.608,18.489,33.507,18.465,33.513,18.465"/>
	<path fill="#262626" d="M7.562,33.922c-1.019,1.471-1.599,3.131-2.669,4.454c-0.227-0.305-0.418-0.558-0.605-0.813
		c-0.361-0.492-0.291-1.084-0.203-1.617c0.08-0.49,0.33-0.949,0.518-1.416c0.156-0.39,0.303-0.788,0.506-1.148
		c0.4-0.706,0.848-1.379,1.252-2.083c0.275-0.482,0.518-0.992,0.763-1.495c0.154-0.311,0.338-0.463,0.666-0.268
		c0.598,0.356,1.186,0.75,1.812,1.031c0.594,0.267,1.076,0.669,1.471,1.188c0.602,0.792,1.439,1.194,2.217,1.692
		c0.629,0.401,0.719,1.103,0.908,1.753c0.088,0.301,0.148,0.619,0.168,0.934c0.012,0.21-0.01,0.543-0.125,0.614
		c-0.178,0.111-0.502,0.146-0.668,0.037c-0.469-0.31-0.889-0.709-1.33-1.07c-0.082-0.067-0.172-0.126-0.26-0.184
		c-0.412-0.273-0.842-0.519-1.232-0.824c-0.488-0.381-0.941-0.812-1.479-1.178c0.215,0.5,0.42,1.005,0.648,1.497
		c0.578,1.242,1.145,2.493,1.766,3.711c0.217,0.428,0.623,0.738,0.865,1.156c0.492,0.85,1.283,1.357,1.887,2.077
		c0.131,0.158,0.258,0.32,0.383,0.486c0.25,0.338,0.541,0.517,0.961,0.625c0.492,0.127,0.922,0.529,1.382,0.805
		c0.172,0.103,0.352,0.188,0.531,0.274c0.371,0.178,0.736,0.373,1.117,0.52c0.467,0.181,0.947,0.319,1.424,0.473
		c0.049,0.016,0.113-0.01,0.156,0.016c0.896,0.515,1.898,0.208,2.83,0.445c0.15,0.038,0.297,0.104,0.443,0.164
		c0.061,0.023,0.146,0.105,0.172,0.086c0.348-0.262,0.617,0.041,0.918,0.13c0.07,0.021,0.201,0.043,0.219,0.011
		c0.299-0.592,0.842-0.376,1.258-0.379c0.859-0.007,1.691-0.129,2.52-0.355c0.268-0.072,0.549-0.074,0.826-0.099
		c0.609-0.051,1.043-0.537,1.586-0.745c0.451-0.171,0.793-0.445,1.004-0.921c0.039-0.084,0.168-0.127,0.264-0.168
		c0.301-0.13,0.615-0.226,0.906-0.38c0.299-0.159,0.58-0.363,0.859-0.563c0.191-0.138,0.361-0.313,0.594-0.068
		c0.018,0.019,0.246-0.127,0.24-0.164c-0.078-0.404,0.162-0.447,0.414-0.442c0.287,0.005,0.393-0.098,0.389-0.432
		c-0.002-0.263,0.113-0.499,0.453-0.452c0.078,0.011,0.195-0.176,0.266-0.293c0.068-0.115,0.076-0.278,0.152-0.382
		c0.252-0.34,0.523-0.664,0.789-0.992c0.051-0.064,0.105-0.144,0.172-0.17c0.732-0.28,1.074-1.026,1.58-1.573
		c0.805-0.868,1.258-1.958,1.592-3.116c0.215-0.751,0.521-1.489,0.617-2.26c0.162-1.316,0.484-2.623,0.363-3.973
		c-0.146-1.601-0.266-3.204-0.451-4.798c-0.125-1.082-0.303-2.163-0.545-3.221c-0.133-0.586-0.447-1.121-0.674-1.682
		c-0.312-0.775-0.594-1.564-0.934-2.326c-0.354-0.794-0.754-1.564-1.145-2.339c-0.139-0.272-0.297-0.536-0.465-0.789
		c-0.645-0.976-1.227-2.017-1.967-2.896c-0.754-0.892-1.621-1.692-2.525-2.4c-0.992-0.775-2.07-1.438-3.266-1.795
		c-1.203-0.359-2.4-0.811-3.629-0.98c-1.15-0.16-2.342-0.062-3.506,0.037c-0.531,0.043-1.055,0.336-1.562,0.564
		c-0.146,0.066-0.248,0.289-0.34,0.459c-0.367,0.683-0.723,1.314-1.525,1.548c-0.578,0.168-1.092,0.597-1.633,0.912
		c-1.001,0.582-1.716,1.575-2.673,2.229c-0.303,0.205-0.52,0.566-0.756,0.875c-0.562,0.738-1.121,1.481-1.67,2.234
		c-0.381,0.525-0.748,1.064-1.104,1.611c-0.129,0.197-0.203,0.433-0.305,0.647c-0.613,1.276-1.084,2.612-1.408,4.007
		c-0.066,0.284-0.018,0.6-0.041,0.898c-0.084,1.049,0.154,2.031,0.531,2.976c0.131,0.326,0.289,0.675,0.521,0.904
		c0.246,0.242,0.598,0.354,0.896,0.521c-0.051,0.018-0.172,0.068-0.297,0.101c-0.703,0.176-1.344,0.1-1.826-0.571
		c-0.041-0.057-0.086-0.121-0.143-0.148c-0.945-0.47-1.176-1.507-1.533-2.402c-0.623-1.557-0.602-3.227-0.521-4.891
		c0.029-0.631,0.182-1.207,0.461-1.766c0.135-0.267,0.113-0.621,0.205-0.918c0.158-0.498,0.34-0.986,0.531-1.471
		c0.129-0.329,0.268-0.66,0.443-0.961c0.309-0.528,0.635-1.045,0.977-1.547c0.391-0.577,0.809-1.133,1.215-1.698
		c0.033-0.044,0.068-0.092,0.113-0.12c0.881-0.58,1.457-1.498,2.162-2.277c0.408-0.453,0.949-0.76,1.424-1.145
		c0.773-0.632,1.523-1.301,2.318-1.898c0.328-0.246,0.75-0.334,1.121-0.516c0.428-0.209,0.875-0.391,1.258-0.674
		c0.514-0.379,1.051-0.646,1.658-0.77c0.387-0.078,0.764-0.234,1.152-0.277c0.598-0.066,1.203-0.082,1.805-0.088
		c0.707-0.006,1.416,0.025,2.123,0.037c0.092,0.002,0.186-0.02,0.277-0.014c0.982,0.072,1.975,0.075,2.945,0.243
		c0.75,0.13,1.502,0.39,2.199,0.728c1.004,0.488,1.979,1.067,2.934,1.666c0.703,0.441,1.406,0.912,2.02,1.486
		c0.793,0.747,1.525,1.581,2.225,2.436c0.512,0.625,0.875,1.398,1.4,2.005c0.684,0.788,1.146,1.718,1.592,2.651
		c0.588,1.234,1.076,2.526,1.592,3.803c0.213,0.533,0.416,1.078,0.562,1.637c0.201,0.756,0.365,1.525,0.506,2.297
		c0.217,1.188,0.396,2.382,0.602,3.572c0.254,1.473,0.213,2.961,0.197,4.446c-0.006,0.775-0.045,1.558-0.148,2.323
		c-0.094,0.705-0.289,1.395-0.453,2.086c-0.113,0.471-0.242,0.936-0.377,1.398c-0.393,1.354-1.008,2.577-1.771,3.725
		c-0.557,0.837-1.047,1.729-1.602,2.569c-0.242,0.365-0.57,0.661-0.859,0.99c-0.469,0.538-0.916,1.104-1.414,1.609
		c-0.633,0.645-1.293,1.261-1.967,1.852c-0.512,0.45-1.045,0.883-1.607,1.251c-0.867,0.565-1.727,1.187-2.662,1.568
		c-1.111,0.454-2.256,0.872-3.467,0.962c-0.523,0.038-1.039,0.203-1.562,0.229c-0.609,0.03-1.223-0.044-1.836-0.046
		c-0.445-0.002-0.893,0.082-1.336,0.049c-0.59-0.044-1.176-0.159-1.762-0.252c-0.273-0.044-0.543-0.112-0.814-0.16
		c-0.977-0.175-1.891-0.552-2.775-1.033c-0.35-0.189-0.713-0.366-1.086-0.488c-0.988-0.324-1.82-0.949-2.658-1.57
		c-0.674-0.498-1.373-0.953-2.021-1.486c-0.879-0.723-1.695-1.521-2.291-2.564c-0.289-0.506-0.652-0.976-1.041-1.396
		c-1.223-1.326-1.664-3.04-2.051-4.787C7.705,34.726,7.65,34.388,7.562,33.922"/>
	<path fill="#262626" d="M25.929,27.607c0.418-0.41,0.777-0.767,1.139-1.121c0.322-0.317,0.643-0.635,0.965-0.952
		c0.562-0.552,1.137-1.087,1.682-1.659c0.363-0.384,0.643-0.876,1.035-1.219c0.797-0.7,1.646-1.33,2.469-1.995
		c0.221-0.178,0.432-0.373,0.639-0.571c0.295-0.282,0.578-0.581,0.877-0.858c0.076-0.069,0.191-0.111,0.291-0.118
		c0.492-0.034,0.986-0.052,1.521-0.077c-0.035,0.113-0.049,0.294-0.137,0.413c-0.588,0.823-1.16,1.665-1.799,2.443
		c-1.25,1.522-2.475,3.061-3.578,4.719c-0.5,0.751-1.141,1.387-1.689,2.102c-0.715,0.933-1.398,1.894-2.1,2.839
		c-0.465,0.628-0.93,1.257-1.408,1.87c-0.115,0.147-0.287,0.244-0.441,0.349c-0.09,0.06-0.229,0.058-0.287,0.136
		c-0.363,0.49-0.793,0.269-1.217,0.162c-0.305-0.076-0.641-0.081-0.91-0.231c-0.158-0.087-0.293-0.399-0.291-0.609
		c0.004-0.754,0.074-1.505,0.115-2.258c0.006-0.099-0.006-0.199-0.008-0.301c-0.018-0.688-0.047-1.377-0.045-2.064
		c0.002-0.654,0.016-1.311,0.064-1.962c0.031-0.402,0.143-0.797,0.205-1.195c0.078-0.476,0.166-0.95,0.209-1.429
		c0.037-0.438,0.02-0.881,0.027-1.321c0.016-0.787,0.023-1.574,0.051-2.361c0.027-0.763,0.084-1.524,0.109-2.286
		c0.043-1.25,0.029-2.502,0.113-3.746c0.09-1.303,0.266-2.599,0.4-3.896c0.02-0.188,0.043-0.374,0.047-0.561
		c0.01-0.517,0.316-0.758,0.717-0.468c0.396,0.285,0.715,0.698,1.062,1.063c0.111,0.117,0.18,0.306,0.309,0.38
		c0.279,0.163,0.246,0.385,0.201,0.661c-0.117,0.72-0.242,1.441-0.303,2.17c-0.082,1.003-0.039,2.023-0.176,3.015
		c-0.246,1.808,0.025,3.584,0.127,5.373c0.055,0.977,0.076,1.956,0.07,2.934c-0.006,0.688-0.094,1.375-0.129,2.063
		C25.849,27.227,25.903,27.418,25.929,27.607"/>
</g>
</svg>
