<?xml version="1.0" encoding="utf-8"?>
<!-- Generator: Adobe Illustrator 19.2.1, SVG Export Plug-In . SVG Version: 6.00 Build 0)  -->
<svg version="1.1" id="Layer_1" xmlns="http://www.w3.org/2000/svg" xmlns:xlink="http://www.w3.org/1999/xlink" x="0px" y="0px"
	 viewBox="0 0 250 200" style="enable-background:new 0 0 250 200;" xml:space="preserve">
<style type="text/css">
	.st0{fill:#1DB5B6;}
	.st1{fill:#262626;}
	.st2{clip-path:url(#SVGID_2_);}
	.st3{clip-path:url(#SVGID_4_);}
</style>
<g>
	<g>
		<path class="st0" d="M132.6,50.2c1.1-0.4,2.3-0.7,3.4-0.9c-1.1-0.1-2.3-0.2-3.4-0.2c-0.7,0.2-1.2,0.5-1.6,0.8
			C130.7,50.3,132.1,50.1,132.6,50.2z"/>
		<path class="st0" d="M119.4,104.6c-2.1-2.2-4.8-8.3-5.8-11.1c-2-5.6-3-11.4-3.3-16.7c0.1-2.4,0.3-5,0.9-7.7c0.1-0.7,0.3-1.3,0.5-2
			c0.2-0.6,0.5-1.5,0.7-2c0.5-1.3,1.1-2.5,1.9-3.7c2.8-4.8,7.2-8.9,12.1-11.3c0.5-0.3,1-0.5,1.4-0.8c-5.9,0.9-12.4,3.5-16.8,7.4
			c-6.6,6.7-9.8,17.1-9.1,26c0.3,4.5,1.5,8.2,2.8,11.9c1.4,3.6,3,7.1,5.3,10.4c0.9,1.4,17.8,8.3,19,8.7c0.5-0.4,1.6,0.9,2.1,0.6
			c3.3,0.5,1.1-0.6,2.2-1.3c0,0,9-5.2,9-5.2C143.6,107.7,126.1,111.6,119.4,104.6z"/>
	</g>
	<g>
		<path class="st1" d="M127.1,109.8c0.1,0.2-0.5-0.4-0.5-0.4l-0.6-0.6c-0.5-0.5-0.8-0.6-1.2-1.2c-0.5-0.4-1-0.8-1.6-1.3
			c-0.5-0.1-1-0.6-1.5-1c-1.1-0.6-2.1-1.4-3.2-2.3c-1-1.1-2-2.1-3.1-2.9c-0.5-0.5-1.2-0.7-1.6-1.3c-0.7-0.1-0.9-1.2-1.6-1.3
			c-0.4-0.9-0.8-1.5-1.3-2.1c-0.5-0.7-1-1.3-1.2-2.2c-0.6-0.7-1-1.4-1.2-2.4c-0.1-0.7-0.6-1.2-0.4-2c-0.6-0.8-0.7-1.9-0.8-3
			c-0.5-1.8-0.6-3.8-0.8-5.9c0-1-0.3-1.9,0-3.1c-0.1-0.5,0-1-0.2-1.4c0.6-1.1,0.4-2.5,0.7-3.7c0.1-0.5,0.4-0.4,0.5-0.6
			c0.1-0.6,0.2-1.4,0.6-1.8c0.1-0.5,0.3-1.1,0.4-1.6c0.2-0.4,0.4-0.4,0.6-0.8c0.2-0.9,1.1-1.8,1.1-2.7c0.6-0.5,0.6-0.8,0.9-1.2
			c0.5-0.4,0.6-0.7,1.1-1c0.5-0.9,1.2-1.3,1.9-2.1c1.2-0.8,2.2-1.3,3.2-2.1c0.5-0.2,1.3-0.7,1.7-0.9c1.2-0.6,3-1.4,4-1.8
			c0.4-0.2,0.3,0,0.6-0.1c0.1-0.2,0.5-0.2,0.6-0.2c0.9-0.5,2.4-0.7,3.4-1.2c0.4,0,1.5-0.3,1.9-0.4c0.5,0,1.7-0.3,1.8-0.1
			c-0.3,0.1-0.5,0.2-1,0.4c-0.2,0.2-0.6,0.2-0.8,0.4l-0.9,0.3c-0.3,0.2-0.9,0.4-1,0.5c-0.4,0.1-0.7,0.2-0.9,0.4
			c-0.4,0.2-0.9,0.3-1.2,0.6c-0.3,0.1-1.1,0.5-1.4,0.7c-0.5,0.1-1.3,0.6-2,1c-0.7,0.4-1.4,0.6-1.8,1.1c-0.4,0.1-1.4,0.5-1.8,1
			c-0.3,0.1-0.7,0.3-1,0.5c-0.4,0.3-0.7,0.6-0.9,1c-0.2,0.3-0.3-0.1-0.5,0.3c-0.9,0.9-1.4,1.5-2.1,2.2c-0.3,0.6-0.5,0.9-0.7,1.4
			c-0.8,0.9-1.4,1.9-1.7,3.1c-0.5,0.6-0.5,1.2-0.8,2c0,0.7-0.4,1.1-0.3,1.8c-0.3,0.2-0.3,0.8-0.5,0.8c0.1,0.7-0.4,1.3-0.2,2.1
			l-0.3,1.4c0.1,0.4,0,0.9,0.2,1.1c-0.5,1,0,2.3-0.3,3.3c0.4,1.4,0.6,3,1.2,4.3l0,1.4c-0.1,0.6,0.6,0.5,0.2,1.1
			c0.2,0.6,0.1,0.5,0.2,1.1c0.5,0.6,0.8,1.3,0.9,2.2l1.5,3.1c0.1,0.2,0.3,0.4,0.5,0.6c0.2,0.2,0.4,0.5,0.5,0.7
			c0.4,0-0.1,0.6,0.5,0.4c-0.1,0.4-0.1,0.5,0.3,0.5c0.3,0.2,0.1,0.3,0.3,0.8c0.1,0.3,0.5,0.1,0.7,0.4c1.4,2.5,2.8,4.5,4.7,6.5
			c2,1.3,3.5,3.1,5.9,5.6C126.6,109.3,127,109.6,127.1,109.8z"/>
	</g>
	<g>
		<path class="st1" d="M108.5,60.6c0.1-0.1,0.3,0,0.3-0.1c0-0.2-0.1-0.2-0.1-0.3c0-0.1-0.1,0-0.1-0.1c0-0.1,0-0.1,0-0.2
			c0.1,0,0.2,0,0.2-0.2c0.1,0,0.2,0,0.3-0.2c0.3,0.1,0.5,0,0.8,0c0.1,0,0.2-0.1,0.2-0.1c0.4,0,0.8-0.1,1.3,0c0.1,0,0.2,0,0.3,0
			c0.3,0.1,0.7,0,1,0.2c0.3-0.1,0.6-0.1,0.8-0.3c0.4,0.1,0.8,0,1.1-0.1c0.2,0.1,0.4,0.1,0.5,0.2c0.1,0,0.2,0,0.3,0.1
			c0.2,0.1,0.4,0.2,0.6,0.2c0.1,0.1,0.2,0.1,0.3,0.2c0.1,0.1,0.2,0,0.3,0.1c0,0.2-0.1,0.2-0.3,0.2c0,0.1,0.1,0.1,0.1,0.2
			c0-0.1-0.2,0-0.2-0.1c-0.2,0.1-0.5,0.1-0.7,0.1c-0.3,0.1-0.6,0.2-1,0.2c-0.4,0.1-0.8,0.2-1.1,0.3c-0.3-0.1-0.6,0-0.8,0.1
			c-0.3-0.1-0.6,0-0.9-0.1c-0.4,0.1-0.9,0-1.4,0.1c-0.4-0.1-0.9,0.1-1.3,0c-0.1,0-0.2,0.1-0.3,0.1c-0.1,0,0-0.2-0.1-0.2
			C108.5,60.8,108.5,60.7,108.5,60.6z"/>
	</g>
	<g>
		<path class="st1" d="M105,67.6c0.1-0.1,0.3,0,0.3-0.1c0-0.2-0.1-0.2-0.1-0.3c0-0.1-0.1,0-0.1-0.1c0-0.1,0-0.1,0-0.2
			c0.1,0,0.2,0,0.2-0.2c0.1,0,0.2,0,0.3-0.1c0.3,0.1,0.5,0,0.8,0c0.1,0,0.2-0.1,0.2-0.1c0.4,0,0.8-0.1,1.3,0c0.1,0,0.2,0,0.3,0
			c0.3,0.1,0.7,0,1,0.2c0.3-0.1,0.6-0.1,0.8-0.3c0.4,0.1,0.8,0,1.1-0.1c0.2,0.1,0.4,0.1,0.5,0.2c0.1,0,0.2,0,0.3,0.1
			c0.2,0.1,0.4,0.2,0.7,0.2c0.1,0.1,0.2,0.1,0.3,0.2c0.1,0.1,0.2,0,0.3,0.1c0,0.2-0.1,0.2-0.3,0.2c0,0.1,0.1,0.1,0.1,0.2
			c0-0.1-0.2,0-0.2-0.1c-0.2,0.1-0.5,0.1-0.7,0.1c-0.3,0.1-0.6,0.1-1,0.2c-0.4,0.1-0.8,0.2-1.1,0.3c-0.3-0.1-0.6,0-0.8,0.1
			c-0.3-0.1-0.6,0-0.9-0.1c-0.4,0.1-0.9,0-1.4,0.1c-0.4-0.1-0.9,0.1-1.3,0c-0.1,0-0.2,0.1-0.3,0.1c-0.1,0,0-0.2-0.1-0.2
			C105,67.8,105,67.7,105,67.6z"/>
	</g>
	<g>
		<path class="st1" d="M103.2,76.3c0.1-0.1,0.3,0,0.3-0.2c0-0.2-0.1-0.2-0.1-0.3c0-0.1-0.1,0-0.1-0.1c0-0.1,0-0.1,0-0.2
			c0.1,0,0.2,0,0.2-0.2c0.1,0,0.2,0,0.3-0.1c0.3,0.1,0.5,0,0.8,0c0.1,0,0.2-0.1,0.2-0.1c0.4,0,0.8-0.1,1.3,0c0.1,0,0.2,0,0.3,0
			c0.3,0.1,0.7,0,1,0.2c0.3-0.1,0.6-0.1,0.8-0.3c0.4,0.1,0.8,0,1.1-0.1c0.2,0.1,0.4,0.1,0.5,0.2c0.1,0,0.2,0,0.3,0.1
			c0.2,0.1,0.4,0.2,0.7,0.2c0.1,0.1,0.2,0.1,0.3,0.2c0.1,0.1,0.2,0,0.3,0.1c0,0.2-0.1,0.2-0.3,0.2c0,0.1,0.1,0.1,0.1,0.2
			c0-0.1-0.2,0-0.2-0.1c-0.2,0.1-0.5,0.1-0.7,0.1c-0.3,0.1-0.6,0.1-1,0.2c-0.4,0.1-0.8,0.2-1.1,0.3c-0.3-0.1-0.6,0-0.8,0.1
			c-0.3-0.1-0.6,0-0.9-0.1c-0.4,0.1-0.9,0-1.4,0.1c-0.4-0.1-0.9,0.1-1.3,0c-0.1,0-0.2,0.1-0.3,0.1c-0.1,0,0-0.2-0.1-0.2
			C103.3,76.5,103.3,76.4,103.2,76.3z"/>
	</g>
	<g>
		<path class="st1" d="M101.5,83.3c0.1-0.1,0.3,0,0.3-0.1c0-0.2-0.1-0.2-0.1-0.3c0-0.1-0.1,0-0.1-0.1c0-0.1,0-0.1,0-0.2
			c0.1,0,0.2,0,0.2-0.2c0.1,0,0.2,0,0.3-0.1c0.3,0.1,0.5,0,0.8,0c0.1,0,0.2-0.1,0.2-0.1c0.4,0,0.8-0.1,1.3,0c0.1,0,0.2,0,0.3,0
			c0.3,0.1,0.7,0,1,0.2c0.3-0.1,0.6-0.1,0.8-0.3c0.4,0.1,0.8,0,1.1-0.1c0.2,0.1,0.4,0.1,0.5,0.2c0.1,0,0.2,0,0.3,0.1
			c0.2,0.1,0.4,0.2,0.7,0.2c0.1,0.1,0.2,0.1,0.3,0.2c0.1,0.1,0.2,0,0.3,0.1c0,0.2-0.1,0.2-0.3,0.2c0,0.1,0.1,0.1,0.1,0.2
			c-0.1-0.1-0.2,0-0.2-0.1c-0.2,0.1-0.5,0.1-0.7,0.1c-0.3,0.1-0.6,0.1-1,0.2c-0.4,0.1-0.8,0.2-1.1,0.3c-0.3-0.1-0.6,0-0.8,0.1
			c-0.3-0.1-0.6,0-0.9-0.1c-0.4,0.1-0.9,0-1.4,0.1c-0.4-0.1-0.9,0.1-1.3,0c-0.1,0-0.2,0.1-0.3,0.1c-0.1,0,0-0.2-0.1-0.2
			C101.6,83.5,101.5,83.4,101.5,83.3z"/>
	</g>
	<g>
		<path class="st1" d="M103.2,90.3c0.1-0.1,0.3,0,0.3-0.1c0-0.2-0.1-0.2-0.1-0.3c0-0.1-0.1,0-0.1-0.1c0-0.1,0-0.1,0-0.2
			c0.1,0,0.2,0,0.2-0.2c0.1,0,0.2,0,0.3-0.1c0.3,0.1,0.5,0,0.8,0c0.1,0,0.2-0.1,0.2-0.1c0.4,0,0.8-0.1,1.3,0c0.1,0,0.2,0,0.3,0
			c0.3,0.1,0.7,0,1,0.2c0.3-0.1,0.6-0.1,0.8-0.3c0.4,0.1,0.8,0,1.1-0.1c0.2,0.1,0.4,0.1,0.5,0.2c0.1,0,0.2,0,0.3,0.1
			c0.2,0.1,0.4,0.2,0.7,0.2c0.1,0.1,0.2,0.1,0.3,0.2c0.1,0.1,0.2,0,0.3,0.1c0,0.2-0.1,0.2-0.3,0.2c0,0.1,0.1,0.1,0.1,0.2
			c0-0.1-0.2,0-0.2-0.1c-0.2,0.1-0.5,0.1-0.7,0.1c-0.3,0.1-0.6,0.1-1,0.2c-0.4,0.1-0.8,0.2-1.1,0.3c-0.3-0.1-0.6,0-0.8,0.1
			c-0.3-0.1-0.6,0-0.9-0.1c-0.4,0.1-0.9,0-1.4,0.1c-0.4-0.1-0.9,0.1-1.3,0c-0.1,0-0.2,0.1-0.3,0.1c-0.1,0,0-0.2-0.1-0.2
			C103.3,90.5,103.3,90.4,103.2,90.3z"/>
	</g>
	<g>
		<path class="st1" d="M105,99c0.1-0.1,0.3,0,0.3-0.2c0-0.2-0.1-0.2-0.1-0.3c0-0.1-0.1,0-0.1-0.1c0-0.1,0-0.1,0-0.2
			c0.1,0,0.2,0,0.2-0.2c0.1,0,0.2,0,0.3-0.1c0.3,0.1,0.5,0,0.8,0c0.1,0,0.2-0.1,0.2-0.1c0.4,0,0.8-0.1,1.3,0c0.1,0,0.2,0,0.3,0
			c0.3,0.1,0.7,0,1,0.2c0.3-0.1,0.6-0.1,0.8-0.3c0.4,0.1,0.8,0,1.1-0.1c0.2,0.1,0.4,0.1,0.5,0.2c0.1,0,0.2,0,0.3,0.1
			c0.2,0.2,0.4,0.2,0.7,0.2c0.1,0.1,0.2,0.1,0.3,0.2c0.1,0.1,0.2,0,0.3,0.1c0,0.2-0.1,0.2-0.3,0.2c0,0.1,0.1,0.1,0.1,0.2
			c0-0.1-0.2,0-0.2-0.1c-0.2,0.1-0.5,0.1-0.7,0.1c-0.3,0.1-0.6,0.2-1,0.2c-0.4,0.1-0.8,0.2-1.1,0.3c-0.3-0.1-0.6,0-0.8,0.1
			c-0.3-0.1-0.6,0-0.9-0.1c-0.4,0.1-0.9,0-1.4,0.1c-0.4-0.1-0.9,0.1-1.3,0c-0.1,0-0.2,0.1-0.3,0.1c-0.1,0,0-0.2-0.1-0.2
			C105,99.2,105,99.1,105,99z"/>
	</g>
	<g>
		<path class="st1" d="M115.5,53.7c0.1-0.1,0.4,0,0.5-0.2c0-0.2-0.1-0.2-0.1-0.3c0-0.1-0.2,0-0.2-0.1c0-0.1,0-0.1,0-0.2
			c0.1,0,0.3,0,0.3-0.2c0.2,0,0.4,0,0.4-0.2c0.4,0.1,0.8,0,1.2,0c0.1,0,0.2-0.1,0.3-0.1c0.5,0,1.2-0.1,1.8,0c0.1,0,0.3,0,0.4,0
			c0.5,0.1,1,0,1.4,0.2c0.4-0.1,0.8-0.1,1.1-0.3c0.5,0.1,1.2,0,1.6-0.1c0.2,0.1,0.5,0.1,0.7,0.3c0.1,0,0.3,0,0.4,0.1
			c0.3,0.2,0.5,0.2,0.9,0.2c0.1,0.1,0.3,0.1,0.4,0.2c0.2,0.1,0.2,0,0.4,0.1c-0.1,0.2-0.2,0.2-0.4,0.2c0,0.1,0.1,0.1,0.1,0.2
			c-0.1-0.1-0.3,0-0.3-0.1c-0.3,0.1-0.7,0.1-1.1,0.1c-0.4,0.1-0.9,0.2-1.4,0.2c-0.5,0.1-1.1,0.2-1.6,0.3c-0.4-0.1-0.8,0-1.2,0.1
			c-0.4-0.1-0.8,0-1.2-0.1c-0.6,0.1-1.3,0-1.9,0.1c-0.6-0.1-1.2,0.1-1.8,0c-0.2,0-0.3,0.1-0.4,0.2c-0.1,0,0-0.2-0.1-0.2
			C115.5,53.8,115.5,53.7,115.5,53.7z"/>
	</g>
	<g>
		<path class="st1" d="M126.7,71.7c0,0.7-1.3,1.7-2.2,2.7c-0.7,0.9-1.6,2.2-2,2.8c0,0.2-0.1,0.4,0,0.4c0,0.1,0,0.4,0.1,0.4
			c0,0.1,0,0.1,0.1,0.2c0.1,0.4,0.3,0.8,0.6,1.1c0.5,0.7,1.3,1.4,2.2,1.9c1.8,1.1,3.8,1.7,5.8,2.1c2.6,0.8,4.6,1.6,7.3,2.2
			c2.3,0.2,4.8,0.6,7.5,0.9l0.6,0c0.1,0,0.2,0,0.2-0.1c0.1,0,0.2-0.1,0.3-0.3c0.1,0.1,0.3,0.1,0.4,0c0.1,0,0.2,0,0.1-0.2
			c-0.1-0.3-0.3-0.6-0.3-0.7c0,0.1-0.1-0.3-0.1-0.5l-0.1-0.8l-0.3-1.7c-0.2-1.1-0.3-2.1-0.4-2.7c0.1-2,0.2-3.9,0.6-5.3
			c0.2-1,0.8-1.1,0.8-2.4c0.4-0.2,0.6-0.6,0.7-1.2c0.4,0,0.5-0.7,1-0.5c-0.2-1,0.6-0.5,0.6-1.2c0.4,0.6,0.3-0.3,0.6-0.3
			c0.3,0.2,0.6,0.5,0.9,0.7c0.1,1.4,0,2.5-0.3,3.1c0,1.2-0.2,1.9-0.5,2.7c0,0.4,0.1,0.9-0.1,1c0.1,2.9,0.3,4.7,0.5,6.9l0.4,2.2
			l0.4,3.1l0.2,1.6l0.1,0.8l0,0.2l0,0.1c0,0-0.1,0-0.1,0l-0.4,0l-3.2-0.2l-3.1-0.3l-2.3-0.2c-1.6-0.2-3.1-0.4-4.7-0.7
			c-3.1-0.5-6.2-1.1-9.1-2c-1.5-0.4-3-1-4.5-1.7c-1.5-0.7-3-1.7-4.4-3.2c-0.6-0.9-1.1-1.7-1.4-2.6c-0.2-0.5-0.3-1-0.4-1.7
			c0-0.2-0.1-1.4,0.2-2.1c0.2-1.1,0.5-1.9,1-2.7c0.2-0.3,0-0.2-0.1-0.1c-0.2,0.3-0.2,0.1-0.1-0.1c0.6-0.8,0.9-1.4,1.6-2.2
			c1-0.2,1.3,0,2.4-0.1c0.5-0.1,0.8,0.3,1.5-0.2c0.4,0.1,0.8,0.1,1.2,0c-0.1,0.3,0,0.4,0.3,0.4C126.8,71.4,126.2,72.1,126.7,71.7z"
			/>
	</g>
	<g>
		<g>
			<g>
				<defs>
					<polygon id="SVGID_1_" points="88.2,172.8 101.6,178.9 156.3,157.1 161.8,154.2 174.3,169.3 152.8,216.2 89.6,211.3 73.6,188 
						64.3,176.6 					"/>
				</defs>
				<clipPath id="SVGID_2_">
					<use xlink:href="#SVGID_1_"  style="overflow:visible;"/>
				</clipPath>
				<g class="st2">
					<polygon class="st0" points="82.3,175.2 95.7,184.5 158.9,158.3 147,154.5 					"/>
					<g>
						<path class="st0" d="M83.1,174.5c1.5,0.1,5.1,2.7,8.2,4.8c0.8,0.5,1.7,1.1,2.7,1.7l1.2,0.8l0.8,0.6l1.2-0.4l1.7-0.6
							c12.2-5.5,23.4-10,33.4-15l2.6-1.1l2.2-0.9l2-0.7c1.4-0.5,3.2-1.1,4.8-1.7c0.4-0.2,0.8-0.5,1.1-0.7l0.3-0.2l0.2-0.1
							c0,0,0.2-0.1,0-0.1l-1.2-0.2c-0.8-0.2-1.5-0.3-2.2-0.5l-1-0.3l-0.5-0.1c-0.1,0-0.2-0.1-0.2-0.1l-0.2,0.1
							c-1.2,0.6-2.1,0.9-2.8,1.5c-0.2,0-0.6,0.1-0.9,0.3c-0.2,0.1-0.2,0.1-0.6,0.3l-2,0.7c-2.7,1-5.6,2.1-8.5,3
							c-4.6,1.8-11.8,4.2-14.8,5.4c-5.1,1.3-10,2.6-13.5,2.9c-2.5,0.5-3-0.3-6.3,0.7c-0.6-0.3-1.6-0.4-3.3-0.1
							c-0.2-0.5-1.9-0.1-1.6-0.9c-2.5,0.9-1.3-0.5-3.2,0.1c1.5-0.9-0.8-0.1-0.8-0.6c0.6-0.6,1.2-1.1,1.5-1.7c3.6-1.2,6.4-1.8,8-1.7
							c3-0.8,4.9-1,6.8-1.2c1-0.3,2.3-0.8,2.5-0.6c7.2-2.2,11.9-3.7,17.4-5.5c3.5-1.3,7.1-2.7,10.8-4l5.6-2l7-1.7l7.3-1.7
							c0.3,0,0.6-0.2,0.9-0.1l0.9,0.3l1.8,0.5l3.6,1.1l7.4,2.2l0.9,0.3c0,0,0.1,0,0.1,0l-0.1,0.1l-0.2,0.1l-0.4,0.2l-1.7,0.8
							l-3.4,1.7l-13.4,6.7l-3.3,1.7l-1.7,0.9c-0.6,0.3-1.1,0.6-1.5,0.8l-5.3,2.4c-7.1,3.2-14.2,6.3-21.5,9.4
							c-3.8,1.3-5.9,2.4-10.5,4.2l-2.2,1.1c-1.2,0.6-2.4,1.2-3.8,1.8l-0.9-0.6c-1.1-0.7-0.6-0.2-0.1,0.2c1.1,0.8,0.5,0.6-0.1,0.2
							c-3.8-2.6-4.3-2.6-6.3-4c-1.1-1.6-1.1-2.3-2.3-4.2c-0.8-0.9-0.3-1.4-1.9-2.6c-0.3-0.7-0.7-1.4-1.4-2.3
							c0.7,0.2,0.9,0.1,0.4-0.5C82.2,174.2,84.4,175.4,83.1,174.5z"/>
					</g>
				</g>
			</g>
		</g>
	</g>
	<g>
		<path class="st1" d="M83.5,145.8c-1.1,0-3.6,0.4-4.6,0.9c-2.2,0.6-3.8,1-5.3,1.3c-2.1,0.4-3.8,0.8-6,1.8c-1.7,0.4-2.9,0.9-4.2,1.4
			c-0.8,0.4-1.8,0.8-3,1.2c-7.5,2.6-13.2,5.2-17.3,7.7l-0.4,0.2c-1.1,0.5-2.3,1-3.8,2c-0.9,0.3-3.4,1.5-3.5,2.6c0,0,0,0.1,0,0.1
			c-0.3,0.3-0.4,0.6-0.3,1l0.2,0.6h0.3c0,0,0,0,0,0c0,0.2,0.2,0.6,0.8,0.8l0.3,0.1l0.3-0.2c1.1-0.6,2.3-1.2,3.5-1.8
			c5.3-2.7,11.4-5.9,17-7.8c3.3-1.5,6.6-2.7,9.8-3.6c5.5-2.2,11.8-4.2,15.4-5.1c0.5-0.1,2.3-1.3,2.2-2.4
			C84.9,146.1,84.4,145.8,83.5,145.8z"/>
		<path class="st1" d="M213,181.7l-0.2-0.3c-0.1-0.9-0.5-1.4-1.1-2.3c-0.3-0.4-0.6-0.8-1-1.4c-0.1-0.5-0.4-0.8-0.7-1.1
			c-0.2-0.2-0.4-0.4-0.6-0.6l-0.1-0.2c-0.8-0.7-1.2-1.3-1.8-2c-0.4-0.6-0.9-1.2-1.8-2.2c-1.4-1.1-2.4-2-3.4-3
			c-1.5-1.4-3.1-2.9-6.2-5.3c-5.7-3.7-10.1-6.3-15.3-9.3l-0.2-0.1c-0.5-0.1-0.8-0.3-1-0.4c-0.5-0.2-0.9-0.4-1.8-0.5
			c-2.8-1.6-6.9-3.7-9.7-4.2c-0.3-0.2-1-0.5-2.6-0.5c-2.3,0-3.5,0.5-3.5,1.5c0,0.2,0,0.3,0.1,0.5l0.1,0.4l0.4,0.1
			c3.3,1.1,6.5,2.4,9.9,4.1c0.8,0.3,1.4,0.5,1.9,0.6c0.6,0.2,1.2,0.3,1.8,0.6c1.4,0.8,2.8,1.6,4.3,2.5c1.9,1.1,3.8,2.1,5.7,3.2
			c3.2,1.9,6.4,3.9,8.9,5.7c0.7,0.5,1.3,1,1.9,1.5c0.4,0.3,0.8,0.7,1.3,1c0.4,0.3,0.8,0.6,1.2,0.9c0.5,0.4,1.1,0.8,1.6,1.2
			c0.9,0.8,1.7,1.7,2.5,2.5c0.8,0.9,1.6,1.7,2.4,2.4c0.3,0.6,0.9,1.4,1.5,2.3c0.4,0.5,0.8,1.1,1.1,1.6l0.1,0.1
			c0.3,0.3,0.6,0.8,1,1.2c0.5,0.7,0.9,1.2,1.3,1.6c0.2,0.3,0.5,0.9,0.7,1.4c0.6,1.2,1,2,1.8,2c0,0,0,0,0,0c0.2,0,0.6,0,0.9-0.5
			C215.5,185.8,214.6,184.2,213,181.7z"/>
	</g>
	<g>
		<path class="st1" d="M134.5,48.5c0-0.6,1.5-0.9,3.4-0.9c2,0,4.5,0.4,6.5,1c3,0.6,6.6,2.3,9.7,4.4c1.8,1.2,1.1,1.2,2.6,2.5
			c2.1,2.1,3.2,4.1,4.2,6.2c1,2.1,1.8,4.4,2.8,7.5c0.7,3.2,1,5.6,1.3,7.9c0.2,1.2,0.3,2.3,0.4,3.6c0.1,0.6,0.1,1.3,0.1,2
			c0,0.8,0,1.5,0,2.3c-0.5,3.8-1.4,5.6-2.7,9.1c-1.1,3.1-2.2,5.6-3.4,7.8c-2.1,2.5-5.1,5.4-7.6,6.7c-2.1,1.4-2.7,2-4.6,3
			c-1.9,0.8-2.5,0.7-4.5,1.3c-1.7,0.5-2.5,0.9-4,1.3c-5.9,1.1-13,0.2-18.8-1.7c-3.7-1.5-7.8-3.8-11.4-6.8c-1-0.8-1.8-1.5-2.7-2.5
			c-0.9-1-1.6-2-2.3-3.1c-1.3-2.2-2.2-4.5-2.8-6.8c-0.5-1.5-0.9-3.6-1.2-4.6c-0.4-4.2-0.3-8.7,0.3-13c0.6-4.4,1.8-8.6,3.5-12
			c1.2-1.6,1.9-2.7,3.1-4.4c2.2-2.4,3.3-2.8,5.4-4.4c1.1-1,2.2-1.7,2.9-1.9c1-1,2.9-2.2,4.4-3c2.3-0.8,5-1.6,7.7-2
			c2.7-0.4,5.4-0.6,7.6-0.3c-0.1,0.7-4.9,0.6-6.9,1.3c-4.1,0.6-5.7,1.6-8,2.5c-1.5,0.8-1.7,1.4-2.2,2c-1.4,0.8-3,1.9-3.5,2.6
			c-1.4,1.1-2,1.9-2.3,2.4c-0.9,1-1,0.7-1.9,1.9c-0.6,0.9-1.6,2.2-2.4,3.3c-0.7,1.1-1.2,2.3-1.2,2.8c-0.4,0.5-1,1.6-1.4,2.8
			c-0.5,1.5-0.7,2.7-0.8,3.7c-0.4,1.4-0.6,2.8-0.8,4.2c-0.3,2.2,0.4,1.8,0.4,3.3c-0.3,4.5,0.3,8.7,1.5,12.5c0.6,1.9,1.4,3.7,2.3,5.3
			c0.9,1.7,2.1,2.9,3.6,4.4c3.5,2.7,5.9,4.4,9.7,5.7c1.6,0.6,3.5,1.4,5.3,1.8c1.9,0.5,3.7,0.7,5,0.7c1.9,0.4,4.3,0.4,6.7,0
			c2.5-0.4,5-1.2,7.2-2.2c2.7-0.9,5.2-2.8,7.7-5.3c3.4-3.3,6.8-8.7,7.9-13.1c0.5-1.5,0.9-3.4,1.2-4.1c0.2-1.8,0.3-3.6,0.1-5.5
			c-0.1-1.9-0.3-3.9-0.6-5.8c-0.6-3.9-1.5-7.9-3.1-11.4c0.1-0.5-0.8-2.2-1-3c-1-1.9-1.5-2-2.6-3.2c0.2-0.7-2.2-2.8-4.1-4.2
			c-3.4-2-5.3-2.9-8.2-3.3c-1.3-0.3-1.6-0.6-2-0.8C138.9,48.8,136.4,48.4,134.5,48.5z"/>
	</g>
	<g>
		<path class="st1" d="M112,57.1c0.1-0.1,0.3,0,0.3-0.1c0-0.2-0.1-0.2-0.1-0.3c0-0.1-0.1,0-0.1-0.1c0-0.1,0-0.1,0-0.2
			c0.1,0,0.2,0,0.2-0.2c0.1,0,0.2,0,0.3-0.1c0.3,0.1,0.5,0,0.8,0c0.1,0,0.2-0.1,0.2-0.1c0.4,0,0.8-0.1,1.3,0c0.1,0,0.2,0,0.3,0
			c0.3,0.1,0.7,0,1,0.2c0.3-0.1,0.6-0.1,0.8-0.3c0.4,0.1,0.8,0,1.1-0.1c0.2,0.1,0.4,0.1,0.5,0.2c0.1,0,0.2,0,0.3,0.1
			c0.2,0.1,0.4,0.2,0.6,0.2c0.1,0.1,0.2,0.1,0.3,0.2c0.1,0.1,0.2,0,0.3,0.1c0,0.2-0.1,0.2-0.3,0.2c0,0.1,0.1,0.1,0.1,0.2
			c0-0.1-0.2,0-0.2-0.1c-0.2,0.1-0.5,0.1-0.7,0.1c-0.3,0.1-0.6,0.1-1,0.2c-0.4,0.1-0.8,0.2-1.1,0.3c-0.3-0.1-0.6,0-0.8,0.1
			c-0.3-0.1-0.6,0-0.9-0.1c-0.4,0.1-0.9,0-1.4,0.1c-0.4-0.1-0.9,0.1-1.3,0c-0.1,0-0.2,0.1-0.3,0.1c-0.1,0,0-0.2-0.1-0.2
			C112,57.3,112,57.2,112,57.1z"/>
	</g>
	<g>
		<path class="st1" d="M138.2,94.7c-0.4-0.1-0.1-0.6-0.5-0.8c-0.5-0.1-0.7,0.2-1,0.1c-0.3,0,0.1,0.3-0.2,0.3c-0.3,0-0.4,0.1-0.6,0.1
			c-0.1-0.2-0.1-0.6-0.5-0.6c-0.1-0.3-0.1-0.6-0.4-0.7c0.2-0.7-0.1-1.3,0-2c-0.1-0.2-0.2-0.4-0.3-0.5c0.1-0.9-0.2-2,0-3.1
			c0-0.2,0-0.5-0.1-0.6c0.4-0.8-0.1-1.7,0.6-2.3c-0.3-0.6-0.4-1.4-0.8-1.9c0.2-0.9,0.1-2-0.2-2.7c0.2-0.4,0.2-0.9,0.7-1.2
			c0-0.2,0.1-0.4,0.2-0.6c0.5-0.5,0.5-0.9,0.6-1.6c0.3-0.2,0.2-0.5,0.5-0.7c0.2-0.3,0.1-0.4,0.3-0.7c0.5,0.1,0.7,0.3,0.6,0.6
			c0.3,0,0.2-0.2,0.5-0.1c-0.2,0.1-0.1,0.4-0.3,0.6c0.2,0.5,0.3,1.1,0.3,1.8c0.4,0.7,0.4,1.5,0.5,2.3c0.3,0.9,0.5,1.9,0.8,2.7
			c-0.2,0.6,0,1.4,0.2,2c-0.3,0.7,0,1.4-0.3,2.1c0.3,1-0.1,2.3,0.3,3.3c-0.2,0.9,0.3,2.1,0,3.1c0.1,0.3,0.3,0.5,0.4,0.7
			c0.1,0.2-0.6,0.1-0.6,0.3C138.6,94.6,138.4,94.6,138.2,94.7z"/>
	</g>
	<g>
		<g>
			<g>
				<defs>
					<polygon id="SVGID_3_" points="88.2,172.8 101.6,179 156.3,157.1 161.8,154.2 162.7,132.4 145.2,120.7 80.6,116.9 65.2,153.3 
						64.3,176.6 					"/>
				</defs>
				<clipPath id="SVGID_4_">
					<use xlink:href="#SVGID_3_"  style="overflow:visible;"/>
				</clipPath>
				<g class="st3">
					<g>
						<path class="st0" d="M119.5,134.6c1.1-0.4,2.3-0.7,3.4-1c-1.1-0.1-2.3-0.2-3.4-0.2c-0.7,0.3-1.2,0.5-1.6,0.8
							C117.6,134.8,119,134.5,119.5,134.6z"/>
						<path class="st0" d="M106.3,189c-2.1-2.2-4.8-8.3-5.8-11.1c-2-5.6-3-11.4-3.3-16.7c0.1-2.5,0.3-5,0.9-7.7
							c0.1-0.7,0.3-1.3,0.5-2c0.2-0.6,0.5-1.5,0.7-2c0.5-1.3,1.1-2.5,1.9-3.7c2.8-4.8,7.2-8.9,12.1-11.3c0.5-0.3,1-0.5,1.4-0.8
							c-5.9,0.9-12.4,3.5-16.8,7.4c-6.6,6.7-9.8,17.1-9.1,26c0.3,4.5,1.5,8.2,2.8,11.9c1.4,3.6,3,7.1,5.3,10.4
							c0.9,1.4,17.8,8.3,19,8.7c0.5-0.4,1.6,0.9,2.1,0.5c3.3,0.5,1.1-0.6,2.2-1.3c0,0,9-5.2,9-5.2C130.5,192.1,113,196,106.3,189z"
							/>
					</g>
					<g>
						<path class="st1" d="M128.7,130.5c0-0.6,1.4-0.9,3.4-0.9c1.9,0,4.4,0.5,6.4,1.1c3,0.6,6.4,2.5,9.4,4.5
							c0.8,0.6,1.1,0.9,1.4,1.3c0.2,0.3,0.4,0.6,1.1,1.3c2,2.1,3,4.1,3.9,6.2c0.9,2.1,1.7,4.3,2.6,7.3c0.6,3.1,0.9,5.4,1.2,7.8
							c0.2,2.3,0.6,4.5,0.5,7.7c-0.4,3.8-1.3,5.5-2.5,8.9c-1.1,3.1-2,5.5-3.1,7.7c-1.9,2.5-4.8,5.5-7.2,6.8c-2,1.4-2.6,2.1-4.4,3.1
							c-1.9,0.9-2.5,0.7-4.4,1.4c-1.7,0.5-2.5,1-3.9,1.3c-2.9,0.6-6.1,0.7-9.3,0.3c-3.2-0.3-6.3-1.1-9.1-2.1c-3.6-1.6-7.5-3.9-11-7
							c-0.5-0.4-0.9-0.8-1.3-1.2l-0.3-0.3l-0.4-0.4c-0.2-0.2-0.4-0.5-0.6-0.7c-0.8-1-1.5-2-2.1-3.1c-1.2-2.2-2-4.4-2.6-6.7
							c-0.5-1.5-0.8-3.5-1.1-4.5c-0.3-4.1-0.3-8.5,0.3-12.8c0.5-4.3,1.6-8.4,3.2-11.8c1.1-1.6,1.7-2.7,2.9-4.4
							c2-2.4,3.2-2.8,5.2-4.4c1.1-1,2.1-1.7,2.8-2c1-1,2.7-2.2,4.2-3.1c2.2-0.8,4.8-1.7,7.5-2.2c2.6-0.5,5.3-0.6,7.5-0.3
							c-0.1,0.7-4.8,0.6-6.7,1.3c-4,0.6-5.5,1.6-7.8,2.6c-1.5,0.8-1.6,1.4-2.1,2c-1.3,0.8-2.9,2-3.4,2.7c-1.3,1.1-1.9,1.9-2.2,2.4
							c-0.8,1-0.9,0.7-1.8,1.9c-0.6,0.9-1.5,2.2-2.2,3.3c-0.7,1.1-1.2,2.3-1.1,2.8c-0.4,0.5-0.9,1.6-1.3,2.8
							c-0.5,1.5-0.6,2.6-0.7,3.7c-0.3,1.4-0.6,2.8-0.7,4.2c-0.3,2.1,0.4,1.7,0.4,3.3c-0.3,4.4,0.3,8.5,1.3,12.3
							c0.6,1.9,1.2,3.6,2.1,5.3c0.4,0.8,0.9,1.6,1.5,2.3c0.3,0.4,0.5,0.7,0.9,1c0.4,0.4,0.7,0.8,1.1,1.1c3.3,2.7,5.7,4.4,9.3,5.9
							c1.5,0.7,3.4,1.4,5.2,1.9c1.8,0.5,3.6,0.7,4.8,0.7c1.8,0.4,4.2,0.4,6.6,0c2.4-0.4,4.9-1.2,7-2.3c2.5-0.9,5-2.9,7.3-5.4
							c1.6-1.7,3.2-3.8,4.5-6.2c1.3-2.3,2.3-4.8,2.9-6.9c0.5-1.4,0.8-3.3,1.1-4c0.2-1.8,0.2-3.6,0.1-5.4c-0.1-1.9-0.3-3.8-0.6-5.7
							c-0.6-3.8-1.4-7.7-2.9-11.2c0.1-0.5-0.7-2.2-0.9-3c-1-1.9-1.5-2-2.5-3.2c0.3-0.7-2.1-2.7-3.9-4.2c-3.2-2-5.1-3-7.9-3.4
							c-1.3-0.3-1.6-0.6-2-0.8C133.1,130.9,130.6,130.5,128.7,130.5z"/>
					</g>
					<g>
						<path class="st1" d="M97.4,192.8c0.1-0.2-0.2-0.8,0.2-0.8c-0.4-0.7,0.1-0.7-0.2-1.3c-0.6-1.2-1.1-2.5-1.8-3.4
							c-0.2-1.6-1-2.6-1.5-4.6c-0.7-1.4-1.1-2.4-1.4-3.9c-0.7-0.7-0.8-1.8-1.1-2.8c-0.3-1-0.6-2-0.5-3.1c-0.3-1.6-0.7-3-0.7-4.9
							c-0.3-0.9-0.5-1.6-0.3-2.6c-0.1-0.8-0.4-2.5-0.1-3.1c0.2-0.7-0.3-0.5-0.1-1.1c-0.3-0.1,0.3-0.6-0.2-0.7
							c0.4-0.5,0.3-0.4,0.4-1.3c-0.4-1.4,0.2-2.4,0.2-4.3c0.3-2.1,1.2-4.2,2.4-6.2c1.2-2,2.6-3.9,4.1-5.8c3-3.7,6.4-7.2,9.5-10.1
							c-0.3-0.3,1.3-1,0.7-1.2c0.4-0.6-0.6,0.3-0.6,0c-0.4,0.3-0.6,0-0.9,0c-1.1,0.6-2.1,0.6-3.2,1.5c-1.9,2-2.7,2.9-4.2,4.4
							c-0.3,0.3-0.2,0.5-0.2,0.7c-0.6,0.1-1.3,1.4-1.9,1.7c-0.3,0.6-0.6,1-1.2,1.4c0.2,0.5-0.5,0.9-1,1.2c0.2,0.1,0.1,0.4-0.2,0.7
							c-1.7,2.2-2.1,3.2-3.9,6.1c-0.1,0.6-0.6,1.4-0.6,1.9c-0.4,0-0.6,1.3-0.8,1.9c-0.4,1.9-0.6,3.7-0.9,5.7
							c0.2,2.2-0.2,5.4,0.3,7.7c-0.4,1,0,1.6,0.1,2.3c0,0.5-0.2,0.9-0.2,1.4c0,0.3,0.3,0.8,0.3,1.1c0.1,0.7,0.1,1.3,0.2,2
							c0.2,1.1,0.4,2.3,0.6,2.7c0.1,0.2,0.2,0.1,0.2,0.2c0.1,0.2-0.1,0.5-0.1,0.5c0.2,0.8,0.6,1.4,0.7,2.2c0.6,1.3,1,2.6,1.8,4.2
							c0.5,2.1,1.5,3.2,1.8,4.8c0.2,0.4,0.5,0.5,0.7,1.2c0.5,0.4-0.1,0.5,0.2,1.1c0.4,0.3,0.7,1.4,1.1,1.8c0.3,0.8,0.6,1.5,1.1,1.7
							c0.1,0,0.3-0.1,0.4,0.1C97.2,194.2,96.8,192.9,97.4,192.8z M91,182.3c0-0.1,0.2,0.1,0.2,0.2C91.2,182.6,91,182.4,91,182.3z"/>
					</g>
					<g>
						<path class="st1" d="M96.3,140.3c0.1-0.1,0.4,0,0.5-0.2c0-0.2-0.1-0.2-0.1-0.3c0-0.1-0.2,0-0.2-0.1c0-0.1,0-0.1,0-0.2
							c0.1,0,0.3,0,0.3-0.2c0.2,0,0.4,0,0.4-0.2c0.4,0.1,0.8,0,1.2,0c0.1,0,0.2-0.1,0.3-0.1c0.5,0,1.2-0.1,1.8,0c0.1,0,0.3,0,0.4,0
							c0.5,0.2,1,0,1.4,0.2c0.4-0.1,0.8-0.1,1.1-0.3c0.5,0.1,1.2,0,1.6-0.1c0.2,0.1,0.5,0.1,0.7,0.3c0.1,0,0.3,0,0.4,0.1
							c0.3,0.2,0.5,0.2,0.9,0.2c0.1,0.1,0.3,0.1,0.4,0.2c0.2,0.1,0.2,0,0.4,0.1c-0.1,0.2-0.2,0.2-0.4,0.2c0,0.1,0.1,0.1,0.1,0.2
							c-0.1-0.1-0.3,0-0.3-0.1c-0.3,0.1-0.7,0.1-1.1,0.1c-0.4,0.1-0.9,0.2-1.4,0.2c-0.5,0.1-1.1,0.2-1.6,0.3c-0.4-0.1-0.8,0-1.2,0.1
							c-0.4-0.1-0.8,0-1.2-0.1c-0.6,0.1-1.3,0-1.9,0.1c-0.6-0.1-1.2,0.1-1.8,0c-0.2,0-0.3,0.1-0.4,0.2c-0.1,0,0-0.2-0.1-0.2
							C96.3,140.5,96.3,140.4,96.3,140.3z"/>
					</g>
					<g>
						<path class="st1" d="M91.5,147.1c0.1-0.1,0.4,0,0.5-0.2c0-0.2-0.1-0.2-0.1-0.3c0-0.1-0.2,0-0.2-0.1c0-0.1,0-0.1,0-0.2
							c0.1,0,0.3,0,0.3-0.2c0.2,0,0.4,0,0.4-0.2c0.4,0.1,0.8,0,1.2,0c0.1,0,0.2-0.1,0.3-0.1c0.5,0,1.2-0.1,1.8,0c0.1,0,0.3,0,0.4,0
							c0.5,0.1,1,0,1.4,0.2c0.4-0.1,0.8-0.1,1.1-0.3c0.5,0.1,1.2,0,1.6-0.1c0.2,0.1,0.5,0.1,0.7,0.2c0.1,0,0.3,0,0.4,0.1
							c0.3,0.2,0.5,0.2,0.9,0.2c0.1,0.1,0.3,0.1,0.4,0.2c0.2,0.1,0.2,0,0.4,0.1c-0.1,0.2-0.2,0.2-0.4,0.2c0,0.1,0.1,0.1,0.1,0.2
							c-0.1-0.1-0.3,0-0.3-0.1c-0.3,0.1-0.7,0.1-1.1,0.1c-0.4,0.1-0.9,0.2-1.4,0.2c-0.5,0.1-1.1,0.2-1.6,0.3c-0.4-0.1-0.8,0-1.2,0.1
							c-0.4-0.1-0.8,0-1.2-0.1c-0.6,0.1-1.3,0-2,0.1c-0.6-0.1-1.2,0.1-1.8,0c-0.2,0-0.3,0.1-0.4,0.2c-0.1,0,0-0.2-0.1-0.2
							C91.5,147.3,91.5,147.2,91.5,147.1z"/>
					</g>
					<g>
						<path class="st1" d="M88,155c0.1-0.1,0.4,0,0.5-0.2c0-0.2-0.1-0.2-0.1-0.3c0-0.1-0.2,0-0.2-0.1c0-0.1,0-0.1,0-0.2
							c0.1,0,0.3,0,0.3-0.2c0.2,0,0.4,0,0.4-0.2c0.4,0.1,0.8,0,1.2,0c0.1,0,0.2-0.1,0.3-0.1c0.5,0,1.2-0.1,1.8,0c0.1,0,0.3,0,0.4,0
							c0.5,0.1,1,0,1.4,0.2c0.4-0.1,0.8-0.1,1.1-0.3c0.5,0.1,1.2,0,1.6-0.1c0.2,0.1,0.5,0.1,0.7,0.3c0.1,0,0.3,0,0.4,0.1
							c0.3,0.2,0.5,0.2,0.9,0.2c0.1,0.1,0.3,0.1,0.4,0.2c0.2,0.1,0.2,0,0.4,0.1c-0.1,0.2-0.2,0.2-0.4,0.2c0,0.1,0.1,0.1,0.1,0.2
							c-0.1-0.1-0.3,0-0.3-0.1c-0.3,0.1-0.7,0.1-1.1,0.1c-0.4,0.1-0.9,0.2-1.4,0.2c-0.5,0.1-1.1,0.2-1.6,0.3c-0.4-0.1-0.8,0-1.2,0.1
							c-0.4-0.1-0.8,0-1.2-0.1c-0.6,0.1-1.3,0-2,0.1c-0.6-0.1-1.2,0.1-1.8,0c-0.2,0-0.3,0.1-0.4,0.2c-0.1,0,0-0.2-0.1-0.2
							C88,155.1,88,155,88,155z"/>
					</g>
					<g>
						<path class="st1" d="M87.9,161.3c0.1-0.1,0.4,0,0.5-0.1c0.1-0.2-0.1-0.3,0-0.4c0-0.1-0.2,0-0.2-0.1c0-0.1,0-0.1,0-0.2
							c0.1,0,0.3,0,0.4-0.1c0.2,0,0.4,0,0.5-0.1c0.4,0.1,0.8,0.1,1.2,0.2c0.1,0,0.2,0,0.3-0.1c0.5,0.1,1.2,0.1,1.8,0.3
							c0.1,0,0.3,0,0.4,0c0.4,0.2,1,0.1,1.3,0.4c0.4,0,0.8,0,1.2-0.1c0.5,0.2,1.1,0.2,1.6,0.2c0.2,0.1,0.5,0.2,0.6,0.4
							c0.1,0,0.2,0.1,0.4,0.1c0.3,0.2,0.5,0.3,0.9,0.3c0.1,0.1,0.3,0.1,0.4,0.2c0.2,0.1,0.2,0.1,0.4,0.2c-0.1,0.2-0.2,0.2-0.4,0.1
							c0,0.1,0.1,0.1,0,0.2c-0.1-0.1-0.2-0.1-0.3-0.2c-0.3,0-0.7,0-1.1-0.1c-0.5,0.1-0.9,0-1.4,0c-0.5,0-1.1,0-1.6,0.1
							c-0.4-0.1-0.8-0.1-1.2-0.1c-0.4-0.2-0.8-0.1-1.2-0.3c-0.6,0-1.3-0.2-2-0.2c-0.5-0.2-1.2-0.1-1.8-0.3c-0.2,0-0.3,0.1-0.5,0.1
							c-0.1,0,0-0.2-0.1-0.2C88,161.5,87.9,161.4,87.9,161.3z"/>
					</g>
					<g>
						<path class="st1" d="M88,167.5c0.1-0.1,0.3,0.1,0.5,0c0.1-0.2,0-0.3,0.1-0.4c0.1-0.1-0.2,0-0.1-0.1c0.1-0.1,0-0.2,0.1-0.3
							c0.1,0,0.3,0.1,0.4-0.1c0.2,0,0.3,0.1,0.4,0c0.3,0.2,0.7,0.2,1,0.4c0.1,0,0.2,0,0.3,0c0.4,0.2,1,0.3,1.5,0.6
							c0.1,0,0.2,0.1,0.3,0.1c0.3,0.3,0.8,0.3,1.1,0.6c0.4,0,0.7,0.1,1.1,0c0.4,0.2,1,0.4,1.4,0.4c0.2,0.2,0.4,0.3,0.5,0.5
							c0.1,0,0.2,0.1,0.3,0.2c0.2,0.3,0.3,0.4,0.7,0.5c0,0.1,0.2,0.2,0.3,0.3c0.1,0.1,0.2,0.1,0.3,0.2c-0.1,0.2-0.2,0.2-0.4,0.1
							c-0.1,0.1,0.1,0.1,0,0.2c0-0.1-0.2-0.1-0.2-0.2c-0.3,0-0.6-0.1-0.9-0.2c-0.4,0-0.8-0.1-1.2-0.2c-0.5,0-1-0.2-1.5-0.2
							c-0.3-0.2-0.7-0.3-1-0.3c-0.3-0.2-0.7-0.2-1-0.5c-0.6-0.1-1.1-0.4-1.7-0.5c-0.4-0.3-1.1-0.3-1.5-0.6c-0.2,0-0.3,0-0.4,0
							c-0.1,0,0.1-0.3,0-0.3C88,167.7,88,167.6,88,167.5z"/>
					</g>
					<g>
						<path class="st1" d="M102.8,135.3c0.1-0.1,0.3,0,0.4-0.1c0-0.2-0.1-0.2-0.1-0.3c0-0.1-0.2,0-0.1-0.1c0-0.1,0-0.1,0-0.2
							c0.1,0,0.3,0,0.3-0.2c0.1,0,0.3,0,0.4-0.1c0.3,0.1,0.6,0,1,0c0.1,0,0.2,0,0.3-0.1c0.4,0,1-0.1,1.5,0c0.1,0,0.2,0,0.3,0
							c0.4,0.1,0.8,0,1.2,0.2c0.3-0.1,0.7-0.1,1-0.2c0.4,0.1,1,0,1.3-0.1c0.2,0.1,0.5,0.1,0.6,0.2c0.1,0,0.2,0,0.3,0.1
							c0.3,0.1,0.4,0.2,0.8,0.2c0.1,0.1,0.3,0.1,0.4,0.2c0.2,0.1,0.2,0,0.4,0.1c-0.1,0.1-0.2,0.2-0.3,0.2c0,0.1,0.1,0.1,0.1,0.2
							c-0.1-0.1-0.2,0-0.3-0.1c-0.3,0.1-0.6,0.1-0.9,0.1c-0.4,0.1-0.7,0.1-1.2,0.2c-0.4,0.1-0.9,0.1-1.4,0.3c-0.3-0.1-0.7,0-1,0.1
							c-0.3-0.1-0.7,0-1-0.1c-0.5,0.1-1.1,0-1.7,0.1c-0.5-0.1-1,0.1-1.5,0c-0.1,0-0.3,0.1-0.4,0.1c-0.1,0,0-0.2-0.1-0.2
							C102.9,135.4,102.8,135.3,102.8,135.3z"/>
					</g>
					<g>
						<path class="st1" d="M109.1,129.6c0.1-0.1,0.4,0,0.5-0.1c0.1-0.2-0.1-0.3,0-0.3c0-0.1-0.2,0-0.2-0.1c0-0.1,0-0.1,0-0.2
							c0.1,0,0.3,0,0.4-0.1c0.2,0,0.4,0,0.5-0.1c0.4,0.1,0.8,0.1,1.2,0.2c0.1,0,0.2,0,0.3-0.1c0.5,0.1,1.2,0.1,1.8,0.3
							c0.1,0,0.3,0,0.4,0c0.4,0.2,1,0.1,1.3,0.4c0.4,0,0.8,0,1.2-0.1c0.5,0.2,1.1,0.2,1.6,0.2c0.2,0.1,0.5,0.2,0.7,0.4
							c0.1,0,0.2,0.1,0.4,0.1c0.3,0.2,0.5,0.3,0.9,0.3c0.1,0.1,0.3,0.1,0.4,0.2c0.2,0.1,0.2,0.1,0.4,0.2c-0.1,0.2-0.2,0.2-0.4,0.1
							c0,0.1,0.1,0.1,0,0.2c-0.1-0.1-0.2-0.1-0.3-0.2c-0.3,0-0.7,0-1.1-0.1c-0.5,0.1-0.9,0-1.4,0c-0.5,0-1.1,0-1.6,0.1
							c-0.4-0.1-0.8-0.1-1.2-0.1c-0.4-0.2-0.8-0.1-1.2-0.3c-0.6,0-1.3-0.2-2-0.2c-0.5-0.2-1.2-0.1-1.8-0.3c-0.2,0-0.3,0.1-0.5,0.1
							c-0.1,0,0-0.2-0.1-0.2C109.1,129.8,109.1,129.7,109.1,129.6z"/>
					</g>
					<g>
						<path class="st1" d="M116.2,152.7c0,0.7-1.3,1.7-2.2,2.7c-0.7,0.9-1.6,2.2-2,2.8c0,0.2-0.1,0.4,0,0.4c0,0.1,0,0.4,0.1,0.4
							c0,0.1,0,0.1,0.1,0.2c0.1,0.4,0.3,0.8,0.6,1.1c0.5,0.7,1.3,1.4,2.2,1.9c1.8,1.1,3.8,1.7,5.8,2.1c2.6,0.8,4.6,1.6,7.3,2.2
							c2.3,0.2,4.8,0.6,7.5,0.9l0.6,0c0.1,0,0.2,0,0.2-0.1c0.1,0,0.2-0.1,0.3-0.3c0.1,0.1,0.3,0.1,0.4,0.1c0.1,0,0.2,0,0.1-0.2
							c-0.1-0.4-0.3-0.6-0.3-0.7c0,0.1-0.1-0.3-0.1-0.5l-0.1-0.8l-0.3-1.7c-0.2-1.1-0.3-2.1-0.4-2.7c0.1-2,0.2-3.9,0.6-5.3
							c0.2-1,0.8-1.1,0.8-2.4c0.4-0.2,0.6-0.6,0.7-1.2c0.4,0,0.5-0.7,1-0.5c-0.2-1,0.6-0.4,0.6-1.2c0.4,0.6,0.3-0.3,0.6-0.3
							c0.3,0.2,0.6,0.5,0.9,0.7c0.1,1.4,0,2.5-0.3,3.1c0,1.2-0.2,1.9-0.5,2.7c0,0.4,0.1,0.9-0.1,1c0.1,2.9,0.3,4.7,0.5,6.9l0.4,2.2
							l0.4,3.1l0.2,1.6l0.1,0.8l0,0.2l0,0.1c0,0-0.1,0-0.1,0l-0.4,0l-3.2-0.2l-3.1-0.3l-2.3-0.2c-1.6-0.2-3.1-0.4-4.7-0.7
							c-3.1-0.5-6.2-1.1-9.1-2c-1.5-0.4-3-1-4.5-1.7c-1.5-0.7-3-1.7-4.4-3.2c-0.6-0.9-1.1-1.7-1.4-2.6c-0.2-0.5-0.3-1-0.4-1.7
							c0-0.2-0.1-1.4,0.2-2.1c0.2-1.1,0.5-1.9,1-2.7c0.2-0.3,0-0.2-0.1-0.1c-0.2,0.3-0.2,0.1-0.1-0.1c0.6-0.8,0.9-1.4,1.6-2.2
							c1-0.2,1.3,0,2.4-0.1c0.5-0.1,0.8,0.3,1.5-0.2c0.4,0.1,0.8,0.1,1.2,0c-0.1,0.3,0,0.4,0.3,0.4
							C116.3,152.3,115.7,153,116.2,152.7z"/>
					</g>
					<g>
						<path class="st1" d="M127.7,175.6c-0.4-0.1-0.1-0.6-0.5-0.8c-0.5-0.1-0.7,0.2-1,0.1c-0.3,0,0.1,0.3-0.2,0.3
							c-0.3,0-0.4,0.1-0.6,0.1c-0.1-0.2-0.1-0.6-0.5-0.6c-0.1-0.3-0.1-0.6-0.5-0.7c0.2-0.7-0.1-1.3,0-2c-0.1-0.2-0.2-0.4-0.3-0.5
							c0.1-0.9-0.2-2,0-3.1c0-0.2,0-0.5-0.1-0.6c0.4-0.8-0.1-1.7,0.6-2.3c-0.3-0.6-0.4-1.4-0.8-1.9c0.2-0.9,0.1-2-0.2-2.7
							c0.2-0.4,0.2-0.9,0.7-1.2c0-0.2,0.1-0.4,0.2-0.6c0.5-0.5,0.6-0.9,0.6-1.6c0.3-0.2,0.2-0.5,0.5-0.7c0.2-0.3,0.1-0.4,0.3-0.7
							c0.5,0.1,0.7,0.3,0.6,0.6c0.3,0,0.2-0.2,0.5-0.1c-0.2,0.1-0.1,0.4-0.3,0.6c0.2,0.5,0.3,1.1,0.3,1.8c0.4,0.7,0.4,1.5,0.5,2.3
							c0.3,0.9,0.5,1.9,0.8,2.7c-0.2,0.6,0,1.4,0.2,2c-0.3,0.7,0,1.4-0.3,2.1c0.3,1-0.1,2.3,0.3,3.3c-0.2,1,0.3,2.1,0,3.1
							c0.1,0.3,0.3,0.5,0.4,0.7c0.1,0.2-0.6,0.1-0.6,0.2C128.2,175.5,127.9,175.6,127.7,175.6z"/>
					</g>
				</g>
			</g>
		</g>
	</g>
</g>
</svg>
