<?xml version="1.0" encoding="utf-8"?>
<!-- Generator: Adobe Illustrator 15.0.0, SVG Export Plug-In . SVG Version: 6.00 Build 0)  -->
<!DOCTYPE svg PUBLIC "-//W3C//DTD SVG 1.1//EN" "http://www.w3.org/Graphics/SVG/1.1/DTD/svg11.dtd">
<svg version="1.1" id="Layer_1" xmlns="http://www.w3.org/2000/svg" xmlns:xlink="http://www.w3.org/1999/xlink" x="0px" y="0px"
	 width="50px" height="50px" viewBox="0 0 50 50" enable-background="new 0 0 50 50" xml:space="preserve">
<g>
	<g>
		<g>
			<g>
				<g>
					<path fill="#1DB5B6" d="M22.793,33.999c-0.106-0.068-0.175-0.148-0.229-0.139c-0.074,0.01-0.139,0.09-0.209,0.139
						c0.07,0.061,0.131,0.148,0.209,0.168C22.611,34.179,22.685,34.083,22.793,33.999 M14.575,24.991
						c-0.01-0.064-0.02-0.131-0.031-0.197c-0.148,0.014-0.299,0.027-0.447,0.041c0.018,0.082,0.043,0.238,0.053,0.236
						C14.292,25.058,14.433,25.022,14.575,24.991 M19.433,30.983c-0.193-0.086-0.291-0.16-0.394-0.166
						c-0.06-0.002-0.125,0.105-0.188,0.164c0.082,0.072,0.156,0.188,0.25,0.205C19.169,31.202,19.263,31.095,19.433,30.983
						 M20.761,33.804c0.021,0.041,0.043,0.082,0.064,0.123c0.199-0.076,0.396-0.154,0.665-0.258
						c-0.161-0.146-0.247-0.225-0.338-0.307C21.003,33.53,20.882,33.667,20.761,33.804 M17.157,28.06
						c-0.007-0.043-0.014-0.086-0.021-0.129c-0.199,0.023-0.398,0.051-0.595,0.076c0.052,0.205,0.093,0.361,0.122,0.479
						C16.83,28.341,16.993,28.2,17.157,28.06 M19.722,31.856c-0.11,0.119-0.226,0.219-0.305,0.34
						c-0.033,0.053-0.011,0.168,0.028,0.227c0.03,0.045,0.144,0.08,0.19,0.059c0.164-0.082,0.317-0.188,0.508-0.307
						C19.991,32.06,19.858,31.96,19.722,31.856 M10.45,20.339c0.581-0.197,0.652-0.336,0.387-0.732
						C10.612,19.794,10.24,19.884,10.45,20.339 M32.579,39.729c-0.053-0.062-0.133-0.156-0.281-0.332
						c-0.113,0.498,0.029,1.029-0.595,1.15c-0.039-0.035-0.118-0.111-0.194-0.182c-0.152,0.176-0.297,0.34-0.459,0.527
						c0.039,0.086,0.098,0.213,0.176,0.379c-0.273-0.17-0.506-0.295-0.715-0.449c-0.197-0.145-0.217-0.311,0.023-0.441
						c0.086-0.047,0.18-0.08,0.275-0.215c-0.158-0.014-0.338-0.076-0.469-0.021c-0.086,0.035-0.13,0.238-0.14,0.371
						c-0.013,0.172,0.002,0.354,0.05,0.518c0.209,0.715,0.479,1.396,0.807,2.072c0.266,0.545,0.261,1.221,0.373,1.838
						c0.01,0.049-0.021,0.109-0.004,0.15c0.239,0.551-0.084,0.936-0.41,1.291c-0.142,0.15-0.396,0.193-0.592,0.299
						c-0.244,0.129-0.414,0.074-0.57-0.154c-0.073-0.104-0.223-0.152-0.362-0.244c0.026-0.111,0.071-0.23,0.083-0.352
						c0.021-0.242,0.089-0.51-0.348-0.402c-0.157,0.039-0.356-0.09-0.564-0.15c-0.018,0.02-0.042,0.068-0.081,0.086
						c-0.108,0.047-0.226,0.082-0.338,0.123c0.007-0.137-0.039-0.352,0.028-0.395c0.394-0.258,0.303-0.566,0.162-0.91
						c-0.088-0.217,0.058-0.467,0.23-0.402c0.51,0.193,0.578-0.207,0.751-0.471c0.136-0.203,0.241-0.426,0.397-0.705
						c-0.051-0.125-0.223-0.359,0.136-0.5c-0.183-0.238-0.347-0.453-0.54-0.705c-0.167,0.596-0.167,0.596-0.742,0.594
						c0.012-0.092,0.014-0.191,0.038-0.283c0.026-0.092,0.075-0.18,0.073-0.174c-0.153-0.211-0.301-0.391-0.419-0.59
						c-0.029-0.049,0.034-0.156,0.069-0.287c-0.101-0.127-0.644-0.256-0.797-0.141c-0.043,0.031-0.08,0.109-0.072,0.156
						s0.072,0.1,0.123,0.117c0.069,0.025,0.172-0.008,0.22,0.033c0.087,0.074,0.181,0.176,0.196,0.279
						c0.012,0.066-0.097,0.193-0.176,0.223c-0.158,0.057-0.332,0.064-0.613,0.109c0.168-0.178,0.254-0.268,0.34-0.357
						c-0.012-0.029-0.023-0.057-0.034-0.086c-0.124,0.029-0.248,0.059-0.414,0.1c-0.136-0.363-0.722-0.641-0.19-1.15
						c-0.235-0.186-0.449-0.354-0.693-0.545v0.273c-0.028,0.016-0.057,0.033-0.086,0.049c-0.127-0.205-0.348-0.404-0.363-0.619
						c-0.041-0.535-0.234-0.922-0.779-1.096c0.129-0.199,0.239-0.367,0.348-0.533c-0.021-0.021-0.043-0.043-0.064-0.062
						c-0.078,0.049-0.168,0.088-0.232,0.152c-0.244,0.244-0.486,0.225-0.586-0.094c-0.098-0.318-0.207-0.502-0.6-0.443
						c-0.137,0.02-0.477-0.049-0.395-0.436c0.148,0.074,0.272,0.133,0.406,0.199c0.035-0.391-0.055-0.705-0.355-0.934
						c-0.178-0.137-0.233-0.299-0.105-0.492c0.193-0.301,0.008-0.451-0.223-0.596c-0.107-0.066-0.202-0.156-0.344-0.268
						c-0.403,0.039-0.381,0.449-0.477,0.838c-0.279-0.369-0.265-0.688-0.078-1.061h-0.774c-0.038-0.043-0.076-0.084-0.114-0.127
						c-0.08,0.277-0.203,0.555-0.215,0.836c-0.005,0.104,0.24,0.242,0.393,0.324c0.305,0.162,0.623,0.297,0.983,0.465
						c-0.308,0.369-0.491,0.656,0.021,0.826c-0.175,0.426-1.105,0.732-1.679,0.539c0.121-0.074,0.22-0.137,0.236-0.148
						c-0.036-0.301-0.12-0.566-0.071-0.803c0.018-0.084,0.355-0.104,0.572-0.158c-0.02-0.467-0.484-0.389-0.766-0.545
						c-0.002-0.041-0.009-0.078-0.006-0.113c0.014-0.15,0.031-0.299,0.047-0.447c-0.134,0.064-0.273,0.117-0.4,0.193
						c-0.281,0.17-0.379,0.586-0.786,0.59c-0.021,0-0.044,0.023-0.062,0.041c-0.317,0.326-0.379,0.324-0.694,0.031
						c0.245-0.26,0.489-0.52,0.735-0.777c-0.006-0.035-0.012-0.068-0.017-0.104c-0.347-0.006-0.678,0.113-1.099,0.26
						c-0.071-0.324-0.139-0.639-0.217-1c-0.153-0.033-0.389-0.104-0.629-0.131c-0.338-0.037-0.383-0.314-0.422-0.541
						c-0.086-0.492-0.064-0.494-0.404-0.299c-0.289-0.352-0.562-0.693-0.844-1.027c-0.16-0.188-0.377-0.338-0.49-0.547
						c-0.053-0.102,0.078-0.299,0.139-0.5c-0.395-0.062-0.922,0.027-1.061-0.615c0.258-0.074,0.518-0.15,0.813-0.236
						c-0.396-0.297,0.054-0.533,0.03-0.766c-0.303-0.074-0.584-0.141-0.934-0.225c0.174,0.293,0.32,0.541,0.471,0.793
						c-0.217,0.047-0.443,0.096-0.641,0.139c-0.35-0.318-0.734-0.643-1.087-1c-0.151-0.154-0.229-0.375-0.351-0.561
						c-0.094-0.145-0.213-0.271-0.295-0.422c-0.069-0.125-0.098-0.271-0.146-0.408c0.03-0.035,0.06-0.072,0.089-0.109
						c-0.236,0-0.557,0.094-0.689-0.025c-0.162-0.143-0.17-0.465-0.254-0.736c-0.135,0.053-0.256,0.1-0.479,0.188
						c0.319-0.594-0.224-1.197,0.24-1.713c-0.019-0.025-0.035-0.062-0.048-0.062c-0.606,0.07-0.875-0.232-0.799-0.855
						c0.011-0.086-0.144-0.234-0.254-0.285c-0.264-0.121-0.658,0.01-0.774-0.408c-0.007-0.021-0.138-0.014-0.211-0.01
						c-0.207,0.012-0.414,0.029-0.621,0.045c-0.009-0.045-0.017-0.09-0.024-0.135c0.104-0.043,0.209-0.084,0.305-0.123v-0.512
						c-0.09-0.111-0.213-0.26-0.364-0.445c-0.037,0.01-0.124,0.037-0.147,0.043c-0.252-0.369-0.471-0.732-0.734-1.061
						c-0.172-0.217-0.211-0.404-0.108-0.658c0.036-0.09-0.038-0.225-0.08-0.422c-0.198,0.229-0.31,0.359-0.485,0.562
						c0.022-0.275,0.062-0.436,0.043-0.59c-0.03-0.258-0.209-0.383-0.457-0.441c-0.264-0.062-0.471-0.174-0.252-0.498
						c0.031-0.047,0.054-0.131,0.031-0.174c-0.373-0.736-0.133-1.521-0.207-2.295c0.18,0.072,0.34,0.135,0.5,0.197
						c0.035-0.039,0.07-0.08,0.105-0.121c-0.501-0.186-0.627-0.594-0.655-1.104c0.103-0.123,0.265-0.32,0.438-0.529
						c0.033,0.066,0.076,0.15,0.123,0.242c0.033-0.008,0.08-0.004,0.101-0.025c0.138-0.141,0.269-0.213,0.46-0.07
						c0.221,0.164,0.303,0.072,0.328-0.182c0.007-0.08,0.152-0.164,0.252-0.215c0.102-0.053,0.256-0.033,0.33-0.104
						c0.277-0.266,0.51-0.604,0.979-0.336c0.028,0.018,0.237-0.152,0.246-0.248c0.019-0.193-0.041-0.396-0.058-0.506
						c0.169-0.182,0.287-0.34,0.435-0.459c0.102-0.082,0.252-0.164,0.368-0.15c0.278,0.029,0.457-0.059,0.604-0.291
						c0.092-0.145,0.244-0.25,0.346-0.393c0.104-0.145,0.164-0.322,0.271-0.463c0.084-0.107,0.213-0.182,0.406-0.338
						c-0.051-0.125-0.141-0.312-0.195-0.512c-0.016-0.059,0.074-0.211,0.111-0.209c0.434,0.012,0.418-0.205,0.28-0.502
						c-0.007-0.018,0.038-0.059,0.074-0.107c0.091,0.125,0.173,0.236,0.284,0.387c0.151-0.275-0.133-0.658,0.343-0.842
						c-0.099,0.201-0.158,0.322-0.218,0.445c0.021,0.025,0.043,0.051,0.065,0.076c0.13-0.088,0.257-0.178,0.41-0.281
						c0.206,0.223,0.446,0.162,0.595-0.092c0.254-0.432,0.555-0.572,1.02-0.211c0.052-0.154,0.062-0.273,0.125-0.354
						c0.074-0.098,0.187-0.172,0.291-0.244c0.113-0.078,0.232-0.15,0.357-0.207c0.096-0.043,0.213-0.086,0.309-0.066
						c0.076,0.012,0.205,0.129,0.195,0.178c-0.099,0.529,0.354,0.59,0.641,0.799c0.138,0.1,0.24,0.25,0.38,0.348
						c0.157,0.107,0.338,0.184,0.512,0.268c0.03,0.014,0.075-0.006,0.112-0.004c0.188,0.01,0.376,0.021,0.564,0.033
						c-0.062-0.209-0.09-0.436-0.193-0.621c-0.205-0.369-0.477-0.703-0.676-1.074c-0.187-0.346-0.125-0.832-0.617-1.004
						c-0.061-0.021-0.059-0.232-0.076-0.357c-0.043-0.297-0.083-0.594-0.116-0.893c-0.009-0.084-0.022-0.195,0.021-0.252
						c0.211-0.277,0.183-0.533-0.075-0.822c0.644-0.09,1.347-0.043,1.428-0.793c0.14-0.199,0.226-0.326,0.313-0.449
						c0.043-0.057,0.084-0.115,0.135-0.168c0.197-0.195,0.388-0.402,0.602-0.582c0.182-0.15,0.342-0.299,0.633-0.34
						c0.388-0.055,0.748-0.303,1.121-0.461c0.187-0.078,0.373-0.168,0.567-0.211c0.501-0.111,0.812,0.184,0.804,0.691
						c-0.003,0.137,0.106,0.312,0.217,0.41c0.813,0.717,1.647,1.408,2.457,2.131c0.309,0.271,0.582,0.588,0.849,0.904
						c0.284,0.338,0.721,0.359,1.044,0.066c0.17-0.154,0.426-0.209,0.604-0.355c0.639-0.525,1.426-0.746,2.155-1.084
						c0.088-0.041,0.203-0.02,0.297-0.053c0.123-0.043,0.409,0.098,0.277-0.266c-0.05-0.133,0.485-0.41,0.661-0.41
						c0.23,0,0.477-0.006,0.691-0.082c0.317-0.111,0.559-0.186,0.832,0.139c0.67,0.799,1.469,1.484,1.996,2.41
						c0.251,0.441,0.688,0.775,0.949,1.213c0.602,1.006,1.486,1.77,2.203,2.674c0.988,1.248,1.986,2.488,2.923,3.775
						c0.552,0.76,1.015,1.586,1.472,2.41c0.156,0.283,0.221,0.645,0.238,0.975c0.046,0.877,0.092,1.758,0.043,2.631
						c-0.041,0.744-0.327,1.422-0.854,1.992c-0.299,0.326-0.514,0.729-0.78,1.084c-0.199,0.266-0.39,0.549-0.644,0.754
						c-0.433,0.354-0.387,0.82-0.387,1.275c0,0.691,0.11,1.391,0.031,2.072c-0.081,0.699-0.291,1.396-0.527,2.064
						c-0.104,0.295-0.406,0.521-0.628,0.771c-0.262,0.295-0.539,0.578-0.797,0.877c-0.144,0.164-0.245,0.365-0.396,0.52
						c-0.135,0.137-0.293,0.307-0.516,0.102c-0.048-0.045-0.133-0.051-0.216-0.078c0.158,0.525-0.136,0.875-0.659,0.824
						c-0.582-0.057-0.926,0.346-0.783,0.898c0.152,0.588,0.301,1.176,0.43,1.77c0.158,0.715,0.045,1.387-0.34,2.021
						c-0.068,0.115-0.01,0.301-0.028,0.453c-0.011,0.084-0.042,0.219-0.095,0.238c-0.312,0.104-0.633,0.182-1.032,0.291
						c-0.017,0.025-0.087,0.141-0.155,0.26c-0.115,0.201-0.252,0.324-0.52,0.281C32.914,39.604,32.752,39.688,32.579,39.729"/>
				</g>
			</g>
			<path fill="#1DB5B6" d="M23.323,39.288c-0.057,0.102-0.114,0.205-0.172,0.309c-0.037-0.004-0.074-0.008-0.111-0.01
				c0.014-0.178-0.02-0.383,0.061-0.525c0.047-0.08,0.276-0.057,0.459-0.086c0.021-0.35-0.367-0.25-0.556-0.414
				c0.038-0.09,0.08-0.188,0.155-0.363h-0.812c-0.012-0.031-0.023-0.064-0.037-0.096c0.1-0.088,0.2-0.176,0.338-0.297
				c-0.109-0.047-0.203-0.07-0.274-0.125c-0.07-0.053-0.117-0.139-0.173-0.209c0.097-0.025,0.201-0.086,0.291-0.068
				c0.168,0.033,0.328,0.111,0.449,0.244c0.104,0.074,0.209,0.152,0.315,0.225c0.131,0.09,0.267,0.174,0.396,0.266
				c0.047,0.035,0.078,0.131,0.119,0.133c0.473,0.014,0.315,0.258,0.229,0.529c-0.111,0.346-0.206,0.705,0.103,1.027
				c0.108,0.115,0.193,0.273,0.232,0.428c0.033,0.129-0.016,0.279-0.028,0.42c-0.12-0.045-0.239-0.096-0.36-0.137
				c-0.346-0.117-0.457-0.311-0.336-0.689c0.051-0.158-0.101-0.383-0.16-0.578C23.407,39.276,23.366,39.282,23.323,39.288"/>
			<path fill="#1DB5B6" d="M25.507,39.126c0.143,0.168,0.215,0.77,0.102,0.9c-0.027,0.033-0.095,0.07-0.123,0.059
				c-0.05-0.023-0.115-0.08-0.117-0.125c-0.012-0.277-0.006-0.553-0.006-0.83C25.411,39.13,25.458,39.128,25.507,39.126"/>
			<path fill="#1DB5B6" d="M24.823,38.741c-0.18-0.162-0.303-0.275-0.427-0.387c0.087-0.072,0.193-0.219,0.257-0.201
				c0.131,0.033,0.26,0.139,0.342,0.25C25.022,38.44,24.905,38.585,24.823,38.741"/>
			<path fill="#1DB5B6" d="M28.392,41.978c-0.086,0.043-0.189,0.143-0.25,0.119c-0.137-0.049-0.254-0.158-0.377-0.244
				c0.07-0.074,0.16-0.225,0.209-0.211c0.15,0.039,0.285,0.139,0.427,0.215C28.397,41.897,28.395,41.938,28.392,41.978"/>
			<path fill="#1DB5B6" d="M23.024,35.354c0.207,0.115,0.285,0.611,0.086,1.018c-0.086-0.393-0.151-0.688-0.215-0.982
				C22.938,35.38,22.981,35.368,23.024,35.354"/>
			<path fill="#1DB5B6" d="M25.425,43.263c0.161-0.027,0.321-0.057,0.482-0.082c0.012,0.102,0.025,0.203,0.037,0.305h-0.5
				C25.437,43.411,25.431,43.337,25.425,43.263"/>
			<path fill="#1DB5B6" d="M26.888,42.05c-0.365-0.133-0.412-0.297-0.058-0.59C26.854,41.714,26.871,41.882,26.888,42.05"/>
			<g opacity="0.7">
				<g>
					<defs>
						<rect id="SVGID_1_" x="28.138" y="44.833" width="2.193" height="2.746"/>
					</defs>
					<use xlink:href="#SVGID_1_"  overflow="visible" fill="#1DB5B6"/>
					<clipPath id="SVGID_2_">
						<use xlink:href="#SVGID_1_"  overflow="visible"/>
					</clipPath>
					<path clip-path="url(#SVGID_2_)" fill="#1DB5B6" d="M29.28,45.833c0.017,0.246,0.033,0.492,0.051,0.738
						c-0.043,0.002-0.086,0.006-0.129,0.008c-0.021-0.246-0.043-0.49-0.065-0.734C29.185,45.841,29.231,45.837,29.28,45.833"/>
				</g>
			</g>
		</g>
	</g>
	<path fill="#262626" d="M26.153,44.069c-0.452,0.189-0.903,0.326-1.303,0.555c-0.771,0.441-1.633,0.352-2.457,0.48
		c-0.479,0.074-0.971,0.068-1.457,0.102c-0.061,0.004-0.135,0.016-0.178,0.053c-0.437,0.379-0.973,0.273-1.479,0.309
		c-0.526,0.035-1.052,0.098-1.577,0.111c-0.535,0.014-1.072-0.027-1.607-0.02c-0.574,0.006-1.147,0.051-1.723,0.062
		c-0.675,0.016-1.352,0.008-2.025,0.021c-0.392,0.008-0.781,0.041-1.172,0.055c-0.838,0.029-1.625-0.135-2.377-0.66
		c0.25-0.166,0.487-0.297,0.692-0.469c0.101-0.084,0.177-0.234,0.201-0.367c0.096-0.516,0.042-1.104,0.274-1.543
		c0.418-0.789,0.416-1.635,0.543-2.461c0.045-0.305-0.082-0.639-0.146-0.957c-0.05-0.246-0.146-0.484-0.183-0.732
		c-0.193-1.246-0.348-2.496-0.229-3.76c0.043-0.457,0.161-0.906,0.211-1.363c0.026-0.244-0.001-0.498-0.034-0.744
		c-0.113-0.832-0.009-1.646,0.082-2.475c0.088-0.811,0.107-1.645-0.066-2.475c-0.096-0.459,0.039-0.965,0.08-1.449
		c0.008-0.111,0.103-0.227,0.082-0.324c-0.187-0.863,0.193-1.678,0.194-2.521c0.001-0.449-0.058-0.9-0.079-1.352
		c-0.029-0.588-0.082-1.176-0.059-1.762c0.025-0.613-0.09-1.242,0.173-1.834c0.022-0.053,0.019-0.129-0.001-0.186
		c-0.297-0.895-0.043-1.787-0.007-2.682c0.017-0.424,0.043-0.865-0.052-1.271c-0.109-0.477-0.125-0.918-0.068-1.408
		c0.082-0.707,0.011-1.432,0.008-2.148c-0.003-0.639-0.002-1.277-0.005-1.916c-0.003-0.555-0.015-1.109-0.013-1.664
		c0.002-0.322,0-0.65,0.041-0.971c0.037-0.281,0.109-0.549-0.112-0.789c-0.021-0.021-0.028-0.078-0.017-0.107
		c0.201-0.49,0.014-0.979,0-1.467c-0.008-0.32,0.297-0.748,0.718-0.891c0.446-0.15,0.913-0.242,1.362-0.385
		c0.395-0.127,0.793-0.254,1.16-0.439c0.492-0.248,1.002-0.34,1.541-0.332c1.197,0.02,2.395,0.057,3.592,0.059
		c1.908,0.004,3.816-0.029,5.725-0.02c2.352,0.012,4.705,0.037,7.057,0.082c1.555,0.029,3.107,0.123,4.661,0.148
		c1.073,0.018,2.147-0.039,3.222-0.045c0.403-0.002,0.635-0.244,0.896-0.494c0.211-0.201,0.457-0.381,0.716-0.516
		c0.237-0.123,0.395,0.016,0.355,0.283c-0.17,1.199-0.096,2.406-0.111,3.609c-0.014,1.164-0.066,2.326-0.084,3.486
		c-0.014,0.771,0.005,1.539,0.008,2.311c0,0.088,0.008,0.18-0.015,0.264c-0.224,0.896-0.073,1.807-0.082,2.707
		c-0.007,0.668,0.106,1.336,0.125,2.004s-0.037,1.338-0.021,2.008c0.027,1.123,0.096,2.244,0.131,3.367
		c0.029,0.943,0.062,1.889,0.043,2.832c-0.031,1.59-0.076,3.18-0.166,4.768c-0.069,1.211-0.14,2.432-0.362,3.621
		c-0.118,0.627-0.505,1.234-0.888,1.77c-0.246,0.346-0.678,0.594-1.075,0.789c-0.497,0.246-1.048-0.18-1.003-0.738
		c0.051-0.627,0.138-1.25,0.199-1.875c0.019-0.197,0.004-0.4,0.013-0.602c0.011-0.264,0.032-0.527,0.046-0.791
		c0.018-0.309,0.031-0.617,0.044-0.926c0.002-0.051-0.019-0.102-0.013-0.15c0.08-0.693,0.176-1.385,0.238-2.078
		c0.043-0.502,0.062-1.008,0.057-1.512c-0.008-0.895-0.037-1.785-0.074-2.678c-0.012-0.287-0.102-0.572-0.112-0.861
		c-0.038-0.955-0.065-1.908-0.084-2.863c-0.008-0.424,0.113-0.881-0.003-1.27c-0.279-0.939,0.193-1.852,0.021-2.76
		c-0.219-1.174-0.057-2.342-0.053-3.51c0.004-0.902,0.189-1.803,0.27-2.707c0.027-0.297-0.026-0.602-0.037-0.904
		c-0.009-0.223-0.044-0.449-0.005-0.664c0.211-1.137,0.317-2.273,0.142-3.428c-0.051-0.33-0.199-0.414-0.502-0.416
		c-0.261-0.002-0.519-0.088-0.781-0.105c-0.224-0.014-0.463-0.027-0.674,0.035c-0.791,0.23-1.597,0.318-2.416,0.375
		c-1.08,0.074-2.154,0.236-3.232,0.35c-0.25,0.027-0.506,0.014-0.758,0.008c-0.894-0.023-1.785-0.066-2.678-0.078
		c-0.837-0.012-1.676,0.111-2.509-0.062c-0.077-0.016-0.165,0.039-0.25,0.047c-0.36,0.029-0.724,0.066-1.085,0.072
		c-0.302,0.004-0.604-0.047-0.906-0.051c-1.146-0.018-2.295-0.027-3.443-0.039c-0.771-0.008-1.543-0.01-2.313-0.02
		c-0.737-0.01-1.473-0.023-2.209-0.041c-0.399-0.01-0.692,0.326-0.741,0.928c-0.072,0.844-0.105,1.689-0.174,2.533
		c-0.059,0.73-0.182,1.457-0.207,2.188c-0.029,0.854,0.028,1.711,0.029,2.566c0.001,0.541-0.012,1.086-0.059,1.627
		c-0.072,0.85-0.203,1.695-0.261,2.547c-0.084,1.232-0.114,2.467-0.187,3.699c-0.049,0.857-0.159,1.709-0.188,2.566
		c-0.052,1.602-0.047,3.205-0.098,4.807c-0.029,0.92-0.128,1.836-0.18,2.756c-0.022,0.426-0.01,0.854-0.006,1.281
		c0.008,0.67,0.043,1.34,0.031,2.01c-0.012,0.742-0.068,1.484-0.092,2.227c-0.018,0.58-0.016,1.162-0.021,1.744
		c0,0.023,0.012,0.051,0.004,0.074c-0.336,1.285,0.229,2.486,0.365,3.725c0.045,0.406,0.23,0.793,0.332,1.191
		c0.078,0.316,0.277,0.391,0.567,0.357c0.504-0.059,1.011-0.16,1.515-0.15c0.779,0.016,1.557,0.104,2.334,0.17
		c0.881,0.076,1.76,0.176,2.641,0.236c0.399,0.027,0.804-0.031,1.203-0.016c0.781,0.033,1.56,0.096,2.34,0.131
		c0.143,0.006,0.306-0.035,0.429-0.107C24.892,43.417,25.562,43.501,26.153,44.069"/>
	<path fill="#262626" d="M42.138,35.901c0.038,0.342-0.025,0.533-0.355,0.734c-0.305,0.186-0.481,0.609-0.676,0.951
		c-0.634,1.104-1.211,2.24-1.883,3.32c-0.689,1.109-1.447,2.176-2.205,3.24c-0.38,0.533-0.834,1.01-1.242,1.521
		c-0.187,0.236-0.326,0.51-0.519,0.738c-0.606,0.719-1.33,1.273-2.171,1.719c-0.398,0.211-0.79,0.307-1.202,0.377
		c-0.306,0.055-0.562-0.047-0.784-0.33c-0.273-0.346-0.652-0.607-0.973-0.916c-0.748-0.725-1.344-1.559-1.863-2.461
		c-0.254-0.439-0.681-0.775-0.998-1.184c-0.354-0.453-0.666-0.941-1.007-1.404c-0.289-0.393-0.606-0.764-0.886-1.162
		c-0.32-0.457-0.585-0.955-0.924-1.396c-0.408-0.537-0.877-1.025-1.303-1.549c-0.223-0.275-0.465-0.555-0.599-0.875
		c-0.17-0.406,0.021-0.59,0.463-0.631c0.397-0.037,0.728,0.07,1.002,0.34c1.251,1.223,2.513,2.439,3.739,3.688
		c0.668,0.68,1.281,1.412,1.908,2.131c0.279,0.318,0.521,0.668,0.802,0.988c0.198,0.225,0.427,0.424,0.649,0.625
		c0.037,0.035,0.156,0.049,0.164,0.033c0.037-0.068,0.069-0.154,0.061-0.229c-0.061-0.523-0.145-1.045-0.195-1.57
		c-0.074-0.795-0.039-1.615-0.215-2.387c-0.214-0.947,0.018-1.879-0.08-2.814c-0.127-1.199-0.234-2.402-0.271-3.605
		c-0.021-0.695,0.109-1.396,0.178-2.096c0.027-0.283,0.076-0.562,0.105-0.846c0.099-0.984,0.221-1.967,0.279-2.955
		c0.049-0.811,0.016-1.627,0.029-2.439c0.021-1.283,0.055-2.566,0.081-3.85c0.003-0.137,0.01-0.281-0.017-0.414
		c-0.066-0.34-0.023-0.633,0.193-0.928c0.241-0.328,0.413-0.707,0.623-1.059c0.242-0.406,0.875-0.607,1.286-0.389
		c0.069,0.037,0.112,0.205,0.096,0.301c-0.044,0.279-0.175,0.549-0.182,0.826c-0.022,0.84-0.001,1.682-0.001,2.525
		c0,0.375-0.025,0.75-0.016,1.125c0.019,0.764,0.023,1.529,0.09,2.291c0.078,0.873,0.252,1.736,0.314,2.609
		c0.043,0.588-0.078,1.188-0.045,1.779c0.064,1.131,0.195,2.26,0.28,3.391c0.044,0.578,0.034,1.158,0.069,1.736
		c0.028,0.477,0.09,0.949,0.133,1.424c0.027,0.314,0.051,0.629,0.074,0.943c0.051,0.742,0.107,1.484,0.151,2.227
		c0.019,0.336,0.065,0.684,0.009,1.01c-0.098,0.574,0.215,1.047,0.317,1.57c0.017,0.084,0.138,0.191,0.224,0.207
		c0.084,0.014,0.211-0.055,0.275-0.125c0.501-0.557,1.005-1.113,1.482-1.688c0.508-0.615,0.953-1.287,1.498-1.865
		c0.285-0.303,0.422-0.76,0.907-0.902c0.193-0.055,0.302-0.355,0.483-0.504c0.386-0.316,0.803-0.598,1.189-0.914
		c0.182-0.146,0.348-0.326,0.479-0.518C41.421,35.888,41.644,35.788,42.138,35.901"/>
</g>
</svg>
