<?xml version="1.0" encoding="utf-8"?>
<!-- Generator: Adobe Illustrator 15.0.0, SVG Export Plug-In . SVG Version: 6.00 Build 0)  -->
<!DOCTYPE svg PUBLIC "-//W3C//DTD SVG 1.1//EN" "http://www.w3.org/Graphics/SVG/1.1/DTD/svg11.dtd">
<svg version="1.1" id="Layer_1" xmlns="http://www.w3.org/2000/svg" xmlns:xlink="http://www.w3.org/1999/xlink" x="0px" y="0px"
	 width="50px" height="50px" viewBox="0 0 50 50" enable-background="new 0 0 50 50" xml:space="preserve">
<g>
	<path fill="#EB655C" d="M34.925,9.54c0.267-0.034,0.479,0.035,0.513,0.421c0.012,0.131,0.196,0.266,0.33,0.362
		c0.351,0.253,0.711,0.495,1.079,0.722c0.13,0.082,0.294,0.107,0.441,0.158c0.039,0.014,0.098,0.016,0.115,0.042
		c0.213,0.322,0.578,0.259,0.88,0.347c0.195,0.058,0.439,0.367,0.412,0.643c-0.03,0.305-0.106,0.605-0.161,0.908
		c-0.145,0.818-0.273,1.639-0.436,2.453c-0.139,0.688-0.301,1.373-0.475,2.055c-0.107,0.421-0.259,0.831-0.391,1.245
		c-0.016,0.051-0.059,0.102-0.053,0.149c0.047,0.463-0.279,0.498-0.604,0.524c-0.646,0.051-1.295,0.095-1.943,0.14
		c-0.03,0.002-0.07,0.006-0.092-0.01c-0.549-0.402-1.009-0.047-1.476,0.18c-0.231,0.111-0.41,0.323-0.724,0.219
		c-0.075-0.024-0.27,0.127-0.322,0.238c-0.287,0.598-0.696,1.08-1.189,1.524c-0.482,0.435-0.886,0.944-0.89,1.671
		c-0.001,0.193-0.181,0.4-0.31,0.578c-0.407,0.553-0.768,1.128-0.91,1.811c-0.023,0.11-0.051,0.268,0.004,0.338
		c0.3,0.383,0.197,0.838,0.256,1.26c0.293,2.1,1.059,4.003,2.322,5.705c0.095,0.127,0.146,0.207,0.035,0.384
		c-0.516,0.825-0.951,1.7-1.592,2.446c-0.076,0.088-0.149,0.183-0.24,0.254c-0.2,0.154-0.344,0.312-0.348,0.599
		c-0.001,0.106-0.205,0.211-0.316,0.315c-0.141,0.134-0.293,0.259-0.422,0.404c-0.105,0.12-0.168,0.271-0.383,0.178
		c-0.066-0.026-0.185,0.037-0.265,0.082c-0.219,0.127-0.427,0.271-0.646,0.395c-0.058,0.033-0.143,0.032-0.215,0.027
		c-0.205-0.012-0.412-0.041-0.619-0.049c-0.498-0.019-1.002-0.066-1.498-0.027c-0.299,0.023-0.554-0.032-0.834-0.098
		c-0.185-0.043-0.416,0.1-0.623,0.166c-0.252,0.082-0.516,0.146-0.752,0.264c-0.399,0.197-0.78,0.435-1.174,0.648
		c-0.469,0.252-1.013,0.072-1.299-0.377c-0.222-0.347-0.525-0.643-0.742-0.992c-0.342-0.557-0.642-1.138-0.959-1.709
		c-0.339-0.605-0.701-1.199-1.007-1.821c-0.246-0.5-0.415-1.039-0.637-1.554c-0.223-0.511-0.477-1.008-0.699-1.52
		c-0.195-0.451-0.359-0.915-0.546-1.37c-0.175-0.428-0.373-0.847-0.541-1.276c-0.216-0.56-0.465-1.113-0.604-1.693
		c-0.184-0.764-0.652-1.389-0.908-2.112c-0.147-0.415-0.327-0.819-0.502-1.223c-0.101-0.232-0.225-0.453-0.33-0.683
		c-0.188-0.4-0.377-0.801-0.549-1.207c-0.203-0.479-0.387-0.963-0.584-1.444c-0.344-0.843-0.631-1.716-1.06-2.513
		c-0.276-0.517-0.185-0.949-0.069-1.439c0.049-0.211,0.026-0.441,0.012-0.663c-0.014-0.226-0.039-0.454-0.09-0.674
		c-0.065-0.288-0.113-0.595-0.254-0.847c-0.23-0.416-0.201-0.82-0.067-1.239c0.024-0.08,0.097-0.188,0.167-0.204
		c0.412-0.096,0.541-0.463,0.755-0.75c0.047-0.062,0.086-0.169,0.142-0.178c0.522-0.09,1.049-0.153,1.571-0.246
		c0.11-0.021,0.298-0.148,0.29-0.201c-0.079-0.52,0.275-0.826,0.549-1.163c0.165-0.203,0.367-0.356,0.67-0.367
		c0.176-0.006,0.342-0.196,0.521-0.215c0.61-0.065,1.226-0.112,1.84-0.128c0.469-0.014,1.003-0.104,1.392,0.084
		c0.44,0.212,0.718-0.081,1.07-0.084c0.234-0.002,0.331,0.062,0.43,0.301c0.192,0.471,0.476,0.904,0.717,1.355
		c0.25,0.466,0.529,0.921,0.738,1.404c0.479,1.114,0.928,2.241,1.381,3.366c0.233,0.582,0.446,1.173,0.674,1.757
		c0.051,0.131,0.121,0.252,0.183,0.379c0.034-0.004,0.067-0.006,0.101-0.01c0.104-0.332,0.207-0.662,0.309-0.994
		c0.019-0.062,0.029-0.127,0.056-0.184c0.165-0.348,0.345-0.689,0.497-1.043c0.096-0.223,0.132-0.473,0.227-0.697
		c0.209-0.497,0.441-0.984,0.66-1.48c0.182-0.416,0.346-0.842,0.541-1.252c0.281-0.59,0.584-1.168,0.881-1.75
		c0.156-0.308,0.313-0.615,0.488-0.914c0.148-0.254,0.321-0.492,0.482-0.738c0.046-0.07,0.094-0.141,0.132-0.214
		c0.091-0.185,0.162-0.38,0.269-0.554c0.289-0.467,0.587-0.93,0.895-1.385c0.104-0.154,0.229-0.312,0.38-0.416
		c0.197-0.134,0.41-0.271,0.617,0.059c0.08,0.128,0.341,0.134,0.506,0.221c0.285,0.152,0.566,0.314,0.84,0.488
		c0.251,0.16,0.447,0.449,0.812,0.32c0.017-0.008,0.043,0.002,0.062,0.01c0.53,0.246,1.083,0.441,1.558,0.807
		c0.297,0.23,0.659,0.378,0.953,0.611C34.55,9.03,34.712,9.289,34.925,9.54"/>
	<g>
		<path fill="#262626" d="M30.138,33.875c-0.035-0.012-0.068-0.023-0.102-0.036c-0.126,0.103-0.251,0.206-0.377,0.308
			c0.009,0.031,0.018,0.063,0.025,0.095c0.092-0.029,0.203-0.035,0.271-0.093C30.036,34.081,30.078,33.969,30.138,33.875
			 M22.641,13.314c-0.242,0.248-0.207,0.476,0.071,0.678C22.684,13.73,22.663,13.523,22.641,13.314 M20.807,38.958
			c0.047-0.028,0.092-0.06,0.14-0.089c-0.063-0.119-0.115-0.248-0.199-0.352c-0.017-0.021-0.153,0.053-0.233,0.082
			C20.611,38.721,20.709,38.839,20.807,38.958 M5.299,18.654c0.305-0.396,0.303-0.656-0.09-0.938
			C5.238,18.016,5.266,18.314,5.299,18.654 M5.018,16.857c0.018,0.158,0.013,0.3,0.056,0.425c0.021,0.06,0.157,0.139,0.196,0.118
			c0.088-0.043,0.22-0.196,0.209-0.211C5.364,17.036,5.307,16.773,5.018,16.857 M27.867,27.462c0.261-0.571,0.251-0.807-0.07-1.019
			C27.85,26.79,27.643,27.109,27.867,27.462 M22.872,41.281c0.015,0.525,0.366,0.912,0.726,0.793
			C23.34,41.793,23.105,41.537,22.872,41.281 M4.975,13.372c0.142-0.083,0.228-0.134,0.313-0.185
			c0.065,0.105,0.118,0.188,0.181,0.289c0.203-0.356,0.072-0.67-0.31-0.806C5.102,12.887,5.047,13.1,4.975,13.372 M5.633,14.79
			c-0.047-0.011-0.093-0.022-0.139-0.033c-0.174,0.167-0.415,0.304-0.508,0.509c-0.182,0.396-0.133,0.512,0.095,0.609
			c-0.012-0.15-0.022-0.292-0.034-0.449c0.247-0.013,0.454-0.022,0.727-0.037c-0.129-0.111-0.209-0.181-0.229-0.199
			C5.582,15.018,5.607,14.904,5.633,14.79 M7.498,7.846c-0.417,0.33-0.673,0.701-0.602,1.217c0.029,0.011,0.059,0.022,0.089,0.033
			c0.049-0.16,0.098-0.32,0.147-0.486C7.368,8.732,7.501,8.67,7.534,8.403c0.009-0.073,0.03-0.157,0.075-0.209
			C7.778,7.997,7.674,7.91,7.498,7.846 M24.044,8.298c-0.098,0.14-0.167,0.236-0.235,0.334c-0.129-0.118-0.258-0.239-0.428-0.397
			c-0.08,0.283-0.156,0.553-0.246,0.873c0.019,0.041,0.062,0.142,0.109,0.248c-0.422,0.121-0.461,0.287-0.182,0.643
			c0.427-0.179,0.291-0.902,0.935-0.923C23.711,8.795,24.498,8.617,24.044,8.298 M42.901,23.757
			c0.016-0.022,0.031-0.045,0.047-0.067c-0.215-0.316-0.438-0.625-0.639-0.95c-0.299-0.484-0.668-0.899-1.133-1.231
			c-0.14-0.1-0.256-0.232-0.39-0.34c-0.614-0.497-1.188-0.956-2.09-0.986c-1.187-0.039-2.304,0.197-3.425,0.467
			c-0.942,0.228-1.782,0.703-2.547,1.299c-0.463,0.361-0.937,0.722-1.332,1.15c-0.351,0.377-0.637,0.828-0.881,1.284
			c-0.231,0.438-0.412,0.913-0.539,1.392c-0.111,0.418-0.111,0.865-0.17,1.296c-0.176,1.256-0.072,2.491,0.316,3.694
			c0.25,0.771,0.421,1.59,1.038,2.192c0.211,0.205,0.428,0.403,0.638,0.61c0.941,0.928,1.875,1.863,2.829,2.779
			c0.134,0.129,0.361,0.235,0.54,0.229c0.773-0.029,1.548-0.082,2.318-0.168c1.255-0.141,2.341-0.715,3.291-1.496
			c0.527-0.434,0.918-1.035,1.361-1.568c0.123-0.147,0.188-0.346,0.324-0.475c0.087-0.083,0.256-0.082,0.413-0.126
			c-0.351-0.302-0.089-0.921,0.444-1.216c-0.213-0.565,0.203-1.006,0.207-1.518c0.029,0.002,0.058,0.004,0.087,0.006
			c0.046,0.098,0.092,0.194,0.138,0.291c0.039-0.011,0.077-0.021,0.116-0.033c-0.035-0.135-0.068-0.271-0.106-0.406
			c-0.029-0.104-0.076-0.203-0.093-0.309c-0.071-0.439,0.192-0.842,0.125-1.297c-0.086-0.576-0.044-1.172-0.129-1.746
			c-0.084-0.568-0.21-1.142-0.411-1.678c-0.133-0.355-0.308-0.654,0.031-1.035C43.12,23.782,43.011,23.77,42.901,23.757
			 M27.564,30.862c-0.025-0.368-0.067-0.735-0.07-1.103c-0.004-0.334,0.034-0.668,0.057-1.002c0.017-0.262,0.037-0.523,0.055-0.751
			c0.279,0.076,0.503,0.147,0.732,0.192c0.062,0.013,0.138-0.051,0.206-0.08c-0.064-0.046-0.121-0.107-0.191-0.135
			c-0.174-0.066-0.354-0.116-0.531-0.174c0.006-0.028,0.013-0.057,0.021-0.086c-0.08,0.022-0.158,0.045-0.283,0.08
			c0.023-0.488,0.037-0.938,0.072-1.39c0.038-0.5,0.386-0.894,0.509-1.367c0.022-0.085,0.182-0.149,0.291-0.19
			c0.123-0.047,0.262-0.057,0.394-0.082c0-0.043,0-0.088,0-0.131c-0.134-0.013-0.267-0.025-0.479-0.045
			c0.129-0.219,0.258-0.418,0.373-0.625c0.228-0.414,0.223-0.416,0.62-0.473c-0.049-0.098-0.094-0.189-0.155-0.312
			c0.24-0.256,0.475-0.526,0.728-0.778c0.937-0.933,1.923-1.796,3.112-2.41c1.053-0.543,2.106-1.06,3.313-1.165
			c0.233-0.021,0.417-0.064,0.634,0.11c0.323,0.261,0.646,0.112,0.733-0.292c0.082-0.385,0.185-0.768,0.226-1.158
			c0.082-0.759,0.187-1.521,0.17-2.282c-0.02-0.823-0.047-1.655-0.307-2.459c-0.152-0.472-0.238-0.967-0.359-1.45
			c-0.045-0.179-0.101-0.354-0.152-0.533c-0.08-0.09-0.18-0.189-0.268-0.299c-0.101-0.129-0.203-0.259-0.283-0.401
			c-0.176-0.318-0.553-0.521-0.533-0.89c-0.131,0-0.25,0.014-0.36-0.013C35.815,9.164,35.833,9,35.833,8.991
			c-0.156-0.119-0.279-0.222-0.412-0.31c-0.13-0.09-0.273-0.158-0.402-0.25c-0.281-0.201-0.576-0.392-0.83-0.625
			c-0.266-0.246-0.525-0.479-0.898-0.543c-0.046-0.008-0.079-0.076-0.126-0.102C32.83,6.98,32.499,6.79,32.155,6.627
			c-0.33-0.156-0.674-0.285-1.012-0.424c-0.039-0.018-0.082-0.031-0.125-0.036c-0.82-0.097-1.623-0.051-2.42,0.215
			c-1.075,0.36-1.7,1.249-2.425,2.011c-0.293,0.309-0.492,0.717-0.699,1.098c-0.43,0.794-0.844,1.597-1.252,2.402
			c-0.149,0.297-0.205,0.617-0.107,0.953c0.136,0.475-0.094,0.887-0.214,1.344c-0.071-0.043-0.113-0.059-0.142-0.088
			c-0.262-0.272-0.352-0.252-0.469,0.104c-0.074,0.227-0.154,0.452-0.249,0.671c-0.073,0.171-0.172,0.331-0.252,0.483
			c-0.06-0.014-0.079-0.014-0.081-0.021c-0.229-0.694-0.408-1.394-0.292-2.136c0.007-0.048-0.006-0.107-0.03-0.148
			c-0.287-0.451-0.578-0.896-0.863-1.347c-0.33-0.521-0.633-1.06-0.99-1.56c-0.297-0.414-0.641-0.801-0.995-1.168
			c-0.301-0.31-0.622-0.616-0.981-0.85C18.098,7.835,17.604,7.583,17.1,7.37c-0.426-0.179-0.881-0.347-1.336-0.394
			c-0.932-0.097-1.871-0.125-2.809-0.148c-0.645-0.016-1.27,0.163-1.793,0.523C10.391,7.883,9.803,8.615,9.311,9.4
			c-0.873,1.397-1.342,2.932-1.374,4.586c-0.025,1.35,0.086,2.683,0.51,3.978c0.279,0.86,0.486,1.748,0.814,2.589
			c0.371,0.952,0.816,1.877,1.275,2.791c0.592,1.18,1.193,2.355,1.857,3.494c0.754,1.295,1.478,2.613,2.425,3.789
			c0.425,0.527,0.798,1.098,1.183,1.657c0.055,0.078,0.029,0.205,0.066,0.298c0.033,0.083,0.101,0.212,0.158,0.216
			c0.27,0.017,0.271,0.005,0.258,0.236c0.13,0.14,0.236,0.294,0.314,0.462c0.069,0.146,0.082,0.322,0.163,0.459
			c0.257,0.439,0.534,0.868,0.806,1.298c0.014,0.021,0.058,0.021,0.102,0.035c0.057-0.099,0.111-0.194,0.167-0.288
			c0.033,0.01,0.065,0.018,0.099,0.025c-0.015,0.098-0.055,0.199-0.039,0.291c0.032,0.186,0.068,0.381,0.157,0.539
			c0.039,0.07,0.224,0.105,0.326,0.086c0.308-0.062,0.338-0.043,0.288,0.269c-0.023,0.149-0.029,0.304-0.043,0.454
			c0.027,0.005,0.055,0.01,0.082,0.016c0.057-0.125,0.113-0.25,0.208-0.459c0.167,0.297,0.288,0.512,0.407,0.725
			c-0.118-0.065-0.237-0.131-0.359-0.197c-0.178,0.209-0.143,0.352,0.077,0.477c0.101-0.104,0.188-0.194,0.276-0.285
			c0.387,0.059,0.237,0.312,0.149,0.49c-0.094,0.191-0.097,0.318,0.087,0.441c0.061,0.04,0.096,0.118,0.141,0.18
			c0.262,0.348,0.348,0.369,0.766,0.166c0.291,0.346,0.587,0.697,0.883,1.049c-0.137-0.02-0.244-0.035-0.385-0.055
			c0.138,0.169,0.238,0.29,0.354,0.432c0.213-0.295,0.323-0.06,0.438,0.071c0.15,0.175,0.371,0.356,0.037,0.593
			c0.1,0.127,0.188,0.238,0.275,0.352c0.031-0.014,0.062-0.026,0.094-0.039c-0.018-0.119-0.035-0.238-0.053-0.357
			c0.016-0.008,0.03-0.016,0.045-0.023c0.539,0.732,1.08,1.467,1.643,2.232c-0.184,0.033-0.293,0.053-0.402,0.073
			c-0.007,0.027-0.014,0.054-0.021,0.081c0.08,0.043,0.185,0.143,0.238,0.12c0.334-0.14,0.477,0.112,0.637,0.299
			c0.199,0.231,0.303,0.229,0.447-0.042c0.408-0.765,0.803-1.539,1.235-2.29c0.396-0.685,0.843-1.339,1.25-2.017
			c0.244-0.406,0.442-0.84,0.688-1.245c0.187-0.31,0.412-0.597,0.619-0.896c0.024,0.015,0.049,0.027,0.073,0.041
			c-0.055,0.164-0.11,0.327-0.166,0.49c0.241-0.361,0.384-0.765,0.589-1.134c0.168-0.302,0.115-0.5-0.096-0.753
			c-0.166-0.199-0.241-0.475-0.355-0.717c0.027-0.012,0.056-0.023,0.082-0.035c0.246,0.355,0.492,0.418,0.657,0.16
			c-0.116-0.006-0.231-0.012-0.372-0.021c0.024-0.131,0.055-0.233,0.062-0.339c0.027-0.355-0.637-1.177-0.827-1.031
			c0.022,0.075,0.047,0.152,0.069,0.229c-0.033,0.012-0.066,0.023-0.101,0.035c-0.032-0.086-0.099-0.176-0.087-0.254
			c0.01-0.068,0.11-0.123,0.169-0.186c0.054-0.055,0.153-0.115,0.147-0.167c-0.021-0.224-0.047-0.455-0.121-0.666
			c-0.053-0.151-0.182-0.274-0.278-0.411c-0.056,0.129-0.11,0.258-0.169,0.387c-0.012,0.027-0.03,0.054-0.067,0.121
			c-0.064-0.367-0.113-0.693-0.182-1.017c-0.031-0.147-0.1-0.288-0.15-0.431c0.187-0.053,0.371-0.105,0.569-0.16
			c0.034-0.219,0.118-0.439,0.09-0.645c-0.043-0.293-0.025-0.502,0.32-0.554c-0.126-0.162-0.223-0.305-0.34-0.429
			c-0.04-0.042-0.151-0.072-0.194-0.047c-0.091,0.052-0.169,0.138-0.225,0.226c-0.014,0.022,0.062,0.144,0.115,0.159
			c0.198,0.061,0.196,0.172,0.122,0.326c-0.062,0.119-0.181,0.263-0.152,0.363C27.957,30.443,27.803,30.661,27.564,30.862
			 M24.646,7.362c0.183-0.384,0.365-0.767,0.549-1.149c-0.018-0.013-0.035-0.025-0.053-0.04c-0.301,0.285-0.604,0.569-0.869,0.82
			c0.16,0.16,0.271,0.267,0.379,0.374c-0.361-0.186-0.426,0.117-0.52,0.283c0.121,0.133,0.229,0.248,0.404,0.438
			c0.012-0.171,0.01-0.278,0.027-0.382C24.583,7.592,24.619,7.477,24.646,7.362 M7.993,7.083c0.056-0.124,0.08-0.29,0.174-0.362
			c0.386-0.295,0.778-0.595,1.204-0.824c0.176-0.094,0.443-0.016,0.668-0.016c0.04-0.127,0.045-0.299,0.129-0.357
			c0.066-0.045,0.229,0.062,0.35,0.076c0.088,0.01,0.248-0.004,0.256-0.037c0.059-0.233,0.238-0.18,0.393-0.199
			c1.314-0.172,2.637-0.264,3.96-0.192c1.029,0.056,2.05,0.233,2.988,0.681c0.733,0.348,1.465,0.723,2.135,1.177
			c0.472,0.319,0.987,0.639,1.244,1.209c0.051,0.112,0.233,0.157,0.325,0.259c0.225,0.252,0.43,0.521,0.65,0.777
			c0.053,0.061,0.131,0.117,0.205,0.132c0.029,0.006,0.092-0.099,0.125-0.161c0.293-0.566,0.495-1.174,0.932-1.673
			c0.404-0.459,0.719-0.996,1.084-1.491c0.063-0.086,0.183-0.132,0.277-0.193c0.041-0.024,0.119-0.029,0.129-0.061
			c0.166-0.484,0.664-0.541,1.021-0.698c0.814-0.36,1.705-0.546,2.522-0.899c0.871-0.377,1.781-0.443,2.689-0.477
			c0.6-0.021,1.208,0.148,1.811,0.239c0.172,0.024,0.35,0.045,0.51,0.106c0.352,0.135,0.705,0.275,1.041,0.445
			c1.806,0.917,3.382,2.152,4.656,3.712c0.733,0.896,1.412,1.851,1.85,2.972c0.236,0.604,0.511,1.194,0.658,1.83
			c0.138,0.592,0.238,1.193,0.343,1.795c0.026,0.153,0.004,0.317,0.004,0.516c0.032,0.059,0.132,0.163,0.142,0.275
			c0.129,1.461,0.158,2.922-0.166,4.367c-0.018,0.082-0.051,0.162-0.084,0.27c-0.117-0.022-0.22-0.051-0.324-0.057
			c-0.094-0.006-0.189,0.017-0.373,0.035c0.283,0.221,0.517,0.387,0.729,0.577c0.202,0.181,0.4,0.37,0.566,0.583
			c0.643,0.826,1.297,1.645,1.898,2.502c0.483,0.689,0.67,1.514,0.85,2.324c0.271,1.229,0.275,2.475,0.068,3.708
			c-0.137,0.815-0.305,1.642-0.594,2.412c-0.354,0.94-0.723,1.89-1.339,2.714c-0.672,0.896-1.425,1.727-2.31,2.395
			c-1.149,0.867-2.424,1.51-3.898,1.674c-0.732,0.082-1.449,0.279-2.198,0.105c-0.153-0.035-0.312,0.16-0.536,0.072
			c-0.195-0.075-0.443-0.016-0.658-0.016c-0.115-0.414-0.508-0.554-0.981-0.357c-0.093-0.174-0.058-0.566-0.435-0.296
			c-0.06-0.095-0.111-0.175-0.162-0.257c-0.068,0.062-0.148,0.115-0.203,0.187c-0.614,0.808-1.219,1.619-1.836,2.425
			c-0.682,0.889-1.356,1.784-2.064,2.654c-0.502,0.616-1.024,1.221-1.592,1.777c-0.317,0.313-0.728,0.548-1.124,0.765
			c-0.452,0.248-0.921,0.49-1.412,0.636c-0.357,0.105-0.763,0.053-1.146,0.057c-0.043,0.002-0.088-0.084-0.127-0.133
			c-0.09-0.108-0.168-0.227-0.265-0.328c-0.366-0.383-0.737-0.76-1.108-1.14c-0.053-0.053-0.113-0.134-0.172-0.138
			c-0.365-0.02-0.49-0.327-0.678-0.551c-0.354-0.422-0.699-0.85-1.041-1.281c-0.232-0.295-0.465-0.591-0.671-0.904
			c-0.489-0.744-0.95-1.51-1.45-2.248c-0.24-0.354-0.547-0.662-0.813-0.998c-0.087-0.109-0.138-0.248-0.218-0.363
			c-0.076-0.112-0.17-0.211-0.293-0.28c-0.104-0.239-0.209-0.478-0.328-0.754c-0.088,0.091-0.142,0.147-0.147,0.153
			c-0.204-0.195-0.387-0.41-0.606-0.576c-0.362-0.276-0.74-0.506-0.852-1.018c-0.047-0.221-0.318-0.383-0.438-0.599
			c-0.229-0.422-0.422-0.864-0.631-1.297c-0.022-0.05-0.035-0.105-0.068-0.144c-0.551-0.662-1.114-1.313-1.651-1.986
			c-0.172-0.215-0.278-0.482-0.423-0.74c-0.064-0.04-0.216-0.079-0.258-0.169c-0.328-0.695-0.711-1.347-1.239-1.914
			c-0.159-0.171-0.248-0.409-0.366-0.617c-0.35-0.612-0.552-1.296-1.141-1.785c-0.335-0.278-0.461-0.794-0.744-1.153
			c-0.26-0.332-0.299-0.695-0.354-1.082c-0.041-0.271-0.178-0.527-0.268-0.793c-0.044-0.129-0.07-0.265-0.113-0.395
			c-0.519-1.531-1.201-3.012-1.5-4.613c-0.113-0.601-0.191-1.207-0.283-1.812c-0.067-0.46-0.174-0.92-0.186-1.383
			c-0.025-0.898-0.083-1.805,0.174-2.688c0.051-0.177,0.049-0.373,0.116-0.541c0.043-0.106,0.162-0.196,0.269-0.254
			c0.039-0.021,0.142,0.074,0.238,0.129c0.109-0.057,0.266-0.122,0.405-0.215c0.167-0.112,0.433-0.231,0.037-0.413
			c-0.065-0.029-0.079-0.182-0.144-0.205c-0.09-0.033-0.22-0.025-0.308,0.016c-0.062,0.028-0.077,0.147-0.12,0.222
			c-0.051,0.087-0.109,0.169-0.164,0.254c-0.021-0.095-0.074-0.194-0.057-0.282c0.045-0.232,0.132-0.439,0.42-0.473
			c0.07-0.008,0.134-0.09,0.271-0.188c-0.224,0.012-0.342,0.019-0.461,0.025c-0.008-0.027-0.016-0.055-0.023-0.08
			c0.077-0.066,0.154-0.133,0.23-0.199c-0.021-0.005-0.043-0.011-0.063-0.016c0.043-0.171,0.086-0.342,0.122-0.488
			c0.261,0.07,0.47,0.139,0.684,0.178c0.064,0.012,0.143-0.053,0.233-0.134c-0.402,0.003-0.519-0.264-0.597-0.55
			C5.96,9.896,6.055,9.811,6.126,9.689c0.101,0.221,0.171,0.373,0.24,0.527c0.024-0.002,0.05-0.002,0.076-0.003
			c0.013-0.071,0.03-0.141,0.036-0.213C6.484,9.93,6.448,9.812,6.48,9.789c0.302-0.208,0.252-0.432,0.023-0.686
			C6.428,9.223,6.35,9.348,6.27,9.473C6.243,9.458,6.217,9.444,6.189,9.43C6.264,9.195,6.28,8.941,6.559,8.798
			c0.084-0.043,0.146-0.144,0.197-0.231c0.152-0.26,0.27-0.547,0.452-0.78c0.079-0.101,0.289-0.097,0.438-0.14
			c0.09-0.026,0.178-0.049,0.267-0.074C7.909,7.538,7.905,7.503,7.901,7.469C7.785,7.456,7.67,7.443,7.456,7.421
			c0.228-0.146,0.388-0.245,0.546-0.347c0.072,0.189,0.145,0.378,0.217,0.566c0.107-0.154,0.172-0.317,0.147-0.465
			C8.358,7.125,8.125,7.112,7.993,7.083"/>
		<path fill="#262626" d="M24.045,8.298c0.453,0.319-0.334,0.497-0.048,0.777c-0.644,0.021-0.508,0.743-0.934,0.923
			c-0.28-0.355-0.241-0.521,0.181-0.643c-0.047-0.106-0.091-0.207-0.109-0.248c0.09-0.32,0.166-0.59,0.244-0.873
			c0.172,0.158,0.301,0.279,0.43,0.397C23.877,8.534,23.946,8.438,24.045,8.298"/>
		<path fill="#262626" d="M27.564,30.861c0.237-0.199,0.393-0.418,0.297-0.765c-0.027-0.1,0.092-0.243,0.153-0.362
			c0.075-0.154,0.076-0.266-0.122-0.326c-0.053-0.016-0.129-0.137-0.115-0.159c0.056-0.088,0.134-0.175,0.225-0.226
			c0.043-0.025,0.153,0.004,0.194,0.047c0.117,0.123,0.214,0.267,0.34,0.429c-0.344,0.052-0.362,0.262-0.321,0.555
			c0.03,0.204-0.055,0.425-0.089,0.644c-0.197,0.055-0.383,0.107-0.569,0.16C27.555,30.855,27.564,30.861,27.564,30.861"/>
		<path fill="#262626" d="M7.498,7.846c0.176,0.064,0.28,0.151,0.111,0.348C7.564,8.246,7.543,8.33,7.534,8.402
			C7.502,8.67,7.367,8.734,7.133,8.609c-0.05,0.166-0.099,0.326-0.148,0.486C6.955,9.085,6.926,9.073,6.897,9.062
			C6.824,8.547,7.081,8.176,7.498,7.846"/>
		<path fill="#262626" d="M5.632,14.79c-0.024,0.114-0.05,0.228-0.087,0.399c0.02,0.019,0.1,0.088,0.229,0.199
			c-0.271,0.014-0.479,0.024-0.728,0.036c0.012,0.158,0.022,0.3,0.034,0.451c-0.227-0.099-0.274-0.214-0.094-0.61
			c0.092-0.205,0.334-0.342,0.508-0.509C5.539,14.768,5.586,14.779,5.632,14.79"/>
		<path fill="#262626" d="M24.654,7.369c-0.11-0.108-0.219-0.217-0.381-0.375c0.266-0.252,0.567-0.537,0.869-0.82
			c0.018,0.013,0.035,0.027,0.053,0.039c-0.184,0.384-0.365,0.767-0.549,1.149L24.654,7.369z"/>
		<path fill="#262626" d="M4.975,13.372c0.072-0.273,0.128-0.486,0.184-0.701c0.383,0.136,0.513,0.449,0.311,0.806
			c-0.062-0.101-0.115-0.184-0.182-0.289C5.201,13.238,5.115,13.289,4.975,13.372"/>
		<path fill="#262626" d="M22.873,41.281c0.233,0.256,0.467,0.512,0.725,0.793C23.238,42.193,22.887,41.807,22.873,41.281"/>
		<path fill="#262626" d="M27.867,27.462c-0.226-0.351-0.018-0.672-0.071-1.019C28.118,26.654,28.128,26.89,27.867,27.462"/>
		<path fill="#262626" d="M5.018,16.857c0.29-0.084,0.347,0.179,0.46,0.332c0.012,0.015-0.12,0.168-0.208,0.212
			c-0.04,0.021-0.176-0.06-0.196-0.119C5.03,17.157,5.035,17.016,5.018,16.857"/>
		<path fill="#262626" d="M24.646,7.362c-0.027,0.115-0.063,0.229-0.082,0.345c-0.017,0.104-0.016,0.211-0.026,0.381
			c-0.177-0.19-0.284-0.306-0.405-0.437c0.094-0.168,0.158-0.469,0.52-0.284C24.654,7.369,24.646,7.362,24.646,7.362"/>
		<path fill="#262626" d="M5.299,18.654c-0.033-0.34-0.061-0.639-0.09-0.937C5.602,17.998,5.604,18.259,5.299,18.654"/>
		<path fill="#262626" d="M7.993,7.083c0.131,0.029,0.365,0.042,0.374,0.093c0.024,0.147-0.04,0.311-0.147,0.465
			C8.147,7.452,8.075,7.264,8.002,7.074L7.993,7.083z"/>
		<path fill="#262626" d="M20.808,38.959c-0.099-0.119-0.196-0.239-0.294-0.358c0.08-0.03,0.216-0.104,0.234-0.083
			c0.082,0.104,0.135,0.232,0.197,0.352C20.899,38.899,20.854,38.929,20.808,38.959"/>
		<path fill="#262626" d="M22.641,13.315c0.021,0.208,0.044,0.416,0.071,0.677C22.433,13.789,22.4,13.562,22.641,13.315"/>
		<path fill="#262626" d="M19.516,36.939c-0.088,0.091-0.178,0.182-0.277,0.284c-0.22-0.123-0.254-0.267-0.076-0.476
			c0.122,0.067,0.24,0.133,0.36,0.198L19.516,36.939"/>
		<path fill="#262626" d="M30.138,33.875c-0.06,0.094-0.102,0.206-0.182,0.273c-0.068,0.058-0.18,0.063-0.271,0.093
			c-0.009-0.032-0.017-0.063-0.024-0.095c0.125-0.102,0.25-0.204,0.376-0.307C30.069,33.852,30.103,33.863,30.138,33.875"/>
		<path fill="#262626" d="M39.883,24.85c-0.099,0.035-0.237,0.08-0.374,0.129c-0.092,0.033-0.182,0.07-0.273,0.105
			c0.062,0.079,0.119,0.162,0.189,0.234c0.043,0.041,0.104,0.066,0.242,0.15c-0.59,0.036-1.102,0.09-1.547-0.148
			c-0.325-0.176-0.579-0.484-0.869-0.731c-0.577-0.491-1.157-0.317-1.36,0.421c-0.086,0.315-0.149,0.641-0.183,0.965
			c-0.061,0.576-0.092,1.153-0.129,1.731c-0.006,0.103,0.014,0.207,0.023,0.332c1.146-0.485,2.303-0.289,3.444-0.302
			c0.01,0.029,0.021,0.058,0.03,0.086c-0.762,0.344-1.521,0.697-2.291,1.025c-0.377,0.162-0.777,0.266-1.158,0.418
			c-0.069,0.028-0.137,0.17-0.133,0.256c0.029,0.59,0.097,1.177,0.109,1.766c0.008,0.354,0.309,0.4,0.539,0.586
			c-0.219,0.081-0.55,0.066-0.393,0.389c0.137,0.279,0.369,0.065,0.545,0.012c0.742-0.228,1.472-0.494,2.218-0.707
			c0.711-0.2,1.438-0.346,2.155-0.529c0.174-0.045,0.334-0.145,0.5-0.221c0.006,0.017,0.021,0.047,0.018,0.05
			c-0.725,0.547-1.32,1.259-2.205,1.601c-1.016,0.391-1.996,0.867-3.01,1.262c-0.281,0.109-0.627,0.345-0.939,0.016
			c-0.086-0.092-0.185-0.197-0.215-0.312c-0.097-0.371-0.186-0.746-0.236-1.127c-0.059-0.431-0.075-0.867-0.104-1.303
			c-0.021-0.314-0.019-0.633-0.056-0.945c-0.008-0.066-0.147-0.164-0.224-0.162c-0.137,0.002-0.28,0.053-0.407,0.112
			c-0.353,0.166-0.699,0.326-1.093-0.038c-0.143-0.347,0.529-0.22,0.447-0.599c-0.06-0.004-0.123-0.008-0.186-0.011
			c0.145-0.156,0.257-0.329,0.414-0.434c0.193-0.128,0.42-0.207,0.639-0.291c0.197-0.078,0.297-0.197,0.282-0.421
			c-0.042-0.638-0.138-1.282-0.088-1.913c0.044-0.566,0.243-1.121,0.392-1.677c0.049-0.177,0.149-0.34,0.237-0.536
			c0.078,0.014,0.163,0.028,0.306,0.053c-0.08-0.121-0.128-0.194-0.185-0.281c0.353-0.473,0.788-0.764,1.411-0.7
			c0.137,0.013,0.285-0.017,0.418-0.062c0.382-0.123,0.688,0.034,0.973,0.252c0.439,0.334,0.861,0.693,1.307,1.02
			C39.31,24.548,39.589,24.68,39.883,24.85"/>
	</g>
</g>
</svg>
