<?xml version="1.0" encoding="utf-8"?>
<!-- Generator: Adobe Illustrator 15.0.0, SVG Export Plug-In . SVG Version: 6.00 Build 0)  -->
<!DOCTYPE svg PUBLIC "-//W3C//DTD SVG 1.0//EN" "http://www.w3.org/TR/2001/REC-SVG-20010904/DTD/svg10.dtd">
<svg version="1.0" id="Layer_1" xmlns="http://www.w3.org/2000/svg" xmlns:xlink="http://www.w3.org/1999/xlink" x="0px" y="0px"
	 width="50px" height="50px" viewBox="0 0 50 50" enable-background="new 0 0 50 50" xml:space="preserve">
<g>
	<path fill-rule="evenodd" clip-rule="evenodd" fill="#1DB5B6" d="M30.716,42.935c0.062-1.826-0.771-3.673-0.988-5.425
		c-0.17-0.427-0.314-0.843-0.433-1.246l-0.083-0.3l-0.037-0.148l-0.019-0.074c-0.007-0.028-0.012-0.049-0.007-0.045
		c0.015-0.026,0.038-0.047,0.073-0.053c-0.021-0.008-0.051-0.021-0.068-0.036c-0.014-0.016-0.021-0.036-0.023-0.061
		c-0.002-0.013-0.002-0.026-0.001-0.041c0.001-0.009-0.001-0.014,0.003-0.024l0.093-0.119c0.244-0.318,0.462-0.656,0.639-1.006
		c0.36-0.695,0.513-1.464,0.484-2.025c-0.013-0.399-0.041-0.916-0.195-1.371c-0.145-0.453-0.403-0.81-0.667-0.868
		c-0.112-0.023,0.007-0.262,0.039-0.219c-0.561-0.743-1.114-1.281-1.741-1.684c-0.624-0.391-1.348-0.623-2.109-0.5
		c-0.621,0.103-1.105,0.423-1.478,0.82c-0.608,0.089-1.239,0.392-1.729,0.881c-0.493,0.483-0.835,1.149-0.938,1.841
		c-0.286,0.188-0.354,0.439-0.365,0.719c-0.01,0.285,0.031,0.594,0,1.021c0.128,0.571,0.347,1.074,0.625,1.502
		c0.066,0.108,0.142,0.209,0.215,0.309l0.114,0.145l0.078,0.089c0.094,0.101,0.175,0.179,0.271,0.257l0.021,0.018l-0.008,0.025
		l-0.015,0.05l-0.031,0.101l-0.063,0.197l-0.187,0.556c-0.146,0.426-0.3,0.846-0.466,1.274c-0.331,0.857-0.709,1.75-1.164,2.796
		c-0.046,0.192-0.024,0.351-0.005,0.509c0.011,0.079,0.021,0.159,0.023,0.242c0,0.047,0.003,0.075-0.007,0.14
		c-0.011,0.064-0.024,0.131-0.042,0.201c-0.407,0.812-0.789,1.9-1.075,2.897c0.999-0.043,2.043-0.14,2.906-0.254
		c0.488-0.059,0.677-0.114,0.959-0.173l0.731-0.175c0.352-0.087,0.655-0.08,0.973-0.171c0.289-0.083,0.51-0.216,0.759-0.29
		l3.792-0.104c0.062,0.048,0.146,0.054,0.254-0.007l0.035-0.001c0.15,0.173,0.145,0.114,0.116-0.003l0.357-0.011l-0.095-0.269
		C30.355,42.942,30.445,43.117,30.716,42.935z M29.972,42.066c0.175,0.019,0.305,0.087,0.323,0.277
		c0.055,0.193-0.007,0.272-0.12,0.302L29.972,42.066z"/>
	<g>
		<path fill-rule="evenodd" clip-rule="evenodd" fill="#ED1C24" d="M39.455,46.875c0.056-0.761-0.11-1.264-0.091-2.045
			c0.039-1.567,0.036-3.134,0.021-4.705c-0.033-3.145-0.116-6.317-0.127-9.645c0.263-1.361-0.22-3.933,0.361-4.711
			c-0.133-0.432-0.219-0.941-0.278-1.487"/>
		<path fill-rule="evenodd" clip-rule="evenodd" fill="#262626" d="M38.76,22.696l-1.495-0.18c-0.833,0.435-0.963,0.18-1.799,0.408
			c-3.831-0.185-6.86,0.026-10.84,0.658c-3.88,0.272-5.043,0.028-7.588,0.632c-1.517,0.076-2.034-0.284-3.257,0.111
			c-0.619-0.021-0.925,0.362-1.085,0.038c-1.581-0.115-1.997,0.238-2.549-0.297c-1.095-0.021-1.773,0.343-1.877-0.254
			c-0.367-0.686,0.384-0.35,1.126-0.493c0.354-0.335,1.531-0.267,2.16-0.464c1.041-0.016,2.364-0.19,2.902,0.091
			c1.25-0.455,2.773-0.309,4.332-0.534c0.728-0.104,1.339-0.322,2.16-0.457c0.828-0.137,1.615-0.141,2.53-0.272
			c3.606-0.521,9.34-1.253,13.772-0.716c0.518-0.02,0.898-0.108,1.285-0.193c0.193-0.043,0.387-0.084,0.604-0.114
			c0.223-0.028,0.438-0.053,0.781-0.031l0.163,0.025l0.122,0.024l0.036,0.008c0.043,0.01,0.085,0.022,0.126,0.036
			c0.042,0.013,0.083,0.028,0.123,0.045l0.078,0.036l0.011,0.005l0.164,0.097c0.037,0.026,0.073,0.054,0.108,0.084
			c0.07,0.06,0.135,0.126,0.19,0.197c0.037,0.047,0.05,0.067,0.073,0.104c0.101,0.162,0.104,0.195,0.142,0.278l0.047,0.141
			l0.027,0.103c0.05,0.228,0.062,0.372,0.079,0.523c0.028,0.293,0.041,0.556,0.054,0.816c0.022,0.519,0.031,1.011,0.04,1.493
			l0.019,2.761l0.026,5.09c0.034,3.325,0.15,6.668,0.325,10.967c-0.25,1.838,0.229,2.839-0.426,4.014
			c0.003,0.209,0.004,0.415-0.006,0.638l-0.012,0.176l-0.012,0.1l-0.01,0.06l-0.025,0.104l-0.005,0.019l-0.015,0.04
			c-0.011,0.025-0.023,0.051-0.037,0.076c-0.026,0.049-0.063,0.1-0.097,0.135c-0.021,0.022-0.045,0.044-0.068,0.064
			c-0.057,0.047-0.087,0.063-0.117,0.082c-0.034,0.021-0.066,0.037-0.087,0.045c-0.103,0.048-0.166,0.065-0.235,0.087
			c-0.5,0.133-0.888,0.162-1.311,0.207c-0.826,0.073-1.635,0.095-2.434,0.095c-1.596-0.004-3.146-0.108-4.608-0.287
			c-1.185,0.318-2.321,0.592-3.643,0.712c-3.228,0.288-5.853-0.37-9.804-0.333c0.117-0.001-0.175-0.316-0.354-0.209
			c-0.828,0.499-3.507,0.157-5.105,0.111c-1.14-0.033-2.733-0.046-4.581-0.14l-0.719-0.049c-0.253-0.022-0.501-0.043-0.822-0.1
			c-0.086-0.016-0.173-0.032-0.295-0.066l-0.098-0.028l-0.132-0.048c-0.032-0.011-0.123-0.052-0.191-0.087L6.577,48.85l-0.063-0.038
			l-0.093-0.063c-0.122-0.088-0.235-0.194-0.33-0.308l-0.046-0.055l-0.002-0.002c-0.074-0.12,0.164,0.266-0.167-0.27l-0.024-0.05
			l-0.044-0.103c-0.033-0.084-0.038-0.105-0.05-0.141l-0.028-0.099c-0.025-0.095-0.038-0.159-0.05-0.217l-0.046-0.265
			c-0.047-0.3-0.075-0.545-0.104-0.799c-0.11-0.996-0.191-1.961-0.272-2.911c0.151-1.97,0.192-4.165,0.14-6.552
			c0.492-4.485,0.289-9.726,1.21-14.14c0.623-0.312,0.358,0.371,0.732,0.521c0.353,0.344,0.167-1.499,0.425-0.148
			c0.714-0.328,0.338,1.913,0.177,2.175c0.078,1.246-0.087,2.028-0.208,2.896c0.178,3.521-0.212,7.756-0.388,11.59
			c-0.075,2.146,0.349,2.996,0.063,4.706c0.149,0.683,0.275,1.497,0.442,2.322c0.021,0.097,0.283,0.001,0.503,0.011
			c0.449,0.02,0.927,0.027,1.413,0.031c1.951,0.012,4.065-0.021,6.031-0.123c4.008,0.564,5.747,0.013,8.646,0.758
			c2.265-0.348,4.464-0.489,6.892-0.543c1.213-0.027,2.482-0.033,3.841-0.043c1.348-0.015,2.833-0.012,4.299-0.115"/>
	</g>
	<g>
		<path fill-rule="evenodd" clip-rule="evenodd" fill="#262626" d="M12.028,23.79c-0.27-0.699,1.128-0.271,1.719-0.389
			c0.245-0.273,0.957-0.233,1.472-0.324l0.363-0.064L15.5,22.757c-0.026-0.082-0.055-0.162-0.088-0.231
			c-0.068-0.81-0.243-1.852,0.047-2.272c-0.44-0.982-0.231-2.182-0.309-3.419c-0.033-0.581-0.181-1.089-0.195-1.76
			c-0.014-0.677,0.119-1.298,0.191-2.046c0.144-1.464,0.508-3.448,1.699-5.279c0.588-0.905,1.403-1.74,2.358-2.32
			c0.953-0.584,2.021-0.897,2.994-0.949c0.222-0.053,0.4-0.111,0.587-0.173c0.211-0.064,0.278-0.119,0.495-0.182
			c0.34-0.12,0.703-0.22,1.203-0.2c1.011,0.136,1.93,0.494,2.687,0.96c0.762,0.466,1.375,1.023,1.894,1.595
			c1.031,1.153,1.725,2.356,2.348,3.565c0.618,1.211,1.142,2.454,1.698,3.753c0.141,0.323,0.282,0.648,0.432,0.967
			c0.075,0.158,0.152,0.313,0.23,0.459c0.071,0.135,0.174,0.298,0.21,0.334c0.071,0.086,0.164,0.16,0.218,0.186
			c0.059,0.027,0.066,0.015,0.077,0.01c0.01,0.001,0.214-0.1,0.403-0.334c0.144-0.084,0.288-0.24,0.353-0.325l-0.123,0.468
			c0.007-0.46-0.086-0.886-0.12-1.255c-0.036-0.376-0.021-0.725,0.171-1.137c-0.607-2.435-1.329-4.789-2.251-6.862
			c-0.767-0.588-1.506-1.059-2.274-1.592c-0.94-0.641-1.732-1.215-2.704-1.692c-0.962-0.467-2.122-0.814-3.551-0.726
			c0.085-0.006-0.136-0.311-0.264-0.192c-0.145,0.135-0.377,0.228-0.649,0.301c-0.126,0.035-0.284,0.068-0.465,0.1
			c-0.138,0.03-0.321,0.058-0.487,0.086c-0.684,0.11-1.427,0.247-1.944,0.449c-0.732,0.281-1.717,0.799-2.59,1.615
			c-0.882,0.808-1.632,1.913-2.137,3.09c-0.808,1.062-1.418,2.546-1.731,4.259c-0.59,1.55-0.846,3.383-0.99,5.221
			c-0.143,1.84-0.195,3.707-0.39,5.441c-0.578,0.346-0.499-0.666-0.878-0.739c-0.192-0.116-0.176,0.3-0.15,0.616
			c0.027,0.316,0.054,0.539-0.16,0.01c-0.333,0.185-0.478-0.195-0.506-0.646c-0.031-0.451,0.056-0.969,0.127-1.08
			c-0.164-0.998-0.025-1.642,0.076-2.34c-0.259-2.824,0.406-6.283,1.584-9.121c0.316-0.797,0.48-1.377,0.675-1.907
			c0.196-0.526,0.427-1.007,0.936-1.498c0.382-1.074,1.216-2.401,2.509-3.513c1.279-1.124,2.99-1.951,4.647-2.438
			c0.446-0.032,0.842-0.052,1.233-0.069l1.056-0.034c0.668-0.015,1.267-0.01,1.836,0.037c1.13,0.097,2.192,0.346,3.252,1.145
			c1.986,0.388,3.801,1.604,5.152,3.325c1.363,1.729,2.323,3.923,2.958,6.567c0.128,0.755,0.229,1.501,0.308,2.243
			c0.039,0.372,0.072,0.742,0.099,1.115c0.025,0.382,0.046,0.723,0.054,1.159l0.008,0.479l-0.231,0.367
			c-0.075,0.121-0.108,0.163-0.162,0.237l-0.148,0.193c-0.102,0.126-0.21,0.248-0.329,0.368c-0.239,0.24-0.517,0.481-0.907,0.694
			c-0.38,0.208-0.932,0.388-1.535,0.323c-0.605-0.061-1.108-0.351-1.434-0.631c-0.083-0.07-0.16-0.144-0.229-0.215l-0.101-0.107
			l-0.047-0.053l-0.07-0.085l-0.064-0.084l-0.113-0.161c-0.049-0.078-0.098-0.155-0.134-0.222c-0.156-0.274-0.263-0.508-0.366-0.735
			c-0.202-0.452-0.374-0.876-0.547-1.297c-0.681-1.669-1.362-3.282-2.257-4.779c-0.139-0.492-0.574-1.061-0.989-1.537
			c-0.415-0.483-0.806-0.873-0.842-1.28c-0.627-0.184-1.305-0.521-2.063-0.729C24.4,6.14,24.005,6.061,23.616,6.023l-0.28-0.022
			l-0.301-0.009c-0.178-0.007-0.361-0.002-0.521,0.004c-0.256,0.272-0.402,0.36-0.562,0.423c-0.156,0.066-0.325,0.109-0.554,0.317
			c-1.269,0.378-2.251,1.185-2.931,2.217c-0.683,1.037-1.079,2.294-1.238,3.758c-0.31,1.381-0.467,2.308-0.56,3.119
			c-0.083,0.812-0.081,1.521,0.146,2.486c-0.002,1.13-0.369,1.525,0.019,2.44c-0.021,0.466,0.369,0.677,0.048,0.81
			c-0.034,0.456,0.013,0.802,0.042,1.004l0.283,1.905l-1.987,0.037c-0.419,0.008-0.645,0.001-0.9-0.337
			C13.454,24.115,12.093,24.39,12.028,23.79z"/>
	</g>
	<g>
		<path fill-rule="evenodd" clip-rule="evenodd" fill="#262626" d="M28.171,43.422c-0.156,0.241-0.661,0.158-0.935,0.29
			c-0.447-0.016-1.018,0.08-1.244-0.145c-0.543,0.309-1.195,0.16-1.867,0.291c-0.313,0.06-0.579,0.208-0.933,0.289
			c-0.357,0.083-0.695,0.067-1.09,0.145l-0.656,0.125l-0.356,0.062l-0.528,0.061c-0.747,0.078-1.633,0.146-2.552,0.188
			c0.151-0.718,0.347-1.509,0.568-2.269l0.172-0.56l0.043-0.134l0.032-0.086l0.065-0.168c0.089-0.223,0.188-0.438,0.294-0.641
			c0.09-0.434-0.09-0.696,0.001-1.128c0.292-0.771,0.552-1.466,0.788-2.126l0.33-0.943l0.101-0.258l0.049-0.134l0.025-0.069
			c0.01-0.023,0.021-0.048-0.006-0.058c-0.083-0.063-0.165-0.135-0.246-0.213l-0.148-0.148c-0.075-0.076-0.152-0.159-0.225-0.242
			c-0.292-0.335-0.551-0.706-0.768-1.119c-0.43-0.824-0.705-1.823-0.646-2.974c0.146-0.437,0.187-0.773,0.271-1.068
			c0.083-0.292,0.214-0.538,0.545-0.679c0.275-0.71,0.775-1.343,1.392-1.779c0.617-0.437,1.345-0.673,2.022-0.681
			c0.477-0.348,1.043-0.602,1.729-0.613c0.839-0.007,1.58,0.338,2.204,0.831c0.627,0.505,1.163,1.144,1.702,1.985
			c-0.03-0.049-0.163,0.19-0.048,0.227c0.267,0.09,0.51,0.487,0.646,0.974c0.139,0.487,0.165,1.046,0.176,1.456
			c0.028,0.581-0.021,1.437-0.353,2.345c-0.164,0.452-0.396,0.913-0.692,1.346c-0.075,0.108-0.153,0.215-0.235,0.318l-0.126,0.155
			c-0.034,0.041-0.11,0.125-0.097,0.118c-0.02,0.05,0.004,0.059,0.016,0.079c-0.021-0.005-0.043-0.007-0.065-0.008
			c-0.065,0.005-0.069,0.061-0.063,0.121l0.104,0.271l0.122,0.299c0.084,0.2,0.174,0.403,0.268,0.608
			c0.395,1.918,1.42,3.928,1.539,5.934c-0.377,0.306-0.432-0.257-0.716-0.206c-0.302-0.032,0.263,0.855-0.146,0.399
			c-0.438,0.338-0.778-1.632-0.842-2.01c-0.717-1.339-1.157-3.128-1.655-4.705c-0.096-0.283-0.204-0.508-0.316-0.717l-0.167-0.303
			l-0.081-0.147c-0.013-0.024-0.027-0.05-0.037-0.072l0.03-0.051c0.208-0.153,0.481-0.32,0.813-0.468
			c0.096-0.146,0.178-0.288,0.252-0.431c0.077-0.146,0.152-0.298,0.223-0.458c0.141-0.32,0.261-0.67,0.332-1.033
			c0.149-0.725,0.084-1.521-0.196-2.14c-0.001-0.699-0.298-1.149-0.565-1.488c-0.283-0.346-0.532-0.612-0.83-1.101
			c-0.85-0.17-1.555-0.173-2.294-0.045c-0.719,0.14-1.502,0.459-2.135,1.222c-0.694,0.644-1.005,1.655-0.871,2.613
			c0.062,0.477,0.228,0.938,0.48,1.356c0.126,0.209,0.272,0.408,0.44,0.592l0.066,0.07l0.034,0.036l0.075,0.067
			c0.102,0.098,0.22,0.183,0.337,0.27l0.714,0.507c-0.054,0.276-0.164,0.577-0.244,0.862c-0.124,0.239-0.228,0.525-0.318,0.811
			c-0.063,0.182-0.119,0.379-0.18,0.565c-0.121,0.375-0.263,0.71-0.533,0.805c0.113,0.815-0.514,1.983-0.858,2.67
			c0.217,0.432,0.017,0.435,0.081,0.826c-0.081,0.218-0.11,0.26-0.153,0.364c-0.04,0.095-0.077,0.193-0.109,0.291
			c-0.066,0.196-0.116,0.392-0.144,0.56c0.248-0.02,0.508-0.061,0.735-0.122c0.113-0.03,0.219-0.066,0.31-0.107
			c0.015-0.021,0.167-0.043,0.269-0.066l0.34-0.073c1.67-0.115,2.166,0.098,3.268-0.29c0.652-0.02,0.869,0.265,1.4,0
			c0.266,0.031,0.402-0.247,0.467,0c0.677,0.128,0.86-0.126,1.09,0.29C27.981,42.996,27.89,42.929,28.171,43.422z"/>
	</g>
</g>
</svg>
