<?xml version="1.0" encoding="utf-8"?>
<!-- Generator: Adobe Illustrator 19.2.1, SVG Export Plug-In . SVG Version: 6.00 Build 0)  -->
<svg version="1.1" id="Layer_1" xmlns="http://www.w3.org/2000/svg" xmlns:xlink="http://www.w3.org/1999/xlink" x="0px" y="0px"
	 viewBox="0 0 60 50" style="enable-background:new 0 0 60 50;" xml:space="preserve">
<style type="text/css">
	.st0{fill:#1DB5B6;}
	.st1{fill:#262626;}
	.st2{clip-path:url(#SVGID_2_);}
	.st3{clip-path:url(#SVGID_4_);}
</style>
<g>
	<g>
		<path class="st0" d="M32.5,2.9c0.4-0.1,0.8-0.2,1.1-0.3c-0.4,0-0.8-0.1-1.1-0.1c-0.2,0.1-0.4,0.2-0.5,0.3
			C31.9,2.9,32.4,2.8,32.5,2.9z"/>
		<path class="st0" d="M28.1,21c-0.7-0.7-1.6-2.8-1.9-3.7c-0.7-1.9-1-3.8-1.1-5.6c0-0.8,0.1-1.7,0.3-2.6c0-0.2,0.1-0.4,0.2-0.7
			c0.1-0.2,0.2-0.5,0.2-0.7C26,7.4,26.2,7,26.4,6.6c0.9-1.6,2.4-3,4-3.8c0.2-0.1,0.3-0.2,0.5-0.3c-2,0.3-4.1,1.2-5.6,2.5
			c-2.2,2.2-3.3,5.7-3,8.7c0.1,1.5,0.5,2.7,0.9,4c0.5,1.2,1,2.4,1.8,3.5c0.3,0.5,5.9,2.8,6.3,2.9c0.2-0.1,0.5,0.3,0.7,0.2
			c1.1,0.2,0.4-0.2,0.7-0.4l3-1.7C36.2,22.1,30.4,23.4,28.1,21z"/>
	</g>
	<g>
		<path class="st1" d="M30.7,22.8c0,0.1-0.2-0.1-0.2-0.1l-0.2-0.2c-0.2-0.2-0.3-0.2-0.4-0.4c-0.2-0.1-0.3-0.3-0.5-0.4
			c-0.2,0-0.3-0.2-0.5-0.3c-0.4-0.2-0.7-0.5-1.1-0.8c-0.3-0.4-0.7-0.7-1-1c-0.2-0.2-0.4-0.2-0.5-0.4c-0.2,0-0.3-0.4-0.5-0.4
			c-0.1-0.3-0.3-0.5-0.4-0.7c-0.2-0.2-0.3-0.4-0.4-0.7c-0.2-0.2-0.3-0.5-0.4-0.8c0-0.2-0.2-0.4-0.1-0.7c-0.2-0.3-0.2-0.6-0.3-1
			c-0.2-0.6-0.2-1.3-0.3-2c0-0.3-0.1-0.6,0-1c0-0.2,0-0.3-0.1-0.5c0.2-0.4,0.1-0.8,0.2-1.2c0-0.2,0.1-0.1,0.2-0.2
			c0-0.2,0.1-0.5,0.2-0.6c0-0.2,0.1-0.4,0.1-0.5c0.1-0.1,0.1-0.1,0.2-0.3c0.1-0.3,0.4-0.6,0.4-0.9c0.2-0.2,0.2-0.3,0.3-0.4
			c0.2-0.1,0.2-0.2,0.4-0.3c0.2-0.3,0.4-0.4,0.6-0.7c0.4-0.3,0.7-0.4,1.1-0.7c0.2-0.1,0.4-0.2,0.6-0.3c0.4-0.2,1-0.5,1.3-0.6
			c0.1-0.1,0.1,0,0.2,0c0-0.1,0.2-0.1,0.2-0.1C30,4.3,30.5,4.2,30.9,4c0.1,0,0.5-0.1,0.6-0.1c0.2,0,0.6-0.1,0.6,0
			c-0.1,0-0.2,0.1-0.3,0.1c-0.1,0.1-0.2,0.1-0.3,0.1l-0.3,0.1c-0.1,0.1-0.3,0.1-0.3,0.2c-0.1,0-0.2,0.1-0.3,0.1
			c-0.1,0.1-0.3,0.1-0.4,0.2c-0.1,0-0.4,0.2-0.5,0.2c-0.2,0-0.4,0.2-0.7,0.3s-0.5,0.2-0.6,0.4c-0.1,0-0.5,0.2-0.6,0.3
			c-0.1,0-0.2,0.1-0.3,0.2c-0.1,0.1-0.2,0.2-0.3,0.3c-0.1,0.1-0.1,0-0.2,0.1c-0.3,0.3-0.5,0.5-0.7,0.7c-0.1,0.2-0.2,0.3-0.2,0.5
			c-0.3,0.3-0.5,0.6-0.6,1c-0.2,0.2-0.2,0.4-0.3,0.7c0,0.2-0.1,0.4-0.1,0.6c-0.1,0.1-0.1,0.3-0.2,0.3c0,0.2-0.1,0.4-0.1,0.7
			l-0.1,0.5c0,0.1,0,0.3,0.1,0.4c-0.2,0.3,0,0.8-0.1,1.1c0.1,0.5,0.2,1,0.4,1.4v0.5c0,0.2,0.2,0.2,0.1,0.4c0.1,0.2,0,0.2,0.1,0.4
			c0.2,0.2,0.3,0.4,0.3,0.7l0.5,1c0,0.1,0.1,0.1,0.2,0.2c0.1,0.1,0.1,0.2,0.2,0.2c0.1,0,0,0.2,0.2,0.1c0,0.1,0,0.2,0.1,0.2
			c0.1,0.1,0,0.1,0.1,0.3c0,0.1,0.2,0,0.2,0.1c0.5,0.8,0.9,1.5,1.6,2.2c0.7,0.4,1.2,1,2,1.9C30.5,22.6,30.7,22.7,30.7,22.8z"/>
	</g>
	<g>
		<path class="st1" d="M24.5,6.4c0,0,0.1,0,0.1,0c0-0.1,0-0.1,0-0.1s0,0,0,0s0,0,0-0.1c0,0,0.1,0,0.1-0.1c0,0,0.1,0,0.1-0.1
			c0.1,0,0.2,0,0.3,0C25,6,25,6,25,6c0.1,0,0.3,0,0.4,0c0,0,0.1,0,0.1,0c0.1,0,0.2,0,0.3,0.1c0.1,0,0.2,0,0.3-0.1c0.1,0,0.3,0,0.4,0
			c0.1,0,0.1,0,0.2,0.1c0,0,0.1,0,0.1,0c0.1,0,0.1,0.1,0.2,0.1c0,0,0.1,0,0.1,0.1c0,0,0.1,0,0.1,0c0,0.1,0,0.1-0.1,0.1
			c0,0,0,0,0,0.1c0,0-0.1,0-0.1,0c-0.1,0-0.2,0-0.2,0c-0.1,0-0.2,0.1-0.3,0.1c-0.1,0-0.3,0.1-0.4,0.1c-0.1,0-0.2,0-0.3,0
			c-0.1,0-0.2,0-0.3,0c-0.1,0-0.3,0-0.5,0c-0.1,0-0.3,0-0.4,0c0,0-0.1,0-0.1,0c0,0,0-0.1,0-0.1C24.5,6.4,24.5,6.4,24.5,6.4z"/>
	</g>
	<g>
		<path class="st1" d="M23.3,8.7c0,0,0.1,0,0.1,0c0-0.1,0-0.1,0-0.1c0,0,0,0,0,0s0,0,0-0.1c0,0,0.1,0,0.1-0.1c0,0,0.1,0,0.1,0
			c0.1,0,0.2,0,0.3,0c0,0,0.1,0,0.1,0c0.1,0,0.3,0,0.4,0c0,0,0.1,0,0.1,0c0.1,0,0.2,0,0.3,0.1c0.1,0,0.2,0,0.3-0.1
			c0.1,0,0.3,0,0.4,0c0.1,0,0.1,0,0.2,0.1c0,0,0.1,0,0.1,0c0.1,0,0.1,0.1,0.2,0.1c0,0,0.1,0,0.1,0.1c0,0,0.1,0,0.1,0
			c0,0.1,0,0.1-0.1,0.1c0,0,0,0,0,0.1c0,0-0.1,0-0.1,0c-0.1,0-0.2,0-0.2,0c-0.1,0-0.2,0-0.3,0.1S25.1,8.8,25,8.8c-0.1,0-0.2,0-0.3,0
			c-0.1,0-0.2,0-0.3,0c-0.1,0-0.3,0-0.5,0c-0.1,0-0.3,0-0.4,0c0,0-0.1,0-0.1,0s0-0.1,0-0.1C23.3,8.8,23.3,8.7,23.3,8.7z"/>
	</g>
	<g>
		<path class="st1" d="M22.7,11.6c0,0,0.1,0,0.1-0.1s0-0.1,0-0.1c0,0,0,0,0,0c0,0,0,0,0-0.1c0,0,0.1,0,0.1-0.1c0,0,0.1,0,0.1,0
			c0.1,0,0.2,0,0.3,0c0,0,0.1,0,0.1,0c0.1,0,0.3,0,0.4,0c0,0,0.1,0,0.1,0c0.1,0,0.2,0,0.3,0.1c0.1,0,0.2,0,0.3-0.1
			c0.1,0,0.3,0,0.4,0c0.1,0,0.1,0,0.2,0.1c0,0,0.1,0,0.1,0c0.1,0,0.1,0.1,0.2,0.1c0,0,0.1,0,0.1,0.1c0,0,0.1,0,0.1,0
			c0,0.1,0,0.1-0.1,0.1c0,0,0,0,0,0.1c0,0-0.1,0-0.1,0c-0.1,0-0.2,0-0.2,0c-0.1,0-0.2,0-0.3,0.1c-0.1,0-0.3,0.1-0.4,0.1
			c-0.1,0-0.2,0-0.3,0c-0.1,0-0.2,0-0.3,0c-0.1,0-0.3,0-0.5,0c-0.1,0-0.3,0-0.4,0c0,0-0.1,0-0.1,0c0,0,0-0.1,0-0.1
			C22.8,11.7,22.8,11.6,22.7,11.6z"/>
	</g>
	<g>
		<path class="st1" d="M22.2,13.9c0,0,0.1,0,0.1,0c0-0.1,0-0.1,0-0.1c0,0,0,0,0,0c0,0,0,0,0-0.1c0,0,0.1,0,0.1-0.1c0,0,0.1,0,0.1,0
			c0.1,0,0.2,0,0.3,0c0,0,0.1,0,0.1,0c0.1,0,0.3,0,0.4,0c0,0,0.1,0,0.1,0c0.1,0,0.2,0,0.3,0.1c0.1,0,0.2,0,0.3-0.1
			c0.1,0,0.3,0,0.4,0c0.1,0,0.1,0,0.2,0.1c0,0,0.1,0,0.1,0c0.1,0,0.1,0.1,0.2,0.1c0,0,0.1,0,0.1,0.1c0,0,0.1,0,0.1,0
			c0,0.1,0,0.1-0.1,0.1c0,0,0,0,0,0.1c0,0-0.1,0-0.1,0c-0.1,0-0.2,0-0.2,0c-0.1,0-0.2,0-0.3,0.1s-0.3,0.1-0.4,0.1
			c-0.1,0-0.2,0-0.3,0c-0.1,0-0.2,0-0.3,0c-0.1,0-0.3,0-0.5,0c-0.1,0-0.3,0-0.4,0c0,0-0.1,0-0.1,0c0,0,0-0.1,0-0.1
			C22.2,14,22.2,14,22.2,13.9z"/>
	</g>
	<g>
		<path class="st1" d="M22.7,16.3c0,0,0.1,0,0.1,0c0-0.1,0-0.1,0-0.1c0,0,0,0,0,0s0,0,0-0.1c0,0,0.1,0,0.1-0.1c0,0,0.1,0,0.1,0
			c0.1,0,0.2,0,0.3,0c0,0,0.1,0,0.1,0c0.1,0,0.3,0,0.4,0c0,0,0.1,0,0.1,0c0.1,0,0.2,0,0.3,0.1c0.1,0,0.2,0,0.3-0.1
			c0.1,0,0.3,0,0.4,0c0.1,0,0.1,0,0.2,0.1c0,0,0.1,0,0.1,0c0.1,0,0.1,0.1,0.2,0.1c0,0,0.1,0,0.1,0.1c0,0,0.1,0,0.1,0
			c0,0.1,0,0.1-0.1,0.1c0,0,0,0,0,0.1c0,0-0.1,0-0.1,0c-0.1,0-0.2,0-0.2,0c-0.1,0-0.2,0-0.3,0.1s-0.3,0.1-0.4,0.1
			c-0.1,0-0.2,0-0.3,0c-0.1,0-0.2,0-0.3,0c-0.1,0-0.3,0-0.5,0c-0.1,0-0.3,0-0.4,0c0,0-0.1,0-0.1,0c0,0,0-0.1,0-0.1
			C22.8,16.3,22.8,16.3,22.7,16.3z"/>
	</g>
	<g>
		<path class="st1" d="M23.3,19.2c0,0,0.1,0,0.1-0.1c0-0.1,0-0.1,0-0.1s0,0,0,0c0,0,0,0,0-0.1c0,0,0.1,0,0.1-0.1c0,0,0.1,0,0.1,0
			c0.1,0,0.2,0,0.3,0c0,0,0.1,0,0.1,0c0.1,0,0.3,0,0.4,0c0,0,0.1,0,0.1,0c0.1,0,0.2,0,0.3,0.1c0.1,0,0.2,0,0.3-0.1
			c0.1,0,0.3,0,0.4,0c0.1,0,0.1,0,0.2,0.1c0,0,0.1,0,0.1,0c0.1,0.1,0.1,0.1,0.2,0.1c0,0,0.1,0,0.1,0.1s0.1,0,0.1,0
			c0,0.1,0,0.1-0.1,0.1c0,0,0,0,0,0.1c0,0-0.1,0-0.1,0c-0.1,0-0.2,0-0.2,0c-0.1,0-0.2,0.1-0.3,0.1c-0.1,0-0.3,0.1-0.4,0.1
			c-0.1,0-0.2,0-0.3,0c-0.1,0-0.2,0-0.3,0c-0.1,0-0.3,0-0.5,0c-0.1,0-0.3,0-0.4,0c0,0-0.1,0-0.1,0s0-0.1,0-0.1
			C23.3,19.2,23.3,19.2,23.3,19.2z"/>
	</g>
	<g>
		<path class="st1" d="M26.8,4.1c0,0,0.1,0,0.2-0.1c0-0.1,0-0.1,0-0.1s-0.1,0-0.1,0s0,0,0-0.1c0,0,0.1,0,0.1-0.1
			c0.1,0,0.1,0,0.1-0.1c0.1,0,0.3,0,0.4,0c0,0,0.1,0,0.1,0c0.2,0,0.4,0,0.6,0c0,0,0.1,0,0.1,0c0.2,0,0.3,0,0.5,0.1
			c0.1,0,0.3,0,0.4-0.1c0.2,0,0.4,0,0.5,0c0.1,0,0.2,0,0.2,0.1c0,0,0.1,0,0.1,0c0.1,0.1,0.2,0.1,0.3,0.1c0,0,0.1,0,0.1,0.1
			c0.1,0,0.1,0,0.1,0c0,0.1-0.1,0.1-0.1,0.1c0,0,0,0,0,0.1c0,0-0.1,0-0.1,0c-0.1,0-0.2,0-0.4,0c-0.1,0-0.3,0.1-0.5,0.1
			c-0.2,0-0.4,0.1-0.5,0.1c-0.1,0-0.3,0-0.4,0c-0.1,0-0.3,0-0.4,0c-0.2,0-0.4,0-0.6,0c-0.2,0-0.4,0-0.6,0c-0.1,0-0.1,0-0.1,0.1
			c0,0,0-0.1,0-0.1C26.8,4.1,26.8,4.1,26.8,4.1z"/>
	</g>
	<g>
		<path class="st1" d="M30.6,10.1c0,0.2-0.4,0.6-0.7,0.9c-0.2,0.3-0.5,0.7-0.7,0.9c0,0.1,0,0.1,0,0.1c0,0,0,0.1,0,0.1c0,0,0,0,0,0.1
			c0,0.1,0.1,0.3,0.2,0.4c0.2,0.2,0.4,0.5,0.7,0.6c0.6,0.4,1.3,0.6,1.9,0.7c0.9,0.3,1.5,0.5,2.4,0.7c0.8,0.1,1.6,0.2,2.5,0.3h0.2
			c0,0,0.1,0,0.1,0c0,0,0.1,0,0.1-0.1c0,0,0.1,0,0.1,0c0,0,0.1,0,0-0.1c0-0.1-0.1-0.2-0.1-0.2c0,0,0-0.1,0-0.2l0-0.3l-0.1-0.6
			c-0.1-0.4-0.1-0.7-0.1-0.9c0-0.7,0.1-1.3,0.2-1.8c0.1-0.3,0.3-0.4,0.3-0.8c0.1-0.1,0.2-0.2,0.2-0.4c0.1,0,0.2-0.2,0.3-0.2
			c-0.1-0.3,0.2-0.2,0.2-0.4C38.6,9.3,38.5,9,38.6,9c0.1,0.1,0.2,0.2,0.3,0.2c0,0.5,0,0.8-0.1,1c0,0.4-0.1,0.6-0.2,0.9
			c0,0.1,0,0.3,0,0.3c0,1,0.1,1.6,0.2,2.3l0.1,0.7l0.1,1l0.1,0.5l0,0.3v0.1v0h0H39l-1.1-0.1l-1-0.1l-0.8-0.1c-0.5-0.1-1-0.1-1.6-0.2
			c-1-0.2-2.1-0.4-3-0.7c-0.5-0.1-1-0.3-1.5-0.6c-0.5-0.2-1-0.6-1.5-1.1c-0.2-0.3-0.4-0.6-0.5-0.9c-0.1-0.2-0.1-0.3-0.1-0.6
			c0-0.1,0-0.5,0.1-0.7c0.1-0.4,0.2-0.6,0.3-0.9c0.1-0.1,0-0.1,0,0c-0.1,0.1-0.1,0,0,0c0.2-0.3,0.3-0.5,0.5-0.7c0.3-0.1,0.4,0,0.8,0
			c0.2,0,0.3,0.1,0.5-0.1c0.1,0,0.3,0,0.4,0c0,0.1,0,0.1,0.1,0.1C30.6,10,30.4,10.2,30.6,10.1z"/>
	</g>
	<g>
		<g>
			<g>
				<g>
					<defs>
						<polygon id="SVGID_1_" points="17.7,43.8 22.2,45.8 40.5,38.6 42.3,37.6 46.5,42.6 39.3,45.9 18.2,49.9 12.9,48.9 9.8,45.1 
													"/>
					</defs>
					<clipPath id="SVGID_2_">
						<use xlink:href="#SVGID_1_"  style="overflow:visible;"/>
					</clipPath>
					<g class="st2">
						<polygon class="st0" points="15.8,44.6 20.2,47.7 41.3,39 37.3,37.7 						"/>
						<g>
							<path class="st0" d="M16,44.4c0.5,0,1.7,0.9,2.7,1.6c0.3,0.2,0.6,0.4,0.9,0.6l0.4,0.3l0.3,0.2l0.4-0.1l0.6-0.2
								c4.1-1.8,7.8-3.3,11.1-5l0.9-0.4L34,41l0.7-0.2c0.5-0.2,1.1-0.4,1.6-0.6c0.1-0.1,0.3-0.2,0.4-0.2l0.1-0.1l0.1,0
								c0,0,0.1,0,0,0l-0.4-0.1c-0.3-0.1-0.5-0.1-0.7-0.2l-0.3-0.1l-0.2,0c0,0-0.1,0-0.1,0l-0.1,0c-0.4,0.2-0.7,0.3-0.9,0.5
								c-0.1,0-0.2,0-0.3,0.1c-0.1,0-0.1,0-0.2,0.1L33,40.4c-0.9,0.3-1.9,0.7-2.8,1c-1.5,0.6-3.9,1.4-4.9,1.8
								c-1.7,0.4-3.3,0.9-4.5,1c-0.8,0.2-1-0.1-2.1,0.2c-0.2-0.1-0.5-0.1-1.1,0c-0.1-0.2-0.6,0-0.5-0.3c-0.8,0.3-0.4-0.2-1.1,0
								c0.5-0.3-0.3,0-0.3-0.2c0.2-0.2,0.4-0.4,0.5-0.6c1.2-0.4,2.1-0.6,2.7-0.6c1-0.3,1.6-0.3,2.3-0.4c0.3-0.1,0.8-0.3,0.8-0.2
								c2.4-0.7,4-1.2,5.8-1.8c1.2-0.4,2.4-0.9,3.6-1.3l1.9-0.7l2.3-0.6l2.4-0.6c0.1,0,0.2-0.1,0.3,0l0.3,0.1l0.6,0.2l1.2,0.4
								l2.5,0.7l0.3,0.1h0l0,0l-0.1,0l-0.1,0.1L42.4,39l-1.1,0.6l-4.5,2.2l-1.1,0.6l-0.6,0.3c-0.2,0.1-0.4,0.2-0.5,0.3l-1.8,0.8
								c-2.4,1.1-4.7,2.1-7.2,3.1c-1.3,0.4-2,0.8-3.5,1.4l-0.7,0.4c-0.4,0.2-0.8,0.4-1.3,0.6l-0.3-0.2c-0.4-0.2-0.2-0.1,0,0.1
								c0.4,0.3,0.2,0.2,0,0.1c-1.3-0.9-1.4-0.9-2.1-1.3c-0.4-0.5-0.4-0.8-0.8-1.4c-0.3-0.3-0.1-0.5-0.6-0.9
								c-0.1-0.2-0.2-0.5-0.5-0.8c0.2,0.1,0.3,0,0.1-0.2C15.7,44.3,16.5,44.7,16,44.4z"/>
						</g>
					</g>
				</g>
			</g>
		</g>
	</g>
	<g>
		<path class="st1" d="M16.2,34.8c-0.4,0-1.2,0.1-1.5,0.3c-0.7,0.2-1.3,0.3-1.8,0.4c-0.7,0.1-1.3,0.3-2,0.6c-0.6,0.1-1,0.3-1.4,0.5
			c-0.3,0.1-0.6,0.3-1,0.4C6,37.9,4,38.7,2.7,39.6l-0.1,0.1c-0.4,0.2-0.8,0.3-1.3,0.7c-0.3,0.1-1.1,0.5-1.2,0.9v0
			C0,41.3,0,41.4,0,41.5l0.1,0.2h0.1l0,0c0,0.1,0.1,0.2,0.3,0.3l0.1,0L0.6,42c0.4-0.2,0.8-0.4,1.2-0.6c1.8-0.9,3.8-2,5.7-2.6
			c1.1-0.5,2.2-0.9,3.3-1.2c1.8-0.7,3.9-1.4,5.1-1.7c0.2,0,0.8-0.4,0.7-0.8C16.6,34.9,16.5,34.8,16.2,34.8z"/>
		<path class="st1" d="M59.4,46.8l-0.1-0.1c0-0.3-0.2-0.5-0.4-0.8c-0.1-0.1-0.2-0.3-0.3-0.5c0-0.2-0.1-0.3-0.2-0.4
			c-0.1-0.1-0.1-0.1-0.2-0.2l0-0.1c-0.3-0.2-0.4-0.4-0.6-0.7c-0.1-0.2-0.3-0.4-0.6-0.7c-0.5-0.4-0.8-0.7-1.1-1c-0.5-0.5-1-1-2.1-1.8
			c-1.9-1.2-3.4-2.1-5.1-3.1l-0.1,0c-0.2,0-0.3-0.1-0.3-0.1c-0.2-0.1-0.3-0.1-0.6-0.2c-0.9-0.5-2.3-1.2-3.2-1.4
			c-0.1-0.1-0.3-0.2-0.9-0.2c-0.8,0-1.2,0.2-1.2,0.5c0,0.1,0,0.1,0,0.2l0,0.1l0.1,0c1.1,0.4,2.2,0.8,3.3,1.4
			c0.3,0.1,0.5,0.2,0.6,0.2c0.2,0.1,0.4,0.1,0.6,0.2c0.5,0.3,0.9,0.5,1.4,0.8c0.6,0.4,1.3,0.7,1.9,1.1c1.1,0.6,2.1,1.3,3,1.9
			c0.2,0.2,0.4,0.3,0.6,0.5c0.1,0.1,0.3,0.2,0.4,0.3c0.1,0.1,0.3,0.2,0.4,0.3c0.2,0.1,0.4,0.3,0.5,0.4c0.3,0.3,0.6,0.6,0.8,0.8
			c0.3,0.3,0.5,0.6,0.8,0.8c0.1,0.2,0.3,0.5,0.5,0.8c0.1,0.2,0.3,0.4,0.4,0.5l0,0c0.1,0.1,0.2,0.3,0.3,0.4c0.2,0.2,0.3,0.4,0.4,0.5
			c0.1,0.1,0.2,0.3,0.2,0.5c0.2,0.4,0.3,0.7,0.6,0.7l0,0c0.1,0,0.2,0,0.3-0.2C60.2,48.1,59.9,47.6,59.4,46.8z"/>
	</g>
	<g>
		<path class="st1" d="M33.2,2.3c0-0.2,0.5-0.3,1.1-0.3c0.7,0,1.5,0.1,2.2,0.3c1,0.2,2.2,0.8,3.2,1.5c0.6,0.4,0.4,0.4,0.9,0.8
			C41.3,5.4,41.7,6,42,6.7c0.3,0.7,0.6,1.5,0.9,2.5c0.2,1.1,0.3,1.9,0.4,2.6c0.1,0.4,0.1,0.8,0.1,1.2c0,0.2,0,0.4,0,0.7
			c0,0.3,0,0.5,0,0.8c-0.2,1.3-0.5,1.9-0.9,3c-0.4,1-0.7,1.9-1.1,2.6c-0.7,0.8-1.7,1.8-2.5,2.2c-0.7,0.5-0.9,0.7-1.5,1
			c-0.6,0.3-0.8,0.2-1.5,0.4c-0.6,0.2-0.8,0.3-1.3,0.4c-2,0.4-4.3,0.1-6.3-0.6c-1.2-0.5-2.6-1.3-3.8-2.3c-0.3-0.3-0.6-0.5-0.9-0.8
			s-0.5-0.7-0.8-1c-0.4-0.7-0.7-1.5-0.9-2.3c-0.2-0.5-0.3-1.2-0.4-1.5c-0.1-1.4-0.1-2.9,0.1-4.3c0.2-1.5,0.6-2.9,1.2-4
			c0.4-0.5,0.6-0.9,1-1.5c0.7-0.8,1.1-0.9,1.8-1.5c0.4-0.3,0.7-0.6,1-0.6c0.3-0.3,1-0.7,1.5-1c0.8-0.3,1.7-0.5,2.6-0.7
			C31.5,2,32.4,1.9,33.1,2c0,0.2-1.6,0.2-2.3,0.4c-1.4,0.2-1.9,0.5-2.7,0.8c-0.5,0.3-0.6,0.5-0.7,0.7c-0.5,0.3-1,0.6-1.2,0.9
			c-0.5,0.4-0.7,0.6-0.8,0.8c-0.3,0.3-0.3,0.2-0.6,0.6c-0.2,0.3-0.5,0.7-0.8,1.1c-0.2,0.4-0.4,0.8-0.4,0.9c-0.1,0.2-0.3,0.5-0.5,0.9
			c-0.2,0.5-0.2,0.9-0.3,1.2c-0.1,0.5-0.2,0.9-0.3,1.4c-0.1,0.7,0.1,0.6,0.1,1.1c-0.1,1.5,0.1,2.9,0.5,4.2c0.2,0.6,0.5,1.2,0.8,1.8
			c0.3,0.6,0.7,1,1.2,1.5c1.2,0.9,2,1.5,3.2,1.9c0.5,0.2,1.2,0.5,1.8,0.6c0.6,0.2,1.2,0.2,1.7,0.2c0.6,0.1,1.4,0.1,2.2,0
			c0.8-0.1,1.7-0.4,2.4-0.7c0.9-0.3,1.7-0.9,2.6-1.8c1.1-1.1,2.3-2.9,2.6-4.4c0.2-0.5,0.3-1.1,0.4-1.4c0.1-0.6,0.1-1.2,0-1.8
			c0-0.6-0.1-1.3-0.2-1.9c-0.2-1.3-0.5-2.6-1-3.8c0-0.2-0.3-0.7-0.3-1c-0.3-0.6-0.5-0.7-0.9-1.1c0.1-0.2-0.7-0.9-1.4-1.4
			c-1.1-0.7-1.8-1-2.7-1.1c-0.4-0.1-0.5-0.2-0.7-0.3C34.6,2.4,33.8,2.3,33.2,2.3z"/>
	</g>
	<g>
		<path class="st1" d="M25.7,5.2c0,0,0.1,0,0.1,0c0-0.1,0-0.1,0-0.1s0,0,0,0s0,0,0-0.1c0,0,0.1,0,0.1-0.1c0,0,0.1,0,0.1,0
			c0.1,0,0.2,0,0.3,0c0,0,0.1,0,0.1,0c0.1,0,0.3,0,0.4,0c0,0,0.1,0,0.1,0c0.1,0,0.2,0,0.3,0.1c0.1,0,0.2,0,0.3-0.1
			c0.1,0,0.3,0,0.4,0c0.1,0,0.1,0,0.2,0.1c0,0,0.1,0,0.1,0c0.1,0,0.1,0.1,0.2,0.1c0,0,0.1,0,0.1,0.1c0,0,0.1,0,0.1,0
			c0,0.1,0,0.1-0.1,0.1c0,0,0,0,0,0.1c0,0-0.1,0-0.1,0c-0.1,0-0.2,0-0.2,0c-0.1,0-0.2,0-0.3,0.1c-0.1,0-0.3,0.1-0.4,0.1
			c-0.1,0-0.2,0-0.3,0c-0.1,0-0.2,0-0.3,0c-0.1,0-0.3,0-0.5,0c-0.1,0-0.3,0-0.4,0c0,0-0.1,0-0.1,0c0,0,0-0.1,0-0.1
			C25.7,5.3,25.7,5.2,25.7,5.2z"/>
	</g>
	<g>
		<path class="st1" d="M34.4,17.7c-0.1,0,0-0.2-0.2-0.3c-0.2,0-0.2,0.1-0.3,0c-0.1,0,0,0.1-0.1,0.1c-0.1,0-0.1,0-0.2,0
			c0-0.1,0-0.2-0.2-0.2c0-0.1,0-0.2-0.1-0.2c0.1-0.2,0-0.4,0-0.7c0-0.1-0.1-0.1-0.1-0.2c0-0.3-0.1-0.7,0-1c0-0.1,0-0.2,0-0.2
			c0.1-0.3,0-0.6,0.2-0.8c-0.1-0.2-0.1-0.5-0.3-0.6c0.1-0.3,0-0.7-0.1-0.9c0.1-0.1,0.1-0.3,0.2-0.4c0-0.1,0-0.1,0.1-0.2
			c0.2-0.2,0.2-0.3,0.2-0.5c0.1-0.1,0.1-0.2,0.2-0.2c0.1-0.1,0-0.1,0.1-0.2c0.2,0,0.2,0.1,0.2,0.2c0.1,0,0.1-0.1,0.2,0
			c-0.1,0,0,0.1-0.1,0.2c0.1,0.2,0.1,0.4,0.1,0.6c0.1,0.2,0.1,0.5,0.2,0.8c0.1,0.3,0.2,0.6,0.3,0.9c-0.1,0.2,0,0.5,0.1,0.7
			c-0.1,0.2,0,0.5-0.1,0.7c0.1,0.3,0,0.8,0.1,1.1c-0.1,0.3,0.1,0.7,0,1c0,0.1,0.1,0.2,0.1,0.2c0,0.1-0.2,0-0.2,0.1
			C34.5,17.7,34.5,17.7,34.4,17.7z"/>
	</g>
	<g>
		<g>
			<g>
				<g>
					<defs>
						<polygon id="SVGID_3_" points="17.7,43.8 22.2,45.9 40.5,38.6 42.3,37.6 42.6,30.3 36.7,26.4 15.2,25.1 10.1,37.3 9.8,45.1 
													"/>
					</defs>
					<clipPath id="SVGID_4_">
						<use xlink:href="#SVGID_3_"  style="overflow:visible;"/>
					</clipPath>
					<g class="st3">
						<g>
							<path class="st0" d="M28.2,31c0.4-0.1,0.8-0.2,1.1-0.3c-0.4,0-0.8-0.1-1.1-0.1c-0.2,0.1-0.4,0.2-0.5,0.3
								C27.5,31.1,28,31,28.2,31z"/>
							<path class="st0" d="M23.8,49.2c-0.7-0.7-1.6-2.8-1.9-3.7c-0.7-1.9-1-3.8-1.1-5.6c0-0.8,0.1-1.7,0.3-2.6
								c0-0.2,0.1-0.4,0.2-0.7c0.1-0.2,0.2-0.5,0.2-0.7c0.2-0.4,0.4-0.8,0.6-1.2c0.9-1.6,2.4-3,4-3.8c0.2-0.1,0.3-0.2,0.5-0.3
								c-2,0.3-4.1,1.2-5.6,2.5c-2.2,2.2-3.3,5.7-3,8.7c0.1,1.5,0.5,2.7,0.9,4c0.5,1.2,1,2.4,1.8,3.5c0.3,0.5,5.9,2.8,6.3,2.9
								c0.2-0.1,0.5,0.3,0.7,0.2c1.1,0.2,0.4-0.2,0.7-0.4l3-1.7C31.8,50.2,26,51.5,23.8,49.2z"/>
						</g>
						<g>
							<path class="st1" d="M31.2,29.7c0-0.2,0.5-0.3,1.1-0.3c0.6,0,1.5,0.2,2.1,0.4c1,0.2,2.1,0.8,3.1,1.5c0.3,0.2,0.4,0.3,0.5,0.4
								c0.1,0.1,0.1,0.2,0.4,0.4c0.7,0.7,1,1.4,1.3,2.1c0.3,0.7,0.6,1.4,0.9,2.4c0.2,1,0.3,1.8,0.4,2.6c0.1,0.8,0.2,1.5,0.2,2.6
								c-0.1,1.3-0.4,1.8-0.8,3c-0.4,1-0.7,1.8-1,2.6c-0.6,0.8-1.6,1.8-2.4,2.3c-0.7,0.5-0.9,0.7-1.5,1c-0.6,0.3-0.8,0.2-1.5,0.5
								c-0.6,0.2-0.8,0.3-1.3,0.4c-1,0.2-2,0.2-3.1,0.1c-1.1-0.1-2.1-0.4-3-0.7c-1.2-0.5-2.5-1.3-3.7-2.3c-0.2-0.1-0.3-0.3-0.4-0.4
								l-0.1-0.1L22.2,48c-0.1-0.1-0.1-0.2-0.2-0.2c-0.3-0.3-0.5-0.7-0.7-1c-0.4-0.7-0.7-1.5-0.9-2.2c-0.2-0.5-0.3-1.2-0.4-1.5
								c-0.1-1.4-0.1-2.8,0.1-4.3c0.2-1.4,0.5-2.8,1.1-3.9c0.4-0.5,0.6-0.9,1-1.5c0.7-0.8,1.1-0.9,1.7-1.5c0.4-0.3,0.7-0.6,0.9-0.7
								c0.3-0.3,0.9-0.7,1.4-1c0.7-0.3,1.6-0.6,2.5-0.7c0.9-0.2,1.8-0.2,2.5-0.1c0,0.2-1.6,0.2-2.2,0.4c-1.3,0.2-1.8,0.5-2.6,0.9
								c-0.5,0.3-0.5,0.5-0.7,0.7c-0.4,0.3-1,0.7-1.1,0.9c-0.4,0.4-0.6,0.6-0.7,0.8c-0.3,0.3-0.3,0.2-0.6,0.6
								c-0.2,0.3-0.5,0.7-0.7,1.1c-0.2,0.4-0.4,0.8-0.4,0.9c-0.1,0.2-0.3,0.5-0.4,0.9c-0.2,0.5-0.2,0.9-0.2,1.2
								c-0.1,0.5-0.2,0.9-0.2,1.4c-0.1,0.7,0.1,0.6,0.1,1.1c-0.1,1.5,0.1,2.8,0.4,4.1c0.2,0.6,0.4,1.2,0.7,1.8
								c0.1,0.3,0.3,0.5,0.5,0.8c0.1,0.1,0.2,0.2,0.3,0.3c0.1,0.1,0.2,0.3,0.4,0.4c1.1,0.9,1.9,1.5,3.1,2c0.5,0.2,1.1,0.5,1.7,0.6
								c0.6,0.2,1.2,0.2,1.6,0.2c0.6,0.1,1.4,0.1,2.2,0c0.8-0.1,1.6-0.4,2.3-0.8c0.8-0.3,1.7-1,2.4-1.8c0.5-0.6,1.1-1.3,1.5-2.1
								c0.4-0.8,0.8-1.6,1-2.3c0.2-0.5,0.3-1.1,0.4-1.3c0.1-0.6,0.1-1.2,0-1.8c0-0.6-0.1-1.3-0.2-1.9c-0.2-1.3-0.5-2.6-1-3.7
								c0-0.2-0.2-0.7-0.3-1c-0.3-0.6-0.5-0.7-0.8-1.1c0.1-0.2-0.7-0.9-1.3-1.4c-1.1-0.7-1.7-1-2.6-1.1c-0.4-0.1-0.5-0.2-0.7-0.3
								C32.7,29.8,31.9,29.7,31.2,29.7z"/>
						</g>
						<g>
							<path class="st1" d="M20.8,50.5c0-0.1-0.1-0.3,0.1-0.3c-0.1-0.2,0-0.2-0.1-0.4c-0.2-0.4-0.4-0.8-0.6-1.1
								c-0.1-0.5-0.3-0.9-0.5-1.5c-0.2-0.5-0.4-0.8-0.5-1.3c-0.2-0.2-0.3-0.6-0.4-0.9c-0.1-0.3-0.2-0.7-0.2-1
								c-0.1-0.5-0.2-1-0.2-1.6c-0.1-0.3-0.2-0.5-0.1-0.9c0-0.3-0.1-0.8,0-1c0.1-0.2-0.1-0.2,0-0.4c-0.1,0,0.1-0.2-0.1-0.2
								c0.1-0.2,0.1-0.1,0.1-0.4c-0.1-0.5,0.1-0.8,0.1-1.4c0.1-0.7,0.4-1.4,0.8-2.1s0.9-1.3,1.4-1.9c1-1.2,2.1-2.4,3.2-3.4
								c-0.1-0.1,0.4-0.3,0.2-0.4c0.1-0.2-0.2,0.1-0.2,0c-0.1,0.1-0.2,0-0.3,0c-0.4,0.2-0.7,0.2-1.1,0.5c-0.6,0.7-0.9,1-1.4,1.5
								c-0.1,0.1-0.1,0.2-0.1,0.2c-0.2,0-0.4,0.5-0.6,0.6c-0.1,0.2-0.2,0.3-0.4,0.5c0.1,0.2-0.2,0.3-0.3,0.4c0.1,0,0,0.1-0.1,0.2
								c-0.6,0.7-0.7,1.1-1.3,2c0,0.2-0.2,0.5-0.2,0.6c-0.1,0-0.2,0.4-0.3,0.6c-0.1,0.6-0.2,1.2-0.3,1.9c0.1,0.7-0.1,1.8,0.1,2.6
								c-0.1,0.3,0,0.5,0,0.8c0,0.2-0.1,0.3-0.1,0.5c0,0.1,0.1,0.3,0.1,0.4c0,0.2,0,0.4,0.1,0.7c0.1,0.4,0.1,0.8,0.2,0.9
								c0,0.1,0.1,0,0.1,0.1c0,0.1,0,0.2,0,0.2c0.1,0.3,0.2,0.5,0.2,0.7c0.2,0.4,0.3,0.9,0.6,1.4c0.2,0.7,0.5,1.1,0.6,1.6
								c0.1,0.1,0.2,0.2,0.2,0.4c0.2,0.1,0,0.2,0.1,0.4c0.1,0.1,0.2,0.5,0.4,0.6c0.1,0.3,0.2,0.5,0.4,0.6c0,0,0.1,0,0.1,0
								C20.7,50.9,20.6,50.5,20.8,50.5z M18.7,47C18.7,46.9,18.7,47,18.7,47C18.7,47.1,18.7,47,18.7,47z"/>
						</g>
						<g>
							<path class="st1" d="M20.4,32.9c0,0,0.1,0,0.2-0.1c0-0.1,0-0.1,0-0.1c0,0-0.1,0-0.1,0c0,0,0,0,0-0.1c0,0,0.1,0,0.1-0.1
								c0.1,0,0.1,0,0.1-0.1c0.1,0,0.3,0,0.4,0c0,0,0.1,0,0.1,0c0.2,0,0.4,0,0.6,0c0,0,0.1,0,0.1,0c0.2,0.1,0.3,0,0.5,0.1
								c0.1,0,0.3,0,0.4-0.1c0.2,0,0.4,0,0.5,0c0.1,0,0.2,0,0.2,0.1c0,0,0.1,0,0.1,0c0.1,0.1,0.2,0.1,0.3,0.1c0,0,0.1,0,0.1,0.1
								c0.1,0,0.1,0,0.1,0c0,0.1-0.1,0.1-0.1,0.1c0,0,0,0,0,0.1c0,0-0.1,0-0.1,0c-0.1,0-0.2,0-0.4,0c-0.1,0-0.3,0.1-0.5,0.1
								c-0.2,0-0.4,0.1-0.5,0.1c-0.1,0-0.3,0-0.4,0c-0.1,0-0.3,0-0.4,0c-0.2,0-0.4,0-0.6,0c-0.2,0-0.4,0-0.6,0c-0.1,0-0.1,0-0.1,0.1
								c0,0,0-0.1,0-0.1C20.4,33,20.4,33,20.4,32.9z"/>
						</g>
						<g>
							<path class="st1" d="M18.8,35.2c0,0,0.1,0,0.2-0.1c0-0.1,0-0.1,0-0.1s-0.1,0-0.1,0c0,0,0,0,0-0.1c0,0,0.1,0,0.1-0.1
								c0.1,0,0.1,0,0.1-0.1c0.1,0,0.3,0,0.4,0c0,0,0.1,0,0.1,0c0.2,0,0.4,0,0.6,0c0,0,0.1,0,0.1,0c0.2,0,0.3,0,0.5,0.1
								c0.1,0,0.3,0,0.4-0.1c0.2,0,0.4,0,0.5,0c0.1,0,0.2,0,0.2,0.1c0,0,0.1,0,0.1,0c0.1,0.1,0.2,0.1,0.3,0.1c0,0,0.1,0,0.1,0.1
								c0.1,0,0.1,0,0.1,0c0,0.1-0.1,0.1-0.1,0.1c0,0,0,0,0,0.1c0,0-0.1,0-0.1,0c-0.1,0-0.2,0-0.4,0c-0.1,0-0.3,0.1-0.5,0.1
								c-0.2,0-0.4,0.1-0.5,0.1c-0.1,0-0.3,0-0.4,0c-0.1,0-0.3,0-0.4,0c-0.2,0-0.4,0-0.7,0c-0.2,0-0.4,0-0.6,0c-0.1,0-0.1,0-0.1,0.1
								c0,0,0-0.1,0-0.1C18.8,35.3,18.8,35.2,18.8,35.2z"/>
						</g>
						<g>
							<path class="st1" d="M17.7,37.9c0,0,0.1,0,0.2-0.1c0-0.1,0-0.1,0-0.1c0,0-0.1,0-0.1,0s0,0,0-0.1c0,0,0.1,0,0.1-0.1
								c0.1,0,0.1,0,0.1-0.1c0.1,0,0.3,0,0.4,0c0,0,0.1,0,0.1,0c0.2,0,0.4,0,0.6,0c0,0,0.1,0,0.1,0c0.2,0,0.3,0,0.5,0.1
								c0.1,0,0.3,0,0.4-0.1c0.2,0,0.4,0,0.5,0c0.1,0,0.2,0,0.2,0.1c0,0,0.1,0,0.1,0c0.1,0.1,0.2,0.1,0.3,0.1c0,0,0.1,0,0.1,0.1
								c0.1,0,0.1,0,0.1,0c0,0.1-0.1,0.1-0.1,0.1c0,0,0,0,0,0.1c0,0-0.1,0-0.1,0c-0.1,0-0.2,0-0.4,0c-0.1,0-0.3,0.1-0.5,0.1
								c-0.2,0-0.4,0.1-0.5,0.1c-0.1,0-0.3,0-0.4,0c-0.1,0-0.3,0-0.4,0c-0.2,0-0.4,0-0.7,0c-0.2,0-0.4,0-0.6,0c-0.1,0-0.1,0-0.1,0.1
								c0,0,0-0.1,0-0.1C17.7,37.9,17.7,37.9,17.7,37.9z"/>
						</g>
						<g>
							<path class="st1" d="M17.6,40c0,0,0.1,0,0.2,0c0-0.1,0-0.1,0-0.1c0,0-0.1,0-0.1,0c0,0,0,0,0-0.1c0,0,0.1,0,0.1,0
								c0.1,0,0.1,0,0.2,0c0.1,0,0.3,0,0.4,0.1c0,0,0.1,0,0.1,0c0.2,0,0.4,0,0.6,0.1c0,0,0.1,0,0.1,0c0.1,0.1,0.3,0,0.4,0.1
								c0.1,0,0.3,0,0.4,0c0.2,0.1,0.4,0.1,0.5,0.1c0.1,0,0.2,0.1,0.2,0.1c0,0,0.1,0,0.1,0c0.1,0.1,0.2,0.1,0.3,0.1
								c0,0,0.1,0,0.1,0.1c0.1,0,0.1,0,0.1,0.1c0,0.1-0.1,0.1-0.1,0c0,0,0,0,0,0.1c0,0-0.1,0-0.1-0.1c-0.1,0-0.2,0-0.4,0
								c-0.2,0-0.3,0-0.5,0c-0.2,0-0.4,0-0.5,0c-0.1,0-0.3,0-0.4,0c-0.1-0.1-0.3,0-0.4-0.1c-0.2,0-0.4-0.1-0.7-0.1
								c-0.2-0.1-0.4,0-0.6-0.1c-0.1,0-0.1,0-0.2,0C17.7,40.1,17.7,40,17.6,40C17.7,40,17.6,40,17.6,40z"/>
						</g>
						<g>
							<path class="st1" d="M17.7,42c0,0,0.1,0,0.2,0c0-0.1,0-0.1,0-0.1c0,0-0.1,0,0,0c0,0,0-0.1,0-0.1c0,0,0.1,0,0.1,0
								c0.1,0,0.1,0,0.1,0c0.1,0.1,0.2,0.1,0.3,0.1c0,0,0.1,0,0.1,0c0.1,0.1,0.3,0.1,0.5,0.2c0,0,0.1,0,0.1,0
								c0.1,0.1,0.3,0.1,0.4,0.2c0.1,0,0.2,0,0.4,0c0.1,0.1,0.3,0.1,0.5,0.1c0.1,0.1,0.1,0.1,0.2,0.2c0,0,0.1,0,0.1,0.1
								c0.1,0.1,0.1,0.1,0.2,0.2c0,0,0.1,0.1,0.1,0.1c0,0,0.1,0,0.1,0.1c0,0.1-0.1,0.1-0.1,0c0,0,0,0,0,0.1c0,0-0.1,0-0.1-0.1
								c-0.1,0-0.2,0-0.3-0.1c-0.1,0-0.3,0-0.4-0.1c-0.2,0-0.3-0.1-0.5-0.1c-0.1-0.1-0.2-0.1-0.3-0.1c-0.1-0.1-0.2-0.1-0.3-0.2
								c-0.2,0-0.4-0.1-0.6-0.2c-0.1-0.1-0.4-0.1-0.5-0.2c-0.1,0-0.1,0-0.1,0s0-0.1,0-0.1C17.7,42.1,17.7,42.1,17.7,42z"/>
						</g>
						<g>
							<path class="st1" d="M22.6,31.3c0,0,0.1,0,0.1,0c0-0.1,0-0.1,0-0.1c0,0-0.1,0,0,0c0,0,0,0,0-0.1c0,0,0.1,0,0.1-0.1
								c0,0,0.1,0,0.1,0c0.1,0,0.2,0,0.3,0c0,0,0.1,0,0.1,0c0.1,0,0.3,0,0.5,0c0,0,0.1,0,0.1,0c0.1,0,0.3,0,0.4,0.1
								c0.1,0,0.2,0,0.3-0.1c0.1,0,0.3,0,0.4,0c0.1,0,0.2,0,0.2,0.1c0,0,0.1,0,0.1,0c0.1,0,0.1,0.1,0.3,0.1c0,0,0.1,0,0.1,0.1
								c0.1,0,0.1,0,0.1,0c0,0-0.1,0.1-0.1,0.1c0,0,0,0,0,0.1c0,0-0.1,0-0.1,0c-0.1,0-0.2,0-0.3,0c-0.1,0-0.2,0-0.4,0.1
								c-0.1,0-0.3,0-0.5,0.1c-0.1,0-0.2,0-0.3,0c-0.1,0-0.2,0-0.3,0c-0.2,0-0.4,0-0.6,0c-0.2,0-0.3,0-0.5,0c0,0-0.1,0-0.1,0
								s0-0.1,0-0.1C22.6,31.3,22.6,31.3,22.6,31.3z"/>
						</g>
						<g>
							<path class="st1" d="M24.7,29.4c0,0,0.1,0,0.2,0c0-0.1,0-0.1,0-0.1c0,0-0.1,0-0.1,0c0,0,0,0,0-0.1c0,0,0.1,0,0.1,0
								c0.1,0,0.1,0,0.2,0c0.1,0,0.3,0,0.4,0.1c0,0,0.1,0,0.1,0c0.2,0,0.4,0,0.6,0.1c0,0,0.1,0,0.1,0c0.1,0.1,0.3,0,0.4,0.1
								c0.1,0,0.3,0,0.4,0c0.2,0.1,0.4,0.1,0.5,0.1c0.1,0,0.2,0.1,0.2,0.1c0,0,0.1,0,0.1,0c0.1,0.1,0.2,0.1,0.3,0.1
								c0,0,0.1,0,0.1,0.1c0.1,0,0.1,0,0.1,0.1c0,0.1-0.1,0.1-0.1,0c0,0,0,0,0,0.1c0,0-0.1,0-0.1-0.1c-0.1,0-0.2,0-0.4,0
								c-0.2,0-0.3,0-0.5,0c-0.2,0-0.4,0-0.5,0c-0.1,0-0.3,0-0.4,0c-0.1-0.1-0.3,0-0.4-0.1c-0.2,0-0.4-0.1-0.7-0.1
								c-0.2-0.1-0.4,0-0.6-0.1c-0.1,0-0.1,0-0.2,0c0,0,0-0.1,0-0.1C24.7,29.4,24.7,29.4,24.7,29.4z"/>
						</g>
						<g>
							<path class="st1" d="M27.1,37.1c0,0.2-0.4,0.6-0.7,0.9c-0.2,0.3-0.5,0.7-0.7,0.9c0,0.1,0,0.1,0,0.1c0,0,0,0.1,0,0.1
								c0,0,0,0,0,0.1c0,0.1,0.1,0.3,0.2,0.4c0.2,0.2,0.4,0.5,0.7,0.6c0.6,0.4,1.3,0.6,1.9,0.7c0.9,0.3,1.5,0.5,2.4,0.7
								c0.8,0.1,1.6,0.2,2.5,0.3h0.2c0,0,0.1,0,0.1,0c0,0,0.1,0,0.1-0.1c0,0,0.1,0,0.1,0c0,0,0.1,0,0-0.1c0-0.1-0.1-0.2-0.1-0.2
								c0,0,0-0.1,0-0.2l0-0.3l-0.1-0.6c-0.1-0.4-0.1-0.7-0.1-0.9c0-0.7,0.1-1.3,0.2-1.8c0.1-0.3,0.3-0.4,0.3-0.8
								c0.1-0.1,0.2-0.2,0.2-0.4c0.1,0,0.2-0.2,0.3-0.2c-0.1-0.3,0.2-0.1,0.2-0.4C35,36.3,35,36,35.1,36c0.1,0.1,0.2,0.2,0.3,0.2
								c0,0.5,0,0.8-0.1,1c0,0.4-0.1,0.6-0.2,0.9c0,0.1,0,0.3,0,0.3c0,1,0.1,1.6,0.2,2.3l0.1,0.7l0.1,1l0.1,0.5l0,0.3v0.1v0h0h-0.1
								l-1.1-0.1l-1-0.1l-0.8-0.1c-0.5-0.1-1-0.1-1.6-0.2c-1-0.2-2.1-0.4-3-0.7c-0.5-0.1-1-0.3-1.5-0.6c-0.5-0.2-1-0.6-1.5-1.1
								c-0.2-0.3-0.4-0.6-0.5-0.9c-0.1-0.2-0.1-0.3-0.1-0.6c0-0.1,0-0.5,0.1-0.7c0.1-0.4,0.2-0.6,0.3-0.9c0.1-0.1,0-0.1,0,0
								c-0.1,0.1-0.1,0,0,0c0.2-0.3,0.3-0.5,0.5-0.7c0.3-0.1,0.4,0,0.8,0c0.2,0,0.3,0.1,0.5-0.1c0.1,0,0.3,0,0.4,0
								c0,0.1,0,0.1,0.1,0.1C27.1,36.9,26.9,37.2,27.1,37.1z"/>
						</g>
						<g>
							<path class="st1" d="M30.9,44.7c-0.1,0,0-0.2-0.2-0.3c-0.2,0-0.2,0.1-0.3,0c-0.1,0,0,0.1-0.1,0.1c-0.1,0-0.1,0-0.2,0
								c0-0.1,0-0.2-0.2-0.2c0-0.1,0-0.2-0.2-0.2c0.1-0.2,0-0.4,0-0.7c0-0.1-0.1-0.1-0.1-0.2c0-0.3-0.1-0.7,0-1c0-0.1,0-0.2,0-0.2
								c0.1-0.3,0-0.6,0.2-0.8c-0.1-0.2-0.1-0.5-0.3-0.6c0.1-0.3,0-0.7-0.1-0.9c0.1-0.1,0.1-0.3,0.2-0.4c0-0.1,0-0.1,0.1-0.2
								c0.2-0.2,0.2-0.3,0.2-0.5c0.1-0.1,0.1-0.2,0.2-0.2c0.1-0.1,0-0.1,0.1-0.2c0.2,0,0.2,0.1,0.2,0.2c0.1,0,0.1-0.1,0.2,0
								c-0.1,0,0,0.1-0.1,0.2c0.1,0.2,0.1,0.4,0.1,0.6c0.1,0.2,0.1,0.5,0.2,0.8c0.1,0.3,0.2,0.6,0.3,0.9c-0.1,0.2,0,0.5,0.1,0.7
								c-0.1,0.2,0,0.5-0.1,0.7c0.1,0.3,0,0.8,0.1,1.1c-0.1,0.3,0.1,0.7,0,1c0,0.1,0.1,0.2,0.1,0.2c0,0.1-0.2,0-0.2,0.1
								C31.1,44.7,31,44.7,30.9,44.7z"/>
						</g>
					</g>
				</g>
			</g>
		</g>
	</g>
</g>
</svg>
