<?xml version="1.0" encoding="utf-8"?>
<!-- Generator: Adobe Illustrator 19.2.1, SVG Export Plug-In . SVG Version: 6.00 Build 0)  -->
<svg version="1.1" id="Layer_1" xmlns="http://www.w3.org/2000/svg" xmlns:xlink="http://www.w3.org/1999/xlink" x="0px" y="0px"
	 viewBox="0 0 250 200" style="enable-background:new 0 0 250 200;" xml:space="preserve">
<style type="text/css">
	.st0{fill:#1DB5B6;}
	.st1{fill:#262626;}
</style>
<g>
	<g>
		<polygon class="st0" points="167.5,101.4 169.6,25.7 73.8,31.3 79.8,54.7 99.5,60.1 119.8,78.3 140.3,80.9 149.4,107.8 		"/>
		<g>
			<path class="st0" d="M165.2,97.2c4.6,2.1-5.3,6-12.5,8.6l-3.6,1.4l0.9,0.4c-2.5-6.7-4.6-11.7-6.6-18.6c-1.1-2.7-2.2-5.2-3.4-8
				l0.2,0.1c-2.8-0.2-5.8-0.5-9.2-1c-3.5-0.6-4.4,0-6.8-0.1c-2-0.2-2.3-0.8-4.4-1h-0.2l-0.5-0.2c-3.5-1.6-10.5-9.4-13.5-10
				c-1.9-2.9-4.3-4.6-7.6-7.3l1,0.5c-1.5-0.4-3.1-0.8-5-1.4c-5.3-1.7-10-3.1-14.6-4.3c-0.6-0.2-1-0.6-1.2-1.2l0,0
				c-1.8-6.6-3.8-12.7-6.6-19.7L70.9,32v-0.2c-0.4-1.6,0.7-3.2,2.2-3.5c0.2,0,0.4-0.1,0.6-0.1c6.7-0.1,14.8-0.3,22.3-1.4
				c3.9,0.4,15.9-0.3,23.6-0.2c7.5-1.3,15.8-2.4,22.3-4.1c4.8,0,8.1,0.6,11.3,1.3c5.7-0.6,11-1.1,16.2-1.3h0.1
				c1.7-0.1,3,1.2,3.1,2.9c0,0.1,0,0.2,0,0.3c-0.3,6.7-1.1,13.2-2.4,19.6c0,14.5,0.3,26.8,1.7,40.5c-0.3,7.5,0.9,14.3-2.4,15.7
				c0.1-1-0.1-1.1-0.4-1.1c-1.6,1-0.1-5.9-1-6.8c0.4-3.9-0.5-4.3-0.2-7.9c-0.5-4.6-0.8-9.8-0.8-15.7c-0.4-3.8-0.7-8-0.8-12.4
				c0.7-11.4,1.8-21.3,2.8-31.4v-0.6l0.5,0.5c-4.4,0.7-6.2,2.2-11.6,2.6c-4.9,0-7.9-0.7-12.4-0.8c-4.2,0.5-5.4,2.1-10,1.4
				c-2.3,0.4-3.6,1-5.5,1.5c-9,0-16.8,1.2-24.7,0.3c-8,1.8-19.7,0.9-29.2,0.9c-0.7,0.2-1.4,0.3-2.1,0.5l1-1.4
				c2.5,6.3,4.8,15.5,7.2,23.1l-1.6-1.7l0.6,0.1c6.5,2.3,12.6,4.1,18.9,5.8c0.3,0.1,0.5,0.2,0.7,0.4l0,0c6.2,5.5,12.8,11,20.6,17.7
				l-1.2-0.6l4.6,0.5c4.5-0.1,10.5,0.6,16,1.1c1.2,0.1,2.2,0.9,2.6,2l0.1,0.3c1,2.5,2,5,3,7c2.8,8.9,4.6,13.7,6.7,19.7l-5.1-2.5
				c2.6-0.9,5.5-1.9,9-3.1c1.3-0.9,3.8-1.7,5-2.6L165.2,97.2z"/>
		</g>
	</g>
	<g>
		<path class="st1" d="M82.4,11.4c0.1,0.1,0.8,0.2,1.4,0.2c0.4-0.3,1.1-0.3,2.1-0.2c0.1-0.2,0.2-0.3,1.4-0.3c2.3,0,0.5,0.8,2.8,0.8
			c-0.7,0-0.9,0.2,0,0.2c0.1-0.3,2.9-0.1,4.2-0.2c0.5-0.4-1.4-0.2-1.4-0.5c2.5-0.2,6.2-0.2,8.3-0.2c0.8-0.2,0.8-0.5,2.1-0.7
			c-0.8,0.4-0.4,0.5,1.4,0.6c0.4-0.2,1.1-0.3,2.1-0.4c0.7,0.6,2.7-0.4,3.5-0.1c-0.1,0.2-1.8,0.1-1.4,0.4c1.2,0,2.2,0,2.8,0.1
			c0.1-0.1-0.1-0.3,0.7-0.4c0.1,0.1-0.1,0.4,0.7,0.4c0.6-0.1,3.5-0.1,4.8-0.4c-0.1,0.3,0.6,0.4,2.1,0.4c0.7-0.2-2.1-0.4,0-0.5l2,0.4
			c0.7-0.4,2.4,0.1,2.9,0.1c0.7-0.4,2.2-0.7,4.2-0.9c0.2,0.5,0.5,0.1,2.8,0.3c0,0.2-1.2,0.1-1.4,0.3c2.9-0.4,2.9,0.1,5.6,0.1
			c0.6-0.5-3.1,0-2.8-0.4c2.2,0,0.8-0.5,3.5-0.4v0.5c2.4-0.1,1.1-0.7,3.5-0.8c3.1-0.2,2.9-0.1,4.9-0.5c1.2,0.1-0.6,0.4,0,0.9
			c2.1,0,1.2-0.3,1.4-0.6c1.5-0.2,2-0.5,4.2-0.6c-0.1,0.2-1.2,0.3,0,0.4c0.9-0.5,1.4,0,3.5-0.2c0.2-0.1,0-0.2,0.7-0.3
			c0.2-0.3-0.9-0.2-1.4-0.3c2.2-0.2,1.5,0.2,2.8,0.2c0.1-0.3,2.9-0.2,4.2-0.4c-0.7,0.4,2.4,0.4,2.8,0.1c-0.5,0-1.4,0.1-1.4,0
			c2.7-0.1,2.5,0,4.2-0.4c0.4,0.6,1.6-0.2,2.8-0.3c0.2,0.2,1.2,0.1,1.4,0.3c-0.8,0.1-1.6,0.2-2.1,0.4c1.1,0,0.6,0.4,2.8,0.1V8.1
			c2-0.1,1.8-0.3,4.8-0.5c-0.3,0.2,0,0.3,0.5,0.3c0.4,0,1.3,0,1.2,0.1c0-0.5,0.5-0.1,0.6,0c0.1-0.2-0.1-0.3-0.3-0.4h-0.3h-0.3
			c0.7-0.5,1-0.1,1.5,0c0.1-0.1,0.2-0.2,0.4-0.2c0.1,0.1,0.2,0.4,0.3,0.4c-0.4,0.9,0,0.6,0.1,3.4c-0.2,0-0.3-0.3-0.4-0.7
			c0,1.3,0,2.8-0.2,3.5c0.2,0,0.3,0.3,0.4,0.7c0.2-0.4-0.1-2.7,0.1-2.8c0.1,2,0.4,3.2,0,3.5c0,1.9,0.3,1.4,0.4,2.8
			c-0.1,1.4-0.6-1.2-0.6,1.4c0.1,0.2,0.2,0,0.3,0.7c-0.1,2.3,0.2,3,0.3,5.7c0.4,0.2,0.8,0.3,1,2c-0.4-1.2-1-0.4-0.5,1.4
			c0-0.9,0-1.4,0.3-1.4c0.1,0.9,0.2,1,0.3,2.1c-0.6-2.3-0.4,4.2,0,4.9c-0.1-2.1,0.6-1.1,0.6-2.8c0.5,3.7,1.6,12.5,1.5,15.2
			c-0.2-1.6-0.7,0.2-1-1.3c0.1,1-0.3,3,0.1,3.5l0.2-2.1c0.2,3.2,0.4,4.6,0,4.9c0.4-0.3,0.8,3.2,0.8,4.1c0.2,0.1,0.3,0.2,0.4,1.4
			c-0.2,0-0.3-1.9-0.6-1.3c0.4,2.5,1,3.9,1.5,6.1c-0.3-0.2-0.2,1-0.2,1.4c-0.2-1-0.2-3.6-0.5-3.4c0.1,0.9-0.5,1.4,0,2.1
			c0-0.5,0-0.8,0.2-0.7c-0.1,1.2,0.5,3.2,0.1,4.2l0.9,3.4c-0.3,0.6-0.5-1.1-0.7-1.3c0.2,1.8,0.5,2.4,0.7,3.4c-0.2-1.3,0.4-2.5,0.5,0
			c-0.5-1.6-0.2,2.3-0.5,2.8c-0.1-0.5-0.1-1.4-0.3-1.4c0.2,1.7,0.4,2.1,0.3,3.5c0.5,0.7,0.6-0.8,1.1,2c-0.2,0-0.2,0.6,0,1.4
			c-0.2,0-0.2,0.4-0.3,0.7c0-1.4-0.5-3.3-0.4-1.4c0.2,0.1,0.2,1.1,0.3,2.1c0.2,0.1,0.4-0.3,0.6,0.6L186,84c-0.3-1.7-0.4,2.2-0.1,2.8
			c-0.1-2,0.4,1,0.4-0.7c0,1.3,0.6,2.3,0.3,2.8c-0.2-0.1-0.1-0.8-0.1-1.4c-0.2,0.1-0.5-0.2-0.4,0.7c0.3,1.4,0.8,1.9,1,4.1
			c0,0.6-0.2,2.1-0.3,0.7c0.1-1.6-0.4-3-0.7-4.1c0.2,2.7,0.6,3.4,0.7,6.2c0.4-0.7,0.4,2.2,0.4,2.8c0.2-0.4,0.9,1.7,0.6,2.7
			c-0.1-0.6-0.6-3.5-0.5-1.3c0.2,0.1,0.2,1.1,0.3,2.1c0.3,0.9,0.6,0.2,0.8,2c-0.1,1.8,0.3,0.5,0.4,2.7c-0.3-0.9-0.7-1.3-1.1-2
			c0.4,4.1,0.6-0.5,1,3.4c-0.3-1.3-0.4,0.2-0.4,1.4c0.2,0,0.1,2.7,0.5,2.7c-0.1-1.3-0.2-2.3,0-2.8c0.4,1.9,0.2,3.6,0.8,5.5
			c-0.2,0-0.2,0.4-0.3,0.7c0.4,2.6-0.1,4,0.2,4.9c0-2.1,0.5,1.5,0.7,2c-0.2,0-0.3,0.6-0.2,1.4c0.2-0.2,0.4,0.7,0.1,0.7
			c0.1,2.4,0.6,0.8,0.7,3.4c-0.2,0.6-1-1.2-0.5,0c0.8,1.2,0.3,3.1,0.9,6.2c0.4,0.4,0.3,0.5,0.6-0.1c-0.3-2.5-0.7-3-0.6-4.8
			c0.4,3.6,0.4,0.7,0.8,0.6c0.1,1.6-0.3,1.3,0,3.5c0.3,1.1,0.6,2.2,0.8,3.4c0.6,9.9,2.8,22.8,3.3,32.5h-0.2
			c-0.4-4.4-0.5-6.8-1.1-6.9c-0.1-0.8,0.1-0.8,0.3-0.7c-0.5-2.3-0.3-5-0.9-6.2c0.2,0,0.3-0.6,0.2-1.4c-0.2-0.1-0.4,0.3-0.6-0.6h0.2
			c-0.4-3.6-0.4-4.3-0.9-6.9c0.1-1.9-0.3-2.7-0.5-4.8c0.1-0.2,0.2,0,0.2-0.7c-0.4-2.1-0.2,1.9-0.5,0c-0.1-1.5,0.2-1.9,0-4.2
			c-0.4,0.4-0.6-0.9-0.9-1.3c0.4,2.4,0.4,6,1,7.6c-0.3,2.2,0.6,3.6,0.6,6.9c0.3,0.8,0.6,0.5,0.8,2.7c-0.4-1.6-0.4-1.3-0.7-0.6
			c0.4,3.6,0.3,4.7,0.9,6.2c-0.3,0.4,0.3,1.1,0.3,2.1h-0.2l1,7.6c-0.1,0.2-0.2,0-0.2,0.7c0.4,0.5,0.2,2.2,0.4,3.5
			c0.2,0.1,0.3-0.2,0.4,0.7c-0.2,0.2-0.1,0.8,0,1.7l0.2,1.2c0.1,0.4,0.1,0.7,0.1,1.2l-0.3-0.1l0.2,1.8c-0.4,0.1-0.8,0.2-1.6,0.4
			c-0.4-0.1-1-0.1-1.9,0c-1.2,0.1-2.4,0.3-2.7,0.5c1.1-0.2,1.9,0,0.7,0.2c-2.7-0.3-5.7,0.6-10.4,0.6c-0.1,0.2-0.2,0.3-1.4,0.4
			c-0.2-0.1,0-0.2-0.7-0.2c-0.6,0.2-1.3,0.2-3.4,0.5c0.2,0.3-1.4,0.5-2.7,0.7c-0.7-0.1-1.9,0-2.1-0.3c-2.7,0.3-3.6,0.5-5.5,1.1
			c-1.8,0,0.6-0.7-0.8-0.5c-0.4,0.4-1.5,0-2.8,0.3c-1.2,0.7-6.6,1.1-7.6,0.8c-0.1,0.1-0.6,0.2-1.4,0.3c-0.5-0.8-0.3,0.2-1.4,0.4
			c-0.1-0.2,0-0.4-1.4-0.2c-0.2,0.2,1.1,0.2,0,0.4c-1.4-0.3-2.4,0.1-4.1,0.4c0.4-0.4-2.5,0.1-0.7-0.4c-2.9,0.1,0,0.6-2,0.8
			c-0.9-0.2-2.6,0.4-2.8,0.2c-0.1-0.2,2.3-0.7,0.6-0.6c-0.4,0.2-1,0.4-2,0.6v-0.4c-3.3,0.7-5.1,0.8-8.3,0.8
			c-0.1,0.2-0.4,0.5-1.3,0.6c-0.6-0.2-3,0.4-4.1,0.6c0.6-0.3,3.4-1,0.6-0.8c-1.1,0.3-2.1,0.6-3.4,0.9c0.1-0.7-3.2,0.3-3.5-0.1
			c-2.2,0.5-4.5,0.8-6.2,0.5c0.2,0.3-0.1,0.5-1.3,0.6c-1.8-0.4-11.4,0.9-13.1,1.2c-0.1-0.1-0.2-0.3-1.4-0.1
			c-1.1,0.1-0.3,0.4-1.3,0.5c-0.7-0.1-1.9,0-2.8-0.1c-0.3,0.2-0.7,0.4-1.3,0.5c0-0.1-0.1-0.1-0.7,0c0-0.2,1.2-0.2,1.4-0.4
			c-2.2,0.3-2.7,0.1-4.2,0.2c-0.4,0.3-1.8,0.5-3.4,0.7c0-0.1,0.5-0.2,0.7-0.3c-0.8,0.1-2,0.2-2.1,0.1c-1.9,0.1-1.4,0.4-2.7,0.5
			c-0.7-0.1-1.7,0-2.9,0.1l-1.2,0.2c-0.3,0-0.6,0-0.9,0c-0.1,0.2-0.1,0.4-0.6,0.4c-0.3-0.1-0.4-0.1-0.6-0.2c0.1-0.4,0.2-0.8,0.2-1.2
			c-0.1,0-0.2,0.2-0.3-0.2c0.2-0.3,0.2-0.6,0.2-1v-0.3v-0.7c0-0.5,0-1,0-1.5c-0.2-0.1-0.3,0.1-0.4-0.7c0.3-1.2-0.3-3.7,0.2-2.1
			c-0.4-2.6,0.1-3.4-0.2-4.9c-0.1-2.5-0.2,2.5-0.4,0c-0.3-2.7,0.5-0.3,0.4-2.1c-0.2-0.1-0.2-2.4-0.4-2.8c0.3,1.4,0.2-0.3,0.3-1.4
			c-0.3,0.2-0.5-0.2-0.6-2.1c0.2,0,0.2,1.2,0.3,1.4c0.1-1.1-0.1-5.1-0.3-6.3c0.5-3.7-0.7-11.7-0.7-16h0.2c-0.1-2.4-0.6-0.9-0.6-3.4
			c0.3-1.5,0-2.3-0.3-5.6c0.1-0.1,0.3,1,0.2,0c-0.3-0.4-0.4-4.3-0.4-4.9c-0.3-1-0.5-2.7-0.6-4.8c0.3,0.1,0.3-1.1,0.3-2.1
			c-0.2-0.3-0.2,1.1-0.4,0c-0.3-2.8,0.5,0.7,0.1-2.8c-0.2-0.3-0.2,1.1-0.4,0c0.1-1.7-0.2-1.9-0.4-2.8c0.1,0.4,0.1-0.4,0.1-0.7
			c-0.1-1.1-0.5-3.4,0.2-1.4c-0.1-2.2-0.4-1.7-0.5-2.8c0.1-1.5-0.3-3.1-0.5-4.1c0.1-0.1,0.3,1,0.2,0c-0.3-0.2-0.4-1.8-0.7-2.7
			c0.1-0.1,0.3,1,0.2,0c-0.3-1.3-0.5-3.1-0.9-3.4c0.5,0.5,0.2-1.9,0.3-2.8c-0.7-0.1-0.5-4.4-1.1-5.5c0.2-1.1,0-3.2,0-4.9
			c-0.5-1.4-0.8-3.6-0.7-4.8c-0.6,0.4,0-1.9-0.4-2.1c0.1,0.8,0,1.1,0,1.4L65,85.7c0.7,1.7-0.1-1.8-0.4-2.8l0.1-2.1
			c-0.4-0.6-0.4-2.9-0.6-4.1c-0.3-0.2-0.2,1.1-0.4,0.1c-0.2-1.4,0.5-0.2,0.2-2.1c-0.6,1.2-0.3-2.5-0.9-3.4c0.1,0.4,0,0.8-0.1,0
			c0.4-1.4-0.5-1.9-0.8-4.8c0.1,0,0.2,0.5,0.4,0.6C61.8,64,62,64,61.9,62.2c-0.2,0.2-0.5-0.1-0.7-1.3c0.3,0.1,0.2-1.1,0.1-2.1
			c-0.4-1.6-0.9-3.6-1.3-4.7c0.3,0,0.6,1.2,0.4-0.8c-0.4-0.9-0.4-3.8-1-6.3c-0.2-0.1-0.3,0.2-0.5-0.6c0.2,0.2,0-2.1-0.3-2.1
			c0.1,0.4,0.1,0.8,0,0.7c-0.1-1.9-0.8-2.5-1.3-4.7c0.6,1.3,0.1-2.4-0.1-4.3c-0.1-0.1-0.2,0-0.4-0.6c0.4-1.1-1-3.7-1-5.5
			c-0.3,0.5-0.7-2.4-0.6-0.6c-0.3-1.8-1.2-3.2-0.4-2c-0.7-3-1.6-5.5-1.9-6.7c0.1,1.5-0.5-0.7-0.2,1.5c-0.3-0.9-0.6-2-1-2.6
			c0.8,2.8,1.5,7.4,0.8,7.7c-0.1-2.2-0.8-2.3-1-4.8c-0.4-0.3-0.9-3.2-1.4-4.7c-0.1-0.9-0.4-2.5-0.5-3.4c-0.6-1.4-0.1,1.3-0.4,1.5
			c-0.5-2-0.9-2.3-1.5-5.4c-0.2,0.8-0.3,0.1-0.7,0.2c-0.3-1.5-0.6-2.1-0.8-1.9c0.4,2.6,0.5,3.6,1.1,6.1c0,2.1-0.4,1.3-0.5,2.9
			c1.3,5.5,3.3,16.9,4.5,22.4c0.1,1.3,0.4,3.3,0.8,5.5c0.1,0.1,0.2,0,0.4,0.6c-0.3,0.2,0.4,2.3,0.5,2.7c-0.1,0-0.2-0.5-0.4-0.6
			c0.6,3.8,1.7,10.3,3,17c-0.1,0.3-0.1,0.9,0.1,2.1c0.5,3.1,1.3,7.1,1.6,10.2c0.2,0.1,0.3-0.2,0.5,0.6c0,2.1,0.2,3.9,0.7,6.2
			c-0.2-0.2-0.1,2,0.2,2.1c-0.3-2.4,0.3,0,0.2-1.4c-0.2,0-0.4-1.9-0.3-2.1c0.2,0.7,0.5-0.2,0.9,2.7c0.3,2.7-0.9-0.3-0.7,2.9
			c0.4,1,0.4,1.7,0.6,3.4c0.3,0.8,0.5,2.4,0.7,4.1c-0.2,0.6,0.6,4.4,0.4,4.8c0.1,0.9,0.2,1.5,0.4,2c-0.1,0.5,0.5,6.7,0.8,6.2
			c-0.4-2.3-0.2-2.3-0.7-4.8c0.2,0.3,0.4,0.7,0.5,1.3c-0.2,1.2,0.6,3.4,0.2,4.2c0.2,0.7,0.5,0.2,0.6,2c-0.3-0.3-0.7-3-0.8-1.3
			c0.3,3.2,0.9,4.3,1.1,4.7c0.1,1.8,0,2.9-0.1,4.2c0.7,2.3,0.6,4.8,1.2,6.8c-0.2-0.8-0.6-0.2-0.7,0.8c0.3,0.2,0.9,3,0.8,3.4
			c-0.3,0.2-0.3-2.7-0.7-2c0.2,2.3,0,3,0.5,4.1c-0.1-1.1-0.2-2.4,0.1-2.1c0.2,1.9-0.1,1.4,0.2,2.8c-0.2,0-0.4,0.2-0.4,0.7
			c0.4,5.6,0.7,6.4,1,12.4c0.1,1.4,0.4,1.3,0.6,2.7c-0.2-0.2-0.3-1.1-0.5-1.4c0.1,3.8,0.2,6,0.8,8.3c-0.1,0.1-0.4-0.1-0.3,0.7
			c0.1,0.1,0.2,0,0.3,0.7c-0.3,1.5,0,2.9,0.3,5.5c-0.3,2,0.2,8.4,0.4,10.4c0-0.8,0.1-1.7,0.2-0.7c0,1.4-0.2,1.9-0.3,2.8
			c0.3-0.5,0.6,2.5,0.4,2.8c-0.2,0-0.1-1.9-0.3-2.1c0.1,3-0.1,5.3,0.4,6.9c-0.1,0-0.1,0.6-0.2,0.7c0.1,0.8,0.1,2.1,0.1,3.3v1v1.7
			c0,1.1,0.1,2.1,0.2,2.8c0.1-1.1,0-2.2,0-3.1c0-0.9,0-1.6,0.3-1.6c-0.1,1.5-0.1,2.8,0.2,3.3c0-1.3,0.1-2.7,0.2-1.2
			c0,2.4-0.3,2.5-0.6,2.5c0.1,2.1-0.1,2.9-0.3,2.7v3.1c2.3-0.2,4.4-0.5,2-0.3l-1.8,0.2c0-0.9,0-1.7,0.1-1.9c0.1,0.1,0.2,0.8,0.3,1.5
			c0.9-0.2,1.7-0.3,1.7-0.2c-3.1,0.6,1.2-0.2,3.5-0.4c-0.2,0.3-2.5,0.7,1,0.4c0.9-0.5,0-0.5,1.3-0.8c4-0.4,0,0.3,2.3,0.1
			c0.2-0.3,1.8-0.4,2.7-0.7c0.3,0.2,1.5,0.1,1.4,0.5c3.3-0.1,8-1.2,10.3-1.2c-1.8,0.1-3.9,0.7-2,0.6c1.5-0.3,3.9-0.4,6.9-0.9v0.2
			c1.8-0.3,3.5-0.4,5.5-0.5c-0.8-0.4,2.3-0.6,2.7-0.9c0.2,0.2-2.5,1-0.6,0.6c0.8-0.4,3.6-0.4,4.8-0.5c-0.2-0.3,0.5-0.5,2-0.6
			c0.8,0,1.6,0,2.1,0c2.1-0.3,12.8-1.6,10.4-0.6c3.2-0.2,2.8-0.7,4.1-1.1c-1,1.1,8.3-0.7,10.4-0.5c0.6-0.4-2.5-0.3-0.8-0.5
			c1.3-0.1,2.3-0.2,2.8-0.1c0,0.2-0.3,0.3-0.7,0.4c2.6-0.1,1.3-0.5,3.4-0.6c0,0.1-0.5,0.2-0.7,0.3c2.1-0.3,2.5-0.1,4.2-0.3
			c0-0.3,0.1-0.6,2-0.8c0,0.2-0.9,0.3-0.7,0.4c2,0,1.7-0.8,2.7-0.5c-0.1,0.4-2.5,0.6-3.4,0.9c2.8-0.1,5-0.2,6.9-0.7
			c-1.7,0.3-3-0.2-1.4-0.5v0.4c2.4-0.2,2-0.6,3.4-0.9c-1,0.7,1.8,0.3,1.5,0.8c3.5-0.4,6.5-0.7,6.9-1.1c0.9,0,1.4,0,1.4,0.2
			c9-1,12.1-1.1,19.3-2.2c2.1,0.1,7.7-0.7,8.3-1.1l6.4-0.6c1.8-0.2,3.1-0.4,4.4-0.6l-0.3-1.5c0.3-0.6,0.1-3.1-0.4-5.1
			c-0.2-1.9-0.1-2.4-0.1-3.1c0-0.4,0.1-0.5,0.1-0.8s0-0.7-0.1-1.2c-0.3-2.2-0.5-1.3-0.7-2c-0.2-1.6-0.2-2.6,0-2.8
			c0.1,0.8,0.3,1.6,0.5,2c-0.2-2.1-0.6-3.3-0.5-4.8c-0.3-0.2-0.1,1-0.2,1.4c-0.3-3.5-0.2,2.2-0.6-1.3c-0.2-1.9,0.4-0.7,0.3-2.1
			c-0.3-0.6-0.7,0.1-0.8-2c0.5-0.8,0.6,2.3,1.1,2c-0.4-3.8-0.6-4.5-0.8-8.3c-0.1-0.1-0.2,0-0.3-0.7c0.1-0.9-0.2-3-0.4-4.9
			c-0.2,0.1-0.4-0.5-0.5-1.3c0.3,0.1,0.3-0.6,0.2-2.1c-0.5,0.1-0.4-5.5-0.7-4.1l0.2,2.1c-0.2,0-0.2,0.4-0.3,0.7
			c0.1-2.4-0.5-5.3-0.3-6.3c-0.2-0.1-0.3-1.7-0.4-2.8c-0.4,0.5-0.6-1.1-0.8-2.7c0.1-0.1,0.2-1.3,0.4,0c-0.1,0.1-0.3,0.2-0.1,1.4h0.4
			c-0.4-2.3-0.3-3.7-0.6-4.8c0.1,0.7-0.1,0.9-0.2,0c0.3,0.5,0.4-1.4,0.1-1.4c0.1,0.8-0.1,0.8-0.3,0.7c0.1-1.6-0.1-0.8-0.3-2.1
			c-0.1-2.1,0.1-3.5-0.1-6.3c-0.3,0.8-0.4,0.5-0.8-1.3c0.3,0.2,0.5-0.2,0.5-0.8c0.1,0.8,0.2,1.6,0.4,1.4c-0.2-2.6-0.6-1.1-0.9-2.7
			c0.1-0.9,0-3.1-0.2-4.2c0,0.5,0,0.8-0.2,0.7c-0.1-1.3-0.3-1.5-0.4-2.8c0.9,0.3-1-5.5-0.3-6.3c-0.2-2.1-0.7-3.1-0.6-4.8
			c-0.3,0.1-0.5-1-0.7-2c0.3-0.7-0.3-1.8-0.4-2.8c0.3-1.2-0.4-3.5-0.3-5.6c-0.2-0.3-0.3-0.9-0.4-2.1c0.3-0.4,0-2.6,0-4.2
			c-0.5,0.1-0.8-1-1.1-2.7c-0.3-2.2-0.3-3.5-0.2-4.2c-0.1-0.6-0.4-2.8-0.4-4.1c-0.3,0.6-0.5-1-0.7-2c0-1.5,0.3-2.1,0.1-4.2
			c-0.2-1-0.5-1.9-0.8-2.7c-0.5-5.6-0.5-5.9-0.5-9c-1.4-3.3-1.2-10-2.3-16.5c0.1,0,0.2,0.5,0.3,0.7c-0.4-3.5-0.4-4.9-0.9-7.6
			c0-1.3,0.1-2.4,0-4.2c-0.2,0.1-0.4-0.5-0.5-1.3c0-1.6-0.3-3.6-0.4-5.5c-0.2-2-0.3-4,0-5.5c-0.2-1.5-0.3,0.9-0.4-0.7
			c0.2-0.2,0.2-1,0.5-0.7c-0.1-0.7-0.2-1.4-0.3-2.2l0-0.9l-0.1-1.5c-0.2-2-0.3-3.8-0.5-4.5c0-0.9,0-1.4,0.1-2c-0.3,0-0.6,0-1,0
			c-0.3,0.1-0.2,0.3-1.2,0.3c-1.8,0.1-3.4,0.2-4.8,0.3l-2.9,0.1c-1.6,0.1-2.9,0.2-4.3,0.5c-0.3-0.1-0.9-0.2-2.1-0.1
			c-1.2,0.3-4.2,0.4-5.5,0.7c-0.7-0.4-4.6,0.3-5.5,0.6c-0.2-0.1,0-0.2-0.7-0.2c-0.4,0.2-1.1,0.4-2.1,0.5c-4,0.1-6.8,0.3-10.4,0.9
			c-2.1-0.4-4.4,0.3-7.6,0.1C135.8,5,132,5.1,130.1,5c-2.3,0.2-5.5,0.4-7.6,0.2c-2.1,0.2-5.7,0.2-7.7,0.4c-0.9-0.5-3.5,0.2-5.6,0.2
			c-0.8-0.1-1.9-0.1-3.5,0c-1.9,0.5-7.1,0.6-9,0.2c-0.3,0.3-3,0.3-3.5,0.6c-1.9-0.3-6-0.1-7.6,0.3c-1.2-0.2-4.3,0-4.9,0.3
			c0.8,0,2-0.1,2.1,0.1c-0.1,0.1-0.8,0.2-1.4,0.3c1.4-0.3-0.2-0.1-0.7-0.4c-2.6,0-2.4,0.5-4.2,0.6c-0.6-0.2-3.6,0.4-4.8,0.5
			c-0.1-0.2,2.8-0.5,0.7-0.5c-0.2,0.2-1.2,0.3-2.8,0.3c-0.1,0.1,0.1,0.3-0.7,0.4c-3.8,0.4-5.3,0.7-9.7,0.8c-0.2,0.3-1.8,0.3-2.8,0.5
			c-0.2-0.1-0.6-0.1-1.4-0.1c-0.9,0.3-2.2,0.6-4.8,0.7c-0.1,0.2-0.2,0.3-1.4,0.3c0.5,0.4-0.7,0.5-0.7,0.8c3.4-0.4,10.4-0.2,11.8-0.9
			c0.3,0.2,0.8,0.2,0,0.4c3.8-0.2,9.3-0.1,11.1-0.6c1.1,0.3,3.1,0,4.9-0.1c1.4,0,0.9,0.3,2.8,0.2c0.8-0.5,6.1-0.5,6.9-0.4
			c0,0.7-2.7,0.3-4.1,0.6c0.4,0,0.8,0.1,0,0.1c-2.7,0-3.4,0.3-6.2,0.3c-0.1,0.2,0.1,0.4-1.4,0.4c0-0.2,0.3-0.3,0.7-0.4
			c-3,0.1-5.6,0.2-6.9,0.6c-8.9,0.5-13.2,0.4-20.1,1.3c7.5-0.1,12.2-0.4,19.4-0.5c-0.1-0.3,1.1-0.4,2.1-0.6v0.4
			c2.9,0.1,2.7-0.3,4.8-0.4c-0.2,0.2,0.9,0.3,1.4,0.1c-0.4,0-0.8-0.1,0-0.1C77.9,11.9,81.3,11.9,82.4,11.4z M202.7,173
			c-0.1-0.8-0.1-1.2,0-1.4C202.8,172.4,202.8,172.9,202.7,173z M202.7,173C202.6,175.6,202,171,202.7,173L202.7,173z M61.5,58.7
			c0.1,0.3,0.1,0.9,0,0.7C61.4,59,61.4,58.5,61.5,58.7z M75.2,190.3v0.3l-0.7,0.1l0.1-0.3L75.2,190.3z M193.7,148.1
			c0.1,0.9-0.2,0.7-0.2,0C193.4,147.1,193.6,148.2,193.7,148.1z M183,54.2c-0.1-3-0.4-4.6-0.5-6.9C183.3,47.2,183.6,53.9,183,54.2z
			 M114.9,10.6C118,10.6,115.2,11.1,114.9,10.6L114.9,10.6z M103.2,11c0-0.1,0.8-0.1,1.4-0.2C104.6,11,103.7,11,103.2,11z
			 M92.1,11.3c0.4,0.1-0.5,0.2-0.7,0.1C91,11.4,91.9,11.2,92.1,11.3z M72,11.7c-0.1,0.1-0.7,0.1-0.7,0C71.4,11.6,72,11.7,72,11.7z
			 M112.2,10.6c0.4,0.1-0.5,0.2-0.7,0.1C111.1,10.6,112,10.5,112.2,10.6z M133.1,10.1c0.4,0.1-0.5,0.2-0.7,0.1
			C132,10.2,132.9,10.1,133.1,10.1z M101.1,10.7c0.4,0.1-0.5,0.2-0.7,0.1C100.1,10.8,100.9,10.6,101.1,10.7z M126.1,10.2
			c0.4,0.1-0.5,0.2-0.7,0.1C125,10.3,125.9,10.2,126.1,10.2z M88.6,10.9c0.4,0.1-0.5,0.2-0.7,0.1C87.6,11,88.4,10.8,88.6,10.9z
			 M111.5,10.1c0.5,0.1,0.7,0.3,0,0.1C110.8,10.1,110.9,9.9,111.5,10.1z M83.1,10.9c0.4,0.1-0.5,0.2-0.7,0.1
			C82,11,82.9,10.9,83.1,10.9z M98.3,10.2c0.4,0.1-0.5,0.2-0.7,0.1C97.3,10.3,98.1,10.2,98.3,10.2z M85.8,10.3
			c2.3,0,3.2-0.2,4.9-0.3C91.1,10.5,85.6,11,85.8,10.3z M179.5,20.2c0-2.2,0.4,0.8,0.4,1.4C180,23.8,179.7,19.6,179.5,20.2z
			 M179.7,20.9l0.1,1.4h-0.2l-0.1-1.4H179.7z M178.5,7.1c0.1,0.1-0.3,0.2-0.3,0.1C178,7.2,178.4,7.1,178.5,7.1z M92.8,10.3
			c-0.2,0.2-1.4,0.2-1.4,0C92,10.2,92.6,10.1,92.8,10.3z M59.9,51.2l0.2,1.4h-0.2l-0.2-1.4H59.9z M96.2,10.1
			c-0.1,0.1-1.3,0.1-2.1,0.2C94.3,10.1,95.4,10.1,96.2,10.1z M56,32c0.1,0,0.3,0.8,0.4,1.3C56.3,33.4,56.2,32.6,56,32z M57,36.8
			c0-0.4,0.3,0.5,0.3,0.7C57.2,37.9,57,37,57,36.8z M60.8,57.4c0.1,0,0.2,0.8,0.4,1.4C61,58.7,60.9,57.9,60.8,57.4z M61.1,59.4
			c0-0.4,0.2,0.5,0.2,0.7C61.4,60.5,61.1,59.6,61.1,59.4z M180.7,32.8c-0.2-0.2-0.2-1.4-0.1-1.4C180.8,31.7,180.6,32,180.7,32.8z
			 M66,91.8c0-0.4,0.2,0.5,0.2,0.7C66.2,92.9,66,92,66,91.8z M142.1,8.8c0.4,0-0.5,0.2-0.7,0.2C141.1,8.9,141.9,8.8,142.1,8.8z
			 M55.5,30.7c0-0.4,0.3,0.5,0.3,0.7C55.8,31.8,55.5,30.9,55.5,30.7z M62.9,71.9c0-0.4,0.2,0.5,0.2,0.7
			C63.2,72.9,62.9,72.1,62.9,71.9z M66.5,96.7c0-0.4,0.2,0.5,0.2,0.7C66.7,97.7,66.5,96.9,66.5,96.7z M70.7,139.7
			c0-0.4,0.2,0.5,0.2,0.7C70.8,140.8,70.7,139.9,70.7,139.7z M182.4,48.7c-0.1,0-0.2-0.8-0.3-1.4C182.3,47.4,182.3,48.2,182.4,48.7z
			 M90,9.8c0.4,0.1-0.5,0.2-0.7,0.1C88.9,9.9,89.8,9.8,90,9.8z M66.6,98.1c0-0.4,0.2,0.5,0.2,0.7C66.8,99.1,66.6,98.3,66.6,98.1z
			 M70,132.1c0-0.4,0.2,0.5,0.2,0.7C70.1,133.1,70,132.3,70,132.1z M185,75.7c0-0.9,0-1.4,0.2-1.4l0.2,2.1
			C185.3,76,185.1,75.6,185,75.7z M182.8,51.5c0,0.4-0.2-0.5-0.2-0.7C182.6,50.4,182.8,51.3,182.8,51.5z M54.3,25.3
			c0.1,0.7-0.1,0.5,0,1.4C53.9,26.5,53.8,24.6,54.3,25.3z M72.4,174.5c0.1,0,0.1,0.8,0.2,1.4C72.5,175.8,72.5,175,72.4,174.5z
			 M184.2,65.3c0,0.4-0.2-0.5-0.2-0.7C184.1,64.3,184.2,65.1,184.2,65.3z M179.8,9.8c0,0.4-0.2-0.5-0.1-0.7
			C179.7,8.8,179.9,9.6,179.8,9.8z M75.9,190.5c0.1-0.2,1.2-0.2,2.1-0.3C77.9,190.3,76.8,190.4,75.9,190.5z M82.2,189.8
			c-0.4,0,0.5-0.2,0.7-0.2C83.2,189.6,82.4,189.8,82.2,189.8z M183.9,60.4c0,0.4-0.2-0.5-0.2-0.7C183.7,59.4,183.9,60.2,183.9,60.4z
			 M53.3,22.6c0-0.4,0.3,0.5,0.3,0.7C53.6,23.7,53.3,22.8,53.3,22.6z M61.3,65.1c0-0.4,0.2,0.5,0.2,0.7
			C61.6,66.1,61.3,65.3,61.3,65.1z M71.7,164.7c0.2-0.3,0.3,3.2,0,2.1l-0.1-1.4C71.8,165.6,71.7,165.2,71.7,164.7z M186.4,85.3
			c-0.1,0-0.2-0.8-0.3-1.4C186.3,84,186.3,84.8,186.4,85.3z M186.2,83.3c0,0.4-0.2-0.5-0.2-0.7C186,82.2,186.2,83.1,186.2,83.3z
			 M187.6,95.7c-0.1,0-0.2-0.8-0.3-1.4C187.4,94.3,187.5,95.1,187.6,95.7z M185.7,76.3c0,0.4-0.2-0.5-0.2-0.7
			C185.5,75.3,185.7,76.1,185.7,76.3z M72.2,181.4c0.1-0.4,0.2,0.5,0.1,0.7C72.3,182.5,72.2,181.6,72.2,181.4z M96.7,188.6
			c-0.4,0,0.5-0.2,0.7-0.2C97.7,188.4,96.9,188.6,96.7,188.6z M107.1,187.5c-0.4,0,0.5-0.2,0.7-0.2
			C108.1,187.3,107.2,187.5,107.1,187.5z M187.2,90.8c0,0.4-0.2-0.5-0.2-0.7C187,89.8,187.2,90.6,187.2,90.8z M185.6,74.9
			c-0.1,0-0.2-0.8-0.3-1.4C185.5,73.6,185.6,74.4,185.6,74.9z M105,187.8c0.2-0.2,1.4-0.3,1.4-0.1C105.8,187.8,105.2,188,105,187.8z
			 M116,186.7c0.1-0.2,1.2-0.2,2.1-0.3C118,186.5,116.9,186.5,116,186.7z M186.6,83.2c0,0.4-0.2-0.5-0.2-0.7
			C186.4,82.2,186.6,83,186.6,83.2z M186.1,78.4c0,0.4-0.2-0.5-0.2-0.7C185.9,77.3,186.1,78.2,186.1,78.4z M53.4,25.5
			c0.2,0.1,0.2,0.7,0.1,0.7C53.4,26,53.3,25.5,53.4,25.5z M53.8,27.5c0-0.4,0.3,0.5,0.3,0.7C54.1,28.5,53.8,27.7,53.8,27.5z
			 M71.4,168.3c0.1-0.4,0.2,0.5,0.2,0.7C71.5,169.3,71.4,168.4,71.4,168.3z M123,186c-0.4,0,0.5-0.2,0.7-0.2
			C124,185.9,123.2,186,123,186z M190.6,124c0-0.8,0.2-0.5,0.1-1.4c0.2,0.2,0.2,1.4,0.4,1.4c0,0.9-0.1,1.1,0,2.1
			C190.6,125.9,190.9,124.2,190.6,124z M69,132.2c0.1,0.1,0.1,0.7,0.1,0.7C68.9,132.7,68.9,132.2,69,132.2z M194,155.1
			c0,0.4-0.2-0.5-0.2-0.7C193.9,154,194,154.9,194,155.1z M193,144.7c0,0.4-0.2-0.5-0.2-0.7C192.8,143.7,193,144.5,193,144.7z
			 M189.3,108.1c-0.1-0.1-0.1-0.7-0.1-0.7C189.4,107.5,189.4,108.1,189.3,108.1z M54.6,32.3c0-0.4,0.3,0.5,0.3,0.7
			C54.8,33.4,54.6,32.5,54.6,32.3z M152,183.1c-0.4,0,0.5-0.2,0.7-0.2C153,183,152.2,183.1,152,183.1z M176.2,180.5
			c-0.4,0,0.5-0.2,0.7-0.2C177.2,180.3,176.4,180.5,176.2,180.5z M181.7,179.9c0-0.1,0.8-0.2,1.4-0.3
			C183,179.8,182.2,179.8,181.7,179.9z M195.6,168.9c-0.2-0.1-0.1-0.7-0.1-0.7C195.6,168.3,195.6,168.9,195.6,168.9z M53.5,27.6
			c0-0.4,0.3,0.5,0.3,0.7C53.8,28.6,53.5,27.8,53.5,27.6z M104.4,188.4c-0.4,0,0.5-0.2,0.7-0.2C105.4,188.2,104.6,188.4,104.4,188.4
			z M195.4,166.1c0,0.4-0.2-0.5-0.2-0.7C195.2,165.1,195.4,165.9,195.4,166.1z M194.8,160.6c-0.1-0.1-0.1-0.7-0.1-0.7
			C194.9,160,194.9,160.6,194.8,160.6z M194.7,159.2c0,0.4-0.2-0.5-0.2-0.7C194.5,158.1,194.7,159,194.7,159.2z M191.5,128.1
			c0,0.4-0.2-0.5-0.2-0.7C191.4,127,191.6,127.9,191.5,128.1z M191.4,126.7c-0.2-0.3,0-0.6-0.1-1.4
			C191.4,125.5,191.5,126.7,191.4,126.7z M87.2,191c-2.2,0.5-5.8,1-8.2,1.5c-0.2-0.2-1.2-0.2-2.4-0.1c-1.2,0.1-2.2,0.1-2.8,0.1
			c-0.7,0.2-1.7,0.5-2.9,0.6c-0.1-1.1-0.1-2.5-0.2-4l0.5-0.1c-0.1-0.4-0.2-0.7-0.3-1.2c-0.1-0.5-0.1-1.1-0.1-1.6
			c-0.1-1.2-0.1-2.4-0.2-3.8c-0.1-1.2,0.1-1.3,0.2-1.4c-0.6-1.8-0.1-5.7-0.7-7.6c0-1.2,0.3-0.4,0.3,0.7c0.3-1.7-0.3-4.2-0.4-6.2
			c-0.1-1.5,0-2.2,0.3-2.1c-0.3-1.4-0.1-2.2-0.1-3.5c-0.4,0.3-0.6-2-0.5-4.8c0.3-0.1,0.2,2.5,0.3,3.5c0.2-2.2-0.4-7.2-0.3-9.7
			c0.4,0.3,0.3,3,0.4,4.2c0.1,1.1,0.2,1.2,0.2,2.1c0.3,5.6,0.5,12.7,0.7,20.2c0,1.6,0.1,2.6,0.4,2.8l-0.2,2.8l0.4,4.9
			c0.1,1.4,0.2,2.7,0.2,4.1c0.9-0.1,1.8-0.2,2.6-0.2l1.3-0.1l1.7-0.1c0.9-0.1,1.1-0.3,2-0.5c1.9-0.3,1.4,0.1,2.8-0.1
			c0.9-0.3,3.9-0.5,4.8-0.8c2.5-0.2,7.5-0.4,8.3-0.9c0.9,0,0.9,0.3,2.1,0.3c0.4,0.4-2.4,0.6-2,1c-1,0.2-3.6,0.2-3.4,0.5
			c-0.8,0.1-0.4-0.1,0-0.1C91.1,191.1,87.7,191.4,87.2,191z M196,170.9c-0.2-0.1-0.1-0.7-0.1-0.7C196.1,170.3,196.1,170.9,196,170.9
			z M136.1,185.2c-0.4,0,0.5-0.2,0.7-0.2C137.2,185,136.3,185.2,136.1,185.2z M151.3,183.6c-0.4,0,0.5-0.2,0.7-0.2
			C152.4,183.4,151.5,183.6,151.3,183.6z M158.9,182.8c-0.4,0,0.5-0.2,0.7-0.2C160,182.6,159.1,182.8,158.9,182.8z M174.8,181
			c0.2-0.2,1.4-0.3,1.4-0.1C175.6,181,175,181.2,174.8,181z M181.7,180.3c-0.4,0,0.5-0.2,0.7-0.2
			C182.8,180.1,181.9,180.3,181.7,180.3z M185.9,179.8c-0.4,0,0.5-0.2,0.7-0.2C186.9,179.7,186.1,179.8,185.9,179.8z M190.7,179.3
			c1-0.2,0.5,0,0,0.1c-0.9,0.2-1.6,0.1-0.7,0C190.2,179.4,190.5,179.3,190.7,179.3z M193.9,179c-0.5-0.1,0.1,0,0.5,0
			C194.9,179.1,195.1,179.2,193.9,179z M121,187.1c1.3-0.1,1.3,0.2,3.5-0.1c0.9,0.9-4.8,1-6.9,1c-0.7,0.1-0.5,0.2-0.7,0.3
			c-4.1,0.2-5,0.6-8.3,1.1c0.5-0.6-2.6,0.4-2.8-0.1c-1.4,0.1-0.8,0.4-2.7,0.5c-2.4,0.3-2.3-0.2-4.2,0c1.5-0.4,0.6-0.4,1.3-0.8
			c2.2-0.3,4.7-0.3,8.3-0.7c-0.1,0.1-0.7,0.2-0.7,0.3c1-0.6,5.6-0.6,9.7-1.2c-0.1,0,2-0.4,2.1-0.1
			C120.8,187.4,120.9,187.3,121,187.1z M119.6,187.1c-0.4,0,0.5-0.2,0.7-0.2C120.6,187,119.8,187.1,119.6,187.1z M127.2,186.3
			c-0.4,0,0.5-0.2,0.7-0.2C128.2,186.1,127.4,186.3,127.2,186.3z M157.6,182.9c1.6-0.1,0.8,0.7-1.3,0.8
			C155.7,183.3,158.1,183.2,157.6,182.9z M171.4,181.5c0.5-0.3,0.7,0,0.7,0.2C171.6,182,171.3,181.7,171.4,181.5z M196.5,173
			c-0.1,0-0.2-0.8-0.3-1.4C196.3,171.6,196.4,172.4,196.5,173z M187,79c0,0.4-0.2-0.5-0.2-0.7C186.9,77.9,187,78.8,187,79z
			 M134.8,185.5c-1.1,0.4,0.1,0.1,0.1,0.5c-1.6,0.1-2.6,0.3-2.7,0.5c-0.8,0.1-0.4-0.1,0-0.1c-0.8-0.3-4.4,0.3-6.2,0.7
			c-1.8,0.2,0.9-0.3-0.1-0.5c0.7-0.1,0.6,0.1,0.7,0.2c1.8-0.3,4.6-0.7,5.5-0.5C133.7,186.1,132.4,185.7,134.8,185.5z M155.5,183.5
			c0.9,0.4-4.7,0.3-5.5,0.8c-0.6,0-1.1,0-2.1,0.1c-2.1,0.2-4.9,0.9-4.9,0.3C147.7,184.2,151,183.7,155.5,183.5z M167.9,182
			c1.8-0.4-0.7,0.6-2.7,0.7C164.9,182.4,167.8,182.3,167.9,182z M184.5,180.5c-0.1-0.1-1.3,0-2.1,0.1c-1.2,0,2.9-0.6,4.1-0.6
			c0.2,0.3-2,0.4-2,0.6C187,180.6,182.1,180.8,184.5,180.5z M192.1,179.4c-0.4,0,0.5-0.2,0.7-0.2
			C193.1,179.2,192.3,179.4,192.1,179.4z M184.6,52.7c0,0.4-0.2-0.5-0.2-0.7C184.5,51.7,184.6,52.5,184.6,52.7z M191.4,179.7
			c-0.4,0,0.5-0.2,0.7-0.2C192.5,179.6,191.6,179.7,191.4,179.7z M137.6,185.7c-0.4,0,0.5-0.2,0.7-0.2
			C138.6,185.5,137.8,185.7,137.6,185.7z M170,182.2c0.1-0.2,0.7-0.1,0.7-0.1C170.6,182.3,170.1,182.2,170,182.2z M188,180.2
			c-0.4,0,0.5-0.2,0.7-0.2C189,180.1,188.2,180.2,188,180.2z M160.4,183.3c-0.4,0,0.5-0.2,0.7-0.2
			C161.4,183.2,160.6,183.4,160.4,183.3z M81.6,7.7c0.4,0.1-0.5,0.2-0.7,0.1C80.5,7.8,81.4,7.7,81.6,7.7z M51.2,22.4
			c0.2,0.2,0.5,1.7,0.7,2.7C51.6,24.9,51.3,23.3,51.2,22.4z M148.7,184.7c0-0.1,0.8-0.2,1.4-0.3C150,184.6,149.2,184.6,148.7,184.7z
			 M165.9,182.9c0-0.1,0.8-0.2,1.4-0.3C167.3,182.7,166.5,182.8,165.9,182.9z M178.4,181.5c0.2-0.2,1.4-0.3,1.4-0.1
			C179.5,181.6,179.1,181.4,178.4,181.5z M79.5,7.7c0.4,0.1-0.5,0.2-0.7,0.1C78.4,7.8,79.3,7.7,79.5,7.7z M176.3,181.9
			C174.4,181.7,178.4,182,176.3,181.9L176.3,181.9z M182.5,181.2c0-0.1,0.8-0.2,1.4-0.3C183.9,181,183,181.1,182.5,181.2z M88.5,7.3
			C88.5,7.3,88.6,7.4,88.5,7.3C86,7.5,88.4,6.9,89.2,7C89.2,7,88.6,7.3,88.5,7.3z M190.8,105.8c0,0.4-0.2-0.5-0.2-0.7
			C190.6,104.8,190.8,105.6,190.8,105.8z M85.7,7.1c0.4,0.1-0.5,0.2-0.7,0.1C84.7,7.2,85.5,7.1,85.7,7.1z M177.7,182.2
			c0.2-0.2,1.4-0.3,1.4-0.1C178.5,182.2,177.9,182.3,177.7,182.2z M140.5,186.4c-0.4,0,0.5-0.2,0.7-0.2
			C141.5,186.2,140.7,186.4,140.5,186.4z M198.5,178.5c0,0.3-0.2-0.6-0.2-0.8C198.4,177.4,198.5,178.4,198.5,178.5z M184,181.8
			c0.1-0.2,0.7-0.1,0.7-0.1C184.6,181.9,184,181.8,184,181.8z M47.8,11.8c0.2,0.1,0.2,0.7,0.2,0.7C47.8,12.3,47.8,11.8,47.8,11.8z
			 M196.7,156.9c-0.1,1.4,0.1,0.9,0.3,2.8C196.7,160.8,196.2,155.9,196.7,156.9z M197.6,165.9c0,0.4-0.2-0.5-0.2-0.7
			C197.4,164.8,197.6,165.7,197.6,165.9z M189.2,80.9c0,0.4-0.2-0.5-0.2-0.7C189,79.8,189.2,80.7,189.2,80.9z M48.3,15.2
			c0-0.4,0.3,0.5,0.3,0.6C48.6,16.2,48.3,15.4,48.3,15.2z M178.2,2.6c0.4,0-0.6,0.2-0.8,0.2C176.9,2.7,178,2.6,178.2,2.6z
			 M68.2,169.1c0-0.4,0.2,0.5,0.2,0.7C68.3,170.1,68.2,169.3,68.2,169.1z M105.4,191.2c-0.4,0,0.5-0.2,0.7-0.2
			C106.4,191,105.5,191.2,105.4,191.2z M65.7,133.1c-0.3-0.1-0.4-2.3-0.6-4.1c-0.6-3-0.5-5.2-1.1-8.3c-0.2-2.1,0.1-2.4,0-4.2
			c0.4,1.9,0.3,3.2,0.8,4.8C65.1,127,65.7,127.8,65.7,133.1z M189.3,75.3c0,0.4-0.2-0.5-0.2-0.7C189.1,74.2,189.3,75.1,189.3,75.3z
			 M184.5,21.4c-0.1,0-0.1-0.8-0.2-1.4C184.4,20,184.5,20.8,184.5,21.4z M61.9,96.6c0.2,0.1,0.2,0.7,0.1,0.7
			C61.8,97.2,61.8,96.6,61.9,96.6z M63.8,114.5c0-0.4,0.2,0.5,0.2,0.7C64,115.5,63.8,114.7,63.8,114.5z M63.6,114.5
			c0.1,0,0.2,0.8,0.3,1.4C63.7,115.9,63.7,115,63.6,114.5z M183.1,1.4c0.4,0-0.8,0.2-1,0.2C181.6,1.6,182.9,1.4,183.1,1.4z
			 M67.3,167.1c0-0.4,0.2,0.5,0.2,0.7C67.4,168.1,67.2,167.2,67.3,167.1z M67.7,176.8c0-0.4,0.2,0.5,0.2,0.7
			C67.8,177.8,67.7,176.9,67.7,176.8z M68,186.4c0.1-0.4,0.2,0.5,0.1,0.7C68.1,187.5,68,186.6,68,186.4z M185.1,21.3
			c-0.1-0.1-0.1-0.7,0-0.7C185.2,20.8,185.2,21.3,185.1,21.3z M68,189.8c0.1-0.5,0.2,0.7,0.1,0.9C68.1,191.2,68,190,68,189.8z
			 M186.1,32.3c-0.1,0-0.2-0.8-0.2-1.4C186,31,186,31.8,186.1,32.3z M64.7,130.4c0-0.4,0.2,0.5,0.2,0.7
			C64.8,131.5,64.6,130.6,64.7,130.4z M86.8,194.3c-0.4,0,0.5-0.2,0.7-0.2C87.9,194.1,87,194.3,86.8,194.3z M64.8,133.9
			c0-0.4,0.2,0.5,0.2,0.7C65,134.9,64.8,134.1,64.8,133.9z M66.4,156.7c0.1,0.1,0.1,0.7,0,0.7C66.3,157.3,66.3,156.7,66.4,156.7z
			 M66.8,165.7c0-0.4,0.2,0.5,0.2,0.7C66.9,166.7,66.8,165.9,66.8,165.7z M198.3,154.6c0,0.4-0.2-0.5-0.2-0.7
			C198.1,153.6,198.3,154.4,198.3,154.6z M194.2,113.9c0,0.4-0.2-0.5-0.2-0.7C194,112.8,194.2,113.7,194.2,113.9z M193.6,107.6
			c0,0.4-0.2-0.5-0.2-0.7C193.4,106.6,193.6,107.5,193.6,107.6z M193.3,104.9c-0.1,0-0.2-0.8-0.3-1.4
			C193.2,103.5,193.2,104.3,193.3,104.9z M64.6,132.5c0-0.4,0.2,0.5,0.2,0.7C64.7,133.6,64.6,132.7,64.6,132.5z M67.1,173.3
			c0.1,0,0.1,0.8,0.2,1.4C67.1,174.7,67.1,173.8,67.1,173.3z M200,169.8c0,0.4-0.2-0.5-0.2-0.7C199.8,168.8,200,169.6,200,169.8z
			 M66.4,162.2c0-0.4,0.2,0.5,0.2,0.7C66.5,163.3,66.4,162.4,66.4,162.2z M67.6,196.2c0-0.4,0.1,0,0.1,0.4c0.2,0,0.5-0.1,0.5-0.1
			c0.3,0-0.2,0.1-0.7,0.2C67.6,196.5,67.6,196.3,67.6,196.2z M194.3,112.5c0,0.4-0.2-0.5-0.2-0.7
			C194.1,111.4,194.3,112.3,194.3,112.5z M64.3,131.1l0.1,1.4h-0.2l-0.1-1.4H64.3z M65.6,148.4c0.1,1.1,0,1.2,0,2.1
			c-0.1-0.2-0.2-1.4-0.3-1.4C65.3,148.3,65.5,148.5,65.6,148.4z M147,188.3c-0.4,0,0.5-0.2,0.7-0.2C148,188.1,147.1,188.3,147,188.3
			z M200.9,175.9c0,0.5-0.2-0.8-0.2-1.1C200.6,174.3,200.9,175.6,200.9,175.9z M56.3,68c0-0.4,0.2,0.5,0.2,0.7
			C56.5,69,56.3,68.2,56.3,68z M62.9,117.4c0.1,0.1,0.1,0.7,0.1,0.7C62.8,117.9,62.8,117.4,62.9,117.4z M148.4,188.2
			c-0.4,0,0.5-0.2,0.7-0.2C149.4,188.1,148.5,188.3,148.4,188.2z M194.5,111.7c-0.2-0.1-0.1-0.7-0.1-0.7
			C194.6,111.2,194.6,111.7,194.5,111.7z M53,49.6c0.1,0,0.2,0.8,0.4,1.3C53.3,50.9,53.1,50.1,53,49.6z M54,55.1
			c0-0.4,0.2,0.5,0.2,0.7C54.2,56.1,54,55.2,54,55.1z M61.9,109.1c0-0.4,0.2,0.5,0.2,0.7C62.1,110.2,61.9,109.3,61.9,109.1z
			 M91.7,194.5c-0.4,0,0.5-0.2,0.7-0.2C92.8,194.3,91.9,194.5,91.7,194.5z M199.5,160.1c0,0.4-0.2-0.5-0.2-0.7
			C199.3,159.1,199.5,159.9,199.5,160.1z M59.3,89.3c0-0.4,0.2,0.5,0.2,0.7C59.5,90.3,59.3,89.4,59.3,89.3z M60.2,96.1
			c0-0.4,0.2,0.5,0.2,0.7C60.4,97.1,60.2,96.3,60.2,96.1z M64.8,143.6c0-0.4,0.2,0.5,0.2,0.7C64.9,144.6,64.8,143.8,64.8,143.6z
			 M66.6,178.2c0.1-0.4,0.2,0.5,0.2,0.7C66.7,179.2,66.6,178.4,66.6,178.2z M199.8,162.2c0,0.4-0.2-0.5-0.2-0.7
			C199.7,161.1,199.8,162,199.8,162.2z M196.1,125.5c0,0.4-0.2-0.5-0.2-0.7C195.9,124.5,196.1,125.3,196.1,125.5z M59.5,91.3
			c0-0.4,0.2,0.5,0.2,0.7C59.7,92.4,59.5,91.5,59.5,91.3z M60.3,97.5c0-0.4,0.2,0.5,0.2,0.7C60.5,98.5,60.3,97.7,60.3,97.5z
			 M60.5,99.5c0-0.4,0.2,0.5,0.2,0.7C60.7,100.6,60.5,99.7,60.5,99.5z M66.4,174c0.1,0.1,0.1,0.7,0,0.7
			C66.2,174.6,66.3,174,66.4,174z M66.7,183.7c0.1-0.4,0.2,0.5,0.1,0.7C66.8,184.8,66.7,183.9,66.7,183.7z M158.1,187.6
			c0.1-0.2,0.7-0.1,0.7-0.1C158.6,187.6,158.1,187.6,158.1,187.6z M64.5,143.6c0-0.4,0.2,0.5,0.2,0.7
			C64.7,144.7,64.5,143.8,64.5,143.6z M65.7,163.7c0.1,0,0.1,0.8,0.2,1.4C65.8,165,65.8,164.2,65.7,163.7z M193.3,183.9
			c-0.2,0-0.1-0.1,0.1-0.1c0.3-0.1,0.7-0.1,0.9-0.1c0.3,0,0.1,0.1-0.2,0.1C193.7,183.8,193.3,183.9,193.3,183.9z M64.2,140.9
			c0-0.4,0.2,0.5,0.2,0.7C64.4,141.9,64.2,141.1,64.2,140.9z M65.1,153.3c0-0.4,0.2,0.5,0.2,0.7C65.2,154.3,65,153.5,65.1,153.3z
			 M65.4,158.8c0-0.4,0.2,0.5,0.2,0.7C65.5,159.9,65.3,159,65.4,158.8z M65.4,160.2c0-0.4,0.2,0.5,0.2,0.7
			C65.6,161.3,65.4,160.4,65.4,160.2z M66.3,180.3c0.2-2.7,0,1.9-0.1,1.4C66.1,180.9,66.3,180.4,66.3,180.3z M66.8,194.8
			c0.1-0.6,0.2,0.7,0.1,1.1C66.8,196.5,66.7,195.1,66.8,194.8z M200.4,164.2c0,0.4-0.2-0.5-0.2-0.7
			C200.2,163.1,200.4,164,200.4,164.2z M65.8,169.9c0-0.4,0.2,0.5,0.2,0.7C65.9,170.9,65.8,170.1,65.8,169.9z M84.2,195.9
			c-0.4,0,0.5-0.2,0.7-0.2C85.3,195.8,84.4,195.9,84.2,195.9z M86.3,195.7c0.3-0.2,0.6-0.1,1.4-0.1
			C87.5,195.7,86.3,195.8,86.3,195.7z M91.1,195.2c-0.4,0,0.5-0.2,0.7-0.2C92.2,195,91.3,195.2,91.1,195.2z M97.3,194.5
			c-0.4,0,0.5-0.2,0.7-0.2C98.4,194.3,97.5,194.5,97.3,194.5z M150.5,188.8c-0.4,0,0.5-0.2,0.7-0.2
			C151.5,188.6,150.7,188.8,150.5,188.8z M100.1,194.2l1.4-0.1v0.2l-1.4,0.1V194.2z M107.7,193.5c0.1-0.2,0.7-0.1,0.7-0.1
			C108.3,193.6,107.7,193.6,107.7,193.5z M115.3,192.7c0.1-0.2,0.7-0.1,0.7-0.1C115.9,192.8,115.3,192.8,115.3,192.7z M197.4,132.4
			c0,0.4-0.2-0.5-0.2-0.7C197.3,131.3,197.4,132.2,197.4,132.4z M195.8,115.8c0,0.4-0.2-0.5-0.2-0.7
			C195.6,114.8,195.8,115.6,195.8,115.8z M200.8,164.2c0,0.4-0.2-0.5-0.2-0.7C200.6,163.1,200.8,164,200.8,164.2z M199.9,155.9
			c0,0.4-0.2-0.5-0.2-0.7C199.8,154.8,199.9,155.7,199.9,155.9z M96.7,194.9c0.1-0.2,0.7-0.1,0.7-0.1C97.3,195,96.7,195,96.7,194.9z
			 M128.4,191.5c-0.4,0,0.5-0.2,0.7-0.2C129.5,191.3,128.6,191.5,128.4,191.5z M136.7,190.6c-0.4,0,0.5-0.2,0.7-0.2
			C137.8,190.4,136.9,190.6,136.7,190.6z M152.6,188.9c0.1-0.2,0.7-0.1,0.7-0.1C153.2,189,152.6,189,152.6,188.9z M198.9,144.1
			c0,0.4-0.2-0.5-0.2-0.7C198.7,143.1,198.9,143.9,198.9,144.1z M99.5,194.8c0.3-0.2,0.6-0.1,1.4-0.1
			C100.7,194.8,99.5,194.9,99.5,194.8z M106.4,194c-0.4,0,0.5-0.2,0.7-0.2C107.4,193.9,106.6,194,106.4,194z M140.9,190.3
			c-0.4,0,0.5-0.2,0.7-0.2C141.9,190.1,141.1,190.3,140.9,190.3z M158.1,188.3c2.1-0.3,3.5,0.4,0.1,0.6
			C159.5,188.5,158.2,188.6,158.1,188.3z M130.5,191.5c-0.4,0,0.5-0.2,0.7-0.2C131.6,191.4,130.7,191.5,130.5,191.5z M134,191.2
			c0.3-0.2,0.7-0.1,0.7,0C134.4,191.4,134,191.3,134,191.2z M169.2,187.3c0.1-0.2,0.7-0.1,0.7-0.1
			C169.8,187.4,169.2,187.4,169.2,187.3z M193.4,184.6h0.2h0.4l0.9-0.1l1.8-0.1c1.1-0.1,2-0.1,1.8,0.1
			C196.5,184.6,192.6,185.1,193.4,184.6z M201.1,163.4c0,0.4-0.2-0.5-0.2-0.7C200.9,162.4,201.1,163.2,201.1,163.4z M200.3,157.2
			c-0.2-2.4,0.6,1.4,0.3-0.7c0.2,0.2,0.3,1.7,0.4,2.8C200.7,159.1,200.5,157.9,200.3,157.2z M199.9,152.4c0,0.4-0.2-0.5-0.2-0.7
			C199.8,151.3,200,152.2,199.9,152.4z M128.5,191.9c-0.4,0,0.5-0.2,0.7-0.2C129.5,191.7,128.7,191.9,128.5,191.9z M143.7,190.2
			c-0.4,0,0.5-0.2,0.7-0.2C144.7,190.1,143.9,190.2,143.7,190.2z M163.7,188.1C162.1,188.6,158.7,188.3,163.7,188.1L163.7,188.1z
			 M200.8,184c-0.1-0.1,1.4-0.2,2.3-0.4v-0.1c0,0,0,0.1,0.1,0.1C202.9,183.8,201.7,183.9,200.8,184z M200.2,153.7
			c0,0.4-0.2-0.5-0.2-0.7C200,152.7,200.2,153.5,200.2,153.7z M199.9,150.3C199.3,148.2,200.4,152.1,199.9,150.3L199.9,150.3z
			 M199.7,148.9c0,0.4-0.2-0.5-0.2-0.7C199.6,147.9,199.7,148.7,199.7,148.9z M176.8,186.8c-0.4,0,0.5-0.2,0.7-0.2
			C177.9,186.6,177,186.8,176.8,186.8z M199.6,146.1c-0.1,1,0,0.1-0.1-0.7C199.8,145.3,199.8,146.3,199.6,146.1z M167.2,187.9
			C169.5,187.4,165.6,188.5,167.2,187.9L167.2,187.9z M174.1,187.2c0.2-0.2,1.4-0.3,1.4-0.1C174.9,187.2,174.2,187.3,174.1,187.2z
			 M188.6,185.6c1.5-0.6-0.3,0.4-0.7,0.3C187.3,185.9,188.5,185.7,188.6,185.6z M190,185.5c0.1-0.2,0.7-0.1,0.7-0.1
			C190.5,185.6,190,185.5,190,185.5z M168.6,187.9c0.4-0.3,3.5-0.4,2.8-0.1C169.1,188.3,170.8,187.5,168.6,187.9z M184.5,186.3
			c-0.2-0.2,0.6-0.3,0.7-0.2C187.7,186,186.8,186.3,184.5,186.3z M200.4,152.3c-0.1,0-0.2-0.8-0.3-1.4
			C200.3,151,200.4,151.8,200.4,152.3z M160.3,188.9c-0.4,0,0.5-0.2,0.7-0.2C161.3,188.8,160.5,188.9,160.3,188.9z M172.1,187.8
			c-0.4,0,0.5-0.2,0.7-0.2C173.1,187.6,172.2,187.8,172.1,187.8z M181,186.8c-0.4,0,0.5-0.2,0.7-0.2
			C182.1,186.6,181.2,186.8,181,186.8z"/>
	</g>
	<g>
		<path class="st0" d="M115.7,130.3C115.7,130.3,115.7,130.3,115.7,130.3C115.7,130.3,115.7,130.3,115.7,130.3z"/>
		<path class="st0" d="M95.3,149.5l0.1-0.1C95.4,149.4,95.3,149.4,95.3,149.5z"/>
		<path class="st0" d="M134.4,146.1c-0.2-1.5-0.5-3-0.9-4.4c-1.7-5.8-5.3-10.9-9.7-14.6c-4.4-3.8-9.9-6.2-15.3-6.7
			c-0.1,0.2-1.1,0.1-2,0c-0.5,0-0.9,0-1.2,0c-0.3,0.1-0.4,0.1-0.2,0.3c-0.8,0.1-0.4,0.1,0.1,0.2c0.5,0,1.3,0.1,1,0.3
			c0.8,0,1,0.3,1.2,0.5c-0.9,0-1.8,0-2.7,0.1c-0.3,0-0.6,0.1-0.9,0.1c0.1-0.1,0.1-0.2,0.5-0.3c0.7-0.3,0.2-0.4-0.4-0.5
			c-0.6-0.1-1.4-0.2-1.2-0.6c-0.5-0.1-2.1,0.3-1.7-0.2c-1.1,0.3-1.5,0.3-1.8,0.3c-0.4,0-0.7-0.1-1.6,0.3c-3.2,1.2-6.5,3.1-8.5,5.1
			c-1.7,1-3,2.3-4.3,3.8c-1.3,1.5-2.6,3.3-4.1,5.6c-0.9,1.9-1.6,3.4-2.1,5.1c-0.5,1.6-1,3.3-1.3,5.4c0.1,1.1,0.1,2.4,0.1,3.9
			c0,0.7,0.1,1.5,0.2,2.2c0.1,0.7,0.2,1.5,0.4,2.2c0.7,2.8,2.2,5.5,3.5,8c1.3,1.8,2.7,3.3,4.3,4.7c1.6,1.4,3.3,2.7,5.4,4.2
			c2.1,0.9,3.8,1.6,6.2,2.8c1,0.3,2.5,0.7,4,1c1.5,0.3,2.8,0.5,3.6,0.8c1.7,0.4,1.2-0.2,2.8,0.1c0.2-0.3,1.4,0.4,1.7-0.2
			c0.6,0.2,0.9,0.3,1.3,0.3c0.4,0,0.9,0,2-0.1c1.6-0.4,3.1-0.7,4.7-1.2s3.4-1.2,5.1-2.5c2.2-1.4,4.3-3.3,6-5.5c1.7-2.2,3-4.8,4-7.5
			c1-2.7,1.6-5.6,1.8-8.6C134.5,149,134.5,147.6,134.4,146.1z M94.1,150.5h-0.2h-0.1h-0.2c0,0-0.1,0-0.2,0c-0.2,0-0.4,0-0.6-0.1
			c-0.3-0.1-0.7-0.3-1-0.6c-0.2-0.2-0.4-0.4-0.6-0.6c-0.2-0.3-0.4-0.5-0.5-0.8c-0.2-0.3-0.2-0.5-0.3-0.7c-0.1-0.2-0.1-0.4-0.2-0.6
			c-0.1-0.4-0.2-0.9-0.3-1.3c-0.3-1.8-0.4-3.5-0.1-5.4c0.1-0.3,0.1-0.5,0.2-0.8c0.1-0.4,0.3-0.8,0.5-1.1s0.4-0.5,0.8-0.7
			c0.3-0.2,0.8-0.3,1.2-0.2c0.1,0,0.2,0.1,0.3,0.1c0.1,0,0.2,0.1,0.3,0.1c0.2,0.1,0.4,0.2,0.5,0.3c0.1,0.1,0.1,0.1,0.2,0.2l0.1,0.1
			c0,0,0.1,0.1,0.1,0.2c1.1,0.4,2.4,1.6,3.2,2.3c0.6,0,0.6,0.2,1.1,0.3c0.9,0.7,1.7,1.3,2.6,1.8c0.3,0.1,0.5,0.3,0.7,0.4
			c0.2,0,0.3,0.1,0.4,0.1c0.1,0.1,0.2,0.1,0.3,0.1c0.1,0,0.2,0,0.2-0.1c0-0.4,0-0.6,0-0.8c-0.1-0.5-0.2-1-0.6-1.6
			c-0.2-0.8-0.1-1.1-0.6-1.6c-0.1-0.1-0.2-0.3-0.3-0.4c-0.1-0.1-0.1-0.2,0-0.3c-0.3-1.2-0.5-1.8,0-2.2c0-0.3,0.1-0.6,0.3-0.9
			c0.1-0.1,0.2-0.3,0.3-0.4c0.3-0.2,0.4-0.2,0.5-0.3c0.5-0.3,1-0.2,1,0c0.1,0.3-0.1,0.3-0.5,0.4c-0.1,0-0.2,0.1-0.3,0.1
			c-0.1,0.1-0.2,0.1-0.3,0.2c-0.1,0.2-0.2,0.4-0.3,0.5c0.1,0.1,0,0.4,0,0.7c-0.1,0.3,0,0.6,0.1,0.8c0.1,0.7,0.6,1.3,0.5,1.7
			c0.6,0.5,0.8,1.3,1,2.1c-0.3-1.5-0.9-2.6-0.9-2.6c-1.2-2.1-0.1-2.9-0.1-2.9s0.4-0.2,0.8-0.2h0.2c0,0.1,0.2,0.1,0.4,0.2
			c0.1,0,0.2,0.1,0.3,0c0.1,0-0.1-0.3-0.4-0.4c-0.1-0.1-0.2-0.1-0.2-0.1s0-0.1,0.3,0c0-0.2,0-0.2,0.2-0.2c0.1,0,0.3,0.2,0.5,0.3
			c0.3,0.3,0.5,0.7,0.5,0.8c0.6,0.7,0.6,1.2,0.8,1.7c0.6,0.9,1,2.1,1,3.3c0.1,1.2,0.1,2.5-0.1,3.6c-0.2,1.3-0.1,1.9-0.6,2.8
			c0,0.2,0,0.4-0.1,0.7c-0.1,0.3-0.2,0.6-0.4,0.9c-0.2,0.2-0.5,0.5-1,0.6c-0.5,0.1-0.9,0.1-1.3-0.1h-0.1c-0.5-0.3-1-0.5-1.5-0.8
			l-1.5-0.7c-0.9-0.8-1.6-1.2-2.3-1.6c-0.3-0.2-0.6-0.4-0.9-0.6c-0.1-0.1-0.3-0.3-0.4-0.4l-0.2-0.2c0-0.1-0.1-0.1-0.1-0.2
			c-0.4,0-0.5,0-0.6,0.1c0,0-0.1,0-0.1,0.1c0,0.1,0.1,0.2,0.1,0.3l0.1,0.3v0.2c0.1,0.2,0.1,0.3,0.1,0.4c0.1,0.3,0.1,0.5,0.1,0.8
			c0,0.2,0,0.6-0.1,0.9c-0.1,0.1-0.1,0.3-0.2,0.5c0,0.1,0,0.2-0.1,0.3l-0.1,0.1l-0.1,0.2c0,0.1-0.1,0.1-0.1,0.2
			c-0.1,0.1-0.2,0.2-0.3,0.3c-0.2,0.2-0.5,0.3-0.7,0.4H94.1z M103.5,166.6v0.3v0.7c-1.1,0.1-1.5,0.1-1.8,0c-0.2,0.1-0.3,0.1-0.4,0.1
			c-0.2,0.1-0.4,0.1-0.6,0.1l-0.2-0.4l-0.2-0.3l-0.3-0.5l-0.5-1c-0.4-0.3-0.3-0.4-0.6-0.7l-1.4-2.2c0,0-0.1,1,0.2,2.2
			c0,0.7,0,0.9,0.1,1.5c0,0.3,0.1,0.4,0,0.5v0.3v0.3v0.5c-0.5,0.1-0.7,0.1-1,0h-0.5h-0.4c-0.3,0-0.5,0-0.5-0.1
			c-0.2-0.2,0.7-0.1,1-0.2c0.1-0.1,0.6-0.1,0.9-0.2c0-0.1,0-0.1,0-0.2c-0.1-0.6-0.2-1.1-0.1-1.4c-0.1-0.2-0.1-0.5-0.2-0.8l0.2,2.4
			l-1.9,0.1v-0.4c0-0.1-0.1-0.2-0.1-0.2c-0.1-0.1,0,1-0.1,0.4c-0.2,0.2-0.1-0.9-0.1-1c0-0.6,0-1,0-1.4c-0.2-1.7-0.2-3.7-0.3-5.5
			c0-0.5-0.1-0.8-0.1-1.2c0.2-0.1,0.4-0.1,0.6-0.1c0.2,0,0.4,0,0.6,0l0.6-0.1l0.3-0.1l0.5-0.1l2.5,3.3l0.9,1.5
			c-0.2-0.5-0.4-1-0.5-1.5c-0.1-0.5-0.2-1-0.2-1.5l-0.2-2.2l2,0.1l1.2-0.1l0.2,2.6l0.1,2.1c0.1,1.4,0.2,2.7,0.3,4.2V166.6z
			 M110.1,163.3l-2,0.1l-1.4,0.1l0.1,1.9c0,0.2,0,0.5,0,0.8c0,0.2,0.1,0.7,0,0.8c-0.1,0.1-0.4,0.1-0.6,0.1c-0.1,0-0.3,0-0.5,0h-1.1
			h-0.1c-0.1-0.2,0-0.4-0.1-0.6c0-1.2-0.1-2.1-0.3-3.3c-0.2-1.2-0.1-1.5-0.3-2.3c-0.1-0.5,0-0.6-0.1-1c0-0.2-0.1-0.2,0-0.3
			c0-0.5-0.1-0.6,0-0.8c0-0.3-0.1-0.9,0-0.9c0.1-0.1,0.1,0.5,0.1,0.7c0,0.1,0,0.5,0.1,0.7c0,0.3,0,0.7,0,0.9
			c0.1,0.4,0.1,0.8,0.2,1.3l-0.3-3.6h0.2c0-0.1,0.1-0.1,0.1-0.1c0.1-0.1-0.6,0-0.2-0.1c-0.1-0.1,0.6-0.1,0.7-0.1c0.4,0,0.6,0,0.9,0
			c1.1-0.1,2.4-0.1,3.6-0.2h0.4c0.1,0.4,0.1,0.7,0.1,1.1c0,0.2,0.1,0.4,0.1,0.7l-2.9,0.4h-0.4l0.1,0.8c0,0.2,0,0.3,0,0.5v0.2v0.1
			l0.2-0.1l0.4-0.1l0.8-0.1l0.9,0.2l1.2-0.1l0.1,1.6V163.3z M110.6,152.4c-0.8,0-1.4-0.2-1.5-0.8c-0.2-0.2-0.4-0.5-0.4-0.9
			c0-0.1,0-0.3,0-0.5c0-0.1,0.1-0.2,0.1-0.3l0.1-0.2l0.6-1.6c-0.1-0.5-0.1-0.9-0.1-1.4c0.1-1.2,0.4-2.1,0.3-3.5c0,0.1,0.2,0,0.1-0.1
			c-0.2-0.3-0.2-1.2-0.3-1.8c-0.1-0.8-0.5-2.2-1.1-3.4c-0.2-0.6-0.5-1.4-0.9-2.1c0-0.2-0.1-0.4-0.2-0.6c-0.1-0.3-0.2-0.6-0.2-0.9
			c0-0.7,0.3-1.3,0.8-1.7c0.5-0.4,1.1-0.5,1.7-0.4c0.6,0.1,1,0.5,1.2,1c-0.1,0.2-0.3,0.1-0.4,0c0.1,0.1,0.1,0.1,0.2,0.2
			c0.8,1.3,1.3,2.6,1.8,4c0.1,0.2,0.3,0.4,0.4,0.7c0.1,0.3,0.2,0.6,0.3,0.9c0.5,1.2,1,3.4,0.7,5.1c0,0.3,0.2,0.5,0.2,0.8
			c-0.3,1.6-0.6,2.8-0.9,4c-0.2,0.6-0.4,1.2-0.6,1.8l-0.2,0.5c-0.1,0.2-0.2,0.4-0.4,0.6C111.5,152.1,111.1,152.3,110.6,152.4z
			 M118.9,165.2c-0.1,0.2-0.2-0.4-0.3-0.6c-0.1-0.1-0.2-0.4-0.3-0.6c0-0.1-0.1-0.2-0.1-0.3c-0.2,0.1-0.5,0.2-0.6,0.2
			c-0.4,0.2-0.8,0.3-1.3,0.3c0.1,0,0.1,0,0.2,0c0.6,0,1.3-0.2,1.7-0.4l0.4,1.6c-0.1,0-0.1,0.1-0.2,0.1l-0.1,0.1c0,0.1,0.1,0.1,0.2,0
			c0,0,0,0,0,0c0.2-0.1,0.1,0,0,0c0.2,0.1-0.5,0.3-0.6,0.3c-0.4,0.2-0.6,0.2-0.9,0.2c-1.1,0.2-2.5,0.1-3.6-0.5
			c-0.6-0.3-0.9-0.5-1.2-0.9c-0.3-0.2-0.6-0.7-0.9-1.3c-0.3-0.6-0.4-1.3-0.5-1.9c0-0.6,0.1-1.1,0.2-1.5c0.1-0.4,0.2-0.8,0.5-1.2
			c0.6-1.4,2-2.4,4.1-2.6c0.8,0,1.4,0,2.2,0.2c0.8,0,0.4,0.9,0.4,1.1l-0.2,1.3l-0.4-0.1l-0.2-0.1h-0.2c-0.1-0.1-0.3-0.1-0.4-0.1
			c-0.3,0-0.6,0-0.9,0c-0.2,0-0.5,0-0.7,0.1c-0.3,0.1-0.5,0.2-0.6,0.2c-0.2,0.2-0.5,0.4-0.7,0.7c-0.2,0.2-0.3,0.6-0.4,0.8
			c0,0.2,0,0.2,0,0.5c0,0.6,0,1.1,0.2,1.6s0.5,0.9,1,1.2c0.4,0.3,0.8,0.4,1.1,0.4c0.3,0,0.5,0,0.9-0.1c0.5,0,0.6,0,1-0.2
			c0.3-0.1,0.5-0.4,0.6-0.3h0.1l0.2,0.9c0,0.1,0,0.2,0.1,0C118.8,164.6,119,165.1,118.9,165.2z M119.3,149.8
			c-0.2,0.8-0.4,1.5-0.6,2.3c-0.1,0.4-0.3,0.8-0.4,1.2l-0.1,0.2c0,0.1-0.1,0.1-0.1,0.2c-0.1,0.2-0.2,0.3-0.3,0.4
			c-0.2,0.3-0.5,0.5-0.8,0.6c-0.5,0.1-0.9,0.1-1.3,0c-0.4-0.1-0.7-0.3-0.8-0.7c-0.4-0.3-0.6-0.7-0.6-1.2c0-0.2,0-0.5,0.1-0.7
			l0.2-0.5c0.3-0.6,0.5-1.3,0.8-1.9c-0.1-0.6-0.1-1.1-0.1-1.7c0.1-1.4,0.5-2.5,0.4-4.3c0,0,0.2-0.1,0.1-0.2
			c-0.3-0.3-0.3-1.5-0.4-2.2c-0.1-1-0.6-2.8-1.2-4.3c-0.1-0.9-0.4-1.8-0.9-2.7c-0.2-0.4-0.4-0.9-0.6-1.4l-0.2-0.4
			c-0.1-0.2-0.2-0.4-0.2-0.6c0-0.4,0-0.8,0.2-1.2c0.1-0.4,0.4-0.7,0.7-0.9c0.2-0.1,0.4-0.2,0.6-0.3c0.2-0.1,0.4-0.1,0.6-0.1
			c0.7,0,1.4,0.4,1.7,1c-0.1,0.1-0.2,0.1-0.3,0c0,0,0,0,0.1,0.1c0.9,1.6,1.6,3.2,2.2,4.9c0.2,0.2,0.3,0.5,0.5,0.8
			c0.2,0.4,0.2,0.7,0.4,1.1c0.3,0.7,0.7,1.8,0.9,2.9c0.2,1.1,0.3,2.3,0.1,3.5c0,0.5,0.2,0.7,0.2,1.2
			C120,146.8,119.7,148.3,119.3,149.8z"/>
	</g>
	<g>
		<path class="st1" d="M61.7,23.4c2.1-2,17-1.9,23.8-3.1l26-0.7c4.6-0.3,4.1,0.5,4.4,1.2c2.1-0.8,6.8-1.4,10.8-0.7
			c5.8-0.1,12.4-0.5,15.2,0c2.9-0.6,8.1-0.7,13.8-0.8l8.6-0.1l4-0.1L170,19h0.8h0.4c0.1,0.1,0.1,0.2,0.1,0.3l0.5,2.9l0.6,3.5
			l1.1,7.3c0.7,5,1.4,10.2,2.1,15.6c1.4,10.7,2.7,22,3.8,33.1c0.5,5.6,1,11.1,1.4,16.6c0.1,1.4,0.1,2.7,0.2,4.1c0,0.7,0,1.4,0,2.1
			c0,0.4,0,0.7-0.1,1.1c0,0.1,0,0.2-0.1,0.3c0,0.1-0.1,0.4-0.2,0.4c-0.3,0.4-0.5,0.4-0.7,0.6c-1.4,0.5-2.7,0.6-4,0.8
			c-1.3,0.2-2.6,0.3-3.9,0.4c-10.2,0.9-19.6,1.4-27.6,1.9c-6.7-0.2-10.6,0.5-17.4-0.2c-6.3,0.1-6.6,1.1-13,1.2
			c-5.9-0.1-17.2,0.9-19.5-0.1c-4.9,0.4-12.3,1-20.2,1c-0.5,0-1,0-1.6-0.1c-1.1-0.2-1.4-0.7-1.6-1c-0.3-0.3-0.4-0.6-0.6-0.9
			c-0.6-1.1-0.8-2-1.1-3c-0.6-1.9-0.9-3.8-1.3-5.6c-0.6-3.6-1-6.9-1.2-9.7c-1.9-2.8-1-8-2.4-12.8c-0.7-6.5-1.4-13-2-19.4
			c-1.2-11.3-4.2-25.1-3.8-36.7c0.5-3.4,2.6,1.5,2.9,10.7c1,4.5,1.4,14.3,2.4,19.4c2.3,14,2.8,26.5,5.4,38.6
			c0.4,3.2,0.9,6.4,1.6,9.7c0.3,1.6,0.7,3.3,1.2,4.8c0.2,0.8,0.5,1.6,0.8,2.3c0.2,0.3,0.3,0.7,0.5,0.9l0.1,0.1l0,0l-0.1,0.1
			c-0.1,0.1-0.2,0.2-0.2,0.3c0,0.1-0.1,0.1-0.1,0.2l0,0c-0.1,0.7,0.1-1,0.1-0.8l0,0l0,0h0.1h0.2c3.3,0.1,6.9,0,10.3-0.1l10.6-0.3
			c13-0.4,26.3-1,41.1-1.4c6.2,0.3,16.9-0.6,21.7-0.1c3.1-1.3,8-0.8,12.9-1.3c1.4-0.1,2.9-0.3,4.4-0.6c0.8-0.1,1.6-0.3,2.4-0.4
			c0.4-0.1,0.8-0.2,1.2-0.3c0.2,0,0.4-0.1,0.5-0.1s0.1,0,0.1-0.1c0,0,0-0.1,0,0.1l0.2,0.5c0.1,0.2,0.2,0.3,0.3,0.5
			c0.1,0.1,0.1,0.2,0.2,0.3c0.5,0.7-0.1-0.2-0.8-0.2c-1.2-0.3-0.7-0.2-0.8-0.3c0-0.1,0-0.3,0-0.5c0-0.4,0-0.9,0-1.4l-0.1-3.2
			c-0.1-2.3-0.1-4.8-0.1-7.7c-1.9-18.8-4.8-36.4-5.7-51.6c-0.8-3-1.4-6-1.9-9.1c-0.3-1.5-0.5-3.1-0.7-4.7l-0.6-4.1l-0.1-0.6
			c0-0.1-0.1-0.1-0.2-0.1h-0.3l-4.3,0.1c-4,0.1-8.4,0.2-13.3,0.4c-14.3,0-30,0.5-49.8,0C88.1,23.1,70.3,25.6,61.7,23.4z"/>
	</g>
	<g>
		<path class="st1" d="M176.3,12.4c-0.2-0.4-0.4-0.9-0.7-1.1c-0.2-0.5-0.6-0.7-1.3-1.1c-0.5-0.2-0.9-0.3-1.4-0.4
			c-0.3,0.1-0.7,0.1-1.1,0.1c-0.4,0.1-0.7,0.3-1.1,0.4c-0.5,0.3-0.8,0.7-1.2,1.2c-0.1,0.3-0.2,0.5-0.3,0.8s-0.1,0.8-0.2,1
			c-0.1,0.2,0.1,0.2,0.1,0.4c0.1,0-0.1,0.2,0.1,0.2c-0.1,0.2-0.1,0.2,0,0.4c0.2,0.4,0.2,0.7,0.6,1.2c0.7,1.1,2.2,1.9,3.7,1.5
			c1.5-0.3,2.6-1.7,2.8-3.1c-0.1,0,0.1-0.5-0.1-0.4c0-0.2,0,0.2-0.1,0.1c0,0.1-0.1,0.1-0.1,0.2c0-0.1,0-0.2,0-0.3v-0.1
			c0,0,0.1,0,0.1,0.1c0.1,0.2,0.1-0.3,0.3-0.2c0-0.1,0-0.3,0.1-0.2C176.2,12.6,176.4,12.7,176.3,12.4z"/>
		<path class="st1" d="M60.3,15.6c0,0.2-0.7-0.1-0.6,0.1c-0.3,0.1,0.3,0.1,0.2,0.2c0.2,0,0.2,0.1,0.2,0.2c-0.2,0-0.3,0-0.5,0h-0.1
			c0,0,0-0.1,0.1-0.1c0.2-0.2-0.3-0.2-0.3-0.4c-0.1-0.1-0.4,0-0.3-0.1c-0.4,0.1-0.3-0.1-0.6,0c-0.6,0.2-1.2,0.5-1.5,0.9
			c-0.7,0.3-1,0.8-1.6,1.6c-0.3,0.7-0.4,1.2-0.6,1.9c0.1,0.4,0.1,0.9,0.2,1.5c0.1,0.5,0.4,1,0.5,1.5c0.5,0.7,1,1.1,1.7,1.6
			c0.4,0.1,0.7,0.2,1.1,0.4c0.4,0.1,1.1,0.1,1.4,0.2c0.3,0.1,0.2-0.1,0.5-0.1c0-0.1,0.3,0.1,0.3-0.1c0.2,0.1,0.2,0.1,0.6,0
			c0.5-0.3,1-0.3,1.6-0.8c1.5-0.9,2.6-2.9,2.1-4.9C64.1,17.1,62.1,15.7,60.3,15.6z"/>
	</g>
	<g>
		<path class="st1" d="M141.1,144.9c0,0.1,0.2,0,0.5,0.1c0.6,0,0.8,0.1,1.5,0.1l1.5-0.3c0.5-0.1,1.1-0.3,1.8-0.9
			c0.7-0.7,1.1-1.5,1.2-2.3c0.1-0.8,0.1-1.6-0.3-2.4c-0.3-0.3-0.2-0.4-0.6-0.6c-0.4-0.7-1.7-1.4-2.4-1.5c-0.2-0.3-1.3-0.5-1.6-0.9
			c-0.8-0.5-0.8-1.7,0-2.1c0.4-0.2,0.9-0.3,1.4-0.3c0.3,0,0.5,0,0.8,0.1c0.1,0,0.4,0.1,0.6,0.2c0.3,0.1,0.6,0.3,0.8,0.4
			c0.1-0.2,0.1-0.4,0.2-0.7l0.2-0.9l0.2-0.9c0-0.1,0.1-0.2,0-0.2l-0.2-0.1l-0.4-0.2c-0.2-0.1-0.6-0.2-0.8-0.3
			c-0.2,0-0.3-0.1-0.5-0.1c-0.6-0.1-1.2-0.1-1.8,0c-1.1,0.2-2.2,0.7-2.8,1.6c-0.6,0.4-0.9,1-1,1.6s-0.1,1.3,0.2,2.3
			c0.5,0.9,1.4,1.4,2.2,1.7s1.6,0.4,2.2,0.5c0.6,0.4,1,0.4,1.4,1.2c0.2,0.7,0,1.6-0.6,2.1c-0.6,0.4-1.4,0.5-2.1,0.5l-1.1-0.2
			c-0.1-0.1-0.8-0.5-0.8-0.2c-0.5-0.1,0.4,0.2,0.2,0.3h-0.1c-0.1,0-0.2-0.1-0.3-0.1v0.1c0,0-0.1,0-0.1,0.1l0,0l-0.3,1.1
			c0.7,0.4,1.9,0.6,3.1,0.5c0.2,0,0.3-0.1,0.5-0.1h-0.1c-0.6,0.2-1.3,0.1-1.8,0.1c-0.2-0.1-0.7-0.2-1.2-0.4c-0.2,0-0.4-0.1-0.6-0.2
			c0-0.2,0-0.4,0-0.5c0-0.5,0.4-1,0.1-1c-0.1,0-0.2,0.2-0.3,0.4l-0.2,1.1c-0.2,0.3,0,0.3,0.2,0.5c0.1,0.1,0.3,0.1,0.5,0.2
			C140.7,144.8,141,144.8,141.1,144.9z"/>
		<path class="st1" d="M151.3,142.4l-0.1-1.2l-0.1-2.4c0.1-1.2,0-2.1,0-3.2v-0.1v-0.1l0,0l0,0v0.1c1.2,2.8,2.6,5.8,3.5,7.7l0.1,0.3
			c0.5,0,0.8,0,1.3-0.1c0.2-0.8,0.3-1.3,0.6-2.4l1.4-4.6c0.2-0.8,0.4-1.6,0.6-2.3l0.1-0.4v-0.1l0,0l0,0v0.1c0,0.6,0.1,1.2,0.2,2.1
			c0,0.2,0.1,2,0.3,1.8c0.2,1.1-0.1-0.9,0-0.6c0,0,0,0.1,0.1,0.2c0,0.2,0.1,0.5,0.1,0.8l0.6,5.3l0,0l-0.2-1.7
			c-0.1-0.5-0.2-1.5-0.3-1.7c-0.1-0.6-0.2-2-0.3-1.7c-0.1,0.1,0.1,1.5,0.2,2.4c-0.1,0.4,0,0.8,0.2,2.1c0,0.1,0,0.1,0,0.3l0.2,0.9
			h0.2l1.1-0.1l1.1-0.1L162,142c-0.4-2.1-0.5-3-1-6.1l-0.4-2.3l-0.4-2.3l-2.3,0.2l-0.7,2.5c-0.1,0.7-0.2,0.8-0.3,1.4
			c-0.4,1.3-1.2,3.6-1.4,5.1v0.1c0,0,0,0.1-0.1,0.2l0,0l0,0l0,0l0,0l-0.5-1.6c-0.5-1.3-1-2.4-1.5-3.6l-1.6-3.7l-2.6,0.2v6.3l0.1,6.5
			l2.3-0.2L151.3,142.4z"/>
		<path class="st1" d="M162.9,142.7c0.1,0.1,0.3,0.1,0.5,0.2c0.2,0.1,0.4,0.2,0.6,0.2c0,0.1,0.2,0,0.5,0.1c0.6,0,0.8,0.1,1.5,0.1
			l1.5-0.3c0.5-0.1,1.1-0.3,1.8-0.9c0.7-0.7,1.1-1.5,1.2-2.3c0.1-0.8,0.1-1.6-0.3-2.4c-0.3-0.3-0.2-0.4-0.6-0.6
			c-0.4-0.7-1.7-1.4-2.4-1.5c-0.2-0.3-1.3-0.5-1.6-0.9c-0.8-0.5-0.8-1.7,0-2.1c0.4-0.2,0.9-0.3,1.4-0.3c0.3,0,0.5,0,0.8,0.1
			c0.1,0,0.4,0.1,0.6,0.2c0.3,0.1,0.6,0.3,0.8,0.4c0.1-0.2,0.1-0.4,0.2-0.7l0.2-0.9l0.2-0.9c0.1-0.2-0.1-0.2-0.2-0.3l-0.4-0.2
			c-0.2-0.1-0.6-0.2-0.8-0.3c-0.2,0-0.3-0.1-0.5-0.1c-0.6-0.1-1.2-0.1-1.8,0c-1.1,0.2-2.2,0.7-2.8,1.6c-0.6,0.4-0.9,1-1,1.6
			s-0.1,1.3,0.2,2.3c0.5,0.9,1.4,1.4,2.2,1.7s1.6,0.4,2.2,0.5c0.6,0.4,1,0.4,1.4,1.2c0.3,0.7,0,1.6-0.6,2.1
			c-0.6,0.4-1.4,0.5-2.1,0.5l-1.1-0.2c-0.1-0.1-0.8-0.5-0.8-0.2c-0.5-0.1,0.4,0.2,0.2,0.3h-0.1c-0.1,0-0.2-0.1-0.3-0.1v0.1
			c0,0-0.1,0-0.1,0.1l0,0l-0.3,1.1c0.7,0.4,1.9,0.6,3.1,0.5c0.2,0,0.3,0,0.5-0.1h-0.1c-0.6,0.2-1.3,0.1-1.8,0.1
			c-0.2-0.1-0.7-0.2-1.2-0.4c-0.2,0-0.4-0.1-0.6-0.2c0-0.2,0.1-0.4,0-0.5c0.1-0.5,0.4-1,0.1-1c-0.1,0-0.2,0.2-0.3,0.4l-0.2,1.1
			C162.4,142.5,162.7,142.6,162.9,142.7z"/>
		<path class="st1" d="M148.7,150.8c-0.1-0.4,0,0.4-0.1,0.3l-0.1-0.1v-0.2l-4,0.3c0,0,0,0,0.1,0c0.5-0.1,1-0.1,1.5-0.2
			c0.2,0.1,0.6,0,1,0c0.2-0.1,0.6-0.1,0.7-0.2c0.2-0.1,0.9,0,0.7-0.2c0-0.2-0.6-0.1-1,0c-0.2-0.2-0.3,0-0.9-0.1
			c-0.1-0.1-0.2,0-0.4,0c-0.4,0.1-0.6,0-1.1,0.1c-0.9,0.2-1.2,0.2-2.6,0.3l-0.7,0.1l-1,0.1c0.1,0.7,0.1,1.2,0.2,1.9
			c0.5,0,1-0.1,1.3-0.1c0.3-0.1,0.3,0,0.6-0.2c0.6,0,1.6,0.1,2.2-0.1c0.1,0.1,0.4,0.1,0.7,0.1c0.1,0,0.3,0,0.3,0l0,0l-0.1,0.2
			l-0.2,0.6l-0.6,1.5c-0.4,1-0.8,1.9-1.2,2.9s-0.7,1.8-1,2.6c-0.1,0.4-0.3,0.7-0.4,1.1c-0.2,0.5-0.4,1.2-0.5,1.6h0.2
			c0.3,0,0.7,0,1.1,0l1.1-0.1c0.3-0.7,0.4-1,0.6-1.6c0.4-1.3,0.8-2.7,1-3.7c0.3-0.5,0.3-0.8,0.6-1.5c0.5-1.2,1.2-2.5,1.5-3.6
			c0.1-0.3,0.2-0.4,0.4-0.8v-0.2C148.8,151.4,148.9,150.6,148.7,150.8z"/>
		<path class="st1" d="M158.4,154c0.1-0.1,0-0.1-0.1-0.3c-0.2-0.3-0.1-0.5-0.3-0.9c-0.4-0.6-0.4-1-1.2-1.9c-0.9-0.8-1.8-1.1-2.9-1.1
			c-0.2,0.1-0.3,0-0.5,0.2c-0.5,0-1.4,0.3-1.7,0.7c-0.3,0-0.7,0.6-1,1c-1,1.7-1,3.5-0.9,5.3c0.2,1.8,0.7,3,1.7,3.9
			c0.5,0.7,1,1,2.1,1.4c1.2,0.1,2.5-0.5,2.9-1.1c0.4-0.3,0.5-0.5,0.8-1c0.6-0.9,0.8-2.1,0.8-3.1c0-0.2,0.1-0.5,0.1-0.8
			c0-0.1,0.1-0.7-0.1-0.6c-0.1-0.4,0,0.3-0.1,0.2l-0.1-0.1c0-0.1,0-0.1,0-0.2c-0.1-1.2-0.4-2.3-0.7-3.1c0,0,0,0,0.1,0.1
			c0.2,0.4,0.3,0.8,0.5,1.1c0,0.2,0.1,0.5,0.1,0.8c0.1,0.2,0.1,0.5,0.2,0.6c0.1,0.2,0,0.7,0.2,0.6c0.1,0,0-0.5,0-0.8
			C158.5,154.5,158.4,154.4,158.4,154z M151.9,156.2c-0.1-0.9,0-1.6,0.1-2.3c0,0.3-0.1,0.6,0,0.8c-0.1,0.1,0,0.4,0,0.6
			c0,0.1,0,0.4,0.1,0.4c0,0.1,0,0.5,0.1,0.4c0.1,0,0-0.4,0-0.6c0.1-0.1,0-0.2,0.1-0.5c0.1,0,0-0.1,0-0.2c-0.1-0.2,0-0.3,0-0.6
			c0-0.5,0-0.7,0.2-1.4s0.5-1.3,1.2-1.4c0.1-0.1,0.2,0,0.3-0.1c0.3,0,0.8,0.3,1.1,0.4c0,0.2,0.4,0.5,0.4,0.7
			c0.5,1.1,0.7,2.3,0.7,3.6c0.1,1.2,0,2.1-0.1,2.9c-0.3,0.5-0.3,0.9-0.9,1.2c-0.3,0.2-0.6,0.3-1,0.3s-0.7-0.2-0.9-0.3
			c-0.2-0.3-0.4-0.4-0.6-0.7c-0.3-0.7-0.5-1.5-0.6-2.2c0-0.2,0-0.3,0-0.6c0-0.1,0-0.5-0.1-0.4C151.9,155.9,152,156.4,151.9,156.2
			C151.9,156.3,151.9,156.3,151.9,156.2C151.9,156.3,151.9,156.2,151.9,156.2z"/>
		<path class="st1" d="M176.4,149.1c-0.1-0.4,0,0.4-0.1,0.3l-0.1-0.1v-0.2l-4,0.3l0,0c0.5-0.1,1-0.1,1.5-0.2c0.2,0.1,0.6,0,1,0
			c0.2-0.1,0.6-0.1,0.7-0.2c0.3-0.1,0.9,0,0.7-0.2c0-0.2-0.6-0.1-1,0c-0.2-0.2-0.3,0-0.9-0.1c-0.1-0.1-0.2,0-0.4,0
			c-0.4,0.1-0.6,0-1.1,0.1c-0.9,0.2-1.2,0.2-2.6,0.3l-0.7,0.1l-1,0.1c0.1,0.7,0.1,1.2,0.2,1.9c0.5,0,1-0.1,1.3-0.1
			c0.3-0.1,0.3,0,0.6-0.2c0.6,0,1.6,0.1,2.2-0.1c0.1,0.1,0.4,0.1,0.7,0.1c0.1,0,0.3,0,0.3,0l0,0l-0.1,0.2l-0.2,0.6l-0.6,1.5
			c-0.4,1-0.8,1.9-1.2,2.9s-0.7,1.8-1,2.6c-0.1,0.4-0.3,0.7-0.4,1.1c-0.2,0.5-0.4,1.2-0.5,1.6h0.2c0.3,0,0.7,0,1.1,0l1.1-0.1
			c0.3-0.7,0.4-1,0.6-1.6c0.4-1.3,0.8-2.7,1-3.7c0.3-0.5,0.3-0.8,0.6-1.5c0.5-1.2,1.2-2.5,1.5-3.6c0.1-0.3,0.2-0.4,0.4-0.8v-0.2
			C176.5,149.7,176.6,149,176.4,149.1z"/>
		<path class="st1" d="M167.9,153.4c0.2-0.3-0.2-1.2-0.3-1.7c-0.5-1.2-1.5-2.2-2.8-2.5c-1.2-0.3-2.6,0-3.7,0.7
			c-1.1,0.8-1.5,1.9-1.7,2.8c-0.1,1,0,1.9,0.5,2.6c0.1,0.6,0.4,1,0.8,1.3c0.4,0.3,0.9,0.7,1.7,0.9c0.8,0.1,1.6,0,2.3-0.4
			c0.3-0.2,0.4-0.3,0.7-0.5c0.2-0.2,0.4-0.4,0.6-0.7l0.1-0.1v0.1c0,0.1,0,0.2,0,0.3c0,0.2,0,0.4-0.1,0.7c-0.2,0.6-0.6,1.2-1.1,1.6
			c-0.5,0.5-1,0.8-1.6,1l-1,0.2c-0.1,0-0.8-0.1-0.7,0.1c-0.4,0.1,0.4,0,0.3,0.1c0,0,0,0.1-0.1,0.1s-0.2,0-0.3,0l0.1,1.3
			c0.4,0,0.9-0.1,1.4-0.2c0.5-0.1,1-0.3,1.5-0.5l-0.1,0.1c-0.5,0.3-1,0.4-1.4,0.6c-0.2-0.1-0.6,0.1-1.1,0.1c-0.1,0-0.4,0.2-0.4-0.1
			c0-0.2-0.1-0.3-0.1-0.4c-0.1-0.4,0-0.9-0.2-0.8c-0.2,0.1-0.1,0.5,0,1.3c0,0.1-0.1,0.2-0.1,0.3v0.2h0.1l1.1-0.1
			c0.1,0.1,0.2,0,0.4-0.1c0.4-0.2,0.6-0.1,1.2-0.3c0.9-0.5,1.3-0.6,2.4-1.6c0.9-1.2,1.3-2.3,1.6-3.7c0-0.3,0.1-0.4,0-0.7
			C168,155.1,168.1,154,167.9,153.4z M161.5,153.7c0-0.6,0-1.1,0.2-1.5c-0.1,0.2-0.1,0.4-0.1,0.5c-0.1,0.1-0.1,0.2-0.1,0.4
			c0,0.1,0,0.2,0,0.3S161.5,153.7,161.5,153.7c0.2,0,0.1-0.2,0.1-0.4c0.1-0.1,0-0.1,0.1-0.3v-0.1c0-0.2,0-0.2,0.1-0.4
			c0-0.3,0.1-0.5,0.4-0.9c0.3-0.4,0.6-0.7,1.1-0.7c0.1,0,0.1,0,0.2-0.1c0.2,0,0.6,0.1,0.8,0.1c0.1,0.1,0.4,0.2,0.5,0.4
			c0.6,0.6,0.9,1.3,1,2.1c0.1,0.4,0.2,0.8,0.1,0.9c-0.1,0.3-0.3,0.5-0.5,0.7c-0.3,0.2-0.5,0.4-0.9,0.5c-0.4,0.2-1,0.3-1.4,0.2
			c-0.2-0.1-0.3-0.1-0.6-0.2c-0.4-0.3-0.7-0.8-0.8-1.2c0-0.1,0-0.2-0.1-0.4C161.6,154,161.6,153.7,161.5,153.7c0-0.1,0.1,0.2,0,0.1
			C161.5,153.9,161.5,153.8,161.5,153.7C161.5,153.8,161.5,153.8,161.5,153.7z M165.3,151.6C165.3,151.6,165.4,151.6,165.3,151.6
			C165.4,151.6,165.3,151.6,165.3,151.6z"/>
		<path class="st1" d="M185.5,153.4c0.1,0,0-0.5,0-0.8c0.1-0.2,0-0.3,0-0.7c0.1-0.1,0-0.1-0.1-0.3c-0.2-0.3-0.1-0.5-0.3-0.9
			c-0.4-0.6-0.4-1-1.2-1.9c-0.9-0.8-1.8-1.1-2.9-1.1c-0.2,0.1-0.3,0-0.5,0.2c-0.5,0-1.4,0.3-1.7,0.7c-0.3,0-0.7,0.6-1,1
			c-1,1.7-1,3.5-0.9,5.3c0.2,1.8,0.7,3,1.7,3.9c0.4,0.7,1,1,2.1,1.4c1.2,0.1,2.5-0.5,2.9-1.1c0.4-0.3,0.5-0.5,0.8-1
			c0.6-0.9,0.8-2.1,0.8-3.1c0-0.2,0.1-0.5,0.1-0.8c0-0.1,0.1-0.7-0.1-0.6c-0.1-0.4,0,0.3-0.1,0.2l-0.1-0.1c0-0.1,0-0.1,0-0.2
			c-0.1-1.2-0.4-2.3-0.7-3.1c0,0,0,0,0.1,0.1c0.2,0.4,0.3,0.8,0.5,1.1c0,0.2,0.1,0.5,0.1,0.8c0.1,0.2,0.1,0.5,0.2,0.6
			C185.4,153,185.3,153.5,185.5,153.4z M179,154.1c-0.1-0.9,0-1.6,0.1-2.3c0,0.3-0.1,0.6,0,0.8c-0.1,0.1,0,0.4,0,0.6
			c0,0.1,0,0.4,0.1,0.4c0,0.1,0,0.5,0.1,0.4c0.1,0,0-0.4,0-0.6c0.1-0.1,0-0.2,0.1-0.5c0.1,0,0-0.1,0-0.2c-0.1-0.2,0-0.3,0-0.6
			c0-0.5,0-0.7,0.2-1.4s0.5-1.3,1.2-1.4c0.1-0.1,0.2,0,0.3-0.1c0.3,0,0.8,0.3,1.1,0.4c0,0.2,0.4,0.5,0.4,0.7
			c0.5,1.1,0.7,2.3,0.7,3.6c0.1,1.2,0,2.1-0.1,2.9c-0.3,0.5-0.3,0.9-0.9,1.2c-0.3,0.2-0.6,0.3-1,0.3s-0.7-0.2-0.9-0.3
			c-0.2-0.3-0.4-0.4-0.6-0.7c-0.3-0.7-0.5-1.5-0.6-2.2c0-0.2,0-0.3,0-0.6c0-0.1,0-0.5-0.1-0.4C179,153.8,179.1,154.3,179,154.1
			C179,154.2,179,154.2,179,154.1C179.1,154.2,179,154.1,179,154.1z"/>
	</g>
</g>
</svg>
