<?xml version="1.0" encoding="utf-8"?>
<!-- Generator: Adobe Illustrator 19.2.1, SVG Export Plug-In . SVG Version: 6.00 Build 0)  -->
<svg version="1.1" id="Layer_1" xmlns="http://www.w3.org/2000/svg" xmlns:xlink="http://www.w3.org/1999/xlink" x="0px" y="0px"
	 viewBox="0 0 250 200" style="enable-background:new 0 0 250 200;" xml:space="preserve">
<style type="text/css">
	.st0{fill:#1DB5B6;}
	.st1{fill:#262626;}
</style>
<g>
	<path class="st0" d="M169.7,83.6c-0.5-0.3-0.6-0.3-0.8,0H169.7z M172.6,118.3c0,0,0.1-0.1,0.2-0.1c-0.1-0.2-0.2-0.4-0.4-0.6
		c-0.1,0-0.1,0.1-0.2,0.1C172.4,117.9,172.5,118.1,172.6,118.3 M167.3,120.5c-0.1,0-0.1,0-0.2,0.1c0,0.1,0,0.3,0.1,0.4
		c0.1,0.1,0.2,0,0.5,0.1C167.5,120.8,167.4,120.6,167.3,120.5 M198,113.8c-0.1-0.3-0.1-0.4-0.2-0.7c-0.2,0.2-0.3,0.4-0.4,0.5
		C197.6,113.7,197.7,113.7,198,113.8 M198.1,124.5c0.2-0.2,0.3-0.3,0.5-0.4c-0.2-0.1-0.4-0.2-0.6-0.4
		C198,124.1,198,124.3,198.1,124.5 M185.7,126.4c-0.5-0.2-0.6-0.1-0.6,0.3C185.3,126.6,185.5,126.5,185.7,126.4 M176.2,91.2
		c-0.3-0.1-0.4-0.2-0.5-0.3c-0.1,0-0.2,0.2-0.3,0.2c0.1,0.1,0.3,0.2,0.4,0.2C175.8,91.4,175.9,91.3,176.2,91.2 M175.7,90.4
		c-0.3,0-0.6-0.1-0.9-0.1C175,90.7,175.3,90.7,175.7,90.4 M194.6,108.3c0-0.1,0.1-0.2,0.1-0.3c-0.2-0.1-0.3-0.2-0.5-0.2
		c0,0-0.1,0.2-0.2,0.3C194.3,108.1,194.4,108.2,194.6,108.3 M199.4,113.7c-0.1-0.1-0.2-0.1-0.3-0.1c-0.1,0.2-0.2,0.4-0.3,0.5
		c0,0,0.2,0.1,0.3,0.2C199.2,114.1,199.3,113.9,199.4,113.7 M168.6,114.8c-0.2-0.1-0.3-0.3-0.4-0.3c-0.1,0-0.3,0.2-0.3,0.3
		c0,0.1,0.2,0.2,0.3,0.3C168.3,115.1,168.4,115,168.6,114.8 M178.2,121.7c0.1,0,0.1,0.1,0.2,0.1c0.1-0.2,0.3-0.4,0.4-0.5
		c-0.1-0.1-0.2-0.2-0.2-0.1C178.3,121.2,178.2,121.4,178.2,121.7 M171.2,116.7c-0.1-0.1-0.3-0.2-0.4-0.3c-0.1,0.1-0.2,0.2-0.2,0.3
		c0,0.1,0.1,0.3,0.2,0.4C171,117,171,116.9,171.2,116.7 M199.5,108.1c0,0.1,0,0.2-0.1,0.2c0.2,0.1,0.4,0.2,0.6,0.3
		c0-0.1,0.1-0.4,0.1-0.4C199.9,108.1,199.7,108.1,199.5,108.1 M167,112.7c-0.1,0.1-0.1,0.1-0.2,0.2c0.2,0.2,0.3,0.3,0.5,0.5
		c0,0,0.1-0.1,0.2-0.2C167.3,113.1,167.1,112.9,167,112.7 M175.1,120.2c0.3-0.1,0.4-0.2,0.5-0.3c0.1-0.1,0.1-0.2,0.1-0.3
		c0-0.1-0.1-0.2-0.2-0.2c-0.1,0-0.2,0.1-0.2,0.1C175.2,119.7,175.2,119.9,175.1,120.2 M192.5,108.6h-1
		C192,109.1,192.3,109.1,192.5,108.6 M179.9,122.6c-0.1,0.1-0.3,0.1-0.3,0.2c0,0.2,0,0.5,0.1,0.7c0,0,0.1,0,0.2,0
		c0,0,0.1-0.1,0.1-0.1C179.9,123.2,179.9,123,179.9,122.6 M196.6,123.2c-0.3-0.1-0.5,0.1-0.8,0.5c0.2,0,0.4,0.1,0.5,0.1
		C196.4,123.6,196.5,123.4,196.6,123.2 M195.2,110.3c0.1,0.2,0.3,0.4,0.4,0.5c0.1-0.1,0.2-0.2,0.2-0.2c-0.1-0.2-0.2-0.4-0.3-0.6
		C195.4,110.1,195.3,110.2,195.2,110.3 M177.5,121.4c-0.3-0.2-0.4-0.4-0.6-0.5c-0.1,0-0.2-0.1-0.3-0.1c0,0-0.1,0.2-0.1,0.2
		c0.2,0.2,0.3,0.3,0.5,0.5C177.1,121.5,177.3,121.4,177.5,121.4 M173.6,117.7c-0.1,0.2-0.2,0.3-0.1,0.3c0.1,0.2,0.3,0.5,0.4,0.7
		c0,0,0.1,0,0.2,0c-0.1-0.2-0.1-0.4-0.2-0.7C173.9,118,173.8,117.9,173.6,117.7 M169.3,99.7c-0.2-0.2-0.4-0.3-0.5-0.3
		c-0.2,0.1-0.3,0.3-0.4,0.4c0,0,0.2,0.3,0.3,0.2C168.8,100,169,99.9,169.3,99.7 M169.4,115.9c0,0.1,0,0.1,0,0.2
		c0.2,0.2,0.4,0.3,0.6,0.5c0.1,0,0.2-0.1,0.3-0.2c-0.1-0.2-0.3-0.4-0.4-0.5C169.8,115.8,169.6,115.9,169.4,115.9 M165.2,112.5
		c0,0.1,0,0.1,0,0.2c0.2,0,0.4,0,0.5,0.1c0.5,0.4,0.7,0,1.1-0.2L165.2,112.5L165.2,112.5z M193.7,108.4c-0.4-0.2-0.8-0.3-1.1-0.5
		c0,0-0.1,0.2-0.1,0.2c0.2,0.2,0.5,0.4,0.7,0.6C193.3,108.7,193.5,108.6,193.7,108.4 M189.2,129.8c-0.1-0.6-0.6-1-1.1-1
		C188.1,129.5,188.7,129.5,189.2,129.8 M184.2,88.9c0.3,0.2,0.5,0.4,0.8,0.5c0.1-0.2,0.2-0.4,0.3-0.6
		C184.9,88.9,184.6,88.4,184.2,88.9 M189.7,98c0-0.4-0.1-0.6-0.4-0.5c-0.1,0-0.4,0.3-0.4,0.3c0.1,0.2,0.3,0.4,0.5,0.6
		C189.5,98.2,189.6,98.1,189.7,98 M183.4,124.7c-0.2,0-0.4-0.1-0.6-0.1c-0.3,0-0.4,0.3-0.1,0.5c0.3,0.2,0.6,0.4,0.8,0.5
		C183.4,125.4,183.4,125.1,183.4,124.7 M208.7,95.4c0,0,0.1,0.1,0.1,0.1c0.1-0.1,0.3-0.2,0.4-0.3c-0.3-0.3,0-0.5,0.2-0.7
		c-0.2,0-0.2,0-0.3,0c-0.3,0.2-0.6,0.3-0.9-0.1c0-0.1-0.2,0-0.3,0c0,0-0.1,0.2-0.1,0.2c0.1,0.1,0.2,0.2,0.3,0.2
		C208.6,94.8,208.8,94.9,208.7,95.4 M195.8,108.7c0,0.3-0.1,0.4-0.1,0.6c0.1,0,0.4,0,0.4,0c0-0.3,0.3-0.3,0.5-0.3
		c0.1,0,0.1-0.1,0.2-0.2c0,0-0.1-0.1-0.1-0.1c-0.3,0-0.5-0.1-0.5-0.4c0,0-0.2-0.1-0.2,0C195.6,108.3,195.6,108.5,195.8,108.7
		 M167.5,100.7c0.1-0.5,0.1-0.8,0.2-1.2c-0.5,0-0.9,0-1,0.5C166.6,100.7,167.2,100.4,167.5,100.7 M175.4,120.4
		c0,0.1,0.1,0.2,0.1,0.3c0.2-0.1,0.5-0.1,0.7-0.2c0.1,0,0.1-0.1,0.2-0.1c0.2-0.1,0.4-0.2,0.6-0.3c0.1,0,0.1-0.2,0-0.3
		c-0.1-0.1-0.2-0.1-0.3-0.1c-0.2,0.1-0.5,0.1-0.7,0.2C176,120.2,175.7,120.3,175.4,120.4 M188.5,90.3c-0.3-0.2-0.4-0.3-0.6-0.5
		c-0.1-0.1-0.3-0.3-0.3-0.3c-0.2,0.2-0.7,0-0.7,0.5c0.3,0,0.6,0,0.6,0.5c0,0,0.2,0.1,0.3,0.1C188,90.5,188.2,90.4,188.5,90.3
		 M181.8,123.7c0.2,0.6-0.2,0.9-0.5,1.2c0.4,0.3,0.8,0.3,0.7,0.1c0-0.4,0.2-0.5,0.5-0.6c0.1,0,0.2-0.1,0.2-0.2
		c0-0.1-0.1-0.2-0.2-0.2C182.3,123.8,182.1,123.8,181.8,123.7 M163.4,117c-0.5-0.4-0.6-0.5-1-0.1c-0.3-0.1-0.6-0.2-0.8-0.5
		c-0.1-0.2,0.1-0.5,0.2-0.8c0,0-0.1,0-0.2,0c-0.2,0-0.5,0-0.6-0.2c-0.3-0.3-0.6-0.4-0.9-0.2c-0.1,0-0.2,0-0.3,0
		c-0.7-0.3-0.9-0.8-0.8-1.6c0.1-0.3,0-0.6,0.1-0.9h-0.6c0.1-0.3,0.1-0.7,0.3-0.8c0.2-0.1,0.5,0,0.8,0c-0.2-0.6-0.7-0.5-1.1-0.6
		c0-0.4,0.2-0.6,0.5-0.8c0.4-0.2,0.9-0.4,0.8-1.1c0,0,0.3-0.2,0.4-0.2c0.1-0.1,0.3-0.1,0.5-0.1c0-0.2,0-0.3-0.1-0.5
		c0-0.1-0.2-0.2-0.2-0.3c-0.1-0.1-0.2-0.3-0.2-0.5c0.2-0.4,0.1-0.8,0.2-1.2c0.1-0.7,0.3-1.5,0.5-2.2c0-0.2,0.1-0.3,0.2-0.5
		c0.1-0.2,0.3-0.3,0.1-0.6c0-0.1,0.1-0.3,0.2-0.4c0.1-0.1,0.3-0.1,0.6-0.1c0.1-0.4-0.6-0.8-0.1-1.4c0.3,0.8,0.7,0.9,1.2,0.5
		c-0.6-0.3-0.6-0.3-0.5-1c0-0.3,0.1-0.3,0.4-0.3c0.1,0,0.2,0,0.3,0c0.1-0.1,0.2-0.2,0.3-0.3c-0.1-0.1-0.2-0.2-0.3-0.2
		c-0.1-0.1-0.3-0.1-0.4-0.1c0.2-0.5,0.7-0.6,1-0.4c0.6,0.1,1.1,0.1,1.5,0.2c0.1,0,0.2,0.1,0.3,0.1c0.1,0,0.2-0.1,0.3-0.1
		c-0.1-0.1-0.1-0.1-0.2-0.2c-0.1-0.1-0.2-0.1-0.3-0.2c0.2-0.1,0.4-0.3,0.5-0.2c0.3,0.2,0.4,0,0.6-0.1c0.2-0.1,0.5,0,0.7,0.1
		c0.5,0.3,0.9,0,1.3-0.2c0,0,0.1-0.1,0.1-0.1c0.1-0.3-0.3-1-0.7-1.1c0,0.2,0.1,0.3,0.1,0.5c-0.4,0.5-0.6-0.1-1-0.2
		c0.1-0.2,0.2-0.3,0.3-0.5c-0.4-0.3-0.4-0.2-0.6,0.4c-0.4-0.1-0.3-0.5-0.3-0.7c0.1-0.5,0-1-0.2-1.5c-0.1-0.3-0.2-0.6-0.3-1
		c-0.4-0.2-0.3-0.1,0-0.5c0.2-0.2,0.3-0.6,0.4-0.8c0.1-0.2,0.3-0.4,0.4-0.5c0.3-0.2,0.6-0.2,0.8,0.2c0.1,0.1,0.3,0.2,0.4,0.3
		c0,0,0.1-0.1,0.1-0.1c-0.1-0.2-0.3-0.4-0.4-0.7c-0.1-0.1,0-0.3,0-0.4c0.1,0.1,0.2,0.1,0.3,0.2c0,0,0,0.1,0.1,0.1
		c0.1,0.1,0.3,0.3,0.4,0.4c0.1-0.2,0.1-0.4,0.2-0.6c0.1,0,0.2,0.1,0.3,0.1c0.1,0,0.2,0.1,0.2,0.1c0.4-0.3,0.8,0,1.1-0.1
		c0.3-0.1,0.4-0.4,0.7-0.7c0.3,0.3,0.8,0.2,1.2,0.1c0.1,0,0.1-0.3,0.2-0.5c-0.1,0-0.1,0-0.2-0.1c-0.1,0.1-0.2,0.2-0.3,0.4
		c-0.3-0.1-0.5-0.2-0.8-0.3c0.3-0.2,0.5-0.4,0.8-0.6c-0.4,0-0.7-0.2-1-0.1c-0.3,0.1-0.6,0.4-0.8,0.6c-0.1,0.1-0.2,0.3-0.2,0.4
		c-0.4-0.1-0.6-0.1-0.9-0.2c0,0,0,0.1-0.1,0.1c0-0.1,0-0.2-0.1-0.3c0-0.1-0.1-0.2-0.1-0.4c0.2,0,0.4,0,0.6,0
		c-0.1-0.1-0.1-0.2-0.2-0.4c0.5,0,0.7-0.4,0.8-0.8c0.1-0.5,0.5-0.5,0.9-0.2c0.4,0.3,0.7,0.2,0.8-0.4c0.3,0.1,0.3,0.1,0.2,0.8h0.3
		c0.3,0.2,0.5,0.3,0.7,0.4c0,0.1,0.1,0.3,0.1,0.5c0.2-0.1,0.5-0.3,0.7-0.4c-0.1-0.2-0.1-0.3-0.2-0.5c0.2,0,0.3-0.1,0.4,0
		c0.1,0,0.2,0.1,0.4,0.1c0.1,0,0.2-0.1,0.3-0.2c0,0,0-0.2-0.1-0.3c-0.1-0.2-0.2-0.3-0.3-0.5c-0.3,0.1-0.6,0.2-0.7-0.3
		c-0.1-0.5-0.6-0.5-1-0.2c-0.2,0.1-0.3,0.2-0.5,0.4c-0.1-0.3,0-0.7-0.4-0.9c-0.3-0.2,0-0.4,0.3-0.5c0,0,0-0.1,0-0.1
		c-0.4-0.1-0.7-0.3-1.1-0.4c-0.1,0-0.3,0-0.4-0.1c0-0.1,0.1-0.3,0.1-0.4c0,0,0-0.1,0.1-0.2c-0.4,0-0.7-0.1-1-0.1
		c-0.2,0-0.4-0.1-0.5-0.2c0.1-0.1,0.1-0.3,0.2-0.4c0.2-0.3,0.3-0.4-0.1-0.6c-0.2-0.1-0.4-0.4-0.5-0.6c-0.1-0.2-0.2-0.4-0.3-0.7
		c0.2-0.1,0.4-0.2,0.6-0.3c0.1-0.1,0.2-0.3,0.2-0.3c-0.2-0.2-0.1-0.4,0.1-0.5c0.2-0.2,0.5-0.4,0.8-0.2c0.3,0.2,0.5,0.1,0.6-0.1
		c0-0.4,0.1-0.7,0.1-1.1c0.9-0.3,1.7-0.6,2.6-0.9c0.3-0.1,0.3-0.2,0.2-0.4c-0.2-0.3-0.1-0.4,0.1-0.5c0.2-0.1,0.4-0.2,0.5-0.4
		c0.1-0.1,0.1-0.3,0.1-0.4c-0.2-0.4-0.1-0.6,0.3-0.8c0.5-0.3,0.5-0.6,0-1c-0.1-0.1-0.1-0.1-0.2-0.2c0.1,0,0.2-0.1,0.3-0.1
		c0.1,0,0.2-0.1,0.2-0.2c-0.1-0.1-0.1-0.2-0.2-0.2c-0.2,0-0.5,0-0.8,0.1c0-0.1,0.1-0.4,0.2-0.4c0.4-0.2,0.4-0.3,0.2-0.6
		c0.3-0.2,0.6-0.4,0.9-0.5c0.1,0,0.3,0.1,0.3,0.1c0.3,0.6,0.3,0.6,1,0.5c0.1,0.4,0.5,0.4,0.8,0.5c0.2,0,0.5,0.2,0.7,0.3
		c0.5,0.3,0.6,0.3,0.9-0.1c0.1,0.1,0.3,0.2,0.4,0.3c0.1-0.2,0.2-0.3,0.2-0.5c0.1-0.2,0.1-0.4,0.1-0.7c0.1,0,0.3,0.1,0.4,0.1
		c0.1,0,0.1,0.2,0.1,0.2c0,0-0.1,0.1-0.2,0.1c-0.3,0-0.3,0.3-0.3,0.5c0,0.1,0.1,0.2,0.2,0.2c0.1,0,0.2,0,0.3-0.1
		c0.3-0.3,0.7-0.6,1.1-0.9c0,0.2,0,0.3,0,0.4c0.1,0.3,0.2,0.5,0.3,0.7c0.1,0.1,0.2,0.1,0.4,0.1c0-0.2,0-0.3-0.1-0.5
		c0-0.1-0.2-0.1-0.3-0.2c0.2-0.2,0.3-0.4,0.4-0.7c0.3,0.4,0.6,0.8,1,1.3c0-0.3,0.1-0.4,0.1-0.5c0.1,0,0.1,0,0.1,0
		c0.1,0.5,0.4,0.6,0.9,0.4c0,0,0.1,0,0.1,0c0.2-0.1,0.5,0.3,0.6-0.1c0-0.2-0.1-0.4-0.2-0.7c0,0,0-0.1,0-0.1c0.6-0.2,0.9,0.1,1.3,0.5
		c0.1-0.1,0.2-0.2,0.2-0.4c0.1,0.1,0.2,0.2,0.3,0.3c0.1-0.1,0.2-0.3,0.3-0.4c0.4,0.2,0.7,0.4,1.1,0.7c0-0.1,0-0.2,0-0.3
		c0.1-0.1,0.2-0.3,0.4-0.4c0.1,0,0.3,0.1,0.4,0.2c0.2,0.2,0.3,0.4,0.5,0.6c0.1-0.1,0.3-0.2,0.4-0.3c0.4-0.5,1-0.7,1.6-0.4
		c0.1,0,0.1,0,0.2,0.1c0-0.2,0-0.3,0.1-0.5c0.1,0.1,0.2,0.2,0.3,0.2c0.1,0,0.3,0,0.4,0c0.2,0,0.4-0.1,0.7-0.1
		c0.5-0.1,0.9-0.1,1.4-0.1c0.4,0,0.7,0,1.1,0c0.3,0,0.6,0.1,1,0.1c0.4-0.1,0.4,0.3,0.2,0.6c0.5,0.1,0.8-0.8,1.3-0.1
		c0.2-0.4,0.4-0.5,0.7-0.2c0,0,0.3-0.1,0.4-0.2c0.1,0.2-0.2,0.6,0.3,0.6c0.1,0,0.1-0.3,0.2-0.5c0.3,0,0.7,0,1.1,0
		c0.4,0,0.8,0.1,1.1,0.1c0.6,0,1.2,0,1.8,0.3c0.4,0.3,0.6,0.7,0.7,1.2c0.1,0.4,0.3,0.7,0.4,1.1c0.1,0.2,0.1,0.4-0.2,0.5
		c-0.3,0.1-0.3,0.3-0.1,0.5c0.1,0.2,0.3,0.4,0.3,0.6c0.1,0.2,0.1,0.4,0.1,0.6c0,0.2-0.1,0.4-0.2,0.6c-0.1,0.5-0.1,1-0.2,1.6
		c-0.2-0.1-0.4-0.1-0.7-0.3c0.1,0.2,0.2,0.2,0.2,0.3c0,0.2-0.1,0.4-0.1,0.6c0,0.1-0.1,0.2-0.1,0.2c-0.4,0.4-0.4,0.7,0,1
		c0.9,0.7,1.8,1.3,2.6,2c0.6,0.5,1.1,1.1,1.6,1.6c0.4,0.4,0.7,0.9,1.2,1.1c0.3,0.2,0.9,0.2,1.3,0.2c0.5,0,0.6,0,0.8,0.4
		c0.1,0.2,0.1,0.3,0.2,0.5c0.1,0.3,0.1,0.6-0.2,0.9c-0.4,0.4-0.3,0.5,0.2,0.7c-0.2,0.3-0.1,0.6,0,0.9c0,0.5-0.2,1-0.4,1.5
		c-0.1,0.2-0.3,0.4,0,0.6c0.2,0.1,0.1,0.4-0.1,0.5c-0.5,0.2-0.3,0.6-0.3,1c0,0.4,0.1,0.8,0.2,1.2h-1c0,0,0,0.1,0,0.1
		c0.3,0.1,0.6,0.3,0.9,0.4c-0.2,0.6-0.7,0.5-1.1,0.7c0,0-0.2-0.1-0.2-0.2c0.1-0.1,0.1-0.2,0.2-0.2c0.1-0.1,0.2-0.2,0.3-0.3
		c-0.1-0.1-0.2-0.3-0.3-0.3c-0.1,0-0.3,0.2-0.3,0.3c-0.1,0.4-0.4,0.9-0.1,1.4c0,0-0.2,0.2-0.2,0.3c-0.1-0.1-0.2-0.2-0.2-0.3
		c-0.1-0.1-0.2-0.2-0.3-0.4c0,0.2-0.1,0.3-0.1,0.5c0,0.2,0,0.4,0,0.6c-0.2,0.1-0.4,0.2-0.6,0.2c0,0-0.1,0-0.1,0
		c-0.4-0.5-0.8-0.1-1.2,0.1c-0.1-0.8-0.7-0.1-1-0.4c0.1-0.1,0.1-0.1,0.2-0.2c0,0-0.1,0-0.1,0c-0.8,0.3-1.3-0.3-1.9-0.6
		c0,0-0.1-0.1-0.1-0.1c-0.8,0.3-1.2-0.5-1.8-0.6c-0.5,0-1-0.1-1.5-0.2c-0.5-0.1-1-0.3-1.5-0.5c-0.5-0.2-1-0.4-1.5-0.6
		c-0.1,0.3,0.1,0.5,0.3,0.7c0.5,0.5,1,1,1.5,1.5c0.8,0.9,1.7,1.7,2.5,2.6c0.3,0.3,0.5,0.7,0.7,1c0.1,0.1,0.1,0.4,0.1,0.5
		c0.6,0,1.2,0.9,1.1,1.5c0,0.1,0,0.4,0.1,0.4c0.2,0,0.3,0,0.5-0.1c0.2,0.2,0.3,0.6,0.8,0.4c0,0,0.1,0,0.1,0c0.2,0.6,0.8,0.4,1.2,0.6
		c0.3,0.2,0.4,0.6,0.2,0.9c-0.1,0.2-0.2,0.4-0.3,0.5c0,0.1-0.1,0.1-0.2,0.2c-0.2,0.1-0.4,0.1-0.6,0.2c-0.1,0-0.4,0-0.4,0
		c-0.1,0.1-0.1,0.4-0.1,0.5c0.1,0.3,0.4,0.5,0.5,0.8c0.1,0.1,0.1,0.4,0.1,0.5c-0.5,0.4-0.6,1-0.5,1.6c0,0-0.1,0-0.1,0.1
		c-0.1-0.1-0.3-0.2-0.4-0.3c-0.3-0.4-0.5-0.9-1.1-0.8c-0.1,0-0.3-0.1-0.4-0.2c-0.1,0.8-0.1,0.8-0.5,0.8c-0.1-0.2-0.2-0.3-0.3-0.5
		c0,0.2,0,0.4,0,0.6c0,0.1,0,0.3-0.1,0.4c-0.1,0.1-0.2,0.1-0.4,0.1c-0.3-0.1-0.5-0.3-0.7,0c0,0-0.2,0-0.2,0c0-0.1,0-0.2,0-0.2
		c0.2-0.1,0.5-0.3,0.8-0.4c-0.2-0.1-0.4-0.3-0.7-0.5c-0.2-0.1-0.5-0.3-0.7-0.4c-0.1,0-0.3,0.1-0.3,0.2c0,0.2,0,0.3,0,0.6
		c0.2-0.1,0.3-0.1,0.4-0.2c0,0,0,0.1,0,0.1c-0.1,0.3-0.2,0.5-0.4,0.8c-0.1,0.2-0.3,0.4-0.5,0.1c-0.1-0.1-0.3-0.2-0.5-0.4
		c0.3,0,0.5,0,0.7-0.1c-0.2-0.3-0.1-0.8-0.7-0.8c0,0-0.1-0.1-0.1-0.1c0,0,0.1-0.1,0.1-0.1c0.6-0.1,0.6-0.1,0.6-0.9
		c-0.2,0.1-0.3,0.2-0.4,0.3c-0.1,0.1-0.3,0.1-0.5,0.1c-0.1,0-0.3,0-0.4,0c0.1,0.1,0.1,0.2,0.2,0.4c-0.1,0.1-0.2,0.3-0.4,0.5
		c-0.2-0.3-0.4-0.8-1-0.2c0.4,0.3,0.7,0.5,1.1,0.8c-0.3,0.1-0.5,0.3-0.8,0.4c0.8,0.5,0.9,0.5,0.5,1.1c0.2,0.1,0.4,0.1,0.6,0.2
		c0.4,0,0.8-0.1,1.1,0.3c0.1,0.1,0.3,0.1,0.5,0.1c-0.1-0.3-0.1-0.4-0.2-0.6c0.2,0,0.3,0,0.4,0c0.3,0.1,0.5,0.1,0.6-0.3
		c0-0.1,0.2-0.2,0.3-0.2c0.1,0.1,0.3,0.2,0.4,0.3c0,0,0,0.2-0.1,0.3c-0.1,0.1-0.3,0.2-0.5,0.2c-0.1,0.2-0.1,0.4-0.1,0.6
		c0,0-0.1,0-0.1,0c0.1,0.2,0.1,0.4,0.2,0.6h-0.5c0.1,0.1,0.1,0.3,0.2,0.4c-0.5,0.6-0.5,0.6,0.4,0.8c-0.1,0.5-0.2,0.9,0.4,1.2
		c-0.1,0.1-0.2,0.2-0.3,0.3c-0.5-0.4-0.7-1.1-1.4-1.1c-0.2-0.3-0.4-0.6-0.6-0.9c0,0-0.2,0-0.2,0c0,0.1-0.1,0.2,0,0.3
		c0.1,0.3,0.3,0.5,0.4,0.8c0.1,0.2,0.1,0.4,0.2,0.5c0,0.1,0,0.2,0.1,0.2c0.4,0.3,0.8,0.5,1.1,0.7c0,0.1,0,0.3,0.1,0.4
		c0.1,0.2,0.3,0.3,0.4,0.4c0.5,0,0.6,0.4,0.7,0.8c0.1,0.4,0,0.7-0.2,1c-0.4,0.6-0.3,1.2,0,1.7c0.1,0.1,0.1,0.4,0.1,0.6
		c-0.1,0.3-0.1,0.7-0.3,1c-0.1,0.2-0.5,0.3-0.6,0.4c-0.1,0.3-0.2,0.5-0.3,0.8c-0.1,0.3-0.2,0.6-0.4,1c-0.1-0.3-0.2-0.6-0.3-0.8
		c0,0-0.1,0-0.1,0c-0.3,0.5-0.5,1-0.8,1.6c-0.6-0.2-0.4,0.4-0.7,0.6c0.1,0.1,0.3,0.1,0.4,0.2c0,0.1,0,0.1,0,0.2
		c-0.1,0-0.3,0-0.4-0.1c-0.2-0.1-0.4-0.3-0.6,0c-0.2,0.2-0.4,0.5,0,0.7c-0.3,0.1-0.5,0.1-0.5-0.2c0-0.3-0.2-0.5-0.5-0.5
		c-0.4,0-0.4,0.1-0.3,0.5c0.1,0.1,0,0.4-0.1,0.5c-0.2,0.3-0.3,0.5-0.3,0.9c0,1-0.1,1.9-0.5,2.8c-0.3,0.6-0.8,0.7-1.3,0.4
		c-0.1-0.1-0.3-0.1-0.5-0.1c-0.3,0.1-0.5,0-0.7-0.3c-0.3-0.4-0.6-0.7-1-1.1c-0.1-0.1-0.2-0.1-0.3-0.1c-0.3,0.1-0.5,0-0.8-0.2
		c-0.2-0.1-0.6,0.1-1,0.2c0,0,0,0.2,0.1,0.3c0.1,0.1,0.2,0.2,0.4,0.4c-0.1,0.1-0.3,0.1-0.4,0.2c0.2,0.1,0.3,0.2,0.4,0.3
		c-0.1,0.1-0.2,0.3-0.3,0.4c-0.2,0.3-0.5,0.6-0.2,1c0.1,0.2-0.1,0.6-0.2,0.9c-0.1,0.3-0.1,0.8-0.3,1c-0.4,0.4-0.5,0.8-0.6,1.4
		c0.1-0.1,0.2-0.1,0.3-0.1c0.1,0,0.1,0.1,0.2,0.1c0,0.1-0.1,0.2-0.1,0.2c-0.1,0-0.2,0-0.3,0c-0.3-0.1-0.6-0.3-0.9-0.5
		c-0.3-0.2-0.5-0.3-0.6-0.7c-0.1-0.4-0.3-0.8-0.6-1c-0.2-0.2-0.6-0.2-0.9-0.3c-0.8-0.4-1.7-0.9-2.6-1.4c0.1-0.1,0.1-0.1,0.2-0.2
		c-0.7-0.4-1.4-0.7-2.2-1.1c0.1-0.2,0.2-0.2,0.2-0.3c-0.1-0.6-0.7,0-1-0.5c0.1,0,0.3-0.1,0.4-0.1c0,0-0.1-0.1-0.1-0.1
		c-0.2,0-0.4,0-0.6,0c-0.2,0-0.4,0-0.5-0.1c-0.3-0.6-1-0.7-1.7-1c0.2-0.1,0.3-0.1,0.5-0.1c-0.8-0.3-1.3-1-2.2-1.2
		c-0.6-0.1-1.1-0.6-1.4-1.2c-0.1-0.4-0.3-0.6-0.7-0.7c-0.3-0.1-0.7-0.2-1-0.4c-0.2-0.1-0.2-0.5-0.3-0.7c-0.1-0.3-0.3-0.4-0.7-0.5
		c-0.8-0.3-1.7-0.3-2.1-1.2c-0.1-0.2-0.3-0.3-0.5-0.4c-0.7-0.5-1.5-0.8-2-1.5c-0.1-0.1-0.1-0.3-0.2-0.4c-0.3-0.2-0.6-0.3-0.8-0.5
		c-0.4-0.4-0.8-0.7-1.2-1.1c-0.3-0.3-0.5-0.7-0.9-0.9c-0.3-0.1-0.5-0.4-0.8-0.7C163.1,117.1,163.2,117,163.4,117
		c0.1,0.1,0.2,0.3,0.3,0.4c0.1,0,0.2-0.1,0.4-0.1c0,0,0-0.1,0-0.1C163.8,117.1,163.6,117,163.4,117"/>
	<path class="st0" d="M167.8,146.4c-0.2-0.1-0.3-0.2-0.3-0.2c-0.1,0-0.2,0.1-0.3,0.2c0.1,0.1,0.2,0.2,0.2,0.2
		C167.5,146.6,167.6,146.5,167.8,146.4 M179,138c0,0-0.1,0-0.1,0c0,0.2,0,0.4-0.1,0.5c0,0,0.1,0,0.1,0.1c0.1-0.1,0.2-0.2,0.2-0.3
		C179.2,138.2,179.1,138.1,179,138 M164.6,142.1c0,0.1,0,0.2,0,0.2c0.2,0,0.3,0,0.5,0c0-0.1,0-0.3,0-0.3
		C164.9,142.1,164.7,142.1,164.6,142.1 M169.5,153.1c-0.1,0.1-0.1,0.1-0.2,0.2c0.2,0.1,0.3,0.2,0.5,0.4c0-0.1,0.1-0.2,0.1-0.2
		C169.8,153.4,169.7,153.3,169.5,153.1 M164,137c-0.2-0.1-0.3-0.2-0.4-0.2c-0.1,0-0.2,0.1-0.2,0.2c0.1,0.1,0.2,0.2,0.3,0.2
		C163.7,137.2,163.8,137.1,164,137 M185.8,155.4c0-0.1,0.1-0.1,0.1-0.2c-0.2-0.1-0.3-0.2-0.5-0.2c0,0-0.1,0.1-0.1,0.2
		C185.5,155.3,185.6,155.4,185.8,155.4 M191.5,140.7c0,0,0.1-0.1,0.1-0.1c-0.1-0.1-0.1-0.3-0.2-0.4c-0.1-0.1-0.3,0-0.4,0
		c0,0.1,0,0.1,0,0.2C191.1,140.5,191.3,140.6,191.5,140.7 M166.8,143.4c-0.1,0.2-0.3,0.4-0.4,0.5c0.1,0,0.2,0.1,0.2,0.1
		C166.9,143.9,167,143.7,166.8,143.4 M166.9,146.4c0-0.1-0.1-0.1-0.1-0.2c-0.2,0.1-0.3,0.1-0.5,0.2c0.1,0.1,0.2,0.3,0.2,0.3
		C166.6,146.6,166.8,146.5,166.9,146.4 M172.6,147c-0.1,0-0.1,0-0.2,0.1c0,0.2,0.1,0.4,0.1,0.6c0.1,0,0.2-0.1,0.3-0.1
		C172.7,147.3,172.7,147.1,172.6,147 M180,155.2c-0.2-0.1-0.4-0.1-0.5-0.1c-0.1,0-0.2,0-0.3,0.1c0.1,0.1,0.1,0.2,0.2,0.3
		c0.2,0.1,0.4,0.1,0.6,0.2C180,155.4,180,155.3,180,155.2 M178.9,154.9c-0.1-0.2-0.2-0.3-0.4-0.4c-0.1,0.1-0.2,0.3-0.2,0.4
		c0,0.1,0.2,0.2,0.3,0.4C178.7,155.2,178.7,155.1,178.9,154.9 M169.8,143.1c-0.2,0.1-0.2,0.2-0.3,0.3c0.2,0.1,0.4,0.2,0.7,0.3
		c0,0,0.1-0.1,0.2-0.2C170.2,143.4,170,143.3,169.8,143.1 M175.1,153.8c-0.3,0-0.6,0.5-0.5,0.7c0.1,0.2,0.4,0.4,0.6,0.5
		c0,0,0.1-0.1,0.1-0.1C174.9,154.3,174.9,154.3,175.1,153.8 M167.8,146c0,0.1,0,0.1-0.1,0.2c0.3,0.1,0.6,0.3,0.9,0.4
		c0.1,0,0.2-0.1,0.3-0.1c0-0.1-0.1-0.3-0.1-0.3C168.5,146.1,168.1,146,167.8,146 M168.1,137.8c-0.2,0.1-0.3,0.2-0.4,0.3
		c0.2,0.1,0.4,0.2,0.6,0.3c0.1,0,0.2-0.2,0.3-0.2C168.5,138.1,168.3,138,168.1,137.8 M181,157.2c0,0,0,0.1,0,0.1c0.3,0,0.6,0,0.9,0
		c0.1,0,0.2-0.2,0.3-0.3c-0.1-0.1-0.2-0.3-0.3-0.2C181.6,156.9,181.3,157,181,157.2 M163.6,152.6c-0.3-0.2-0.6-0.3-0.8-0.4
		c0,0-0.2,0.2-0.2,0.2c0.2,0.2,0.3,0.4,0.6,0.5C163.2,153,163.4,152.8,163.6,152.6 M171.2,153c-0.2-0.3-0.9-0.4-1.6-0.2
		c0.1,0,0.3,0,0.3,0.1C170.3,153.6,170.8,153.2,171.2,153 M183.4,155.7c-0.2,0-0.4-0.1-0.6-0.1c-0.1,0-0.2,0-0.3,0
		c0,0.1,0,0.3,0.1,0.4c0.1,0.2,0.3,0.4,0.4,0.6C183.5,156.5,183.2,156,183.4,155.7 M168.3,143.4c0,0,0-0.1,0-0.1c0,0,0-0.1,0-0.1
		c-0.5-0.3-1-0.6-1.5-0.9c-0.5-0.3-0.6-0.2-0.7,0.2C166.9,142.6,167.5,143.3,168.3,143.4 M166.8,138.2c0.1,0,0.2-0.1,0.3-0.2
		c0-0.1,0-0.2-0.1-0.3c-0.1-0.1-0.3-0.3-0.5-0.3c-0.3,0-0.5,0.2-0.8,0.3c0,0,0,0.3,0.1,0.3C166.1,138.1,166.4,138.1,166.8,138.2
		 M169.2,153.1c-0.4-0.6-1-0.7-1.3-0.2c0.2,0,0.3,0.1,0.5,0.1c0,0.2,0,0.5,0.1,0.7c0.1,0.1,0.3,0.2,0.4,0.3c0,0,0.2-0.1,0.2-0.1
		c-0.1-0.1-0.1-0.3-0.2-0.4c0,0,0-0.1,0-0.1C168.9,153.2,169,153.1,169.2,153.1 M164.6,136.8c-0.1,0.2-0.3,0.5-0.3,0.6
		c0.2,0.3,0.5,0.5,0.8,0.9c0.1-0.4,0.3-0.7,0.3-0.9c0-0.1-0.4-0.1-0.6-0.2C164.8,137,164.8,136.9,164.6,136.8 M167,152.6
		c-0.1,0.1-0.2,0.1-0.2,0.1c-0.1,0.2-0.2,0.4-0.2,0.5c0,0.3,0.1,0.5,0.5,0.6c0.2,0,0.4,0,0.5,0.1c0.3,0.1,0.5,0.1,0.5-0.2
		c0.1-0.3-0.2-0.3-0.4-0.3c-0.3,0-0.6-0.1-0.6-0.5C167.2,152.8,167.1,152.7,167,152.6 M178.1,157.5c0.2,0.1,0.3,0.1,0.5,0.2
		c0,0,0.1-0.1,0.2-0.2c-0.2-0.2-0.4-0.5-0.7-0.6c-0.2-0.1-0.5,0.1-0.7,0.2c-0.2-0.1-0.3-0.2-0.4-0.3c0,0-0.2,0.2-0.2,0.2
		c0.1,0.1,0.2,0.2,0.3,0.3c0.2,0.1,0.4,0.2,0.6,0.3c-0.1,0.1-0.1,0.1-0.1,0.2C177.7,157.7,177.9,157.6,178.1,157.5 M179,158.6
		c0.6-0.2,1.2-0.5,1.8-0.7c0.2-0.1,0.3-0.2,0.1-0.4c-0.2-0.3-1.1-0.5-1.5-0.3c-0.1,0-0.2,0.2-0.2,0.2c0,0.1,0.1,0.2,0.2,0.2
		c0.1,0.1,0.3,0.1,0.5,0.1C179.6,158.3,179,158.1,179,158.6 M154.9,148.6c-0.4,0-0.8-0.1-1.2-0.1c-0.4,0-0.8-0.1-1.3-0.1
		c-0.1,0-0.4,0.2-0.4,0.3c0,0.1,0.2,0.4,0.3,0.4c0.4,0,0.8,0,1.3-0.1c0.2,0,0.4-0.1,0.5,0C154.6,149.2,154.8,149,154.9,148.6
		 M186.6,140.8V140c0.1,0,0.2,0.1,0.3,0.1c0.1,0,0.3-0.1,0.4-0.2c-0.1-0.1-0.2-0.3-0.3-0.3c-0.4-0.2-0.7-0.1-1.1,0.4
		c-0.1-0.1-0.2-0.2-0.3-0.3c-0.1-0.1-0.2-0.1-0.3-0.2c-0.1,0.3-0.1,0.6-0.2,0.8c0,0,0.1,0.2,0.2,0.2
		C185.7,140.3,186.1,140.8,186.6,140.8 M169.6,146.3c0,0,0.1,0,0.1,0c0,0.1,0,0.2,0,0.3c-0.1,0.3,0,0.5,0.3,0.4
		c0.2,0,0.4-0.2,0.4-0.4c0.1-0.3,0.1-0.6,0.2-1c0.2,0.2,0.4,0.4,0.6,0.4c0.3,0.1,0.6,0,0.9,0c0.1,0,0.2-0.1,0.2-0.2
		c0-0.1,0-0.2-0.1-0.3c-0.2-0.2-0.4-0.3-0.6-0.5c0,0,0,0.1,0,0.1c-0.5,0-1,0.1-1.5,0.1v0.5c-0.8-0.1-1.1,0.2-0.9,0.7
		C169.3,146.5,169.4,146.4,169.6,146.3 M155.5,151.1c0.4,0.1,0.8,0.3,1.1,0.2c0.4-0.1,0.8,0.1,1.1,0c0.6-0.2,0.9,0.1,1.3,0.2
		c0.4,0.2,0.9,0.1,1.2,0.4c0.1,0.1,0.4,0.1,0.5,0c0.4-0.3,0.7-0.1,1,0.2c0.1,0.1,0.3,0.2,0.4,0.1c0.2-0.2,0.3-0.3,0.4-0.5
		c0,0-0.2-0.2-0.3-0.3c-0.6-0.3-1.3-0.6-1.8-1c-0.5-0.4-1.1-0.5-1.6-0.5c-0.4,0-0.6,0-0.7-0.4c-0.2,0.1-0.3,0.2-0.5,0.2
		c-0.4,0-0.6,0.2-0.7,0.6c-0.1,0.1-0.4,0.2-0.6,0.2c0,0-0.2-0.2-0.2-0.2c0.1-0.2,0.1-0.5,0.5-0.4c0.3,0.1,0.3-0.2,0.3-0.4
		c-0.3,0.1-0.5,0.2-0.7,0.2c-0.4-0.1-0.5,0-0.4,0.3c-0.2-0.1-0.3-0.1-0.4-0.2c-0.1,0.1-0.2,0.2-0.3,0.2c-0.2-0.1-0.4-0.2-0.5-0.2
		c-0.6,0.2-0.9-0.1-1.3-0.4c-0.1,0-0.2,0-0.3,0c-0.3-0.1-0.6-0.3-0.8-0.2c-0.3,0.1-0.5,0.1-0.6-0.2c-0.1-0.1-0.1-0.2-0.2-0.3
		c-0.3-0.2-0.5-0.1-0.6,0.3c0.1,0,0.2,0,0.3,0c0.1,0,0.3,0.1,0.4,0.2c-0.1,0.1-0.1,0.3-0.2,0.3c-0.4,0.2-0.8,0.3-1.1,0.4
		c-0.2,0.1-0.5,0.2-0.5,0.4c-0.1,0.3,0.2,0.4,0.5,0.4c0.2,0,0.4,0,0.6,0.1c0.3,0.3,0.6,0.2,1,0.1c0.3-0.1,0.7-0.2,1-0.3
		c0.1,0,0.3,0,0.3,0c0.5,0.4,1,0.4,1.6,0.4c0.2,0,0.4-0.2,0.6-0.4c0.2-0.1,0.3-0.3,0.5-0.4c0,0,0.1,0.1,0.1,0.1
		C155.6,150.8,155.5,151,155.5,151.1 M180.6,139.2c0-0.2,0.2-0.6-0.3-0.6c-0.3,0-0.5,0.1-0.8,0.2c-0.1,0-0.2,0.1-0.2,0.2
		c0.1,0.1,0.3,0.2,0.3,0.2C180,138.9,180.3,139.2,180.6,139.2c0.1,0.2,0.2,0.5,0.6,0.4c0.3-0.1,0.6-0.1,0.8,0
		c0.1,0.1,0.2,0.1,0.3,0.1c0.5-0.2,1,0.1,1.2,0.3c0.4,0,0.7,0,0.9-0.1c0.1,0,0.2-0.2,0.4-0.4c-0.1-0.1-0.2-0.3-0.4-0.3
		c-0.1,0-0.2,0.1-0.3,0.1c-0.1-0.1-0.2-0.2-0.3-0.2c-0.3,0-0.7,0-1,0.1c-0.6,0.2-1-0.1-1.3-0.4c-0.1-0.1-0.1-0.1-0.2-0.1
		C181.1,138.9,180.8,139.1,180.6,139.2 M186.7,157.7c-0.3,0-0.6-0.1-0.8,0c-0.2,0.1-0.5,0.2-0.7,0.4c-0.2,0.2-0.4,0.3-0.7,0.2
		c-0.1,0-0.3,0.1-0.5,0.2c0.1,0.2,0.2,0.3,0.3,0.4c0,0,0,0.1-0.1,0.1c-0.4,0.1-0.9-0.1-1.1-0.5c-0.3-0.6-1.1-0.9-1.7-0.8
		c-0.3,0.1-0.5,0.2-0.2,0.5c0.1,0.1,0.1,0.4,0.1,0.6c0.3,0,0.4-0.2,0.5-0.5c0-0.1,0.1-0.2,0.1-0.3c0.1,0.1,0.2,0.1,0.3,0.2
		c0.2,0.3,0.3,0.6,0.4,0.9c-0.5,0-0.6,0.2-0.4,0.7c-0.1,0-0.3,0-0.3,0c-0.2-0.3-0.6-0.3-0.8-0.2c-0.5,0.1-1-0.2-1.4,0.2
		c0,0-0.2,0-0.3-0.1c-0.4-0.5-0.9-0.3-1.5-0.4c-0.3,0-0.7-0.1-1-0.2c-0.3,0-0.7,0.1-1,0c-0.4,0-0.8-0.1-1.3-0.1
		c-0.4,0-0.8-0.1-1.1,0c-0.4,0.1-0.6,0.1-0.6-0.4c-0.2,0.1-0.3,0.2-0.4,0.2c0,0-0.1,0-0.1-0.1c0.1-0.3,0.2-0.6,0.3-1
		c-0.6,0.2-1.1,0.5-1.7,0.7c0-0.1-0.1-0.1-0.1-0.1c0.1-0.1,0.1-0.2,0.2-0.2c0.2-0.1,0.3-0.2,0.3-0.5c0-0.2,0.4-0.4,0.7-0.5
		c0.3-0.1,0.7-0.2,1.1-0.3c0.1,0.3,0.3,0.4,0.7,0.2c0.1,0,0.2,0.1,0.3,0.2c0.1,0.1,0.2,0.2,0.3,0.2c0.6-0.3,1.4,0,2-0.8
		c-0.3,0-0.5-0.1-0.7,0c-0.4,0.1-0.6,0.1-0.9-0.2c-0.1-0.1-0.3-0.2-0.5-0.3c-0.3-0.2-0.5-0.2-0.6,0.2c-0.1,0.2-0.2,0.3-0.4,0.5
		c0,0-0.1,0-0.1-0.1c0.1-0.2,0.1-0.5,0.1-0.6c-0.3-0.1-0.6-0.3-0.9-0.4c-0.1,0-0.1-0.1-0.2-0.1c-0.4,0-0.8-0.1-1.1-0.1
		c-0.4-0.1-0.9-0.3-1.3-0.2c-0.6,0-0.9-0.2-1.3-0.6c-0.4,0.6-1,0.2-1.4,0.4c-0.2-0.5-0.5-0.5-1-0.4c-0.5,0.1-1.1,0.4-1.5-0.1
		c-0.4-0.6-0.8-0.6-1.3-0.6c-0.1,0-0.3-0.1-0.4-0.1c-0.3-0.1-0.7-0.2-1-0.1c-0.4,0-0.6,0-0.8-0.3c-0.2-0.3-0.4-0.3-0.6-0.2
		c-0.4,0.2-0.6,0.2-1-0.2c-0.1-0.2-0.6-0.2-0.9-0.1c-0.6,0.2-0.9-0.1-1.3-0.4c-0.1-0.1-0.3-0.2-0.4-0.2c-0.1,0.3-0.2,0.4-0.2,0.6
		c-0.2-0.1-0.3-0.3-0.6-0.5c-0.4,0-1-0.1-1.5-0.1c0,0-0.1,0-0.1,0c-0.3-0.3-0.6-0.4-1-0.2c-0.1,0-0.3-0.1-0.3-0.2
		c-0.5,0.1-1,0.2-1.4,0.2c-0.1-0.2-0.2-0.4-0.2-0.4c-0.4,0-0.8-0.1-1.1,0.1c-0.3,0.2-0.5,0.2-0.8,0.2c-0.2,0-0.4,0.1-0.6,0.1
		c-0.1,0-0.3,0-0.4,0c-0.1,0-0.3-0.1-0.3-0.2c-0.3-0.4-0.6-0.8-0.8-1.2c0,0,0.1-0.2,0.1-0.2c0.1-0.2,0.2-0.4,0.3-0.8
		c-0.7,0.4-0.9-0.1-1.3-0.4c-0.1-0.1-0.4-0.2-0.6-0.2c-0.5,0-1.4-0.8-1.4-1.3c0,0,0-0.1,0-0.1c0.1-0.3,1.2-0.7,1.4-0.7
		c0.3,0.1,0.5,0,0.8,0c0.5,0,0.9-0.2,1.4-0.1c0.3,0.1,0.6,0.4,0.9,0.6c0.1,0.1,0.2,0.1,0.3,0.1c0.2-0.1,0.5-0.2,0.7-0.3
		c0.2,0,0.3,0,0.5,0.1c0.3-0.1,0.7-0.2,1-0.3c0,0,0,0.1,0,0.1c-0.2,0.2-0.4,0.4-0.6,0.7c0,0,0,0.1,0,0.1c0.2,0,0.5,0.1,0.5,0
		c0.3-0.4,0.7-0.3,1.1-0.1c0.1,0,0.2,0,0.3,0c-0.1-0.2-0.1-0.3-0.1-0.4c-0.1-0.2-0.2-0.3-0.4-0.1c-0.1,0-0.2,0-0.3,0
		c0.1-0.1,0.1-0.2,0.2-0.3c0.1-0.1,0.2-0.1,0.3-0.1c-0.1-0.2-0.1-0.2-0.8-0.1c-0.3,0-0.6,0.1-0.9,0.1c-0.3,0-0.6,0-0.9,0
		c-0.1-0.4,0-0.7,0.5-0.7c0.3,0,0.7,0,1,0c0.3,0,0.6-0.1,0.9-0.1c0.4,0,0.9-0.1,1.3-0.1c0.5,0,0.9,0.1,1.4,0.1c0.3,0,0.7,0,1,0.1
		c0.3,0,0.6,0,0.8-0.4c0.1-0.3,0.3-0.3,0.5-0.1c0.2,0.2,0.7,0.2,0.5,0.6c0.3,0,0.6,0.1,0.9,0.1c0-0.2,0-0.3,0-0.5
		c0.2,0.1,0.3,0.2,0.5,0.3v-0.7c0.5-0.1,0.5,0.1,0.3,1.1c0.6,0.1,1.2,0.2,1.8,0.3c0.1,0,0.2,0,0.2-0.1c0.3-0.5,0.6-0.2,1-0.1
		c0.3,0.1,0.6,0.2,1,0.2c0.1,0.1,0.2,0.2,0.3,0.4c0.1-0.2,0.2-0.4,0.3-0.5c-0.1,0-0.1,0-0.2,0c-0.2-0.3-0.4-0.6-0.6-0.9
		c0.1-0.1,0.2-0.2,0.2-0.2c0.4,0,0.9,0.1,1.3,0.2c0.5,0.1,0.9,0.3,1.4,0.1c0.1,0,0.2,0,0.3,0c0.5,0.1,0.9-0.4,0.8-0.9
		c-1.2,0.2-1.5,0.1-1.3-0.6c-0.3-0.2-0.7-0.4-1-0.1c-0.1,0.2,0.1,0.6,0.1,1.1c-0.2,0-0.4,0-0.7,0.1c-0.1-0.3-0.1-0.5-0.1-0.7
		c0-0.1,0.1-0.2,0.1-0.4c0.1-0.3,0.2-0.6,0.2-0.8c0-0.2-0.1-0.4-0.5-0.4c-0.3,0-0.6-0.2-0.9,0c-0.1,0.1-0.2,0.2-0.3,0.3
		c0.1,0,0.3,0.1,0.4,0.1c0.1,0,0.3,0,0.4,0c0,0.1,0,0.3-0.1,0.4c-0.2,0.3-0.4,0.6-0.7,0.8c-0.2,0.2-0.4,0.4-0.1,0.6
		c0.2,0.3,0,0.4-0.3,0.6c0-0.2-0.1-0.4-0.1-0.6c0-0.4,0-0.7-0.5-0.8c-0.1,0-0.3-0.2-0.2-0.3c0.1-0.2,0.2-0.3,0.3-0.4
		c0.1,0.1,0.2,0.2,0.3,0.3c0.1,0.2,0.2,0.3,0.4,0.5c0.4-0.5,0.2-0.8-0.3-1c-0.7-0.3-0.7-0.3-0.1-0.8c0.3-0.2,0.5-0.3,0.9-0.2
		c0.1,0,0.4,0,0.4-0.1c0.1-0.2,0-0.4,0-0.6c0,0-0.1-0.1-0.1-0.1c-0.2-0.1-0.5-0.4-0.7-0.4c-0.4,0-0.3,0.4-0.4,0.7
		c-0.1,0.1-0.2,0.2-0.3,0.2c-0.3,0.1-0.5,0.2-0.7,0.6c-0.3,0.6-1,0.8-1.5,0.4c0.2,0,0.4-0.1,0.6-0.1c0.3,0,0.5-0.1,0.5-0.5
		c0-0.2,0-0.5,0.1-0.7c0.1-0.2,0.2-0.4,0.5-0.2c0.1,0.1,0.3,0,0.4,0.1c-0.1-0.3-0.2-0.4-0.3-0.6c0.2-0.1,0.5-0.1,0.8-0.2
		c0-0.3-0.2-0.4-0.5-0.3c-0.3,0-0.5,0.1-0.9,0.2c0,0.1,0.1,0.2,0.1,0.4h-0.8c0.2-0.8,0-1.3-0.9-1.4c-0.3,0.3-0.4,0.3-0.7,0
		c-0.4-0.6-0.4-0.6-1.1-0.3c-0.1,0-0.1,0-0.2,0c-0.3-0.9-0.4-0.9-1-0.8c-0.3-0.3-0.5-0.6-0.8-0.7c-0.5-0.2-0.4,0.4-0.7,0.5
		c0,0-0.1-0.1-0.1-0.1c-0.1-0.5-0.5-0.9-0.9-1.1c-0.5-0.4-0.9-0.6-0.8-1.3c0-0.1-0.3-0.2-0.3-0.3c0-0.3,0-0.7,0.2-1
		c0.4-0.5,0.4-0.7-0.2-0.9c-0.1,0-0.1-0.2-0.2-0.3c0,0,0.1-0.1,0.1-0.1c0.1,0.1,0.2,0.1,0.2,0.2c0.3,0.3,0.6,0.5,0.9,0.1
		c0-0.1,0.2-0.1,0.2-0.1c0.3,0.2,0.7,0.4,1,0.5c0.1,0.1,0.3,0.2,0.4,0.2c0.3,0.1,0.5,0.1,0.8,0.1c0-0.1,0.1-0.2,0.1-0.3
		c0.3,0.2,0.7,0.3,0.9,0.5c0.2,0.1,0.1,0.5,0.2,0.7c0.3,0,0.6-0.1,0.8-0.1c0.3,0,0.6,0.1,0.9,0.1c0.3,0,0.6-0.1,0.9-0.1
		c0.2,0,0.4-0.1,0.6,0c0.1,0,0,0.3,0.1,0.5c0,0.1,0,0.3,0.1,0.4c0.1,0.2,0.3,0.2,0.4,0c0.1-0.4,0.4-0.4,0.6-0.4
		c0.2,0,0.4-0.1,0.6-0.2c0-0.1,0-0.1,0-0.2c-0.2-0.1-0.4-0.2-0.7-0.4c0.6-0.1,0.6-0.6,0.8-1c0.1-0.2,0.6-0.1,0.9-0.2
		c0,0.1,0,0.1,0.1,0.2c-0.2,0.1-0.5,0.2-0.7,0.2c0,0.3,0.1,0.6,0.1,0.8c0,0.6,0.2,0.8,0.7,0.9c0.4,0,0.8,0.1,1.2,0.2
		c1.1,0.3,2.2,0.4,3.3,0.6c0.1,0,0.2,0.1,0.3,0.1c0.1,0,0.2,0.1,0.3,0.1c1,0.1,1,0.1,1.6,0.4c0-0.1,0.1-0.3,0.1-0.5
		c0.3,0.1,0.5,0.2,0.9,0.4c0-0.3-0.2-0.5-0.1-0.7c0.1-0.2,0.3-0.3,0.4-0.4c-0.4-0.5-0.9-0.6-1.4-0.3c-0.1-0.1-0.2-0.3-0.4-0.5
		c0.8,0.1,1.5,0.3,2.2,0.4c-0.1,0.1-0.1,0.2-0.2,0.3c0.3-0.1,0.6-0.1,0.9-0.2c0,0,0,0.1,0.1,0.1c-0.8,0.2-0.3,0.9-0.5,1.3
		c0,0,0.3,0.2,0.4,0.3c0.1,0.2,0.3,0.3,0.5,0.5c0.2-0.6,0.6-0.3,0.9-0.4c0,0.1,0,0.2,0,0.4c0.3-0.1,0.5-0.2,0.8-0.3
		c0,0.2-0.1,0.3-0.1,0.5c0.6,0.2,0.7-0.2,0.8-0.5c0.2,0.2,0.4,0.4,0.5,0.6c0.1,0.1,0.1,0.2,0.1,0.3c0.1,0.1,0.2,0.3,0.3,0.3
		c0.1,0,0.3-0.2,0.3-0.3c0.1-0.2,0.1-0.4,0-0.6c-0.1-0.3-0.2-0.5-0.6-0.5c-0.2,0-0.3-0.4-0.5-0.6c0,0-0.1,0-0.1,0
		c-0.2,0.7-0.6,0.2-0.9,0.1c-0.3,0.5-0.3,0.5-0.7,0.1c-0.2-0.2-0.4-0.2-0.7-0.1c-0.2,0.1-0.5,0.2-0.8,0.4c0-0.3,0-0.5,0-0.8
		c0-0.6,0.3-0.8,0.9-0.7c1.2,0.3,2.4,0.5,3.6,0.7c1.1,0.2,2.1,0.5,3.2,0.7c0.5,0.1,1,0.1,1.5,0.2c1.1,0.2,2.2,0.4,3.3,0.6
		c1,0.2,2,0.3,3,0.4c0.2,0,0.4,0.1,0.7,0.2c0.1,0,0.4-0.1,0.6-0.2c0.8,0,1.6,0,2.4,0c0.1,0.2-0.1,0.7,0.4,0.8c0.1,0,0.3-0.1,0.4-0.2
		c0,0,0-0.1-0.1-0.1c-0.1,0-0.1,0.1-0.2,0.1c-0.1,0-0.2,0-0.3-0.1c0,0,0-0.2,0.1-0.3c0.5-0.2,0.9-0.5,1-1.1c0-0.1,0.4-0.2,0.7-0.3
		c-0.2,0.8-0.4,1.4-0.6,2.1c0,0.1-0.2,0.2-0.4,0.2c-0.2,0.1-0.4,0.1-0.6,0.2c-0.1,0-0.1,0.3-0.2,0.4c0,0.2,0,0.4,0,0.6
		c-0.7,0.2-1.1,0-1.1-0.8c-0.2,0.3-0.3,0.4-0.4,0.6c-0.1,0.3-0.3,0.4-0.6,0.5c-0.2,0.1-0.4,0.4-0.6,0.7c0,0-0.1-0.1-0.2-0.2
		c-0.1-0.1-0.3-0.2-0.4-0.2c-0.4,0-0.9-0.1-1.4-0.1c0.1-0.4,0.3-0.4,0.5-0.3c0.3,0.1,0.5,0.1,0.5-0.3c0-0.1,0-0.1,0-0.2
		c0.1-0.5,0-1,0.8-1c0,0-0.1-0.1-0.1-0.1c-0.4-0.1-0.7-0.2-1.1-0.2c-0.1,0.6-0.3,0.8-0.8,0.5c-0.1-0.1-0.3,0-0.4,0
		c0.1,0.1,0.2,0.2,0.2,0.3c0.4,0.8-0.2,1-0.8,1.2c-0.2,0.1-0.6-0.2-0.9-0.3c0-0.1,0-0.1,0-0.2c-0.1,0.1-0.2,0.2-0.3,0.3
		c-0.3-0.1-0.6-0.1-0.7-0.2c-0.3-0.3-0.6-0.4-1-0.3c0,0-0.1-0.2-0.2-0.3c-0.4,0.3-0.8,0.5-1.1,0.8c0,0-0.1,0.1-0.2,0.1
		c-0.5-0.3-1,0-1.4,0c-0.1-0.5-0.1-0.9-0.2-1.3c-0.1,0-0.1,0-0.2,0c-0.2,0.3-0.4,0.7-0.6,1c-0.1-0.5-0.5-0.8-1-1
		c-0.1,0-0.2-0.1-0.3-0.1c-0.3,0.2-0.6,0-0.9-0.1c-0.6-0.4-1.2-0.2-1.7,0.1c-0.3,0.2-0.4,0.1-0.4-0.2c0-0.2,0-0.4,0-0.7
		c-1.4,0.3-2.8,0.2-4.3,0c0.1-0.1,0.2-0.2,0.2-0.2c0.1-0.1,0.2-0.2,0.2-0.3c-0.1-0.1-0.2-0.1-0.4-0.2c-0.5-0.1-1.1-0.2-1.6-0.3
		c-0.1,0-0.2-0.2-0.3-0.4c-0.3,0.2-0.7,0.3-1.2,0.5c0.1,0.1,0.2,0.1,0.3,0.2c0.2,0.2,0.1,0.5-0.2,0.6c-0.1,0.1-0.3,0.2-0.4,0.3
		c0.5,0,0.9,0.1,1.4,0.1c0.2,0,0.4-0.2,0.7-0.2c0.2-0.1,0.3-0.1,0.5-0.2c0,0,0,0.1,0.1,0.1c-0.1,0.1-0.1,0.2-0.2,0.2
		c-0.2,0.2-0.1,0.3,0.1,0.4c0.3,0.1,0.6,0.2,1,0.2c0,0.1,0.1,0.3,0.1,0.5c0.3-0.1,0.6-0.2,0.8-0.3c0.1-0.1,0.3-0.1,0.5-0.1
		c0.6,0.2,1.1,0.5,1.7,0.7c0.1,0,0.2,0.1,0.3,0.2c0.2,0,0.3,0,0.5,0c0-0.2-0.1-0.4-0.1-0.5c-0.1-0.1-0.2-0.2-0.4-0.3
		c0,0,0-0.1,0.1-0.1c0.2,0.1,0.3,0.1,0.5,0.2c0.2,0.1,0.4,0.3,0.6,0.3c0.7-0.1,0.9,0.4,1.2,0.8c-0.4,0.2-0.7,0.1-1.1-0.6
		c-0.2,0.3-0.2,0.5,0.2,1c-0.3,0.3-0.4,0.3-0.6-0.1c0-0.1-0.2-0.2-0.3-0.2c-0.4,0.2-0.8-0.1-1.1-0.3v0.7c0.2,0,0.3,0.1,0.5,0.1
		c0.7,0.1,1.2,0.4,1.7,0.8c0.2,0.1,0.4,0.1,0.7,0.2c0.3,0.1,0.5,0.2,0.8,0.3c0.6,0.2,1.2,0.4,1.8,0.6c0.2,0.1,0.3,0.2,0.5,0.3
		c0.1,0.1,0.2,0.1,0.3,0.2c0.3,0.2,0.8,0.2,1,0.5c0.5,0.4,0.9,0.3,1.3,0.2c0.2,0.2,0.3,0.5,0.4,0.6c0.3,0.3,0.6,0.6,1.1,0.4
		c0,0,0.2,0.2,0.3,0.3c0.3,0.5,0.4,0.5,0.7,0c0,0,0.1-0.1,0.1-0.1c0,0,0.1,0,0.1,0.1c0.1,0.2-0.2,0.6,0.2,0.7
		c0.3,0.1,0.5,0.2,0.7,0.3c0.2,0.1,0.3,0.3,0.4,0.4c0.2,0.2,0.4,0.4,0.6,0.6c0,0,0.2,0,0.3-0.1c0.3-0.3,0.5-0.2,0.6,0.1
		c0.2,0.3,0.3,0.3,0.5,0c0.1-0.1,0.3-0.2,0.4-0.3c0.1-0.1,0.3-0.3,0.4-0.5c0.7,0.4,0.5,1.2,0.7,1.7c-0.1,0.1-0.4,0.3-0.5,0.4
		c-0.1,0.3,0.2,0.5,0.5,0.6c0.4,0.1,0.8,0.3,1.1,0.4c0,0.6,0.4,0.8,1,0.5c0.2,0.3,0.5,0.6,0.2,1c-0.1,0.1-0.1,0.2,0,0.3
		c0.1,0.3,0.2,0.5-0.1,0.7c0,0,0,0.2,0,0.3c0.1,0.3,0.2,0.6,0.4,1.1c-0.3-0.1-0.5-0.1-0.6-0.2c-0.4-0.2-0.4,0-0.4,0.3
		c0.5,0.1,0.8,0.5,0.5,1c-0.1,0.2-0.1,0.4-0.2,0.7l0,0c-0.3,0.1-0.6,0.1-0.9,0.2c-0.1,0-0.3,0.2-0.3,0.3c0,0.8-0.7,0.9-1.2,1.3
		c-0.1,0-0.3-0.2-0.4-0.2c-0.1,0-0.3-0.1-0.3-0.1c-0.4,0.4-0.7,0.3-0.9-0.2c0,0-0.1-0.1-0.1-0.1c-0.3,0.1-0.5,0.1-0.6,0.2
		c-0.3,0.2-0.5,0.4-0.7,0.4C187.1,158.2,186.8,158,186.7,157.7c0.5,0.2,0.3-0.6,0.7-0.6c0.1,0.1,0.2,0.2,0.2,0.3
		c0.4-0.1,0.8-0.2,1.2-0.3c0.1,0,0.2,0.1,0.2,0.1c0.3,0.3,0.7,0.3,0.9-0.2c0-0.1,0.1-0.2,0.2-0.5c0.1,0.3,0.1,0.4,0.2,0.5
		c0.1,0.4,0.4,0.4,0.6,0.3c0.2-0.1,0.3-0.4,0.4-0.6c-0.2,0-0.4,0-0.6,0.1c0,0-0.1,0-0.1,0c0,0-0.1-0.1-0.1-0.1
		c0-0.5-0.3-0.6-0.7-0.5c-0.3,0-0.7,0.1-1,0.1c-0.3,0-0.4,0.1-0.3,0.4c0.1,0.2,0.1,0.4-0.2,0.5c-0.3,0-0.5-0.1-0.5-0.4
		c0-0.3-0.6-0.7-0.9-0.7c-0.7,0.1-1.3,0.3-1.9-0.2c-0.1-0.1-0.2,0-0.4-0.1c0.1,0.2,0.1,0.5,0.2,0.5c0.4,0.2,0.8,0.6,1.4,0.1
		c0,0.4,0,0.6,0,0.9c0,0,0.1,0,0.1,0c0.1-0.1,0.1-0.3,0.2-0.4c0.3,0.1,0.5,0.2,0.4,0.6C186.7,157.4,186.7,157.5,186.7,157.7"/>
	<path class="st0" d="M163,156.5c0.1-0.1,0.2-0.2,0.3-0.5c-0.3,0-0.5,0.1-0.7,0.1c-0.2,0-0.4,0.1-0.6,0.1c-0.2,0-0.3-0.1-0.5-0.1
		c-0.7-0.1-0.9-0.2-1.3-1c0.4,0,0.8,0,1.2-0.1c0,0,0,0,0,0c0.1-0.1,0.1-0.3,0.2-0.4c0,0.1,0.1,0.3,0.1,0.4c0,0.4,0.2,0.6,0.6,0.6
		c0.4,0,0.6-0.1,0.9-0.4c0.3-0.4,0.8-0.3,1.2,0.3c-0.2,0-0.4-0.1-0.5-0.1c-0.1,0-0.3,0.1-0.4,0.2c0.1,0.1,0.2,0.2,0.3,0.2
		c0.2,0.1,0.5,0.1,0.7,0.2c0.2,0.1,0.3,0.3,0.1,0.4C164.2,156.6,163.6,156.8,163,156.5"/>
	<path class="st0" d="M167.1,155.8c0.4,0.2,0,0.6,0.6,0.6c0.2,0,0.5,0.2,0.7,0.3c0.2-0.1,0.3-0.2,0.4-0.3c0,0,0.1,0.1,0.1,0.1
		c0,0.1-0.1,0.2-0.2,0.4c0.3,0.2,0.7,0.3,1,0.5c0-0.1,0-0.1,0-0.2c0.1-0.2,0.2-0.5,0.4-0.6c0.4-0.2,0.8-0.2,1.1,0.1
		c0.1,0.2-0.1,0.6-0.1,1c-0.4-0.3-0.7-0.3-1,0c-0.1,0.1-0.3,0-0.4,0c-0.5-0.1-1-0.3-1.6-0.4c0,0,0-0.1,0-0.1
		c-0.1,0.1-0.2,0.2-0.4,0.3v-0.7c-0.2-0.1-0.6-0.1-0.6-0.3C167,156.4,167.1,156.1,167.1,155.8"/>
	<path class="st0" d="M187,159.9c-0.1,0.1-0.1,0.3-0.2,0.3c-0.2,0.1-0.3,0.3-0.5,0.3c-0.1,0-0.2-0.2-0.3-0.4
		c-0.1-0.3-0.2-0.4-0.5-0.2c-0.4,0.2-0.7,0.4-1,0c0-0.1-0.2,0-0.3,0c-0.2,0-0.3-0.1-0.5-0.1c0-0.1,0-0.1,0-0.2
		c0.1,0,0.3-0.1,0.4-0.1c0.4-0.1,0.8-0.1,0.7-0.7c0-0.1,0.1-0.1,0.1-0.2c0.2-0.1,0.3-0.3,0.5-0.4c0.1,0,0.2,0,0.4,0
		c0,0,0,0.1,0.1,0.1c-0.2,0.1-0.4,0.2-0.6,0.4c-0.1,0.1-0.3,0.3-0.3,0.4c0,0.1,0,0.3,0.1,0.4c0.1,0.1,0.3,0,0.4,0
		c0.6-0.4,1.4-0.4,1.9,0.2c0.2,0.2,0.1,0.6,0.1,0.9c0,0-0.1,0.1-0.1,0.1c-0.1-0.1-0.1-0.1-0.2-0.2c-0.1-0.2-0.1-0.4-0.2-0.6
		C187.1,159.9,187,159.9,187,159.9"/>
	<path class="st0" d="M165.8,155.5c0.4,0.5,0.9,1,0.8,1.7c0,0.1-0.2,0.3-0.3,0.3c-0.6-0.1-0.9-0.4-1.3-0.8c-0.2-0.3,0-0.5,0.2-0.6
		C165.7,156,165.9,155.8,165.8,155.5"/>
	<path class="st0" d="M153.6,154.1c1-0.4,1.9,0.4,2.7-0.5c-0.1,0.4-0.1,0.7-0.2,1C155.2,155.2,154.5,154.4,153.6,154.1"/>
	<path class="st0" d="M182,161.7c-0.1-0.2-0.2-0.3-0.3-0.5c-0.2-0.3-0.1-0.5,0.3-0.5c0.3,0,0.7-0.3,1,0.1c0.1,0.1,0.3-0.1,0.5-0.1
		c0.1,0,0.2,0,0.3,0c0,0.1,0,0.3-0.1,0.3c-0.2,0.2-0.4,0.3-0.8,0.1c-0.2-0.2-0.6-0.2-1-0.3c0.1,0.3,0.1,0.6,0.1,0.8
		C182,161.7,182,161.7,182,161.7"/>
	<path class="st0" d="M168.4,135.9c0.1-0.2,0.2-0.3,0.4-0.4c-0.2-0.2-0.4-0.3-0.6-0.4c0-0.1,0.1-0.1,0.1-0.2
		c0.4,0.1,0.8,0.2,1.1,0.3c-0.1,0.3-0.1,0.6-0.2,0.8C168.9,136.3,168.8,136.2,168.4,135.9"/>
	<path class="st0" d="M158.6,145.7c0-0.2-0.1-0.5-0.1-0.7c0.3-0.1,0.5-0.2,0.7-0.3c0.3-0.1,0.6-0.4,0.8,0
		C159.5,145.1,159.1,145.4,158.6,145.7"/>
	<path class="st0" d="M158.3,155.2c-0.4,0-0.7,0.1-0.9,0.1c-0.1,0-0.3-0.1-0.3-0.1c0.1-0.2,0.2-0.5,0.3-0.5c0.2-0.1,0.5,0,0.8,0.1
		C158.3,154.7,158.3,155,158.3,155.2"/>
	<path class="st0" d="M192.8,156.4c0.4-0.2,0.9-0.1,0.9-0.8c0.2,0.1,0.3,0.1,0.4,0.2c0.1,0,0.2,0.1,0.2,0.2c0,0.1-0.1,0.2-0.2,0.2
		c-0.5,0.1-0.9,0.3-0.8,1c0,0-0.1,0-0.1,0C193,156.9,192.9,156.7,192.8,156.4C192.9,156.4,192.8,156.4,192.8,156.4"/>
	<path class="st0" d="M179.6,141.8c0.7-0.3,1-0.3,1.3,0c0.2,0.2,0.1,0.4-0.1,0.4c-0.2,0-0.5,0-0.7-0.1
		C180,142,179.8,141.9,179.6,141.8"/>
	<path class="st0" d="M151.1,153.4c0.1,0,0.2,0,0.3,0c0.1,0,0.3,0,0.3,0c0,0.1,0,0.3,0,0.4c0,0-0.2,0-0.3,0c-0.3,0-0.5,0.1-0.8,0.1
		c-0.1,0-0.3,0-0.4,0c0.1-0.1,0.1-0.2,0.2-0.3c0.2-0.1,0.4-0.2,0.6-0.4C151,153.3,151,153.4,151.1,153.4"/>
	<path class="st0" d="M158.8,155.3c0.1-0.1,0.1-0.2,0.1-0.2c0.1-0.1,0.3-0.3,0.4-0.4c0.1,0.2,0.3,0.4,0.4,0.6c0,0-0.1,0.3-0.2,0.3
		C159.4,155.4,159.1,155.3,158.8,155.3"/>
	<path class="st0" d="M202.5,113.2c0.4,0.2,0.8,0.4,1.3,0.6C203,114.1,202.4,113.7,202.5,113.2"/>
	<path class="st0" d="M159.6,143.8c0,0.1-0.1,0.2-0.1,0.4c-0.3-0.2-0.6-0.4-0.8-0.6c-0.1-0.1-0.1-0.2-0.1-0.3c0.1,0,0.3,0,0.4,0.1
		C159.2,143.5,159.3,143.7,159.6,143.8"/>
	<path class="st0" d="M192.6,146.6c-0.3,0.5-1,0.9-1.2,0.8c0.2-0.2,0.4-0.5,0.6-0.6C192.1,146.6,192.4,146.6,192.6,146.6"/>
	<path class="st0" d="M164.8,135.6c-0.2-0.1-0.3-0.2-0.3-0.3c-0.1-0.1-0.2-0.2-0.3-0.3c0.2,0,0.4-0.1,0.5-0.1c0.1,0,0.2,0.2,0.2,0.3
		C165,135.3,164.9,135.4,164.8,135.6"/>
	<path class="st0" d="M167.2,134.6c0.3,0.1,0.5,0.2,0.8,0.3c-0.3,0.2-0.5,0.3-0.7,0.5C167.3,135.1,167.2,134.9,167.2,134.6"/>
	<path class="st0" d="M184.4,145.3c-0.2-0.2-0.3-0.3-0.5-0.5c0.3-0.1,0.5-0.2,0.8-0.3c0,0,0.1,0.1,0.1,0.1
		C184.6,144.8,184.5,145,184.4,145.3"/>
	<path class="st0" d="M169.3,156.2c-0.3,0-0.6,0-0.9-0.1c-0.1,0-0.2-0.2-0.2-0.2c0.1,0,0.2-0.1,0.3-0.1
		C168.7,155.9,169,156,169.3,156.2C169.3,156.2,169.3,156.2,169.3,156.2"/>
	<path class="st0" d="M170.3,136.3c-0.2-0.2-0.4-0.3-0.6-0.4c0.1-0.1,0.2-0.2,0.3-0.2C170.4,135.7,170.5,135.9,170.3,136.3"/>
	<path class="st0" d="M178.8,141.7c0.1,0.2,0.2,0.3,0.3,0.4c-0.1,0.1-0.3,0.2-0.4,0.2c-0.1,0-0.2-0.2-0.3-0.3
		C178.6,141.9,178.7,141.9,178.8,141.7"/>
	<path class="st0" d="M149.5,146.2c-0.5,0.1-0.9,0.1-1.4,0.2c0-0.1,0-0.1,0-0.2c0.5-0.1,0.9-0.1,1.4-0.2L149.5,146.2z"/>
	<path class="st0" d="M205,109.6c0.2,0,0.4,0,0.6,0c0,0.1-0.1,0.3-0.1,0.4c-0.2-0.1-0.3-0.1-0.5-0.2C205,109.8,205,109.7,205,109.6"
		/>
	<path class="st0" d="M181.8,142.7c0.2,0,0.4,0,0.6,0c0,0,0,0.2,0,0.3h-0.6C181.8,142.8,181.8,142.7,181.8,142.7"/>
	<path class="st0" d="M183.3,142.5c-0.2,0-0.4,0.1-0.6,0.1c0,0,0-0.1-0.1-0.1c0.1-0.1,0.1-0.3,0.2-0.3c0.1,0,0.3,0.1,0.5,0.1
		C183.3,142.3,183.3,142.4,183.3,142.5"/>
	<path class="st0" d="M202.3,114c0.3,0.1,0.6,0.1,0.9,0.2c0,0.1,0,0.1,0,0.2c-0.3,0.2-0.6,0-0.9-0.2
		C202.2,114.1,202.3,114,202.3,114"/>
	<path class="st0" d="M174.2,160.2v-0.7c0.2,0.1,0.4,0.2,0.6,0.3C174.6,159.9,174.4,160,174.2,160.2"/>
	<path class="st0" d="M188.1,159.9c0.2-0.1,0.4-0.1,0.6-0.2c0,0,0.1,0.1,0.1,0.2c-0.2,0.1-0.4,0.1-0.6,0.2
		C188.1,160,188.1,160,188.1,159.9"/>
	<path class="st0" d="M161.6,144.4c0.2,0,0.5,0,0.5,0c0,0.2,0,0.4,0,0.5c0,0-0.1,0-0.1,0C161.9,144.8,161.8,144.7,161.6,144.4"/>
	<path class="st0" d="M185.4,142.4c-0.1,0.1-0.2,0.2-0.3,0.2c-0.1,0.1-0.3,0.1-0.4,0.1c0.1-0.1,0.2-0.2,0.2-0.3
		c0.1-0.1,0.2-0.1,0.3-0.2C185.4,142.4,185.4,142.4,185.4,142.4"/>
	<path class="st0" d="M162.6,145.9c-0.1-0.2-0.1-0.3-0.2-0.5c0.1,0,0.2-0.1,0.2,0c0.1,0.2,0.1,0.3,0.1,0.5
		C162.7,145.8,162.7,145.8,162.6,145.9"/>
	<path class="st0" d="M185.9,142.8c0.2,0,0.3,0.1,0.5,0.1c0,0.1-0.1,0.2-0.1,0.3c-0.1-0.1-0.3-0.1-0.4-0.2
		C185.8,142.9,185.9,142.9,185.9,142.8"/>
	<path class="st0" d="M190,159.5c0.1-0.2,0.1-0.3,0.2-0.5c0,0,0.1,0.1,0.2,0.1c-0.1,0.2-0.2,0.3-0.2,0.5
		C190.1,159.5,190,159.5,190,159.5"/>
	<path class="st0" d="M198.2,112c-0.1-0.1-0.2-0.3-0.4-0.4c0.1,0,0.1-0.1,0.2-0.1c0.1,0.1,0.3,0.3,0.4,0.4
		C198.4,111.9,198.3,112,198.2,112"/>
	<path class="st0" d="M166.8,92.2c-0.1-0.2-0.3-0.4-0.4-0.6c0,0,0.1-0.1,0.1-0.1c0.2,0.2,0.3,0.4,0.5,0.6
		C166.9,92.1,166.9,92.2,166.8,92.2"/>
	<path class="st1" d="M154.4,136.7c0-0.1,0.1-0.2,0.1-0.3c-0.2-0.1-0.4-0.2-0.6-0.2c0,0-0.1,0.2-0.2,0.3
		C154,136.6,154.2,136.7,154.4,136.7 M155,136.7c0.4,0,0.6,0,0.9,0c0-0.1-0.1-0.3-0.1-0.3C155.5,136.2,155.2,136.2,155,136.7
		 M97.4,149.3c-0.2-0.4-0.8-0.5-1.1-0.1C96.6,149.3,97,149.3,97.4,149.3 M63.1,159.7c0-0.1-0.1-0.2-0.1-0.3
		c-0.3,0.1-0.5,0.1-0.8,0.2c0.1,0.1,0.1,0.3,0.2,0.3C62.7,159.8,62.9,159.7,63.1,159.7 M141.8,132.5c-0.2,0.6,0.1,0.8,0.5,0.8
		c0.1,0,0.2-0.2,0.2-0.3C142.3,132.8,142,132.6,141.8,132.5 M61.4,155.6c0,0.1-0.1,0.1-0.1,0.2c0.1,0.4,0.4,0.5,0.7,0.5
		c0.1,0,0.1-0.2,0.2-0.4C62,155.8,61.7,155.7,61.4,155.6 M135.2,132.8c1.1,0,1.2-0.1,1.4-0.5C135.9,132.1,135.6,132.2,135.2,132.8
		 M73.5,160.4c-0.2-0.4-0.4-0.7-0.8-0.6c-0.1,0-0.1,0.5-0.2,0.8c0.4-0.1,0.6-0.1,0.8-0.1C73.4,160.5,73.4,160.4,73.5,160.4
		 M102.2,164.7c-0.2-0.2-0.3-0.4-0.4-0.4c-0.6-0.1-1.1-0.1-1.7-0.2c-0.2,0-0.4,0-0.5-0.1c-0.6-0.3-1.1-0.6-1.7-0.8
		c-1.1-0.2-2.2-0.4-3.3-0.5c-0.6-0.1-1.1-0.1-1.7-0.1c-0.4,0-0.4,0.2-0.5,0.5c-0.2,0.7,0.1,1.3,0.3,1.8c0.4,1.1,0.4,2.3,1.1,3.4
		c0.5,0.8,0.9,1.6,1.3,2.5c0.4,0.8,0.8,1.3,1.7,1.5c0.3,0.1,0.5,0.1,0.8-0.1c0.3-0.2,0.7-0.3,1-0.5c0.3-0.1,0.6-0.3,0.9-0.5
		c0.2-0.1,0.4-0.3,0.7-0.5c0-0.1,0.1-0.3,0.2-0.4c0.2-0.3,0.5-0.5,0.9-0.9c0.6-0.1,1.4-0.8,1.5-1.7c0-0.2,0.1-0.6,0.3-0.7
		c0.7-0.5,1.5-0.8,1.7-1.7c0-0.2,0.1-0.4,0.1-0.6c0,0-0.1-0.1-0.1-0.1C103.9,165.5,103,164.7,102.2,164.7 M93.9,146.3
		c0.7,0.3,1.2,0.6,1.8,0.8c0.8,0.3,1.7,0.6,2.5,0.9c0.6,0.2,1.2,0.4,1.9,0.5c1,0.2,2,0.2,2.9,0.4c1.5,0.3,2.9,0.7,4.4,1
		c1.5,0.3,3,0.6,4.4,1c1.2,0.3,2.4,0.6,3.6,1.1c1.4,0.6,2.5,0,3.5-0.9c0.5-0.4,0.9-1,1.4-1.4c0.1-0.1,0.2-0.2,0.4-0.2
		c0.9-0.1,1.5-0.8,2.2-1.2c1-0.7,1.3-2,2.3-2.6c0,0,0.1-0.1,0.1-0.1c0.2-0.4,0.4-0.8,0.6-1.2c0.5-0.9,0.8-1.9,0.4-2.9
		c-0.2-0.6-0.3-1.2-0.6-1.8c-0.2-0.6-0.7-1.1-0.5-1.8c0,0,0,0,0-0.1c-0.1-0.6-0.5-1.2-0.3-1.8c0.2-0.9-0.2-1.4-1.1-1.5
		c-1.1-0.2-2.2,0-3.3,0.1c-1.4,0.2-2.9,0-4.3,0c-0.9,0-1.7-0.1-2.6-0.1c-0.5,0-1.1,0.1-1.5,0c-0.4-0.1-0.8-0.1-1.1,0.1
		c-0.3,0.2-0.7,0.5-1,0.7c-0.7,0.4-1.3,0.8-2,1.1c-0.1,0-0.1,0.1-0.2,0.2c-0.2,0.2-0.3,0.5-0.6,0.6c-1,0.6-1.9,1.1-2.9,1.7
		c0,0,0-0.1-0.1-0.2c-0.2,0.2-0.3,0.4-0.4,0.5c-0.1,0.1-0.4,0.2-0.5,0.2c-0.4-0.2-0.5,0-0.6,0.3c-0.3,0.4-0.6,0.8-0.9,1.2
		c-0.2,0.2-0.6,0.2-0.8,0.4c-0.8,0.9-2,1.2-2.9,2.1c-0.7,0.7-1.7,1.2-2.5,1.9C94.8,145.4,94.4,145.8,93.9,146.3 M44,131.6
		c-0.2,0.1-0.4,0.1-0.7,0.2c-0.7,0-1.5,0-2.3,0c-0.2,0-0.4,0.1-0.5,0.2c-0.3,0.2-0.6,0.3-0.9,0.1c-0.6-0.2-1.1-0.4-1.7-0.6
		c-0.2-0.1-0.4-0.1-0.5-0.1c-0.8,0.1-1.6,0.1-2.4,0.2c-1,0.1-2.1,0.1-3.1,0.2c-0.8,0.1-1.7,0.2-2.4,0.8c-0.2,0.1-0.5,0-0.6,0.1
		c-0.6,0.5-1.2,0.4-1.8,0.1c-0.3-0.1-0.8,0-1.2,0.1c-0.1,0-0.2,0.1-0.3,0.2c-0.2,0.5-0.6,0.4-1,0.3c-0.3,0-0.7,0-1-0.1
		c-0.3,0-0.4-0.2-0.3-0.5c0.4-0.8,1-1.3,1.9-1.6c0.6-0.2,1.2-0.5,1.9-0.3c0.1,0,0.2,0,0.2,0c0.5-0.5,1.2-0.4,1.9-0.7
		c0.1,0.1,0.2,0.3,0.4,0.5c0.9-0.8,2-0.7,3.1-0.5c0.2,0,0.4-0.1,0.6-0.1c0.2,0,0.6,0,0.7,0.1c0.3,0.6,0.7,0.4,1.2,0.4
		c-0.1-0.6,0.1-0.6,0.6-0.5c0.3,0.1,0.7-0.2,1.1-0.2c0.2,0,0.5,0,0.8,0c0.3,0,0.7,0.2,0.9-0.3c0-0.1,0.2-0.1,0.3-0.1
		c0.4-0.1,0.8-0.1,1.2-0.2c0.1,0.3,0.3,0.4,0.7,0.2c0.5-0.2,0.9-0.1,1.4-0.1c0.6,0.1,1.3-0.2,2-0.3c0.8,0,1.7,0.1,2.5,0.1
		c0.2,0,0.4,0,0.5-0.1c0.4-0.3,0.8-0.4,1.2,0c0.1,0.1,0.4,0.2,0.4,0.2c0.3-0.2,0.6-0.3,0.8-0.4c0.5-0.3,0.9-0.6,1.4-0.8
		c0.4-0.2,0.9-0.4,1.3-0.6c0.3-0.1,0.6-0.3,0.9-0.4c0.9-0.4,1.8-0.7,2.7-1.1c1-0.4,1.9-1,2.8-1.4c0.7-0.3,1.4-0.6,2.1-1
		c0.6-0.3,1.2-0.5,1.9-0.8c0.5-0.2,0.9-0.6,1.5-0.4c0,0,0.1,0,0.2-0.1c1-0.6,2.1-1.1,3.3-1.5c0.8-0.3,1.6-0.7,2.5-1.1
		c0.8-0.3,1.6-0.5,2.4-0.7c0.3-0.1,0.5-0.2,0.8-0.3c0.3-0.1,0.6-0.2,0.8-0.2c0.1,0,0.3-0.1,0.4-0.1c0.4-0.2,0.8-0.4,1.2-0.5
		c1.3-0.4,2.7-0.8,4-1.2c0.9-0.3,1.7-0.6,2.6-0.8c1.5-0.2,2.7-1.1,4.1-1.6c1.1-0.4,2.1-0.8,3.2-1.2c0.3-0.1,0.6-0.4,1-0.5
		c0.8-0.3,1.5-0.5,2.3-0.8c0.6-0.2,1.3-0.4,2-0.6c0.3-0.1,0.6,0,0.8-0.1c0.5-0.2,0.9-0.4,1.4-0.5c0.7-0.2,1.4-0.2,2-0.4
		c1.3-0.4,2.7-0.2,4.1-0.4c0.9-0.1,1.9-0.1,2.9-0.1c0.4,0,0.7,0,1.1,0.1c0.5,0.2,1.1-0.1,1.6,0.4c0,0,0.1,0,0.2,0
		c1.1-0.4,2.2,0.1,3.3-0.2c0,0.6,0.2,0.7,0.7,0.5c0.6-0.4,1.1-0.3,1.5,0.1c0.3-0.1,0.5-0.2,0.7-0.2c1.2,0.1,2.3,0.1,3.4,0.4
		c1.8,0.5,3.8,0.4,5.6,1.2c0.4,0.2,0.9,0.1,1.4,0.2c1.2,0.3,2.3,0.6,3.5,0.9c0.9,0.2,1.8,0.5,2.8,0.5c0.6,0,1.1,0.3,1.7,0.4
		c1.5,0.4,3.1,0.9,4.6,1.3c2,0.6,4,1.3,6,2c1.9,0.6,3.7,1.2,5.6,1.8c1.2,0.4,2.3,0.7,3.5,1.1c2.1,0.6,4.2,1.2,6.2,2
		c2,0.8,4.2,1.4,6.3,1.9c2.1,0.6,4.2,1.2,6.3,1.7c0.4,0.1,0.8,0.1,1.3,0.2c0.2,0.1,0.6,0.1,0.7,0.3c0.3,0.4,0.6,0.3,0.9,0.1
		c0.6-0.2,1.4,0,1.8,0.5c0.1,0.1,0.2,0.2,0.3,0.3c0.3,0.2,0.8,0.3,0.8,0.5c0,0.6,0,1.2-0.2,1.8c-0.2,0.5-0.6,0.9-0.9,1.3
		c-0.4,0.5-0.7,1.1-1.1,1.5c-0.5,0.5-1.2,1-1.9,1.5c0,0,0.1,0.1,0.2,0.4c-0.7,0.4-1.4,0.8-2.1,1.2c-0.4,0.3-0.8,0.3-1.3,0.4
		c-0.9,0.1-1.8,0.3-2.5,1c-0.2,0.2-0.4,0.4-0.6,0.7c-0.4-0.4-1.4-0.1-1.7-1c-0.1-0.3-0.5-0.3-0.7,0c-0.2,0.3-0.3,0.7-0.9,0.3
		c0,0.1,0,0.1,0,0.2c0.1,0.2,0.2,0.4,0.4,0.6c-0.2,0-0.3,0.1-0.4,0.1c0.1,0.1,0.1,0.2,0.2,0.4c-0.2,0-0.4,0-0.6-0.1
		c-0.1,0-0.3-0.2-0.3-0.3c0-0.3,0.2-0.5,0.2-0.8c0.1,0,0.1,0,0.2,0c-0.2-0.2-0.3-0.4-0.5-0.6c0,0.1,0,0.1,0,0.2
		c-0.4,0.2-0.9,0.4-1.3,0.6c-0.2,0.1-0.5,0.2-0.7,0.4c-0.4,0.4-0.9,0.3-1.4,0.1c-0.4-0.2-0.4-0.2-0.6,0.1c-0.8-0.1-1.5-0.2-2.3-0.3
		c0.4-0.1,0.7-0.2,1-0.4c0.2-0.1,0.3-0.2,0.4-0.3c-0.2-0.2-0.5-0.6-0.6-0.6c-0.6,0.2-1.1,0.5-1.7,0.8c0,0.1,0,0.1,0.1,0.2
		c-0.4-0.1-0.7-0.2-1.1-0.3c-0.3-0.1-0.6-0.2-0.9-0.2c-0.6,0-0.7-0.4-0.9-0.9c-0.4,0.2-0.5,1-1.2,0.4c0.1-0.1,0.3-0.2,0.5-0.4
		c-0.4-0.1-0.8-0.3-1.1,0.1c-0.1,0.1-0.3,0.1-0.4,0.1c-0.2,0-0.4-0.2-0.6-0.2c-0.5,0.1-1,0.2-1.3-0.4c-0.1,0.2-0.2,0.4-0.3,0.4
		c-0.2,0-0.6,0.1-0.6,0c-0.5-1.3-1.5-1.1-2.6-0.9c-0.1,0-0.2,0-0.2,0c-0.1,0-0.2-0.1-0.4-0.1c0.1-0.1,0.1-0.2,0.2-0.3
		c0.1-0.1,0.5-0.2,0.2-0.5c-0.1-0.1-0.4,0.1-0.6,0.1c-0.1,0.1-0.3,0.1-0.4,0.2c0-0.1-0.2-0.2-0.1-0.3c0.1-0.2,0.2-0.4,0.3-0.5
		c0.2-0.1,0.4-0.1,0.6-0.1c0-0.1,0-0.1,0-0.2c-0.4,0-0.7-0.2-1.1-0.1c-0.3,0.1-0.7,0.3-0.5,0.8c0,0.1-0.1,0.3-0.2,0.3
		c-0.6,0-1.3,0.5-2-0.1c-0.1-0.1-0.5-0.1-0.7-0.1c-0.3,0-0.7,0-1.1,0c0.3-0.8,1-0.1,1.4-0.4c-0.7-0.6-1.4,0-2-0.3v0.6
		c-0.2,0-0.3,0-0.5-0.1c-0.1,0-0.2-0.1-0.3,0c-0.4,0.2-0.6,0.1-0.8-0.4c-0.5,0.2-1,0.4-1.5,0.6c-0.3,0.1-1.6-0.3-1.7-0.6
		c-0.2-0.7-0.2-0.7-1-0.5c-0.2,0.1-0.4,0-0.6,0c0.1,0.2,0.1,0.3,0.2,0.5c-0.3,0.1-0.6,0.3-0.8,0.3c-0.3-0.1-0.5-0.4-0.6-0.6
		c-0.6,0.2-1.3,0.5-2.1,0.8c0.2,0.6,0.5,1.2,0.7,1.8c0.2,0.7,0.6,1.5,0.3,2.3c-0.1,0.3,0.1,0.6,0.1,0.9c0.5,2.4-0.6,4.2-2,6
		c-0.7,0.9-1.5,1.9-2.3,2.7c-1,1-2.1,1.9-3.2,2.9c-0.2,0.1-0.3,0.3-0.4,0.4c-0.4,0.8-1.2,1.1-1.9,1.5c-0.2,0.1-0.3,0.3-0.4,0.5
		c0.2,0.1,0.3,0.2,0.5,0.2c0.1,0,0.3,0,0.4,0v0.4c0.3-0.1,0.5-0.1,0.8-0.2c0.4,0.5,2.3,1.4,2.9,1.2c0.4,0.6,0.9,0.8,1.6,0.5
		c0.3-0.1,0.7,0.2,0.6,0.5c-0.1,0.5,0.1,0.5,0.6,0.5c-0.1-0.2-0.1-0.3-0.2-0.5c0,0,0.1-0.1,0.1-0.1c0.3,0.5,1,0.4,1.2,1
		c0,0.1,0.2,0.1,0.3,0.1c0.5,0.1,0.8,0.2,0.7,0.8c0,0.2,0.1,0.4,0.1,0.6c-0.2,0.1-0.4,0.2-0.5,0.3c-0.2-0.2-0.3-0.4-0.4-0.5
		c-0.3,0.2-0.6,0.5-0.8,0.8c-0.1,0.2,0,0.5,0,0.8h-0.3c0,0,0.1,0.1,0.1,0.1c-0.4,0.4-0.8,0.8-1.2,1.2c-0.5,0.4-1,0.8-1.6,1.2
		c-0.4,0.3-0.9,0.6-1.4,0.9c-0.9,0.5-1.8,1.1-2.7,1.5c-0.6,0.3-1.3,0.3-1.9,0.5c-0.4,0.1-0.7,0.3-1.1,0.5c-0.2,0.1-0.5,0.1-0.6,0.1
		c-0.5-0.2-0.9,0-1.2,0.4c-0.1,0.1-0.2,0.2-0.3,0.2c-0.5,0.1-1,0-1.5,0.1c-0.3,0-0.6,0.2-0.9,0.3c-0.1-0.7-0.9-0.9-1.4-0.5
		c-0.7,0.5-0.9,0.6-1.6,0.1c-0.3-0.2-0.5-0.3-0.9-0.2c-0.8,0.3-1.5,0.5-1.8,1.4c0,0.1-0.1,0.1-0.1,0.2c-0.5-0.2-1,0.1-1.2,0.4
		c-0.4,0.7-1,1.1-1.6,1.6c-0.4,0.3-0.8,0.7-1.1,1c-0.3,0.3-0.7,0.6-1,0.9c-0.3,0.3-0.7,0.5-1,0.8c-0.9,0.6-2,1.1-3.1,1.3
		c-0.2,0-0.3,0.1-0.5,0.2c-0.1,0-0.3,0-0.5,0c-0.6-0.4-1.1-0.4-1.5,0.2c-0.2-0.1-0.4-0.2-0.6-0.3c-0.7-0.3-1.5-0.5-2.2-0.8
		c-0.2-0.1-0.2-0.4-0.4-0.7c-0.8,0-1.4-0.2-1.5-1.1c0-0.1-0.2-0.2-0.2-0.3c-0.1-0.1-0.3-0.2-0.3-0.3c-0.2-0.4-0.3-0.8-0.8-1
		c0,0,0-0.1-0.1-0.2c0.1,0,0.1-0.1,0.1-0.1c0.2,0,0.4,0,0.6,0c0,0,0.1-0.3,0-0.3c-0.2-0.1-0.4-0.3-0.5-0.3c-0.6-0.1-0.6-0.1-0.4-0.7
		c0.2-0.4,0.7-0.7,0.4-1.3c-0.3,0.3-0.6,0.5-0.9,0.8c-0.1-0.7-0.1-1.5-0.3-2.2c-0.2-0.7,0.1-1.6-0.8-2c0.4-0.7,0.4-0.7-0.2-1.3
		c-0.2-0.1-0.2-0.4-0.3-0.6c-0.1-0.3-0.1-0.5-0.5-0.3c-0.1,0.1-0.3-0.1-0.5-0.1c-0.2,0-0.5-0.3-0.6,0.1l0,0c-1,0.6-1,0.6-1.8-0.2
		c-0.6-0.6-0.6-0.6-1.3,0c-0.1-0.1-0.2-0.3-0.3-0.4c-0.1-0.1-0.3-0.2-0.4-0.3c-0.4,0.1-0.8,0.1-1.2,0.2c0.1,0.1,0.2,0.2,0.3,0.3
		c-0.2,0.4-0.4,0.8-0.5,1c-0.3,0-0.5-0.1-0.7-0.1c-0.3,0-0.5,0.1-0.6-0.3c0-0.1-0.3-0.2-0.4-0.2c-0.7,0-1.5,0-2.2,0.1
		c-0.4,0-0.8,0-0.9,0.5c0,0.1-0.4,0.2-0.5,0.1c-0.3-0.3-0.7-0.3-1-0.2c-0.2,0.1-0.5,0-0.7-0.1c-0.3-0.1-0.6-0.3-0.8-0.5
		c-0.2,0.3-0.4,0.6-0.5,0.6c-0.3-0.1-0.7-0.3-0.9-0.5c-0.2-0.2-0.3-0.3-0.6-0.1c-0.5,0.6-1.5,0.6-2.1,0c0,0-0.1-0.1-0.1-0.1
		c-0.1,0.2,0,0.5-0.2,0.6c-0.2,0.1-0.5,0.1-0.8,0.1v-0.6c-0.8-0.1-1.6-0.1-2.3-0.5c-0.6-0.3-1.1-0.1-1.6,0c-0.7,0.1-1.9-0.8-2-1.4
		c-0.1-0.6-0.6-0.8-1.2-0.7c-0.2-0.2-0.4-0.4-0.5-0.6c-0.1-0.1-0.2-0.2-0.2-0.3c0.1-0.7-0.3-0.8-0.8-0.8c-0.1,0-0.1,0-0.2-0.1
		c0-0.5-0.3-0.9-0.8-1.1c-0.3-0.1-0.4-0.5-0.8-1c-0.1,0.2-0.2,0.3-0.2,0.5c0,0.1,0.2,0.2,0.3,0.4c0.1,0.1,0.2,0.3,0.3,0.4
		c-0.1,0-0.1,0.1-0.2,0.1c-0.3-0.4-0.7-0.8-1-1.2c0.2-0.2,0.4-0.5,0.4-0.6c0-0.2-0.4-0.3-0.5-0.4c-0.4-0.3-0.8-0.4-1.3-0.4
		c-0.4,0-0.2-0.3-0.1-0.5c0.3-0.5,0.2-1-0.4-1.3v1.3c-0.1,0-0.1,0-0.2,0c-0.1-0.2-0.2-0.4-0.3-0.5c-0.1-0.1-0.2-0.3-0.3-0.3
		c-0.3,0-0.5-0.1-0.6-0.4c0,0-0.1-0.1-0.1-0.1c-0.2-0.1-1.3,0-1.6,0.3c-0.3-0.4-0.6-0.3-1-0.1c-0.6,0.2-1.1,0.8-2,0.5
		c-0.4-0.2-1,0.1-1.6,0.2c-0.2,0-0.4,0.1-0.7,0.1c-0.8,0.2-1.6,0.5-2.3,0.7c-0.4,0.1-0.9,0.3-1.3,0.4c-0.4,0.1-0.8,0.1-1.2,0.4
		c-0.4,0.2-1,0.1-1.5,0.2c-0.1,0-0.3,0-0.3,0c-0.3,0.7-1,0.4-1.5,0.7c-0.8,0.4-1.6,0.8-2.5,1.1c-0.3,0.1-0.6,0-0.9,0.1
		c-0.2,0.1-0.4,0.4-0.6,0.5c-0.8,0.3-1.6,0.4-2.3,0.7c-0.6,0.3-0.9,0.2-1.3-0.1c-0.4-0.3-0.8,0.1-0.8,0.7c-0.3,0-0.5-0.1-0.8-0.1
		c-0.6-0.1-0.8,0.2-1,0.7c-0.1,0.3-0.6,0.5-0.9,0.7c-0.1-0.1-0.1-0.2-0.2-0.2c0.2-0.1,0.3-0.3,0.5-0.4c-0.4-0.3-0.8-0.1-0.9,0.4
		c0,0.2-0.2,0.3-0.3,0.4c-0.2,0.1-0.5,0.2-0.7,0.3c-0.7,0.4-1.4,0.5-2.2,0.1c0.1-0.9,1-1.3,1.6-1.9c0.6-0.6,1.2-0.8,2-1
		c0.7-0.2,1.3-0.6,2-0.9c0.6-0.3,1.2-0.4,1.7-0.8c0.5-0.3,0.9-0.6,1.5-0.5c0.1,0,0.3-0.1,0.4-0.2c0.2-0.1,0.3-0.1,0.5-0.2
		c0.4-0.1,0.8-0.1,1.3-0.2c0.1,0,0.1-0.2,0.2-0.4c0.3,0.3,0.5,0.1,0.8-0.2c0.3-0.3,0.8-0.4,1.3-0.5c1-0.2,2.1-0.4,2.9-1.2
		c0.2-0.2,0.7-0.2,1-0.3c0.7-0.1,1.5-0.1,2.2-0.3c0.7-0.3,1.3-0.5,2-0.6c0.2,0,0.4-0.1,0.7-0.1c0.1,0,0.3,0,0.3,0
		c0.6-0.6,1.5-0.6,2.2-0.8c0.1,0,0.2-0.1,0.4-0.1c0.6-0.1,1.1-0.3,1.7-0.4c0.6-0.1,1.2,0,1.8,0c0.5,0,1.1-0.1,1.6-0.2
		c0.8-0.2,1.6-0.6,2.4-0.5c0.5,0.1,1,0.3,1.5,0.5c0.2,0.1,0.4,0.1,0.6,0.2c0.3,0.3,0.5,0.7,0.7,1.1c0,0.1-0.1,0.3-0.2,0.5
		c0.2,0.6,0.8,0.9,1.5,1.1c-0.1,0.6,0.1,0.9,0.7,0.9c0.1,0,0.1,0.1,0.2,0.2c1.6,1.4,3.1,2.8,4.8,4c1,0.7,2.4,1.1,3.6,1.4
		c1.6,0.4,3.2,0.6,4.8,0.8c0.3,0,0.6,0.1,1-0.2c0.3-0.2,0.8-0.1,1.2,0c0.5,0.1,1,0.2,1.5,0.3c0.7,0,1.5,0,2.2,0
		c0.6-0.1,1.3-0.2,1.9-0.3c0.1,0,0.2,0,0.3,0.1c0.7,0.4,1.1,0.2,1.4-0.5c0-0.1,0.2-0.2,0.3-0.2c0.5,0.1,1-0.1,1.3,0.4
		c0.2,0.4,0.6,0.3,0.8-0.1c0.1-0.1,0.3-0.3,0.4-0.3c0.2,0.1,0.3,0.3,0.5,0.5c0.5-0.1,1.3,0.4,2-0.2c0.1-0.1,0.3,0,0.5,0.1
		c0.4,0.2,0.8,0.3,1.3,0.5c0.1,0,0.2-0.1,0.5-0.2c-0.4-0.1-0.6-0.1-0.8-0.2c0,0,0-0.1,0-0.1c0.4,0,0.8-0.1,1,0.4
		c0,0.1,0.2,0.1,0.3,0.2c0.9,0.1,1.9,0.1,2.8,0.3c1.2,0.2,2.3,0.5,3.4,0.7c0.7,0.1,1.3,0.3,2,0.4c0.1,0,0.2,0,0.2,0
		c0.3,0.5,0.6,0.4,1.1,0.2c0.2-0.1,0.4,0,0.6,0.2c-0.1,0.1-0.2,0.1-0.4,0.2c1.2,0.5,2.4,0.9,3.6,1.3c0.2,0.1,0.3,0.1,0.5,0
		c0.4-0.1,0.8-0.1,1.1,0.2c0.1,0.1,0.4-0.1,0.7-0.2c-0.1,0-0.1,0,0,0c0.4,0.8,0.4,0.8,1.3,0.8c0.6,0,1.2-0.2,1.7,0.3
		c0,0,0.1,0.1,0.2,0.1c0.8,0.1,1.6,0.2,2.5,0.3c0.1,0,0.2,0,0.4-0.1c-0.6-0.4-1.2-0.7-1.8-1.1c1.6,0,2.9,0.6,4.4,0.8
		c0.1-0.4,0.5-0.1,0.9-0.1c0.2,0,0.5,0,0.7,0c0.6-0.1,1.2-0.3,1.8-0.4c0.2,0,0.4-0.1,0.4-0.2c0.2-0.5,0.7-0.5,1.1-0.6
		c1.3-0.3,2.4-0.9,3.5-1.5c0.6-0.3,1.3-0.6,1.7-1.3c0-0.1,0.3,0,0.5,0c0.1-0.3,0.3-0.7,0.5-1.1c0.1-0.3,0-0.5-0.4-0.5
		c-0.6-0.1-1.1-0.3-1.7-0.5c-0.3-0.1-0.5-0.3-0.8-0.5c-0.4-0.2-0.8-0.4-1.2-0.6c-0.4,0.5-0.8,0.2-1.2,0c-0.1-0.3,0.4-0.7-0.2-0.8
		c-0.2,0-0.4,0.3-0.6,0.4c0,0.1,0,0.1,0,0.2c-0.2-0.1-0.4-0.3-0.6-0.4c-0.2-0.1-0.5-0.4-0.7-0.4c-1-0.1-1.9-0.3-2.8-0.8
		c-0.2-0.1-0.5,0-0.7-0.1c-1.2-0.4-2.4-0.7-3.6-1.1c-0.3-0.1-0.6-0.1-0.9-0.1c-0.2,0-0.4,0-0.6,0c0-0.2,0-0.4,0-0.6
		c-0.8,0.3-1.3-0.2-1.9-0.5c-0.3,0.3-0.7,0.3-1.1,0.1c-0.8-0.4-1.7-0.6-2.6-0.7c-0.8-0.1-1.7,0-2.3-0.7c-0.1-0.1-0.5-0.1-0.7,0
		c-0.2,0-0.3,0.1-0.5,0.2c-0.6,0.1-0.8-0.2-0.8-0.8c-0.6,0.4-1.1,0.5-1.7,0c-0.2-0.2-0.5-0.1-0.7-0.2c-0.6-0.2-1.2-0.4-1.9-0.5
		c-0.1,0-0.3-0.1-0.4,0c-0.5,0.3-0.9,0-1.3-0.2c-0.5-0.2-1-0.3-1.5-0.5c-0.2-0.1-0.4-0.2-0.6-0.3c-0.4-0.1-0.8-0.5-1.1-0.4
		c-0.7,0.1-1.1-0.3-1.6-0.7c-0.1-0.1-0.1-0.2-0.1-0.3c0.3-0.7,0.7-1.5,1.1-2.2c0.1-0.2,0.5-0.3,0.8-0.5c0.3-0.1,0.6-0.1,0.5-0.6
		c0-0.1,0.2-0.3,0.3-0.4c0.6-0.6,1.3-1.1,2-1.7c0.1-0.1,0.2-0.2,0.4-0.2c0.1-0.1,0.2-0.1,0.3-0.1c0.6-0.7,1.3-1.2,2.1-1.6
		c0.3-0.1,0.6-0.2,0.9-0.3c0-0.1-0.1-0.2-0.2-0.4c0.9-0.2,1.5-0.8,2-1.5c0,0,0.1-0.1,0.1-0.1c0.9-0.1,1.5-0.5,2.2-1
		c0.5-0.3,1.1-0.5,1.6-0.8c1.3-0.7,2.6-1.4,3.9-2.1c0.6-0.4,1.2-0.8,1.9-1.2c0.3-0.2,0.5-0.4,0.8-0.5c1.1-0.4,2.3-0.8,3.4-1.2
		c0.5-0.2,1.2-0.1,1.7-0.1c0.5,0,0.9,0,1.4,0c1.5,0.1,2.9,0.2,4.4,0.3c0.1,0,0.2,0,0.2,0c0.8-0.7,1.6,0,2.5,0c0.6-0.1,1.3,0,2,0
		c1.2,0,2.4,0,3.7,0.1c2.3,0.1,4.6,0.2,7,0.4c1.4,0.1,2.9,0.3,4.3,0.5c1.1,0.1,2.1,0.2,3.2,0.4c0.7,0.1,1.3,0.3,2,0.5
		c0.1,0,0.3,0.1,0.4,0.1c1.1-0.1,2,0.4,3,0.7c0.7,0.1,1.3,0.4,2,0.5c2.6,0.5,5.1,1.1,7.7,1.5c0.6,0.1,1.2,0.1,1.8,0.2
		c0.9,0.1,1.7,0.2,2.6,0.3c1,0,2-0.1,3-0.2c0.4,0,0.7-0.1,1.1-0.1c0.1,0,0.3,0,0.4-0.1c0.4-0.2,0.9-0.3,1.3-0.5
		c0.5-0.2,1-0.5,1.4-0.8c0.2-0.1,0.3-0.3,0.4-0.3c0.4-0.2,0.7-0.4,1-0.7c0.3-0.3,0.8-0.4,1.3-0.5c0.4-0.1,0.5-0.2,0.4-0.7
		c-0.1-0.4,0-0.7,0.5-0.9c0.5-0.2,1.1-0.5,1.4-1.1c0.2-0.5,0.5-1,0.7-1.5c0-0.1,0-0.2,0-0.2c-0.1,0-0.3-0.1-0.4,0
		c-0.3,0.1-0.4,0.1-0.5-0.2c-0.1-0.3-0.3-0.7-0.4-0.7c-0.4,0.1-0.9,0.2-1.1,0.5c-0.3,0.3-0.5,0.4-0.9,0.5c-0.5,0-1,0.1-1.5,0.2
		c-1,0.3-2,0-3-0.2c-1.4-0.2-2.8-0.3-4.2-0.5c-0.8-0.1-1.7-0.2-2.4-0.5c-1.2-0.6-2.5-0.7-3.7-1.1c-1-0.3-2-0.3-2.9-0.9
		c-0.7-0.5-1.6-0.6-2.5-0.9c-0.2-0.1-0.4-0.1-0.6-0.2c-0.9-0.6-1.9-0.7-2.9-0.9c-1.1-0.2-2.2-0.6-3.3-0.8c0,0-0.1,0-0.1,0
		c-0.5-0.9-1.4-0.5-2.1-0.8c-0.3-0.1-0.6-0.3-0.9-0.4c-0.6-0.3-1.2-0.7-1.9-0.8c-0.7-0.1-1.3-0.1-1.6-0.8c0,0-0.3,0.1-0.4,0.2
		c-0.5-0.2-1-0.6-1.6-0.7c-0.8,0-0.7-1-1.4-1c0,0.2-0.1,0.3-0.1,0.6c-0.1,0-0.2-0.1-0.2-0.1c-0.5-0.9-1.4-1.3-2.3-0.9
		c-0.6,0.2-0.8,0-1.1-0.5c-0.5,0.4-0.9,0.3-1.3-0.3c-0.2-0.3-0.5-0.6-0.8-0.6c-0.4-0.1-0.8,0-1.1,0.1c-0.3,0-0.6,0-1,0
		c-0.3,0-0.7-0.1-1-0.1c-0.3,0-0.7,0.2-0.9-0.3c0-0.1-0.2-0.1-0.3-0.1c-0.3,0-0.6-0.1-1-0.1c0-0.2,0.1-0.3,0-0.4
		c0-0.1,0-0.2-0.1-0.3c-0.1,0-0.3,0-0.3,0.1c-0.3,0.4-0.6,0.3-1,0.2c0-0.1,0-0.2,0.1-0.2c0-0.2,0.1-0.4,0.1-0.5
		c-0.2,0-0.4-0.1-0.6,0c-0.4,0.1-0.8,0.4-1.2,0.5c-0.6,0.2-0.8,0.1-1-0.4c-0.1-0.4-0.4-0.7-0.6-1c-0.2-0.3-0.3-0.6-0.5-0.9
		c-0.4,0.1-0.5,0.3-0.4,0.9c0.2,0,0.3,0,0.5,0c0,0.1,0,0.1,0,0.2c-0.2,0.1-0.4,0.2-0.5,0.3c-0.6,0.3-1.1,0.1-1.3-0.6
		c-0.1-0.3-0.1-0.6-0.6-0.6c0,0.1,0.1,0.2,0.1,0.2c0,0.1,0.1,0.3,0,0.4c0,0-0.2,0-0.3,0c-0.6-0.1-1.1-0.2-1.8-0.4
		c0.1-0.2,0.2-0.4,0.3-0.5c0.4-0.2,0.4-0.2,0.1-0.7c-0.5,0.6-1,0.3-1.5,0.1c-0.4-0.2-0.9-0.4-1.3-0.5c-0.2,0-0.4,0-0.5,0.1
		c-0.4,0.3-0.8,0.3-1.3,0.3c-1.2,0.1-2.4,0.2-3.7,0.4c-0.3,0-0.7,0-1,0c0-0.1,0-0.1,0-0.2c0.3-0.1,0.7-0.1,1-0.2c0,0,0-0.1,0.1-0.1
		c-0.2-0.1-0.5-0.3-0.7-0.4c-0.4-0.2-0.9-0.3-1.4-0.6c-0.3-0.1-1.2,0.2-1.3,0.6c-0.1,0.4-0.3,0.5-0.7,0.4c-0.8-0.1-1.6,0-2.3,0.3
		c-0.6,0.2-1.1,0.4-1.8,0c-0.3-0.2-0.8-0.4-1.1,0.3c-0.2,0.4-1.6,0.4-2.1,0c0,0-0.1-0.1-0.2-0.1c-0.1,0.3-0.1,0.5-0.2,0.8
		c-0.5,0-1,0.1-1.5,0.2c-0.1,0-0.3,0-0.4,0.1c-0.6,0.5-1.2,0.4-1.6,0.1c-0.4,0.2-0.7,0.4-1.1,0.5c0,0.1,0.1,0.2,0.2,0.4
		c-0.2,0.3-0.4,0.2-0.6-0.1c-0.2-0.4-0.4-0.5-0.7,0c-0.2,0.3-0.5,0.5-0.9,0.4c-0.1,0-0.2,0-0.3,0c0.1,1-0.1,1.1-1,0.9
		c-0.3,0.5-0.8,0.6-1.3,0.7c-0.2,0-0.3,0-0.5,0c-0.3,0-0.7,0-0.5,0.5c0,0.1-0.2,0.2-0.3,0.3c-0.4-0.9-0.6-0.9-1.3-0.3
		c-0.2,0.2-0.6,0.1-1.1,0.1c0,0.2,0,0.6-0.1,1c0,0.1-0.4,0.3-0.4,0.2c-0.6-0.5-1.1-0.5-1.6,0c-0.1,0.1-0.3,0-0.5,0
		c-0.2,0-0.4-0.1-0.6-0.1c0,0,0,0.1-0.1,0.1c0.2,0.1,0.4,0.3,0.6,0.4c0,0.1,0,0.3,0,0.4c-0.5-0.2-0.9-0.4-1.4-0.6
		c-0.1,0-0.2,0.2-0.4,0.3c0.3,0.2,0.8,0.1,0.6,0.7c-0.5,0.3-0.9,0-1.3-0.4c-0.1-0.1-0.4-0.1-0.6-0.2c0,0.2-0.1,0.4-0.1,0.6
		c0,0.2,0,0.4,0.1,0.6c-0.3,0-0.6,0.1-0.9,0c-0.3-0.1-0.5-0.2-0.8-0.4c0-0.1,0.1-0.1,0.1-0.2c0-0.2,0-0.4,0-0.5
		c-0.2-0.1-0.5-0.1-0.6,0c-0.1,0.2-0.2,0.6-0.3,0.8c-0.1,0.4-0.2,0.7-0.3,1c0,0.1-0.2,0.1-0.4,0.1c0-0.4-0.5-0.8,0.2-1
		c-0.8-0.3-1.4,0-1.7,0.6c-0.1,0.4-0.6,0.5-1,0.2c-0.2-0.1-0.3-0.3-0.4-0.5c-0.5,0.2-0.5,0.2-0.4,1.1c-0.1-0.1-0.3-0.2-0.4-0.4
		c-0.1-0.1-0.2-0.2-0.3-0.2c-0.1,0.1-0.1,0.2-0.2,0.3c-0.1,0.6-0.3,1.2-0.8,1.5c-0.1-0.3-0.2-0.5-0.3-0.6c-0.6,0.4-1.1,0.8-1.7,1
		c-0.2,0.1-0.6-0.1-0.9-0.3c-0.8,0.1-0.7,0.9-1,1.4c-0.4-0.4-1.4-0.4-1.8,0.1c-0.1,0.1-0.3,0.3-0.4,0.3c-0.4,0-0.5,0.2-0.5,0.6
		c-0.1,0-0.1,0-0.2,0c0-0.2,0-0.4,0-0.5c0-0.1-0.2-0.3-0.3-0.3c-0.2,0.1-0.4,0.3-0.6,0.3c-0.2,0.1-0.5,0-0.7,0
		c-0.1,0.7-0.5,1.1-1.2,1.2c-0.3,0-0.5,0.3-0.8,0.4c-0.3,0.1-0.6,0.2-1,0.2c-0.2,0.1-0.4,0.2-0.6,0.2c-0.2,0.1-0.5,0.1-0.7,0.1
		c-0.4,0-0.9-0.2-1.1,0.4c0,0.1-0.1,0.1-0.2,0.2c-1.1,0.2-1.2,0.2-1.7,1c-0.1-0.2-0.2-0.4-0.3-0.7c-0.1,0.4-0.2,0.7-0.3,1.1
		c-0.2-0.1-0.4-0.2-0.6-0.2c-0.2,0-0.5-0.2-0.6-0.1c-0.2,0.2-0.4,0.5-0.3,0.8c0.1,0.8,0.1,0.8-0.7,1c-0.7,0.2-1.5,0.4-2.2,0.5
		c-0.4,0.1-0.7-0.1-1.1-0.1c0-0.1,0-0.2,0-0.2c0.1,0,0.3-0.1,0.4-0.1c0.4,0.1,0.5-0.2,0.5-0.4c-0.1-0.2-0.4-0.4-0.6-0.4
		c-0.8,0.1-1.6,0.3-2.4,0.3c-0.5,0-0.9-0.1-1.4-0.1c-0.3,0-0.5,0-0.8,0.1c-0.2,0-0.4,0.1-0.7,0.1c-0.6,0-1.1,0-1.7,0
		c0.2,0.6,0.9,0.9,1.4,0.8c0.5-0.1,1-0.2,1.5-0.3C43.9,131.1,44,131.3,44,131.6L44,131.6z"/>
	<path class="st1" d="M165.6,78.7c0.6-0.1,0.7-0.5,0.9-1c0.2-0.6,0.5-1.3,0.8-1.9c0.4-1,0.8-1.9,1.1-2.9c0-0.1,0-0.2,0.1-0.3
		c0.9-1.1,0.9-2.5,1.6-3.8c1-2,2-4,3.1-6c0.4-0.8,0.9-1.6,1.4-2.4c0.1-0.2,0.4-0.3,0.7-0.4c0.2-0.1,0.4-0.2,0.6-0.2
		c0.5,0,1,0,1.5,0.1c1.1,0.2,2.1,0.5,3.2,0.7c0.5,0.1,1.1-0.1,1.6,0c0.7,0.1,1.4,0.2,2,0.3c0.4,0.1,0.7,0.4,1.1,0.5
		c0.5,0.1,1.1,0.1,1.6,0.3c1.2,0.3,2.4,0.6,3.6,1c0.4,0.1,0.8,0.1,1.3,0.2c0.7,0.1,1.4,0.3,2.1,0.5c0.5,0.1,0.9,0.4,1.4,0.5
		c0.6,0.2,1.3,0.2,1.9,0.3c1.4,0.4,2.8,0.2,4.1,0.3c1,0.1,1.9,0.3,2.9,0.5c1.3,0.2,2.6,0.5,4,0.7c0.9,0.1,1.9,0.1,2.8,0.3
		c0.6,0.1,1.2,0.4,1.8,0.5c0.2,0.1,0.5,0,0.8,0.1c0.7,0.1,1.4,0.3,2.1,0.4c0.7,0.1,1.5,0.1,2.3,0.2c0.1,0,0.1,0,0.2,0
		c0.8,0.1,1.7,0.1,2.5,0.4c0.7,0.2,1.4,0.5,1.9,1c0.4,0.4,0.5,1.1,0.7,1.7c0,0.1,0,0.2-0.1,0.3c-0.7,0.5-1.1,1.4-2,1.6
		c-0.8,0.2-1,0.8-0.9,1.5c0.1,0.7-0.4,1.1-0.7,1.6c0,0.1-0.1,0.2-0.3,0.4c0.4-0.1,0.7-0.1,1-0.1c0,0.1,0,0.1,0.1,0.2
		c-0.3,0.1-0.6,0.2-0.9,0.3c-0.2,0.1-0.3,0.1-0.4,0.4c-0.1,0.5-0.3,1-0.5,1.5c-0.1,0.5-0.2,1.1-0.4,1.7c0.2-0.2,0.3-0.3,0.4-0.5
		c0.1,0.1,0.4,0.3,0.4,0.4c0,0.2-0.2,0.5-0.4,0.5c-0.6,0.2-1.1,0.6-1.1,1.2c0,0.3,0.3,0.7,0.6,1c0.2,0.2,0.5,0.4,0.3,0.7
		c0,0.1-0.2,0.2-0.4,0.1c-0.3,0-0.7,0-0.7-0.5c0,0,0-0.1-0.2-0.2c-0.1,0.3-0.2,0.5-0.1,0.7c0,0.3,0.1,0.5-0.3,0.6
		c-0.1,0-0.1,0-0.1,0.1c-0.2,0.5-0.4,0.9-0.5,1.4c-0.1,0.4-0.7,0.8-0.2,1.3c0,0,0,0.3-0.1,0.3c-0.8,0.1-0.7,0.9-1,1.4
		c-0.2,0.5-0.3,1-0.5,1.6c-0.1,0.2-0.2,0.4-0.4,0.6c0.3,0.2,0.6,0.5,0.9,0.7c0.1,0.1,0,0.3,0,0.4c-0.9-0.4-1.2-0.3-1.5,0.7
		c0,0.1-0.1,0.3-0.2,0.4c-0.3,0.5-0.3,0.6,0,1.1c-0.3,0.4-0.7,0.8-1,1.2c-0.1,0.2,0,0.5-0.1,0.7c0,0.2,0,0.5-0.2,0.5
		c-0.4,0.2-0.5,0.6-0.4,0.9c0.2,0.6-0.1,1.1-0.4,1.5c-0.3,0.4-0.5,0.9-0.7,1.3c-0.2,0.5-0.5,1.1-0.7,1.6c-0.3,0.8-0.5,1.7-0.7,2.5
		c-0.1,0.4-0.3,0.8-0.5,1.2c-0.3,0.8-0.6,1.6-0.9,2.3c-0.2,0.4-0.2,0.9-0.8,1c0,0-0.1,0.1-0.1,0.2c0.3,0.8-0.5,1.3-0.5,2.1
		c0,0.1-0.4,0.2-0.6,0.4c0.4,1-0.1,1.8-0.8,2.5c-0.5,0.4-0.3,1.1-0.5,1.5c-0.3,0.5-0.1,1.2-0.7,1.7c-0.1,0.1-0.2,0.3-0.2,0.4
		c-0.1,1.2-0.6,2.2-1.2,3.2c-0.2,0.4-0.4,0.7-0.6,1.2c0.3,0.5-0.3,0.9-0.5,1.4c-0.1,0.2-0.1,0.5-0.2,0.7c-0.1,0.3-0.1,0.5-0.2,0.7
		c-0.3,0.7-0.6,1.3-0.6,2c0,0.3-0.3,0.6-0.5,0.8c-0.2,0.3-0.4,0.5-0.5,0.8c0,0.1-0.1,0.3,0,0.3c0.7,0.6,0,1-0.2,1.5
		c-0.1,0.2-0.1,0.4-0.2,0.6c-0.1,0.3-0.1,0.7-0.3,1c-0.7,1.2-1.5,2.4-2.2,3.6c-0.5,0.9-1,1.8-1.5,2.7c-0.5,1-0.9,2.1-1.3,3.1
		c-0.3,0.9-0.6,1.8-1,2.7c-0.5,1.4-1.1,2.8-1.6,4.2c-0.3,0.7-0.5,1.4-0.9,2c-0.2,0.3-0.6,0.5-1,0.7c-0.4,0.2-0.5,0.4-0.4,0.8
		c0.1,0.5,0,1-0.4,1.4c-0.3,0.3-0.4,0.8-0.6,1.1c-0.6,0.6-0.7,1.4-0.9,2.1c-0.1,0.4-0.4,0.7-0.6,1.1c-0.1,0.2-0.1,0.5-0.2,0.7
		c-0.4,0.9-0.8,1.7-1.2,2.6c-0.1,0.1,0,0.3-0.1,0.4c-0.1,0.1-0.2,0.3-0.4,0.3c-0.4,0-0.4,0.2-0.3,0.4c0.3,0.5,0,0.9-0.2,1.3
		c-0.1,0.4-0.4,0.7-0.5,1.1c-0.1,0.3-0.2,0.6-0.6,0.7c-0.3,0.1-0.6,0.5-0.3,0.9c0,0,0,0.2,0,0.2c-0.4,0.5-0.7,0.9-1.1,1.4
		c-0.1,0.1-0.2,0.2-0.3,0.3c-0.3,0.9-0.8,1.6-1.9,1.6c-0.2,0-0.4,0.4-0.5,0.6c-0.2,0.4-0.4,0.8-0.6,1.2c-0.1,0.2-0.3,0.2-0.5,0.4
		c-0.1-0.2-0.2-0.4-0.3-0.7c-0.5-0.1-0.5,0.3-0.5,0.8c-0.2,0-0.5,0.1-0.7,0.1c0-0.2,0-0.3,0.1-0.5c-0.1,0-0.1-0.1-0.1-0.1
		c-0.5,0-1,0.1-1.5,0.1c-0.1,0-0.3-0.1-0.3-0.1c0-0.9-0.7-0.6-1.1-0.8c-0.3-0.1-0.6-0.2-0.9-0.3c-0.7-0.1-1.3-0.3-2-0.4
		c-0.7-0.1-1.4-0.2-2.2-0.3c-0.3,0-0.6,0-0.9-0.1c-0.8-0.1-1.6-0.2-2.4-0.3c-1-0.2-2-0.4-3.1-0.6c0,0,0-0.1-0.1-0.3
		c-0.1,0.1-0.3,0.1-0.3,0.3c-0.2,0.4-0.4,0.2-0.6,0.1c-0.6-0.2-1.2-0.4-1.9-0.5c-0.6-0.1-1.3-0.2-2-0.3c-0.7-0.2-1.5-0.4-2.2-0.6
		c-0.6-0.1-0.9-0.4-0.8-1c-0.4-0.1-0.7-0.3-1-0.3c-0.2,0-0.5-0.1-0.6,0.1c-0.3,0.3-0.6,0.2-0.8,0c-0.4-0.2-0.7-0.3-1.1-0.5
		c-0.1-0.1-0.2-0.3-0.2-0.4c0-0.2,0-0.5,0-0.9c-0.4,0.2-0.8,0.3-1.1,0.5c-0.4-0.2-0.8-0.5-1.2-0.7c0.1-0.1,0.3-0.2,0.5-0.4
		c-0.2-0.2-0.4-0.3-0.6-0.4c-0.3,0.8-0.5,0.8-1.1,0.2c-0.1-0.1-0.3-0.2-0.4-0.2c-0.7,0.6-1.2-0.1-1.7-0.4c-0.8-0.4-1.6-0.8-2.4-1.2
		c-0.4-0.2-0.8-0.2-1.1,0.2c-0.1,0.1-0.3,0.1-0.3,0.1c-0.4-0.4-0.9-0.7-1.2-1.2c-0.3-0.4-0.6-0.9-0.8-1.3c-0.1-0.2-0.3-0.5-0.3-0.6
		c0.2-0.6-0.1-0.9-0.4-1.2c0.2-0.5,0.4-0.9,0.6-1.3c0.2-0.6,0.4-1.1,0.6-1.7c0.2-0.6,0.3-1.1,0.5-1.7c0.1-0.2,0.1-0.5,0.3-0.5
		c0.6-0.4,0.5-0.9,0.3-1.4c0-0.1,0-0.1,0-0.3c0.2-0.1,0.4-0.1,0.6-0.2c0-0.1-0.1-0.3-0.1-0.3c-0.4-0.2-0.4-0.4-0.1-0.8
		c0.2-0.2,0-0.7,0-1.2c0.1-0.1,0.3-0.2,0.5-0.3c-0.1-0.7,0.1-0.9,0.8-0.8c0.4,0.1,0.8,0.1,1-0.4c0.3-0.5,0.6-0.8,1.1-0.3
		c0.2-0.5,0.1-0.6-0.6-0.5c0.3-0.5,0.6-0.8,0.9-1.3c-0.4-0.1-0.8-0.2-1.4-0.4c0.4-0.3,0.6-0.5,1-0.7c-0.4-0.2-0.7-0.3-1.2-0.5
		c0.3-0.1,0.5-0.2,0.8-0.3c0.1-0.4,0.2-0.8,0.4-1.2c0.1-0.2,0.4-0.3,0.6-0.3c0.3,0,0.4-0.2,0.4-0.5c0-0.4,0.2-0.5,0.5-0.5
		c0.6-0.1,1.2-0.2,1.5,0.5c0,0.1,0.2,0.2,0.3,0.2c0.5,0.3,0.5,0.6,0.2,1.1c-0.1,0.1-0.2,0.2-0.2,0.3c-0.1,0.9-0.7,1.6-1.1,2.4
		c-0.5,0.9-1,1.7-1.5,2.6c-0.3,0.6-0.5,1.2-0.8,1.9c-0.3,0.8,0,1.6,0.2,2.4c0,0.1,0,0.3-0.1,0.3c-0.4,0.3-0.3,0.5,0,0.8
		c0.3-0.2,0.7-0.3,0.7-0.5c0.1-0.3-0.1-0.7-0.2-1c-0.2-0.4-0.4-0.7,0-1c0.2,0.2,0.4,0.3,0.5,0.5c0,0,0.1-0.1,0.1-0.1v-1.3
		c0.4,0.8,0.3,2.1-0.1,4.2c-0.1-0.2-0.1-0.4-0.2-0.6c-0.3,0.1-0.6,0.2-0.9,0.3c0.1,0.1,0.2,0.2,0.3,0.2c0.6,0.1,0.7,0.3,0.5,0.9
		c-0.3,0.8-0.6,1.6-0.7,2.4c-0.2,1.1,0.2,2.1,0.9,2.9c0.2,0.3,0.5,0.5,0.6,0.9c0.1,0.5,0.5,0.5,0.8,0.7c0.5,0.2,0.9,0.6,1.4,0.9
		c0.2-0.2,0.5-0.1,0.7,0.2c0.1,0.1,0.2,0.2,0.3,0.3c0.3,0.3,0.6,0.4,0.7-0.2c0.6,0.9,1.5,1.3,2.5,1.5c0.3,0.1,0.6,0.2,0.9,0.4
		c1.2,0.6,2.4,0.8,3.7,1.1c1.3,0.2,2.6,0.2,3.8,0.3c0.4,0,0.7,0.1,1,0.1c0.3,0,0.7,0,1-0.1c0.4-0.2,0.7-0.3,1,0.2c0-0.1,0-0.2,0-0.3
		c0.3,0,0.7,0.1,1,0.1c0.7,0.2,1.3,0.4,2,0.5c0.9,0.2,1.9,0.6,2.8,0.7c1.2,0.2,2.5,0.2,3.7,0.5c0.8,0.2,1.6,0.1,2.4,0
		c0.9-0.1,1.8-0.8,2-1.7c0.2-0.6,0.5-1.1,0.7-1.6c0.1-0.4,0.3-0.8,0.3-1.2c0-0.5,0.1-0.9,0.5-1.2c0.2-0.2,0.3-0.5,0.3-0.8
		c0-0.5,0.3-0.9,0.5-1.4c0.2-0.5,0.5-0.9,0.8-1.3c0.2-0.3,0.3-0.6,0.4-0.9c0-0.1,0.1-0.2,0.1-0.3c-0.1-0.3,0.1-0.4,0.2-0.7
		c0.3-0.4,0.4-0.9,0.6-1.4c0.4-0.8,0.7-1.7,1.2-2.4c0.6-0.9,1.1-1.7,1.3-2.7c0-0.1,0.2-0.3,0.2-0.3c0.5,0,0.5-0.3,0.5-0.6
		c0-0.2,0-0.4,0.1-0.6c0.2-0.4,0.1-0.6-0.4-0.7c0.3-0.5,0.5-1,0.8-1.5c1.3-2.2,2.6-4.4,3.9-6.7c0.9-1.5,1.9-3.1,2.8-4.6
		c0.7-1.3,1.4-2.7,2.1-4c0.5-0.9,1-1.9,1.4-2.8c0.2-0.4,0.3-0.9,0.5-1.4c0.3-0.8,0.7-1.6,1-2.4c0-0.1,0.1-0.2,0.2-0.2
		c0.7-0.2,0.7-0.2,0.4-0.7c0.7-1.4,1.3-2.8,2-4.1c0.2-0.5,0.5-0.9,0.7-1.4c0.3-0.7,0.6-1.4,1-2.1c0.5-1,1.1-2.1,1.6-3.1
		c0.5-1.1,0.8-2.3,1.2-3.5c0.2-0.6,0.5-1.1,0.7-1.7c0.5-1.4,1-2.9,1.5-4.4c0.1-0.2,0.2-0.4,0.2-0.6c0.3-0.7,0.6-1.5,0.9-2.2
		c0.5-1.1,1-2.1,1.4-3.2c0.2-0.4,0.3-0.8,0.4-1.2c0.1-0.2,0.3-0.3,0.4-0.5c0.3-0.8,0.6-1.7,1-2.5c0.2-0.6,0.5-1.2,0.8-1.9
		c0.5-1.1,0.9-2.3,1.5-3.4c0.8-1.5,1.1-3.2,1.8-4.7c0.4-0.9,0.6-1.8,0.9-2.7c0.2-0.6,0.3-1.2,0.5-1.8c0.2-0.5,0.4-1,0.6-1.6
		c0.5-1.5,0.9-2.9,1.4-4.4c0.1-0.5,0.2-1-0.4-1.3c-0.3-0.1-0.5-0.4-0.8-0.6c-0.2-0.1-0.4,0-0.6,0c-0.2,0-0.5-0.1-0.7-0.1
		c-0.8-0.1-1.6-0.3-2.4-0.4c-0.1,0-0.1-0.1-0.2-0.1c-1.2-0.1-2.4-0.1-3.6-0.2c-1-0.1-2-0.2-2.9-0.5c-1.3-0.3-2.5-0.4-3.8-0.4
		c-0.9,0-1.8-0.2-2.7-0.3c-1-0.2-2-0.5-3-0.7c-0.3-0.1-0.5-0.2-0.8-0.3c-0.3-0.1-0.6-0.1-0.9-0.2c-0.1,0-0.2,0-0.3,0
		c-1.2-0.3-2.5-0.7-3.7-1c-0.4-0.1-0.7-0.2-1.1-0.3c-0.6-0.2-1.3-0.4-1.9-0.5c-1.2-0.3-2.3-1-3.6-0.8c-0.7,0.1-1.5-0.2-2.3-0.3
		c-1.1-0.1-2.2-0.4-3.2,0.2c-0.5,0.3-0.4,0.8-0.6,1.3c-0.1,0.3-0.1,0.6-0.2,0.9c-0.5,0.8-1,1.6-1.5,2.5c-0.2,0.5-0.3,1-0.5,1.5
		c-0.4,0.9-0.9,1.8-1.3,2.7c-0.4,0.8-0.4,0.8-0.2,1.5c-0.2,0.4-0.3,0.8-0.4,1c-0.1,0.2-0.3,0.3-0.5,0.4c-0.2,0.1-0.4,0.2-0.5,0.3
		c-0.6,0.9-1.1,1.8-1.7,2.8c-0.1,0.1-0.2,0.3-0.1,0.4c0.2,0.6-0.1,1-0.4,1.4c-0.5,0.8-1,1.6-1.4,2.4c-0.4,0.7-0.5,1.6-1,2.2
		c-0.5,0.6-0.8,1.2-1.2,1.9c-0.2,0.3-0.3,0.5-0.4,0.8c-0.3,0.6-0.7,1.3-1,1.9c-0.1,0.2-0.1,0.4-0.2,0.6c-0.1,0.5-0.2,1-0.7,1.3
		c0,0-0.1,0.1-0.1,0.1c-0.2,0.9-0.9,1.5-1.3,2.3c-0.3,0.7-0.9,1.3-1.3,1.9c-0.3,0.4-0.5,0.7-0.8,1.1c-0.1,0.1-0.2,0.3-0.4,0.4
		c-0.4,0.1-2.1-0.5-2.4-0.9c-0.6-0.9-0.2-1.7,0.2-2.5c0.7-1.6,1.7-3.1,2.2-4.8c0.4-1.1,1.1-1.9,1.5-3c0.4-1.1,1-2.2,1.4-3.3
		c0.4-0.9,0.8-1.8,1.2-2.8C165.6,80.1,165.9,79.5,165.6,78.7"/>
	<path class="st1" d="M140.9,146.1c0-0.2,0-0.3,0-0.5c0.3,0.1,0.6,0.2,1,0.3c-0.1-0.2-0.1-0.3-0.2-0.3c-0.1-0.2-0.2-0.4-0.3-0.5
		c0.2-0.1,0.4-0.3,0.6-0.3c0.2,0,0.5,0.2,0.5,0.4c0.1,0.7-0.2,1-0.9,1C141.5,146.1,141.3,146.1,140.9,146.1"/>
	<path class="st1" d="M158.9,164.7c0.2-0.3,0.4-0.6,0.7-1c0.1,0.1,0.5,0.2,0.5,0.2c0,0.3-0.1,0.7-0.3,0.9c-0.2,0.2-0.6,0.1-0.9,0.1
		C159,164.9,158.9,164.8,158.9,164.7"/>
	<path class="st1" d="M156.6,164.4c-0.2-0.2-0.4-0.4-0.6-0.6c-0.1-0.1-0.1-0.3,0-0.4c0.1-0.1,0.3-0.1,0.4-0.1
		C157,163.5,157,163.8,156.6,164.4"/>
	<path class="st1" d="M78,159c0.6-0.1,1.3-0.1,1.9-0.2c0,0.1,0,0.1,0,0.2C79.3,159.1,78.7,159.3,78,159"/>
	<path class="st1" d="M85.8,161c0.4,0.2,0.7,0.4,1.1,0.6c0,0,0,0.1,0,0.1c-0.3,0-0.7-0.1-1.1-0.1C85.8,161.4,85.8,161.2,85.8,161
		L85.8,161"/>
	<path class="st1" d="M81.7,160.8c0.3,0,0.8,0.4,0.7,0.6c0,0.1-0.1,0.2-0.2,0.2c-0.1,0-0.2-0.1-0.2-0.1
		C81.9,161.3,81.8,161.1,81.7,160.8"/>
	<path class="st1" d="M158,163.8c-0.3-0.1-0.5-0.1-0.8-0.2c0,0,0-0.2,0-0.3c0.3,0,0.5,0.1,0.8,0.1
		C158.1,163.6,158.1,163.7,158,163.8"/>
	<path class="st1" d="M113,113.2c0.3,0.1,0.7,0.2,1,0.4c0,0.1,0,0.2-0.1,0.2c-0.3-0.1-0.7-0.2-1-0.3
		C112.9,113.4,113,113.3,113,113.2"/>
	<path class="st1" d="M105.5,162.3c-0.5-0.1-0.9-0.3-1.4-0.4c0-0.1,0-0.1,0-0.2c0.5,0.1,0.9,0.2,1.4,0.4
		C105.5,162.1,105.5,162.2,105.5,162.3"/>
	<path class="st1" d="M162.1,165.2c-0.3,0-0.5,0-0.8,0.1c0-0.1,0-0.2,0-0.2c0.3,0,0.5-0.1,0.8-0.1
		C162.1,164.9,162.1,165,162.1,165.2"/>
	<path class="st1" d="M73.5,160.4c-0.1,0.1-0.1,0.1-0.2,0.1c-0.2,0-0.4,0.1-0.8,0.1c0.1-0.3,0.1-0.8,0.2-0.8
		C73.2,159.6,73.4,160,73.5,160.4"/>
	<path class="st1" d="M135.2,132.8c0.4-0.6,0.7-0.7,1.4-0.5C136.4,132.7,136.3,132.7,135.2,132.8"/>
	<path class="st1" d="M61.4,155.6c0.3,0.1,0.5,0.2,0.8,0.3c-0.1,0.1-0.1,0.3-0.2,0.4c-0.4,0.1-0.7-0.1-0.7-0.5
		C61.4,155.7,61.4,155.7,61.4,155.6"/>
	<path class="st1" d="M141.8,132.5c0.2,0.2,0.5,0.3,0.7,0.5c-0.1,0.1-0.2,0.3-0.2,0.3C141.9,133.2,141.6,133.1,141.8,132.5"/>
	<path class="st1" d="M63.1,159.7c-0.2,0.1-0.5,0.1-0.7,0.1c0,0-0.1-0.2-0.2-0.3c0.3-0.1,0.5-0.1,0.8-0.2
		C63.1,159.5,63.1,159.6,63.1,159.7"/>
	<path class="st1" d="M97.4,149.3c-0.4,0-0.8,0-1.1-0.1C96.6,148.9,97.2,148.9,97.4,149.3"/>
	<path class="st1" d="M155,136.7c0.2-0.5,0.5-0.5,0.7-0.4c0.1,0,0.1,0.2,0.1,0.3C155.6,136.7,155.4,136.7,155,136.7"/>
	<path class="st1" d="M154.4,136.7c-0.2-0.1-0.4-0.1-0.6-0.2c0.1-0.1,0.1-0.3,0.2-0.3c0.2,0,0.4,0.1,0.6,0.2
		C154.5,136.5,154.5,136.6,154.4,136.7"/>
</g>
</svg>
