<?xml version="1.0" encoding="utf-8"?>
<!-- Generator: Adobe Illustrator 19.2.1, SVG Export Plug-In . SVG Version: 6.00 Build 0)  -->
<svg version="1.1" id="Layer_1" xmlns="http://www.w3.org/2000/svg" xmlns:xlink="http://www.w3.org/1999/xlink" x="0px" y="0px"
	 viewBox="0 0 50 38" style="enable-background:new 0 0 50 38;" xml:space="preserve">
<style type="text/css">
	.st0{fill:#068585;}
	.st1{clip-path:url(#SVGID_2_);}
	.st2{clip-path:url(#SVGID_4_);}
</style>
<g>
	<g>
		<path class="st0" d="M25.6,17.4c0,0-0.1-0.1-0.1-0.1l-0.2-0.2c-0.1-0.1-0.2-0.2-0.3-0.3c-0.1-0.1-0.3-0.2-0.4-0.4
			c-0.1,0-0.3-0.2-0.4-0.3c-0.3-0.2-0.6-0.4-0.9-0.6c-0.3-0.3-0.5-0.6-0.9-0.8c-0.1-0.1-0.3-0.2-0.5-0.4c-0.2,0-0.2-0.3-0.4-0.4
			c-0.1-0.3-0.2-0.4-0.4-0.6c-0.1-0.2-0.3-0.4-0.3-0.6c-0.2-0.2-0.3-0.4-0.3-0.7c0-0.2-0.2-0.3-0.1-0.6c-0.2-0.2-0.2-0.5-0.2-0.8
			c-0.1-0.5-0.2-1.1-0.2-1.6c0-0.3-0.1-0.5,0-0.9c0-0.1,0-0.3-0.1-0.4c0.2-0.3,0.1-0.7,0.2-1c0-0.1,0.1-0.1,0.1-0.2
			c0-0.2,0.1-0.4,0.2-0.5c0-0.1,0.1-0.3,0.1-0.4c0-0.1,0.1-0.1,0.2-0.2c0.1-0.3,0.3-0.5,0.3-0.7C21,4.6,21,4.5,21.1,4.4
			c0.1-0.1,0.2-0.2,0.3-0.3c0.2-0.2,0.3-0.4,0.5-0.6c0.3-0.2,0.6-0.4,0.9-0.6c0.1-0.1,0.3-0.2,0.5-0.2c0.3-0.2,0.8-0.4,1.1-0.5
			c0.1,0,0.1,0,0.2,0c0,0,0.1-0.1,0.2,0C24.9,2,25.4,2,25.6,1.8c0.1,0,0.4-0.1,0.5-0.1c0.1,0,0.5-0.1,0.5,0c-0.1,0-0.1,0.1-0.3,0.1
			c0,0-0.2,0.1-0.2,0.1L25.9,2c-0.1,0-0.2,0.1-0.3,0.1c-0.1,0-0.2,0.1-0.2,0.1c-0.1,0-0.2,0.1-0.3,0.2c-0.1,0-0.3,0.1-0.4,0.2
			c-0.1,0-0.3,0.2-0.5,0.3C24,3,23.8,3,23.7,3.2c-0.1,0-0.4,0.1-0.5,0.3c-0.1,0-0.2,0.1-0.3,0.1c-0.1,0.1-0.2,0.2-0.2,0.3
			c-0.1,0.1-0.1,0-0.2,0.1c-0.3,0.2-0.4,0.4-0.6,0.6c-0.1,0.2-0.1,0.3-0.2,0.4c-0.2,0.2-0.4,0.5-0.5,0.8c-0.1,0.2-0.1,0.3-0.2,0.6
			c0,0.2-0.1,0.3-0.1,0.5c-0.1,0-0.1,0.2-0.2,0.2c0,0.2-0.1,0.4,0,0.6L20.6,8c0,0.1,0,0.2,0.1,0.3c-0.1,0.3,0,0.6-0.1,0.9
			c0.1,0.4,0.2,0.8,0.3,1.2l0,0.4c0,0.2,0.2,0.1,0.1,0.3c0,0.2,0,0.1,0.1,0.3c0.1,0.2,0.2,0.4,0.3,0.6l0.4,0.9
			c0,0.1,0.1,0.1,0.1,0.2c0,0.1,0.1,0.1,0.1,0.2c0.1,0,0,0.2,0.1,0.1c0,0.1,0,0.1,0.1,0.1c0.1,0.1,0,0.1,0.1,0.2
			c0,0.1,0.2,0,0.2,0.1c0.4,0.7,0.8,1.2,1.3,1.8c0.5,0.3,1,0.9,1.6,1.6C25.4,17.3,25.5,17.3,25.6,17.4z"/>
	</g>
	<g>
		<path class="st0" d="M20.4,3.7C20.4,3.7,20.5,3.7,20.4,3.7c0.1-0.1,0.1-0.1,0.1-0.1c0,0,0,0,0,0c0,0,0,0,0-0.1c0,0,0.1,0,0.1-0.1
			c0,0,0.1,0,0.1,0c0.1,0,0.1,0,0.2,0c0,0,0,0,0.1,0c0.1,0,0.2,0,0.4,0c0,0,0.1,0,0.1,0c0.1,0,0.2,0,0.3,0.1c0.1,0,0.2,0,0.2-0.1
			c0.1,0,0.2,0,0.3,0c0,0,0.1,0,0.1,0.1c0,0,0,0,0.1,0c0.1,0,0.1,0,0.2,0.1c0,0,0.1,0,0.1,0c0,0,0,0,0.1,0c0,0,0,0.1-0.1,0.1
			c0,0,0,0,0,0c0,0,0,0-0.1,0c-0.1,0-0.1,0-0.2,0c-0.1,0-0.2,0-0.3,0c-0.1,0-0.2,0-0.3,0.1c-0.1,0-0.2,0-0.2,0c-0.1,0-0.2,0-0.2,0
			c-0.1,0-0.3,0-0.4,0c-0.1,0-0.2,0-0.4,0c0,0-0.1,0-0.1,0C20.4,3.9,20.5,3.8,20.4,3.7C20.4,3.8,20.4,3.8,20.4,3.7z"/>
	</g>
	<g>
		<path class="st0" d="M19.4,5.7C19.5,5.6,19.5,5.7,19.4,5.7c0.1-0.1,0.1-0.1,0.1-0.1c0,0,0,0,0,0c0,0,0,0,0-0.1c0,0,0.1,0,0.1-0.1
			c0,0,0.1,0,0.1,0c0.1,0,0.1,0,0.2,0c0,0,0,0,0.1,0c0.1,0,0.2,0,0.4,0c0,0,0.1,0,0.1,0c0.1,0,0.2,0,0.3,0.1c0.1,0,0.2,0,0.2-0.1
			c0.1,0,0.2,0,0.3,0c0,0,0.1,0,0.1,0.1c0,0,0,0,0.1,0c0.1,0,0.1,0,0.2,0.1c0,0,0.1,0,0.1,0c0,0,0,0,0.1,0c0,0,0,0.1-0.1,0.1
			c0,0,0,0,0,0c0,0,0,0-0.1,0c-0.1,0-0.1,0-0.2,0c-0.1,0-0.2,0-0.3,0c-0.1,0-0.2,0-0.3,0.1c-0.1,0-0.2,0-0.2,0c-0.1,0-0.2,0-0.2,0
			c-0.1,0-0.3,0-0.4,0c-0.1,0-0.2,0-0.4,0c0,0-0.1,0-0.1,0C19.5,5.8,19.5,5.7,19.4,5.7C19.5,5.7,19.4,5.7,19.4,5.7z"/>
	</g>
	<g>
		<path class="st0" d="M19,8.1C19,8.1,19,8.1,19,8.1C19.1,8,19,8,19,8c0,0,0,0,0,0c0,0,0,0,0-0.1c0,0,0.1,0,0.1-0.1c0,0,0.1,0,0.1,0
			c0.1,0,0.1,0,0.2,0c0,0,0,0,0.1,0c0.1,0,0.2,0,0.4,0c0,0,0.1,0,0.1,0c0.1,0,0.2,0,0.3,0.1c0.1,0,0.2,0,0.2-0.1c0.1,0,0.2,0,0.3,0
			c0,0,0.1,0,0.1,0.1c0,0,0,0,0.1,0c0.1,0,0.1,0.1,0.2,0.1c0,0,0.1,0,0.1,0c0,0,0,0,0.1,0c0,0,0,0.1-0.1,0.1c0,0,0,0,0,0
			c0,0,0,0-0.1,0c-0.1,0-0.1,0-0.2,0c-0.1,0-0.2,0-0.3,0c-0.1,0-0.2,0-0.3,0.1c-0.1,0-0.2,0-0.2,0c-0.1,0-0.2,0-0.2,0
			c-0.1,0-0.3,0-0.4,0c-0.1,0-0.2,0-0.4,0c0,0-0.1,0-0.1,0C19,8.2,19,8.2,19,8.1C19,8.1,19,8.1,19,8.1z"/>
	</g>
	<g>
		<path class="st0" d="M18.5,10C18.5,10,18.5,10,18.5,10c0.1-0.1,0.1-0.1,0.1-0.1c0,0,0,0,0,0c0,0,0,0,0-0.1c0,0,0.1,0,0.1-0.1
			c0,0,0.1,0,0.1,0c0.1,0,0.1,0,0.2,0c0,0,0,0,0.1,0c0.1,0,0.2,0,0.4,0c0,0,0.1,0,0.1,0c0.1,0,0.2,0,0.3,0.1c0.1,0,0.2,0,0.2-0.1
			c0.1,0,0.2,0,0.3,0c0,0,0.1,0,0.1,0.1c0,0,0,0,0.1,0c0.1,0,0.1,0.1,0.2,0.1c0,0,0.1,0,0.1,0c0,0,0,0,0.1,0c0,0,0,0.1-0.1,0.1
			c0,0,0,0,0,0c0,0,0,0-0.1,0c-0.1,0-0.1,0-0.2,0c-0.1,0-0.2,0-0.3,0c-0.1,0-0.2,0-0.3,0.1c-0.1,0-0.2,0-0.2,0c-0.1,0-0.2,0-0.2,0
			c-0.1,0-0.3,0-0.4,0c-0.1,0-0.2,0-0.4,0c0,0-0.1,0-0.1,0C18.5,10.2,18.5,10.1,18.5,10C18.5,10.1,18.5,10.1,18.5,10z"/>
	</g>
	<g>
		<path class="st0" d="M19,12C19,11.9,19,12,19,12c0.1-0.1,0.1-0.1,0.1-0.1c0,0,0,0,0,0c0,0,0,0,0-0.1c0,0,0.1,0,0.1-0.1
			c0,0,0.1,0,0.1,0c0.1,0,0.1,0,0.2,0c0,0,0,0,0.1,0c0.1,0,0.2,0,0.4,0c0,0,0.1,0,0.1,0c0.1,0,0.2,0,0.3,0.1c0.1,0,0.2,0,0.2-0.1
			c0.1,0,0.2,0,0.3,0c0,0,0.1,0,0.1,0.1c0,0,0,0,0.1,0c0.1,0,0.1,0.1,0.2,0.1c0,0,0.1,0,0.1,0c0,0,0,0,0.1,0c0,0,0,0.1-0.1,0.1
			c0,0,0,0,0,0c0,0,0,0-0.1,0c-0.1,0-0.1,0-0.2,0c-0.1,0-0.2,0-0.3,0c-0.1,0-0.2,0-0.3,0.1c-0.1,0-0.2,0-0.2,0c-0.1,0-0.2,0-0.2,0
			c-0.1,0-0.3,0-0.4,0c-0.1,0-0.2,0-0.4,0c0,0-0.1,0-0.1,0C19,12.1,19,12,19,12C19,12,19,12,19,12z"/>
	</g>
	<g>
		<path class="st0" d="M19.4,14.4C19.5,14.4,19.5,14.4,19.4,14.4c0.1-0.1,0.1-0.1,0.1-0.1c0,0,0,0,0,0c0,0,0,0,0-0.1
			c0,0,0.1,0,0.1-0.1c0,0,0.1,0,0.1,0c0.1,0,0.1,0,0.2,0c0,0,0,0,0.1,0c0.1,0,0.2,0,0.4,0c0,0,0.1,0,0.1,0c0.1,0,0.2,0,0.3,0.1
			c0.1,0,0.2,0,0.2-0.1c0.1,0,0.2,0,0.3,0c0,0,0.1,0,0.1,0.1c0,0,0,0,0.1,0c0.1,0,0.1,0.1,0.2,0.1c0,0,0.1,0,0.1,0c0,0,0,0,0.1,0
			c0,0,0,0.1-0.1,0.1c0,0,0,0,0,0c0,0,0,0-0.1,0c-0.1,0-0.1,0-0.2,0c-0.1,0-0.2,0-0.3,0c-0.1,0-0.2,0-0.3,0.1c-0.1,0-0.2,0-0.2,0
			c-0.1,0-0.2,0-0.2,0c-0.1,0-0.3,0-0.4,0c-0.1,0-0.2,0-0.4,0c0,0-0.1,0-0.1,0C19.5,14.5,19.5,14.5,19.4,14.4
			C19.5,14.5,19.4,14.4,19.4,14.4z"/>
	</g>
	<g>
		<path class="st0" d="M22.4,1.8c0,0,0.1,0,0.1,0c0-0.1,0-0.1,0-0.1c0,0-0.1,0,0,0c0,0,0,0,0-0.1c0,0,0.1,0,0.1-0.1c0,0,0.1,0,0.1,0
			c0.1,0,0.2,0,0.3,0c0,0,0.1,0,0.1,0c0.1,0,0.3,0,0.5,0c0,0,0.1,0,0.1,0c0.1,0,0.3,0,0.4,0.1c0.1,0,0.2,0,0.3-0.1
			c0.1,0,0.3,0,0.4,0c0.1,0,0.1,0,0.2,0.1c0,0,0.1,0,0.1,0c0.1,0,0.1,0.1,0.3,0.1c0,0,0.1,0,0.1,0.1c0.1,0,0.1,0,0.1,0
			c0,0-0.1,0.1-0.1,0.1c0,0,0,0,0,0.1c0,0-0.1,0-0.1,0c-0.1,0-0.2,0-0.3,0c-0.1,0-0.2,0-0.4,0c-0.1,0-0.3,0-0.4,0.1
			c-0.1,0-0.2,0-0.3,0c-0.1,0-0.2,0-0.3,0c-0.2,0-0.4,0-0.5,0c-0.2,0-0.3,0-0.5,0c0,0-0.1,0-0.1,0C22.4,1.9,22.4,1.9,22.4,1.8
			C22.4,1.8,22.4,1.8,22.4,1.8z"/>
	</g>
	<g>
		<path class="st0" d="M25.5,6.8c0,0.2-0.4,0.5-0.6,0.7c-0.2,0.2-0.5,0.6-0.5,0.8c0,0.1,0,0.1,0,0.1c0,0,0,0.1,0,0.1c0,0,0,0,0,0.1
			c0,0.1,0.1,0.2,0.2,0.3c0.2,0.2,0.4,0.4,0.6,0.5c0.5,0.3,1,0.5,1.6,0.6c0.7,0.2,1.3,0.5,2,0.6c0.6,0.1,1.3,0.2,2.1,0.2l0.2,0
			c0,0,0,0,0.1,0c0,0,0.1,0,0.1-0.1c0,0,0.1,0,0.1,0c0,0,0.1,0,0-0.1c0-0.1-0.1-0.2-0.1-0.2c0,0,0-0.1,0-0.2l0-0.2L31,9.8
			c0-0.3-0.1-0.6-0.1-0.8c0-0.6,0-1.1,0.2-1.5c0-0.3,0.2-0.3,0.2-0.7c0.1-0.1,0.2-0.2,0.2-0.3c0.1,0,0.1-0.2,0.3-0.1
			c0-0.3,0.2-0.1,0.2-0.3C32,6.2,32,6,32.1,6c0.1,0.1,0.2,0.1,0.3,0.2c0,0.4,0,0.7-0.1,0.9c0,0.3-0.1,0.5-0.1,0.7c0,0.1,0,0.3,0,0.3
			c0,0.8,0.1,1.3,0.1,1.9l0.1,0.6l0.1,0.9l0.1,0.5l0,0.2l0,0.1l0,0c0,0,0,0,0,0l-0.1,0l-0.9,0L30.6,12L30,12
			c-0.4-0.1-0.9-0.1-1.3-0.2c-0.9-0.1-1.7-0.3-2.5-0.5c-0.4-0.1-0.8-0.3-1.2-0.5c-0.4-0.2-0.8-0.5-1.2-0.9c-0.2-0.2-0.3-0.5-0.4-0.7
			c-0.1-0.1-0.1-0.3-0.1-0.5c0-0.1,0-0.4,0.1-0.6c0.1-0.3,0.1-0.5,0.3-0.7c0.1-0.1,0-0.1,0,0c-0.1,0.1-0.1,0,0,0
			c0.2-0.2,0.2-0.4,0.4-0.6c0.3-0.1,0.4,0,0.7,0c0.1,0,0.2,0.1,0.4-0.1c0.1,0,0.2,0,0.3,0c0,0.1,0,0.1,0.1,0.1
			C25.5,6.7,25.3,6.9,25.5,6.8z"/>
	</g>
	<g>
		<g>
			<g>
				<defs>
					<polygon id="SVGID_1_" points="14.8,32.9 18.5,34.6 33.7,28.5 35.2,27.7 38.7,31.9 32.7,37 15.2,37.6 10.7,37.1 8.1,34 					
						"/>
				</defs>
				<clipPath id="SVGID_2_">
					<use xlink:href="#SVGID_1_"  style="overflow:visible;"/>
				</clipPath>
				<g class="st1">
					<polygon class="st0" points="13.1,33.6 16.9,36.1 34.4,28.9 31.1,27.8 					"/>
					<g>
						<path class="st0" d="M13.4,33.4c0.4,0,1.4,0.8,2.3,1.3c0.2,0.1,0.5,0.3,0.7,0.5l0.3,0.2l0.2,0.2l0.3-0.1l0.5-0.2
							c3.4-1.5,6.5-2.8,9.3-4.2l0.7-0.3l0.6-0.2l0.6-0.2c0.4-0.1,0.9-0.3,1.3-0.5c0.1-0.1,0.2-0.1,0.3-0.2l0.1,0l0,0c0,0,0,0,0,0
							l-0.3-0.1c-0.2,0-0.4-0.1-0.6-0.1l-0.3-0.1l-0.1,0c0,0,0,0-0.1,0l-0.1,0c-0.3,0.2-0.6,0.2-0.8,0.4c-0.1,0-0.2,0-0.2,0.1
							c-0.1,0-0.1,0-0.2,0.1L27.4,30c-0.8,0.3-1.6,0.6-2.3,0.8c-1.3,0.5-3.3,1.2-4.1,1.5c-1.4,0.4-2.8,0.7-3.8,0.8
							c-0.7,0.1-0.8-0.1-1.8,0.2c-0.2-0.1-0.4-0.1-0.9,0c0-0.1-0.5,0-0.4-0.3c-0.7,0.3-0.4-0.1-0.9,0c0.4-0.3-0.2,0-0.2-0.2
							c0.2-0.2,0.3-0.3,0.4-0.5c1-0.3,1.8-0.5,2.2-0.5c0.8-0.2,1.4-0.3,1.9-0.3c0.3-0.1,0.6-0.2,0.7-0.2c2-0.6,3.3-1,4.8-1.5
							c1-0.4,2-0.7,3-1.1l1.6-0.5l2-0.5l2-0.5c0.1,0,0.2-0.1,0.3,0l0.3,0.1l0.5,0.2l1,0.3l2.1,0.6l0.3,0.1c0,0,0,0,0,0l0,0l-0.1,0
							l-0.1,0.1l-0.5,0.2l-0.9,0.5l-3.7,1.9l-0.9,0.5l-0.5,0.2c-0.2,0.1-0.3,0.2-0.4,0.2l-1.5,0.7c-2,0.9-3.9,1.7-6,2.6
							c-1.1,0.4-1.6,0.7-2.9,1.2l-0.6,0.3c-0.3,0.2-0.7,0.3-1.1,0.5l-0.3-0.2c-0.3-0.2-0.2-0.1,0,0c0.3,0.2,0.1,0.2,0,0
							c-1.1-0.7-1.2-0.7-1.7-1.1c-0.3-0.5-0.3-0.6-0.6-1.2c-0.2-0.3-0.1-0.4-0.5-0.7c-0.1-0.2-0.2-0.4-0.4-0.6
							c0.2,0.1,0.2,0,0.1-0.1C13.1,33.3,13.7,33.6,13.4,33.4z"/>
					</g>
				</g>
			</g>
		</g>
	</g>
	<g>
		<path class="st0" d="M13.5,25.4c-0.3,0-1,0.1-1.3,0.2c-0.6,0.2-1.1,0.3-1.5,0.4c-0.6,0.1-1.1,0.2-1.7,0.5
			c-0.5,0.1-0.8,0.2-1.2,0.4c-0.2,0.1-0.5,0.2-0.8,0.3C5,28,3.4,28.7,2.3,29.4l-0.1,0.1c-0.3,0.1-0.6,0.3-1.1,0.6
			c-0.3,0.1-0.9,0.4-1,0.7c0,0,0,0,0,0C0,30.8,0,30.9,0,31l0.1,0.2h0.1c0,0,0,0,0,0c0,0.1,0.1,0.2,0.2,0.2l0.1,0l0.1,0
			c0.3-0.2,0.6-0.3,1-0.5c1.5-0.8,3.2-1.6,4.7-2.2c0.9-0.4,1.8-0.7,2.7-1c1.5-0.6,3.3-1.2,4.3-1.4c0.1,0,0.6-0.4,0.6-0.7
			C13.9,25.5,13.7,25.4,13.5,25.4z"/>
		<path class="st0" d="M49.5,35.4L49.5,35.4c-0.1-0.3-0.2-0.5-0.3-0.7c-0.1-0.1-0.2-0.2-0.3-0.4c0-0.1-0.1-0.2-0.2-0.3
			c-0.1,0-0.1-0.1-0.2-0.2l0,0c-0.2-0.2-0.3-0.4-0.5-0.6c-0.1-0.2-0.3-0.3-0.5-0.6c-0.4-0.3-0.7-0.6-0.9-0.8
			c-0.4-0.4-0.9-0.8-1.7-1.5c-1.6-1-2.8-1.8-4.3-2.6l0,0c-0.1,0-0.2-0.1-0.3-0.1c-0.1-0.1-0.2-0.1-0.5-0.1c-0.8-0.5-1.9-1-2.7-1.2
			c-0.1-0.1-0.3-0.1-0.7-0.1c-0.6,0-1,0.1-1,0.4c0,0.1,0,0.1,0,0.1l0,0.1l0.1,0c0.9,0.3,1.8,0.7,2.8,1.1c0.2,0.1,0.4,0.1,0.5,0.2
			c0.2,0,0.3,0.1,0.5,0.2c0.4,0.2,0.8,0.5,1.2,0.7c0.5,0.3,1.1,0.6,1.6,0.9c0.9,0.5,1.8,1.1,2.5,1.6c0.2,0.1,0.4,0.3,0.5,0.4
			c0.1,0.1,0.2,0.2,0.4,0.3c0.1,0.1,0.2,0.2,0.3,0.3c0.2,0.1,0.3,0.2,0.4,0.3c0.3,0.2,0.5,0.5,0.7,0.7c0.2,0.2,0.4,0.5,0.7,0.7
			c0.1,0.2,0.2,0.4,0.4,0.6c0.1,0.1,0.2,0.3,0.3,0.4l0,0c0.1,0.1,0.2,0.2,0.3,0.3c0.1,0.2,0.2,0.3,0.4,0.4c0.1,0.1,0.1,0.2,0.2,0.4
			c0.2,0.3,0.3,0.6,0.5,0.6c0,0,0,0,0,0c0,0,0.2,0,0.2-0.1C50.1,36.5,49.9,36.1,49.5,35.4z"/>
	</g>
	<g>
		<path class="st0" d="M27.6,0.4c0-0.2,0.4-0.3,1-0.2c0.5,0,1.2,0.1,1.8,0.3c0.8,0.2,1.8,0.7,2.7,1.2c0.5,0.3,0.3,0.3,0.7,0.7
			C34.4,2.9,34.7,3.5,35,4c0.3,0.6,0.5,1.2,0.8,2.1C35.9,7,36,7.7,36.1,8.3c0,0.3,0.1,0.7,0.1,1c0,0.2,0,0.4,0,0.5
			c0,0.2,0,0.4,0,0.6c-0.1,1.1-0.4,1.5-0.7,2.5c-0.3,0.9-0.6,1.5-0.9,2.2c-0.6,0.7-1.4,1.5-2.1,1.8c-0.6,0.4-0.7,0.6-1.3,0.8
			c-0.5,0.2-0.7,0.2-1.2,0.4c-0.5,0.1-0.7,0.3-1.1,0.4c-1.6,0.3-3.6,0.1-5.2-0.5c-1-0.4-2.2-1-3.2-1.9c-0.3-0.2-0.5-0.4-0.7-0.7
			c-0.2-0.3-0.4-0.6-0.6-0.9c-0.4-0.6-0.6-1.2-0.8-1.9c-0.1-0.4-0.2-1-0.3-1.3C17.8,10.3,17.8,9,18,7.8c0.2-1.2,0.5-2.4,1-3.3
			c0.3-0.4,0.5-0.8,0.9-1.2c0.6-0.7,0.9-0.8,1.5-1.2c0.3-0.3,0.6-0.5,0.8-0.5c0.3-0.3,0.8-0.6,1.2-0.8c0.6-0.2,1.4-0.4,2.1-0.6
			C26.3,0,27,0,27.6,0c0,0.2-1.4,0.2-1.9,0.4c-1.1,0.2-1.6,0.4-2.2,0.7c-0.4,0.2-0.5,0.4-0.6,0.6c-0.4,0.2-0.8,0.5-1,0.7
			c-0.4,0.3-0.6,0.5-0.6,0.7C21,3.3,21,3.2,20.7,3.6c-0.2,0.3-0.4,0.6-0.7,0.9c-0.2,0.3-0.3,0.6-0.3,0.8c-0.1,0.1-0.3,0.4-0.4,0.8
			c-0.1,0.4-0.2,0.7-0.2,1c-0.1,0.4-0.2,0.8-0.2,1.2C18.8,8.9,19,8.8,19,9.2c-0.1,1.3,0.1,2.4,0.4,3.5c0.2,0.5,0.4,1,0.6,1.5
			c0.3,0.5,0.6,0.8,1,1.2c1,0.7,1.6,1.2,2.7,1.6c0.4,0.2,1,0.4,1.5,0.5c0.5,0.1,1,0.2,1.4,0.2c0.5,0.1,1.2,0.1,1.9,0
			c0.7-0.1,1.4-0.3,2-0.6c0.7-0.3,1.4-0.8,2.1-1.5c1-0.9,1.9-2.4,2.2-3.6c0.1-0.4,0.3-0.9,0.3-1.1c0.1-0.5,0.1-1,0-1.5
			c0-0.5-0.1-1.1-0.2-1.6c-0.2-1.1-0.4-2.2-0.9-3.2c0-0.1-0.2-0.6-0.3-0.8c-0.3-0.5-0.4-0.6-0.7-0.9C33.2,2.6,32.5,2,32,1.6
			c-0.9-0.6-1.5-0.8-2.3-0.9c-0.4-0.1-0.4-0.2-0.6-0.2C28.9,0.5,28.2,0.3,27.6,0.4z"/>
	</g>
	<g>
		<path class="st0" d="M21.4,2.8C21.4,2.7,21.5,2.8,21.4,2.8c0.1-0.1,0.1-0.1,0.1-0.1c0,0,0,0,0,0c0,0,0,0,0-0.1c0,0,0.1,0,0.1-0.1
			c0,0,0.1,0,0.1,0c0.1,0,0.1,0,0.2,0c0,0,0,0,0.1,0c0.1,0,0.2,0,0.4,0c0,0,0.1,0,0.1,0c0.1,0,0.2,0,0.3,0.1c0.1,0,0.2,0,0.2-0.1
			c0.1,0,0.2,0,0.3,0c0,0,0.1,0,0.1,0.1c0,0,0,0,0.1,0c0.1,0,0.1,0,0.2,0.1c0,0,0.1,0,0.1,0c0,0,0,0,0.1,0c0,0,0,0.1-0.1,0.1
			c0,0,0,0,0,0c0,0,0,0-0.1,0c-0.1,0-0.1,0-0.2,0c-0.1,0-0.2,0-0.3,0c-0.1,0-0.2,0-0.3,0.1c-0.1,0-0.2,0-0.2,0c-0.1,0-0.2,0-0.2,0
			c-0.1,0-0.3,0-0.4,0c-0.1,0-0.2,0-0.4,0c0,0-0.1,0-0.1,0C21.4,2.9,21.4,2.8,21.4,2.8C21.4,2.8,21.4,2.8,21.4,2.8z"/>
	</g>
	<g>
		<path class="st0" d="M28.7,13.2c-0.1,0,0-0.2-0.1-0.2c-0.1,0-0.2,0.1-0.3,0c-0.1,0,0,0.1-0.1,0.1c-0.1,0-0.1,0-0.2,0
			c0-0.1,0-0.2-0.2-0.2c0-0.1,0-0.2-0.1-0.2c0.1-0.2,0-0.4,0-0.6c0-0.1,0-0.1-0.1-0.1c0-0.2-0.1-0.5,0-0.9c0-0.1,0-0.1,0-0.2
			c0.1-0.2,0-0.5,0.2-0.7c-0.1-0.2-0.1-0.4-0.2-0.5c0.1-0.3,0-0.5-0.1-0.7c0.1-0.1,0.1-0.3,0.2-0.3c0-0.1,0-0.1,0.1-0.2
			c0.1-0.1,0.2-0.2,0.2-0.4C28,8.1,28,8,28.1,8c0-0.1,0-0.1,0.1-0.2c0.1,0,0.2,0.1,0.2,0.2c0.1,0,0.1,0,0.1,0c-0.1,0,0,0.1-0.1,0.2
			c0.1,0.1,0.1,0.3,0.1,0.5c0.1,0.2,0.1,0.4,0.1,0.6c0.1,0.2,0.1,0.5,0.2,0.8c-0.1,0.2,0,0.4,0,0.5c-0.1,0.2,0,0.4-0.1,0.6
			c0.1,0.3,0,0.6,0.1,0.9c-0.1,0.3,0.1,0.6,0,0.9c0,0.1,0.1,0.1,0.1,0.2c0,0.1-0.2,0-0.2,0.1C28.8,13.2,28.7,13.2,28.7,13.2z"/>
	</g>
	<g>
		<g>
			<g>
				<defs>
					<polygon id="SVGID_3_" points="14.8,32.9 18.5,34.6 33.7,28.5 35.2,27.7 35.5,21.7 30.6,18.4 12.7,17.4 8.4,27.5 8.1,34 					
						"/>
				</defs>
				<clipPath id="SVGID_4_">
					<use xlink:href="#SVGID_3_"  style="overflow:visible;"/>
				</clipPath>
				<g class="st2">
					<g>
						<path class="st0" d="M26,21.2c0-0.2,0.4-0.2,0.9-0.2c0.5,0,1.2,0.1,1.8,0.3c0.8,0.2,1.8,0.7,2.6,1.3c0.2,0.2,0.3,0.3,0.4,0.3
							c0.1,0.1,0.1,0.2,0.3,0.4c0.6,0.6,0.8,1.2,1.1,1.7c0.3,0.6,0.5,1.2,0.7,2c0.2,0.9,0.3,1.5,0.3,2.2c0.1,0.6,0.2,1.3,0.1,2.1
							c-0.1,1-0.4,1.5-0.7,2.5c-0.3,0.9-0.6,1.5-0.9,2.1c-0.5,0.7-1.3,1.5-2,1.9c-0.6,0.4-0.7,0.6-1.2,0.9c-0.5,0.2-0.7,0.2-1.2,0.4
							c-0.5,0.2-0.7,0.3-1.1,0.4c-0.8,0.2-1.7,0.2-2.6,0.1c-0.9-0.1-1.7-0.3-2.5-0.6c-1-0.4-2.1-1.1-3.1-1.9
							c-0.1-0.1-0.2-0.2-0.4-0.3l-0.1-0.1l-0.1-0.1c-0.1-0.1-0.1-0.1-0.2-0.2c-0.2-0.3-0.4-0.6-0.6-0.9c-0.3-0.6-0.6-1.2-0.7-1.9
							c-0.1-0.4-0.2-1-0.3-1.3c-0.1-1.1-0.1-2.4,0.1-3.5c0.1-1.2,0.5-2.3,0.9-3.3c0.3-0.4,0.5-0.8,0.8-1.2c0.6-0.7,0.9-0.8,1.4-1.2
							c0.3-0.3,0.6-0.5,0.8-0.5c0.3-0.3,0.8-0.6,1.2-0.9c0.6-0.2,1.3-0.5,2.1-0.6c0.7-0.1,1.5-0.2,2.1-0.1c0,0.2-1.3,0.2-1.9,0.4
							c-1.1,0.2-1.5,0.5-2.2,0.7c-0.4,0.2-0.5,0.4-0.6,0.6c-0.4,0.2-0.8,0.5-0.9,0.7c-0.4,0.3-0.5,0.5-0.6,0.7
							c-0.2,0.3-0.3,0.2-0.5,0.5c-0.2,0.3-0.4,0.6-0.6,0.9c-0.2,0.3-0.3,0.6-0.3,0.8c-0.1,0.1-0.3,0.4-0.4,0.8
							c-0.1,0.4-0.2,0.7-0.2,1c-0.1,0.4-0.2,0.8-0.2,1.2c-0.1,0.6,0.1,0.5,0.1,0.9c-0.1,1.2,0.1,2.4,0.4,3.4c0.2,0.5,0.3,1,0.6,1.5
							c0.1,0.2,0.3,0.4,0.4,0.6c0.1,0.1,0.1,0.2,0.2,0.3c0.1,0.1,0.2,0.2,0.3,0.3c0.9,0.7,1.6,1.2,2.6,1.6c0.4,0.2,0.9,0.4,1.4,0.5
							c0.5,0.1,1,0.2,1.3,0.2c0.5,0.1,1.2,0.1,1.8,0c0.7-0.1,1.3-0.3,2-0.6c0.7-0.3,1.4-0.8,2-1.5c0.4-0.5,0.9-1.1,1.3-1.7
							c0.4-0.6,0.6-1.3,0.8-1.9c0.1-0.4,0.2-0.9,0.3-1.1c0.1-0.5,0.1-1,0-1.5c0-0.5-0.1-1.1-0.2-1.6c-0.2-1.1-0.4-2.2-0.8-3.1
							c0-0.1-0.2-0.6-0.3-0.8c-0.3-0.5-0.4-0.6-0.7-0.9c0.1-0.2-0.6-0.8-1.1-1.2c-0.9-0.6-1.4-0.8-2.2-1c-0.4-0.1-0.4-0.2-0.5-0.2
							C27.2,21.3,26.5,21.1,26,21.2z"/>
					</g>
					<g>
						<path class="st0" d="M17.3,38.5c0-0.1-0.1-0.2,0.1-0.2c-0.1-0.2,0-0.2,0-0.4c-0.2-0.3-0.3-0.7-0.5-0.9c0-0.4-0.3-0.7-0.4-1.3
							c-0.2-0.4-0.3-0.7-0.4-1.1c-0.2-0.2-0.2-0.5-0.3-0.8c-0.1-0.3-0.2-0.5-0.1-0.9c-0.1-0.4-0.2-0.8-0.2-1.4
							c-0.1-0.2-0.2-0.4-0.1-0.7c0-0.2-0.1-0.7,0-0.9c0.1-0.2-0.1-0.1,0-0.3c-0.1,0,0.1-0.2-0.1-0.2c0.1-0.1,0.1-0.1,0.1-0.4
							c-0.1-0.4,0.1-0.7,0.1-1.2c0.1-0.6,0.3-1.2,0.7-1.7c0.3-0.6,0.7-1.1,1.1-1.6c0.8-1,1.8-2,2.6-2.8c-0.1-0.1,0.4-0.3,0.2-0.3
							c0.1-0.2-0.2,0.1-0.2,0c-0.1,0.1-0.2,0-0.2,0c-0.3,0.2-0.6,0.2-0.9,0.4c-0.5,0.5-0.8,0.8-1.2,1.2c-0.1,0.1,0,0.1-0.1,0.2
							c-0.2,0-0.4,0.4-0.5,0.5c-0.1,0.2-0.2,0.3-0.3,0.4c0,0.1-0.2,0.2-0.3,0.3c0.1,0,0,0.1-0.1,0.2c-0.5,0.6-0.6,0.9-1.1,1.7
							c0,0.2-0.2,0.4-0.2,0.5c-0.1,0-0.2,0.4-0.2,0.5c-0.1,0.5-0.2,1-0.2,1.6c0.1,0.6,0,1.5,0.1,2.1c-0.1,0.3,0,0.5,0,0.6
							c0,0.1-0.1,0.3,0,0.4c0,0.1,0.1,0.2,0.1,0.3c0,0.2,0,0.4,0.1,0.6c0.1,0.3,0.1,0.6,0.2,0.8c0,0,0,0,0.1,0.1c0,0.1,0,0.1,0,0.1
							c0.1,0.2,0.2,0.4,0.2,0.6c0.2,0.3,0.3,0.7,0.5,1.2c0.1,0.6,0.4,0.9,0.5,1.3c0.1,0.1,0.2,0.1,0.2,0.3c0.1,0.1,0,0.1,0.1,0.3
							c0.1,0.1,0.2,0.4,0.3,0.5c0.1,0.2,0.2,0.4,0.3,0.5c0,0,0.1,0,0.1,0C17.3,38.8,17.2,38.5,17.3,38.5z M15.6,35.5
							C15.6,35.5,15.6,35.6,15.6,35.5C15.6,35.6,15.6,35.6,15.6,35.5z"/>
					</g>
					<g>
						<path class="st0" d="M17,23.9c0,0,0.1,0,0.1,0c0-0.1,0-0.1,0-0.1c0,0-0.1,0,0,0c0,0,0,0,0-0.1c0,0,0.1,0,0.1-0.1
							c0,0,0.1,0,0.1,0c0.1,0,0.2,0,0.3,0c0,0,0.1,0,0.1,0c0.1,0,0.3,0,0.5,0c0,0,0.1,0,0.1,0c0.1,0,0.3,0,0.4,0.1
							c0.1,0,0.2,0,0.3-0.1c0.1,0,0.3,0,0.4,0c0.1,0,0.1,0,0.2,0.1c0,0,0.1,0,0.1,0c0.1,0,0.1,0.1,0.3,0.1c0,0,0.1,0,0.1,0.1
							c0.1,0,0.1,0,0.1,0c0,0-0.1,0.1-0.1,0.1c0,0,0,0,0,0.1c0,0-0.1,0-0.1,0c-0.1,0-0.2,0-0.3,0c-0.1,0-0.2,0-0.4,0
							c-0.1,0-0.3,0-0.4,0.1c-0.1,0-0.2,0-0.3,0c-0.1,0-0.2,0-0.3,0c-0.2,0-0.4,0-0.5,0c-0.2,0-0.3,0-0.5,0c0,0-0.1,0-0.1,0
							C17.1,24,17.1,23.9,17,23.9C17,23.9,17,23.9,17,23.9z"/>
					</g>
					<g>
						<path class="st0" d="M15.7,25.8c0,0,0.1,0,0.1,0c0-0.1,0-0.1,0-0.1c0,0-0.1,0,0,0c0,0,0,0,0-0.1c0,0,0.1,0,0.1-0.1
							c0,0,0.1,0,0.1,0c0.1,0,0.2,0,0.3,0c0,0,0.1,0,0.1,0c0.1,0,0.3,0,0.5,0c0,0,0.1,0,0.1,0c0.1,0,0.3,0,0.4,0.1
							c0.1,0,0.2,0,0.3-0.1c0.1,0,0.3,0,0.4,0c0.1,0,0.1,0,0.2,0.1c0,0,0.1,0,0.1,0c0.1,0,0.1,0.1,0.3,0.1c0,0,0.1,0,0.1,0.1
							c0.1,0,0.1,0,0.1,0c0,0-0.1,0.1-0.1,0.1c0,0,0,0,0,0.1c0,0-0.1,0-0.1,0c-0.1,0-0.2,0-0.3,0c-0.1,0-0.2,0-0.4,0
							c-0.1,0-0.3,0-0.4,0.1c-0.1,0-0.2,0-0.3,0c-0.1,0-0.2,0-0.3,0c-0.2,0-0.4,0-0.5,0c-0.2,0-0.3,0-0.5,0c0,0-0.1,0-0.1,0
							C15.7,25.9,15.8,25.8,15.7,25.8C15.7,25.8,15.7,25.8,15.7,25.8z"/>
					</g>
					<g>
						<path class="st0" d="M14.7,27.9c0,0,0.1,0,0.1,0c0-0.1,0-0.1,0-0.1c0,0-0.1,0,0,0c0,0,0,0,0-0.1c0,0,0.1,0,0.1-0.1
							c0,0,0.1,0,0.1,0c0.1,0,0.2,0,0.3,0c0,0,0.1,0,0.1,0c0.1,0,0.3,0,0.5,0c0,0,0.1,0,0.1,0c0.1,0,0.3,0,0.4,0.1
							c0.1,0,0.2,0,0.3-0.1c0.1,0,0.3,0,0.4,0c0.1,0,0.1,0,0.2,0.1c0,0,0.1,0,0.1,0c0.1,0,0.1,0.1,0.3,0.1c0,0,0.1,0,0.1,0.1
							c0.1,0,0.1,0,0.1,0c0,0-0.1,0.1-0.1,0.1c0,0,0,0,0,0.1c0,0-0.1,0-0.1,0c-0.1,0-0.2,0-0.3,0c-0.1,0-0.2,0-0.4,0
							c-0.1,0-0.3,0-0.4,0.1c-0.1,0-0.2,0-0.3,0c-0.1,0-0.2,0-0.3,0c-0.2,0-0.4,0-0.5,0c-0.2,0-0.3,0-0.5,0c0,0-0.1,0-0.1,0
							C14.8,28.1,14.8,28,14.7,27.9C14.7,28,14.7,28,14.7,27.9z"/>
					</g>
					<g>
						<path class="st0" d="M14.7,29.7c0,0,0.1,0,0.1,0c0,0,0-0.1,0-0.1c0,0-0.1,0,0,0c0,0,0,0,0-0.1c0,0,0.1,0,0.1,0
							c0,0,0.1,0,0.1,0c0.1,0,0.2,0,0.3,0.1c0,0,0.1,0,0.1,0c0.1,0,0.3,0,0.5,0.1c0,0,0.1,0,0.1,0c0.1,0.1,0.3,0,0.4,0.1
							c0.1,0,0.2,0,0.3,0c0.1,0,0.3,0.1,0.4,0c0.1,0,0.1,0,0.2,0.1c0,0,0.1,0,0.1,0c0.1,0.1,0.1,0.1,0.2,0.1c0,0,0.1,0,0.1,0.1
							c0,0,0.1,0,0.1,0c0,0-0.1,0.1-0.1,0c0,0,0,0,0,0.1c0,0-0.1,0-0.1,0c-0.1,0-0.2,0-0.3,0c-0.1,0-0.2,0-0.4,0c-0.1,0-0.3,0-0.5,0
							c-0.1,0-0.2,0-0.3,0c-0.1,0-0.2,0-0.3-0.1c-0.2,0-0.4-0.1-0.5-0.1c-0.2,0-0.3,0-0.5-0.1c0,0-0.1,0-0.1,0
							C14.7,29.8,14.8,29.8,14.7,29.7C14.7,29.7,14.7,29.7,14.7,29.7z"/>
					</g>
					<g>
						<path class="st0" d="M14.7,31.4c0,0,0.1,0,0.1,0c0-0.1,0-0.1,0-0.1c0,0,0,0,0,0c0,0,0,0,0-0.1c0,0,0.1,0,0.1,0
							c0,0,0.1,0,0.1,0c0.1,0.1,0.2,0.1,0.3,0.1c0,0,0.1,0,0.1,0c0.1,0.1,0.3,0.1,0.4,0.2c0,0,0.1,0,0.1,0c0.1,0.1,0.2,0.1,0.3,0.2
							c0.1,0,0.2,0,0.3,0c0.1,0.1,0.3,0.1,0.4,0.1c0,0,0.1,0.1,0.1,0.1c0,0,0.1,0,0.1,0.1c0.1,0.1,0.1,0.1,0.2,0.1
							c0,0,0.1,0,0.1,0.1c0,0,0.1,0,0.1,0.1c0,0-0.1,0.1-0.1,0c0,0,0,0,0,0.1c0,0-0.1,0-0.1-0.1c-0.1,0-0.2,0-0.3-0.1
							c-0.1,0-0.2,0-0.3-0.1c-0.1,0-0.3,0-0.4,0C16.2,32,16.1,32,16,32c-0.1-0.1-0.2-0.1-0.3-0.1c-0.2,0-0.3-0.1-0.5-0.1
							c-0.1-0.1-0.3-0.1-0.4-0.2c0,0-0.1,0-0.1,0C14.7,31.6,14.8,31.5,14.7,31.4C14.7,31.5,14.7,31.4,14.7,31.4z"/>
					</g>
					<g>
						<path class="st0" d="M18.8,22.5c0,0,0.1,0,0.1,0c0,0,0-0.1,0-0.1c0,0,0,0,0,0c0,0,0,0,0-0.1c0,0,0.1,0,0.1,0c0,0,0.1,0,0.1,0
							c0.1,0,0.2,0,0.3,0c0,0,0.1,0,0.1,0c0.1,0,0.3,0,0.4,0c0,0,0.1,0,0.1,0c0.1,0,0.2,0,0.3,0c0.1,0,0.2,0,0.3-0.1
							c0.1,0,0.3,0,0.4,0c0.1,0,0.1,0,0.2,0.1c0,0,0.1,0,0.1,0c0.1,0,0.1,0,0.2,0c0,0,0.1,0,0.1,0c0,0,0.1,0,0.1,0c0,0,0,0.1-0.1,0
							c0,0,0,0,0,0c0,0-0.1,0-0.1,0c-0.1,0-0.2,0-0.3,0c-0.1,0-0.2,0-0.3,0c-0.1,0-0.3,0-0.4,0.1c-0.1,0-0.2,0-0.3,0
							c-0.1,0-0.2,0-0.3,0c-0.1,0-0.3,0-0.5,0c-0.1,0-0.3,0-0.4,0c0,0-0.1,0-0.1,0C18.9,22.6,18.9,22.5,18.8,22.5
							C18.9,22.5,18.8,22.5,18.8,22.5z"/>
					</g>
					<g>
						<path class="st0" d="M20.6,20.9c0,0,0.1,0,0.1,0c0-0.1,0-0.1,0-0.1c0,0-0.1,0,0,0c0,0,0,0,0-0.1c0,0,0.1,0,0.1,0
							c0,0,0.1,0,0.1,0c0.1,0,0.2,0,0.3,0.1c0,0,0.1,0,0.1,0c0.1,0,0.3,0,0.5,0.1c0,0,0.1,0,0.1,0c0.1,0.1,0.3,0,0.4,0.1
							c0.1,0,0.2,0,0.3,0c0.1,0,0.3,0.1,0.4,0c0.1,0,0.1,0,0.2,0.1c0,0,0.1,0,0.1,0c0.1,0.1,0.1,0.1,0.2,0.1c0,0,0.1,0,0.1,0.1
							c0,0,0.1,0,0.1,0c0,0-0.1,0.1-0.1,0c0,0,0,0,0,0.1c0,0-0.1,0-0.1,0c-0.1,0-0.2,0-0.3,0c-0.1,0-0.2,0-0.4,0c-0.1,0-0.3,0-0.5,0
							c-0.1,0-0.2,0-0.3,0c-0.1,0-0.2,0-0.3-0.1c-0.2,0-0.4-0.1-0.5-0.1c-0.2,0-0.3,0-0.5-0.1c0,0-0.1,0-0.1,0
							C20.6,21,20.6,21,20.6,20.9C20.6,21,20.6,20.9,20.6,20.9z"/>
					</g>
					<g>
						<path class="st0" d="M22.6,27.3c0,0.2-0.4,0.5-0.6,0.7c-0.2,0.3-0.5,0.6-0.5,0.8c0,0.1,0,0.1,0,0.1c0,0,0,0.1,0,0.1
							c0,0,0,0,0,0.1c0,0.1,0.1,0.2,0.2,0.3c0.2,0.2,0.4,0.4,0.6,0.5c0.5,0.3,1,0.5,1.6,0.6c0.7,0.2,1.3,0.5,2,0.6
							c0.6,0.1,1.3,0.2,2.1,0.2l0.2,0c0,0,0,0,0.1,0c0,0,0.1,0,0.1-0.1c0,0,0.1,0,0.1,0c0,0,0.1,0,0-0.1c0-0.1-0.1-0.2-0.1-0.2
							c0,0,0-0.1,0-0.2l0-0.2l-0.1-0.5c0-0.3-0.1-0.6-0.1-0.8c0-0.6,0-1.1,0.2-1.5c0-0.3,0.2-0.3,0.2-0.7c0.1-0.1,0.2-0.2,0.2-0.3
							c0.1,0,0.1-0.2,0.3-0.1c0-0.3,0.2-0.1,0.2-0.3c0.1,0.2,0.1-0.1,0.2-0.1c0.1,0.1,0.2,0.1,0.3,0.2c0,0.4,0,0.7-0.1,0.9
							c0,0.3-0.1,0.5-0.1,0.7c0,0.1,0,0.3,0,0.3c0,0.8,0.1,1.3,0.1,1.9l0.1,0.6l0.1,0.9l0.1,0.5l0,0.2l0,0.1l0,0c0,0,0,0,0,0l-0.1,0
							l-0.9,0l-0.9-0.1l-0.7-0.1c-0.4-0.1-0.9-0.1-1.3-0.2c-0.9-0.1-1.7-0.3-2.5-0.5c-0.4-0.1-0.8-0.3-1.2-0.5
							c-0.4-0.2-0.8-0.5-1.2-0.9c-0.2-0.2-0.3-0.5-0.4-0.7c0-0.1-0.1-0.3-0.1-0.5c0-0.1,0-0.4,0.1-0.6c0.1-0.3,0.1-0.5,0.3-0.7
							c0.1-0.1,0-0.1,0,0c-0.1,0.1-0.1,0,0,0c0.2-0.2,0.2-0.4,0.4-0.6c0.3-0.1,0.4,0,0.7,0c0.1,0,0.2,0.1,0.4-0.1c0.1,0,0.2,0,0.3,0
							c0,0.1,0,0.1,0.1,0.1C22.6,27.2,22.4,27.4,22.6,27.3z"/>
					</g>
					<g>
						<path class="st0" d="M25.8,33.7c-0.1,0,0-0.2-0.1-0.2c-0.1,0-0.2,0.1-0.3,0c-0.1,0,0,0.1-0.1,0.1c-0.1,0-0.1,0-0.2,0
							c0-0.1,0-0.2-0.2-0.2c0-0.1,0-0.2-0.1-0.2c0.1-0.2,0-0.4,0-0.6c0-0.1,0-0.1-0.1-0.1c0-0.2-0.1-0.5,0-0.9c0-0.1,0-0.1,0-0.2
							c0.1-0.2,0-0.5,0.2-0.6c-0.1-0.2-0.1-0.4-0.2-0.5c0.1-0.3,0-0.5-0.1-0.7c0.1-0.1,0.1-0.3,0.2-0.3c0-0.1,0-0.1,0.1-0.2
							c0.1-0.1,0.2-0.2,0.2-0.4c0.1,0,0.1-0.2,0.1-0.2c0-0.1,0-0.1,0.1-0.2c0.1,0,0.2,0.1,0.2,0.2c0.1,0,0.1,0,0.1,0
							c-0.1,0,0,0.1-0.1,0.2c0.1,0.1,0.1,0.3,0.1,0.5c0.1,0.2,0.1,0.4,0.1,0.6c0.1,0.2,0.1,0.5,0.2,0.8c-0.1,0.2,0,0.4,0,0.5
							c-0.1,0.2,0,0.4-0.1,0.6c0.1,0.3,0,0.6,0.1,0.9c-0.1,0.3,0.1,0.6,0,0.9c0,0.1,0.1,0.1,0.1,0.2c0,0.1-0.2,0-0.2,0.1
							C25.9,33.6,25.8,33.7,25.8,33.7z"/>
					</g>
				</g>
			</g>
		</g>
	</g>
</g>
</svg>
