<?xml version="1.0" encoding="utf-8"?>
<!-- Generator: Adobe Illustrator 19.2.1, SVG Export Plug-In . SVG Version: 6.00 Build 0)  -->
<svg version="1.1" id="Layer_1" xmlns="http://www.w3.org/2000/svg" xmlns:xlink="http://www.w3.org/1999/xlink" x="0px" y="0px"
	 viewBox="0 0 48 50" style="enable-background:new 0 0 48 50;" xml:space="preserve">
<style type="text/css">
	.st0{fill:#068585;}
</style>
<g>
	<g>
		<path class="st0" d="M29.5,34.9c0,0-0.1,0-0.1,0c-0.1,0.1-0.3,0.2-0.4,0.4c0,0,0,0.1,0,0.1c0.1,0,0.2,0,0.3-0.1
			C29.4,35.1,29.4,35,29.5,34.9 M20.8,11.1c-0.3,0.3-0.2,0.6,0.1,0.8C20.8,11.6,20.8,11.3,20.8,11.1 M18.7,40.8
			c0.1,0,0.1-0.1,0.2-0.1c-0.1-0.1-0.1-0.3-0.2-0.4c0,0-0.2,0.1-0.3,0.1C18.4,40.5,18.6,40.6,18.7,40.8 M0.7,17.3
			c0.4-0.5,0.4-0.8-0.1-1.1C0.6,16.5,0.7,16.9,0.7,17.3 M0.4,15.2c0,0.2,0,0.3,0.1,0.5c0,0.1,0.2,0.2,0.2,0.1c0.1,0,0.3-0.2,0.2-0.2
			C0.8,15.4,0.7,15.1,0.4,15.2 M26.9,27.5c0.3-0.7,0.3-0.9-0.1-1.2C26.8,26.7,26.6,27.1,26.9,27.5 M21.1,43.5c0,0.6,0.4,1.1,0.8,0.9
			C21.6,44.1,21.3,43.8,21.1,43.5 M0.3,11.1C0.5,11,0.6,11,0.7,10.9c0.1,0.1,0.1,0.2,0.2,0.3c0.2-0.4,0.1-0.8-0.4-0.9
			C0.5,10.6,0.4,10.8,0.3,11.1 M1.1,12.8c-0.1,0-0.1,0-0.2,0c-0.2,0.2-0.5,0.4-0.6,0.6c-0.2,0.5-0.2,0.6,0.1,0.7c0-0.2,0-0.3,0-0.5
			c0.3,0,0.5,0,0.8,0C1.1,13.4,1,13.3,1,13.3C1,13.1,1.1,12.9,1.1,12.8 M3.3,4.7C2.8,5.1,2.5,5.6,2.6,6.2c0,0,0.1,0,0.1,0
			C2.7,6,2.8,5.8,2.8,5.6c0.3,0.1,0.4,0.1,0.5-0.2c0-0.1,0-0.2,0.1-0.2C3.6,4.9,3.5,4.8,3.3,4.7 M22.4,5.3c-0.1,0.2-0.2,0.3-0.3,0.4
			c-0.1-0.1-0.3-0.3-0.5-0.5c-0.1,0.3-0.2,0.6-0.3,1c0,0,0.1,0.2,0.1,0.3C21,6.6,21,6.8,21.3,7.2c0.5-0.2,0.3-1,1.1-1.1
			C22,5.8,23,5.6,22.4,5.3 M44.3,23.2C44.3,23.2,44.3,23.1,44.3,23.2c-0.2-0.4-0.5-0.8-0.7-1.2c-0.3-0.6-0.8-1-1.3-1.4
			c-0.2-0.1-0.3-0.3-0.5-0.4c-0.7-0.6-1.4-1.1-2.4-1.1c-1.4,0-2.7,0.2-4,0.5c-1.1,0.3-2.1,0.8-3,1.5c-0.5,0.4-1.1,0.8-1.5,1.3
			c-0.4,0.4-0.7,1-1,1.5c-0.3,0.5-0.5,1.1-0.6,1.6c-0.1,0.5-0.1,1-0.2,1.5c-0.2,1.5-0.1,2.9,0.4,4.3c0.3,0.9,0.5,1.8,1.2,2.5
			c0.2,0.2,0.5,0.5,0.7,0.7c1.1,1.1,2.2,2.2,3.3,3.2c0.2,0.1,0.4,0.3,0.6,0.3c0.9,0,1.8-0.1,2.7-0.2c1.5-0.2,2.7-0.8,3.8-1.7
			c0.6-0.5,1.1-1.2,1.6-1.8c0.1-0.2,0.2-0.4,0.4-0.6c0.1-0.1,0.3-0.1,0.5-0.1c-0.4-0.3-0.1-1.1,0.5-1.4C44.5,31.5,45,31,45,30.4
			c0,0,0.1,0,0.1,0c0.1,0.1,0.1,0.2,0.2,0.3c0,0,0.1,0,0.1,0c0-0.2-0.1-0.3-0.1-0.5c0-0.1-0.1-0.2-0.1-0.4c-0.1-0.5,0.2-1,0.1-1.5
			c-0.1-0.7-0.1-1.4-0.1-2c-0.1-0.7-0.2-1.3-0.5-1.9c-0.2-0.4-0.4-0.8,0-1.2C44.5,23.2,44.4,23.2,44.3,23.2 M26.5,31.4
			c0-0.4-0.1-0.9-0.1-1.3c0-0.4,0-0.8,0.1-1.2c0-0.3,0-0.6,0.1-0.9c0.3,0.1,0.6,0.2,0.8,0.2c0.1,0,0.2-0.1,0.2-0.1
			c-0.1-0.1-0.1-0.1-0.2-0.2c-0.2-0.1-0.4-0.1-0.6-0.2c0,0,0-0.1,0-0.1c-0.1,0-0.2,0.1-0.3,0.1c0-0.6,0-1.1,0.1-1.6
			c0-0.6,0.4-1,0.6-1.6c0-0.1,0.2-0.2,0.3-0.2c0.1-0.1,0.3-0.1,0.5-0.1c0,0,0-0.1,0-0.2c-0.2,0-0.3,0-0.6-0.1
			c0.1-0.3,0.3-0.5,0.4-0.7c0.3-0.5,0.3-0.5,0.7-0.5c-0.1-0.1-0.1-0.2-0.2-0.4c0.3-0.3,0.6-0.6,0.8-0.9c1.1-1.1,2.2-2.1,3.6-2.8
			c1.2-0.6,2.4-1.2,3.8-1.3c0.3,0,0.5-0.1,0.7,0.1c0.4,0.3,0.7,0.1,0.8-0.3c0.1-0.4,0.2-0.9,0.3-1.3c0.1-0.9,0.2-1.8,0.2-2.6
			c0-1-0.1-1.9-0.4-2.8c-0.2-0.5-0.3-1.1-0.4-1.7c-0.1-0.2-0.1-0.4-0.2-0.6c-0.1-0.1-0.2-0.2-0.3-0.3c-0.1-0.1-0.2-0.3-0.3-0.5
			c-0.2-0.4-0.6-0.6-0.6-1c-0.2,0-0.3,0-0.4,0c0,0,0-0.2,0-0.2c-0.2-0.1-0.3-0.3-0.5-0.4c-0.2-0.1-0.3-0.2-0.5-0.3
			c-0.3-0.2-0.7-0.5-1-0.7c-0.3-0.3-0.6-0.6-1-0.6C33.1,4.1,33,4,33,3.9c-0.4-0.2-0.8-0.4-1.2-0.6C31.4,3.1,31,3,30.6,2.8
			c0,0-0.1,0-0.1,0c-1-0.1-1.9-0.1-2.8,0.2c-1.2,0.4-2,1.4-2.8,2.3c-0.3,0.4-0.6,0.8-0.8,1.3c-0.5,0.9-1,1.9-1.5,2.8
			c-0.2,0.3-0.2,0.7-0.1,1.1c0.2,0.6-0.1,1-0.2,1.6c-0.1,0-0.1-0.1-0.2-0.1c-0.3-0.3-0.4-0.3-0.5,0.1c-0.1,0.3-0.2,0.5-0.3,0.8
			c-0.1,0.2-0.2,0.4-0.3,0.6c-0.1,0-0.1,0-0.1,0c-0.3-0.8-0.5-1.6-0.3-2.5c0-0.1,0-0.1,0-0.2c-0.3-0.5-0.7-1-1-1.6
			c-0.4-0.6-0.7-1.2-1.1-1.8c-0.3-0.5-0.7-0.9-1.2-1.4c-0.3-0.4-0.7-0.7-1.1-1c-0.5-0.3-1.1-0.6-1.7-0.9c-0.5-0.2-1-0.4-1.5-0.5
			c-1.1-0.1-2.2-0.1-3.3-0.2c-0.7,0-1.5,0.2-2.1,0.6C6.6,4.8,5.9,5.6,5.4,6.5c-1,1.6-1.6,3.4-1.6,5.3c0,1.6,0.1,3.1,0.6,4.6
			c0.3,1,0.6,2,0.9,3c0.4,1.1,0.9,2.2,1.5,3.2c0.7,1.4,1.4,2.7,2.2,4c0.9,1.5,1.7,3,2.8,4.4c0.5,0.6,0.9,1.3,1.4,1.9
			c0.1,0.1,0,0.2,0.1,0.3c0,0.1,0.1,0.2,0.2,0.3c0.3,0,0.3,0,0.3,0.3c0.2,0.2,0.3,0.3,0.4,0.5c0.1,0.2,0.1,0.4,0.2,0.5
			c0.3,0.5,0.6,1,0.9,1.5c0,0,0.1,0,0.1,0c0.1-0.1,0.1-0.2,0.2-0.3c0,0,0.1,0,0.1,0c0,0.1-0.1,0.2,0,0.3c0,0.2,0.1,0.4,0.2,0.6
			c0,0.1,0.3,0.1,0.4,0.1c0.4-0.1,0.4,0,0.3,0.3c0,0.2,0,0.4,0,0.5c0,0,0.1,0,0.1,0c0.1-0.1,0.1-0.3,0.2-0.5
			c0.2,0.3,0.3,0.6,0.5,0.8c-0.1-0.1-0.3-0.2-0.4-0.2c-0.2,0.2-0.2,0.4,0.1,0.6c0.1-0.1,0.2-0.2,0.3-0.3c0.4,0.1,0.3,0.4,0.2,0.6
			c-0.1,0.2-0.1,0.4,0.1,0.5c0.1,0,0.1,0.1,0.2,0.2c0.3,0.4,0.4,0.4,0.9,0.2c0.3,0.4,0.7,0.8,1,1.2c-0.2,0-0.3,0-0.4-0.1
			c0.2,0.2,0.3,0.3,0.4,0.5c0.2-0.3,0.4-0.1,0.5,0.1c0.2,0.2,0.4,0.4,0,0.7c0.1,0.1,0.2,0.3,0.3,0.4c0,0,0.1,0,0.1,0
			c0-0.1,0-0.3-0.1-0.4c0,0,0,0,0.1,0c0.6,0.8,1.3,1.7,1.9,2.6c-0.2,0-0.3,0.1-0.5,0.1c0,0,0,0.1,0,0.1c0.1,0,0.2,0.2,0.3,0.1
			c0.4-0.2,0.6,0.1,0.7,0.3c0.2,0.3,0.4,0.3,0.5,0c0.5-0.9,0.9-1.8,1.4-2.7c0.5-0.8,1-1.6,1.4-2.3c0.3-0.5,0.5-1,0.8-1.4
			c0.2-0.4,0.5-0.7,0.7-1c0,0,0.1,0,0.1,0c-0.1,0.2-0.1,0.4-0.2,0.6c0.3-0.4,0.4-0.9,0.7-1.3c0.2-0.3,0.1-0.6-0.1-0.9
			c-0.2-0.2-0.3-0.6-0.4-0.8c0,0,0.1,0,0.1,0c0.3,0.4,0.6,0.5,0.8,0.2c-0.1,0-0.3,0-0.4,0c0-0.2,0.1-0.3,0.1-0.4
			c0-0.4-0.7-1.4-1-1.2c0,0.1,0.1,0.2,0.1,0.3c0,0-0.1,0-0.1,0c0-0.1-0.1-0.2-0.1-0.3c0-0.1,0.1-0.1,0.2-0.2
			c0.1-0.1,0.2-0.1,0.2-0.2c0-0.3-0.1-0.5-0.1-0.8c-0.1-0.2-0.2-0.3-0.3-0.5c-0.1,0.1-0.1,0.3-0.2,0.4c0,0,0,0.1-0.1,0.1
			c-0.1-0.4-0.1-0.8-0.2-1.2C26.6,31.7,26.6,31.6,26.5,31.4c0.2-0.1,0.4-0.1,0.6-0.2c0-0.3,0.1-0.5,0.1-0.7c0-0.3,0-0.6,0.4-0.6
			c-0.1-0.2-0.3-0.4-0.4-0.5c0,0-0.2-0.1-0.2-0.1c-0.1,0.1-0.2,0.2-0.3,0.3c0,0,0.1,0.2,0.1,0.2c0.2,0.1,0.2,0.2,0.1,0.4
			c-0.1,0.1-0.2,0.3-0.2,0.4C27,30.9,26.8,31.2,26.5,31.4 M23.1,4.2c0.2-0.4,0.4-0.9,0.6-1.3c0,0,0,0-0.1,0c-0.3,0.3-0.7,0.7-1,1
			C22.9,3.9,23,4.1,23.1,4.2c-0.4-0.2-0.5,0.1-0.6,0.3C22.7,4.7,22.8,4.8,23,5c0-0.2,0-0.3,0-0.4C23,4.4,23.1,4.3,23.1,4.2 M3.8,3.9
			C3.9,3.7,3.9,3.5,4,3.4c0.4-0.3,0.9-0.7,1.4-1c0.2-0.1,0.5,0,0.8,0c0-0.1,0.1-0.3,0.1-0.4C6.4,2,6.6,2.1,6.8,2.1
			c0.1,0,0.3,0,0.3,0c0.1-0.3,0.3-0.2,0.5-0.2c1.5-0.2,3.1-0.3,4.6-0.2c1.2,0.1,2.4,0.3,3.5,0.8c0.8,0.4,1.7,0.8,2.5,1.4
			c0.5,0.4,1.1,0.7,1.4,1.4c0.1,0.1,0.3,0.2,0.4,0.3c0.3,0.3,0.5,0.6,0.8,0.9c0.1,0.1,0.2,0.1,0.2,0.2c0,0,0.1-0.1,0.1-0.2
			c0.3-0.7,0.6-1.4,1.1-1.9c0.5-0.5,0.8-1.2,1.3-1.7c0.1-0.1,0.2-0.2,0.3-0.2c0,0,0.1,0,0.1-0.1C24,1.8,24.6,1.8,25,1.6
			c0.9-0.4,2-0.6,2.9-1C28.9,0.1,30,0,31,0c0.7,0,1.4,0.2,2.1,0.3c0.2,0,0.4,0.1,0.6,0.1c0.4,0.2,0.8,0.3,1.2,0.5
			C37,2,38.8,3.4,40.3,5.2c0.8,1,1.6,2.1,2.1,3.4c0.3,0.7,0.6,1.4,0.8,2.1c0.2,0.7,0.3,1.4,0.4,2.1c0,0.2,0,0.4,0,0.6
			c0,0.1,0.2,0.2,0.2,0.3c0.1,1.7,0.2,3.4-0.2,5.1c0,0.1-0.1,0.2-0.1,0.3c-0.1,0-0.3-0.1-0.4-0.1c-0.1,0-0.2,0-0.4,0
			c0.3,0.3,0.6,0.4,0.8,0.7c0.2,0.2,0.5,0.4,0.7,0.7c0.7,1,1.5,1.9,2.2,2.9c0.6,0.8,0.8,1.8,1,2.7c0.3,1.4,0.3,2.9,0.1,4.3
			c-0.2,0.9-0.4,1.9-0.7,2.8c-0.4,1.1-0.8,2.2-1.6,3.1c-0.8,1-1.7,2-2.7,2.8c-1.3,1-2.8,1.7-4.5,1.9c-0.8,0.1-1.7,0.3-2.5,0.1
			c-0.2,0-0.4,0.2-0.6,0.1c-0.2-0.1-0.5,0-0.8,0c-0.1-0.5-0.6-0.6-1.1-0.4c-0.1-0.2-0.1-0.7-0.5-0.3c-0.1-0.1-0.1-0.2-0.2-0.3
			c-0.1,0.1-0.2,0.1-0.2,0.2c-0.7,0.9-1.4,1.9-2.1,2.8c-0.8,1-1.6,2.1-2.4,3.1c-0.6,0.7-1.2,1.4-1.8,2.1c-0.4,0.4-0.8,0.6-1.3,0.9
			c-0.5,0.3-1.1,0.6-1.6,0.7C22.3,50,21.8,50,21.4,50c0,0-0.1-0.1-0.1-0.2c-0.1-0.1-0.2-0.3-0.3-0.4c-0.4-0.4-0.9-0.9-1.3-1.3
			c-0.1-0.1-0.1-0.2-0.2-0.2c-0.4,0-0.6-0.4-0.8-0.6c-0.4-0.5-0.8-1-1.2-1.5c-0.3-0.3-0.5-0.7-0.8-1c-0.6-0.9-1.1-1.7-1.7-2.6
			c-0.3-0.4-0.6-0.8-0.9-1.2c-0.1-0.1-0.2-0.3-0.3-0.4c-0.1-0.1-0.2-0.2-0.3-0.3c-0.1-0.3-0.2-0.6-0.4-0.9c-0.1,0.1-0.2,0.2-0.2,0.2
			c-0.2-0.2-0.4-0.5-0.7-0.7c-0.4-0.3-0.9-0.6-1-1.2c-0.1-0.3-0.4-0.4-0.5-0.7c-0.3-0.5-0.5-1-0.7-1.5c0-0.1,0-0.1-0.1-0.2
			c-0.6-0.8-1.3-1.5-1.9-2.3c-0.2-0.2-0.3-0.6-0.5-0.9c-0.1,0-0.3-0.1-0.3-0.2c-0.4-0.8-0.8-1.6-1.4-2.2c-0.2-0.2-0.3-0.5-0.4-0.7
			C4.9,28.4,4.7,27.6,4,27c-0.4-0.3-0.5-0.9-0.9-1.3c-0.3-0.4-0.3-0.8-0.4-1.3c0-0.3-0.2-0.6-0.3-0.9c-0.1-0.1-0.1-0.3-0.1-0.5
			c-0.6-1.8-1.4-3.5-1.7-5.3c-0.1-0.7-0.2-1.4-0.3-2.1C0.2,15.1,0,14.6,0,14c0-1-0.1-2.1,0.2-3.1c0.1-0.2,0.1-0.4,0.1-0.6
			c0-0.1,0.2-0.2,0.3-0.3c0,0,0.2,0.1,0.3,0.1c0.1-0.1,0.3-0.1,0.5-0.2c0.2-0.1,0.5-0.3,0-0.5c-0.1,0-0.1-0.2-0.2-0.2
			c-0.1,0-0.3,0-0.4,0c-0.1,0-0.1,0.2-0.1,0.3C0.7,9.6,0.7,9.6,0.6,9.7c0-0.1-0.1-0.2-0.1-0.3C0.6,9.2,0.7,8.9,1,8.9
			c0.1,0,0.2-0.1,0.3-0.2c-0.3,0-0.4,0-0.5,0c0,0,0-0.1,0-0.1C0.9,8.5,1,8.4,1.1,8.4c0,0,0,0-0.1,0c0-0.2,0.1-0.4,0.1-0.6
			C1.4,7.9,1.7,7.9,1.9,8C2,8,2.1,7.9,2.2,7.8c-0.5,0-0.6-0.3-0.7-0.6c0-0.1,0.1-0.2,0.2-0.3c0.1,0.3,0.2,0.4,0.3,0.6
			c0,0,0.1,0,0.1,0c0-0.1,0-0.2,0-0.2c0-0.1,0-0.2,0-0.2c0.3-0.2,0.3-0.5,0-0.8C2,6.3,1.9,6.5,1.8,6.6c0,0-0.1,0-0.1,0
			C1.8,6.3,1.8,6,2.2,5.8c0.1,0,0.2-0.2,0.2-0.3c0.2-0.3,0.3-0.6,0.5-0.9C3,4.6,3.3,4.6,3.4,4.5c0.1,0,0.2-0.1,0.3-0.1
			c0,0,0-0.1,0-0.1c-0.1,0-0.3,0-0.5-0.1C3.5,4.1,3.7,4,3.8,3.9C3.9,4.1,4,4.3,4.1,4.5C4.2,4.3,4.3,4.1,4.3,4C4.3,3.9,4,3.9,3.8,3.9
			"/>
		<path class="st0" d="M22.4,5.3C23,5.6,22,5.8,22.4,6.2c-0.7,0-0.6,0.9-1.1,1.1C21,6.8,21,6.6,21.5,6.5c-0.1-0.1-0.1-0.2-0.1-0.3
			c0.1-0.4,0.2-0.7,0.3-1c0.2,0.2,0.3,0.3,0.5,0.5C22.2,5.5,22.3,5.4,22.4,5.3"/>
		<path class="st0" d="M26.5,31.4c0.3-0.2,0.5-0.5,0.3-0.9c0-0.1,0.1-0.3,0.2-0.4c0.1-0.2,0.1-0.3-0.1-0.4c-0.1,0-0.1-0.2-0.1-0.2
			c0.1-0.1,0.2-0.2,0.3-0.3c0,0,0.2,0,0.2,0.1c0.1,0.1,0.2,0.3,0.4,0.5c-0.4,0.1-0.4,0.3-0.4,0.6c0,0.2-0.1,0.5-0.1,0.7
			C26.9,31.3,26.7,31.3,26.5,31.4C26.5,31.4,26.5,31.4,26.5,31.4"/>
		<path class="st0" d="M3.3,4.7c0.2,0.1,0.3,0.2,0.1,0.4C3.3,5.2,3.3,5.3,3.3,5.4c0,0.3-0.2,0.4-0.5,0.2C2.8,5.8,2.7,6,2.7,6.2
			c0,0-0.1,0-0.1,0C2.5,5.6,2.8,5.1,3.3,4.7"/>
		<path class="st0" d="M1.1,12.8c0,0.1-0.1,0.3-0.1,0.5c0,0,0.1,0.1,0.3,0.2c-0.3,0-0.6,0-0.8,0c0,0.2,0,0.3,0,0.5
			c-0.3-0.1-0.3-0.2-0.1-0.7c0.1-0.2,0.4-0.4,0.6-0.6C1,12.8,1,12.8,1.1,12.8"/>
		<path class="st0" d="M23.1,4.2c-0.1-0.1-0.3-0.3-0.4-0.4c0.3-0.3,0.7-0.6,1-1c0,0,0,0,0.1,0C23.5,3.3,23.3,3.7,23.1,4.2L23.1,4.2z
			"/>
		<path class="st0" d="M0.3,11.1c0.1-0.3,0.1-0.6,0.2-0.8c0.4,0.2,0.6,0.5,0.4,0.9c-0.1-0.1-0.1-0.2-0.2-0.3C0.6,11,0.5,11,0.3,11.1
			"/>
		<path class="st0" d="M21.1,43.5c0.3,0.3,0.5,0.6,0.8,0.9C21.5,44.5,21.1,44.1,21.1,43.5"/>
		<path class="st0" d="M26.9,27.5c-0.3-0.4,0-0.8-0.1-1.2C27.1,26.5,27.2,26.8,26.9,27.5"/>
		<path class="st0" d="M0.4,15.2c0.3-0.1,0.4,0.2,0.5,0.4c0,0-0.1,0.2-0.2,0.2c0,0-0.2-0.1-0.2-0.1C0.4,15.5,0.4,15.4,0.4,15.2"/>
		<path class="st0" d="M23.1,4.2c0,0.1-0.1,0.3-0.1,0.4c0,0.1,0,0.2,0,0.4c-0.2-0.2-0.3-0.4-0.5-0.5C22.6,4.3,22.7,4,23.1,4.2
			C23.1,4.2,23.1,4.2,23.1,4.2"/>
		<path class="st0" d="M0.7,17.3c0-0.4-0.1-0.7-0.1-1.1C1.1,16.5,1.1,16.8,0.7,17.3"/>
		<path class="st0" d="M3.8,3.9c0.2,0,0.4,0,0.4,0.1c0,0.2,0,0.4-0.2,0.5C4,4.3,3.9,4.1,3.8,3.9L3.8,3.9z"/>
		<path class="st0" d="M18.7,40.8c-0.1-0.1-0.2-0.3-0.3-0.4c0.1,0,0.3-0.1,0.3-0.1c0.1,0.1,0.2,0.3,0.2,0.4
			C18.8,40.7,18.7,40.8,18.7,40.8"/>
		<path class="st0" d="M20.8,11.1c0,0.2,0.1,0.5,0.1,0.8C20.6,11.6,20.5,11.4,20.8,11.1"/>
		<path class="st0" d="M17.2,38.4c-0.1,0.1-0.2,0.2-0.3,0.3c-0.3-0.1-0.3-0.3-0.1-0.6C16.9,38.3,17,38.4,17.2,38.4L17.2,38.4"/>
		<path class="st0" d="M29.5,34.9c-0.1,0.1-0.1,0.2-0.2,0.3c-0.1,0.1-0.2,0.1-0.3,0.1c0,0,0-0.1,0-0.1c0.1-0.1,0.3-0.2,0.4-0.4
			C29.4,34.9,29.4,34.9,29.5,34.9"/>
		<path class="st0" d="M40.8,24.4c-0.1,0-0.3,0.1-0.4,0.1c-0.1,0-0.2,0.1-0.3,0.1c0.1,0.1,0.1,0.2,0.2,0.3c0,0,0.1,0.1,0.3,0.2
			c-0.7,0-1.3,0.1-1.8-0.2c-0.4-0.2-0.7-0.6-1-0.8c-0.7-0.6-1.3-0.4-1.6,0.5c-0.1,0.4-0.2,0.7-0.2,1.1c-0.1,0.7-0.1,1.3-0.1,2
			c0,0.1,0,0.2,0,0.4c1.3-0.6,2.7-0.3,4-0.3c0,0,0,0.1,0,0.1c-0.9,0.4-1.8,0.8-2.7,1.2c-0.4,0.2-0.9,0.3-1.3,0.5
			c-0.1,0-0.2,0.2-0.2,0.3c0,0.7,0.1,1.4,0.1,2c0,0.4,0.4,0.5,0.6,0.7c-0.3,0.1-0.6,0.1-0.5,0.5c0.2,0.3,0.4,0.1,0.6,0
			c0.9-0.3,1.7-0.6,2.6-0.8c0.8-0.2,1.7-0.4,2.5-0.6c0.2-0.1,0.4-0.2,0.6-0.3c0,0,0,0.1,0,0.1c-0.8,0.6-1.5,1.5-2.6,1.9
			c-1.2,0.5-2.3,1-3.5,1.5c-0.3,0.1-0.7,0.4-1.1,0c-0.1-0.1-0.2-0.2-0.2-0.4c-0.1-0.4-0.2-0.9-0.3-1.3c-0.1-0.5-0.1-1-0.1-1.5
			c0-0.4,0-0.7-0.1-1.1c0-0.1-0.2-0.2-0.3-0.2c-0.2,0-0.3,0.1-0.5,0.1c-0.4,0.2-0.8,0.4-1.3,0c-0.2-0.4,0.6-0.3,0.5-0.7
			c-0.1,0-0.1,0-0.2,0c0.2-0.2,0.3-0.4,0.5-0.5c0.2-0.1,0.5-0.2,0.7-0.3c0.2-0.1,0.3-0.2,0.3-0.5c0-0.7-0.2-1.5-0.1-2.2
			c0.1-0.7,0.3-1.3,0.5-1.9c0.1-0.2,0.2-0.4,0.3-0.6c0.1,0,0.2,0,0.4,0.1c-0.1-0.1-0.1-0.2-0.2-0.3c0.4-0.5,0.9-0.9,1.6-0.8
			c0.2,0,0.3,0,0.5-0.1c0.4-0.1,0.8,0,1.1,0.3c0.5,0.4,1,0.8,1.5,1.2C40.1,24.1,40.4,24.2,40.8,24.4"/>
	</g>
</g>
</svg>
