<?xml version="1.0" encoding="utf-8"?>
<!-- Generator: Adobe Illustrator 19.2.1, SVG Export Plug-In . SVG Version: 6.00 Build 0)  -->
<svg version="1.1" id="Layer_1" xmlns="http://www.w3.org/2000/svg" xmlns:xlink="http://www.w3.org/1999/xlink" x="0px" y="0px"
	 viewBox="0 0 50 47" style="enable-background:new 0 0 50 47;" xml:space="preserve">
<style type="text/css">
	.st0{fill:#068585;}
</style>
<g>
	<path class="st0" d="M14.1,26.2c0-0.1-0.1,0-0.1-0.1C14,26.1,14,26,14,26c-0.2,0-0.3-0.1-0.6-0.1c-0.2-0.2-0.4-0.2-0.6-0.5
		c-0.2-0.2-0.4-0.2-0.6-0.4c-0.2,0-0.3-0.2-0.4-0.3c-0.1-0.1-0.3-0.3-0.3-0.4c-0.2-0.2-0.4-0.4-0.6-0.7c-0.2-0.1-0.3-0.2-0.3-0.4
		c-0.1-0.1-0.3-0.3-0.3-0.5c0-0.1-0.1-0.1-0.1-0.2c-0.1,0,0.1-0.1-0.1-0.1c0.1-0.1,0.1-0.1,0-0.2c-0.2-0.2-0.2-0.4-0.3-0.7
		c-0.1-0.8,0.1-1.7,0.7-2.3c0.6-0.6,1.6-0.6,2.2-0.4c0-0.1,0.3,0.1,0.2-0.1c0.1,0-0.1-0.1-0.1-0.1c-0.1-0.1-0.1-0.1-0.1-0.2
		c-0.2-0.1-0.3-0.3-0.6-0.4c-0.6,0-0.8,0.1-1.3,0.2c-0.1,0-0.1,0.1-0.1,0.1c-0.1-0.1-0.4,0.2-0.5,0.2c-0.1,0.1-0.2,0.2-0.3,0.3
		c0.1,0.1-0.1,0.2-0.3,0.3c0.1,0.1,0.1,0.1-0.1,0.2c-0.4,0.5-0.3,0.8-0.6,1.4c0,0.1,0,0.3,0,0.4c-0.1,0-0.1,0.3-0.1,0.4
		c0,0.4,0.1,0.8,0.2,1.2c0.2,0.4,0.4,0.9,0.7,1.3c0,0.2,0.2,0.3,0.2,0.4c0.1,0.1,0.1,0.2,0.1,0.2c0.1,0.1,0.1,0.1,0.2,0.2
		c0.1,0.1,0.2,0.2,0.2,0.3c0.1,0.2,0.3,0.3,0.3,0.4h0.1c0.1,0,0,0.1,0,0.1c0.1,0.1,0.2,0.2,0.3,0.3c0.2,0.2,0.4,0.3,0.7,0.5
		c0.3,0.3,0.6,0.3,0.8,0.6c0.1,0.1,0.2,0,0.3,0.1c0.1-0.1,0.1,0.1,0.2,0.1c0.1-0.1,0.3,0.1,0.4,0.1c0.2,0.1,0.3,0.1,0.4-0.1
		c0-0.1,0-0.1,0.1-0.1C14.4,26.4,14.1,26.4,14.1,26.2z M12.1,25.8C12.1,25.7,12.1,25.8,12.1,25.8L12.1,25.8z"/>
</g>
<g>
	<path class="st0" d="M33.8,24.9c0.1,0.1,0.3,0.1,0.2,0.1c0.3-0.1,0.3,0,0.5-0.1c0.3-0.3,0.5-0.5,0.6-0.7c0.3-0.2,0.4-0.5,0.7-0.8
		c0.2-0.3,0.3-0.5,0.5-0.8c0-0.2,0.2-0.4,0.3-0.6c0.1-0.2,0.2-0.4,0.3-0.7c0.1-0.3,0.2-0.7,0.3-1.1c0-0.2-0.1-0.4,0.1-0.6
		c0-0.2-0.1-0.6,0.1-0.7c0.1-0.2-0.1-0.1-0.1-0.2c-0.1,0,0.1-0.1-0.1-0.2c0.1-0.1,0.1-0.1,0.1-0.3c-0.1-0.3,0-0.6-0.1-0.9
		c0-0.4,0-0.9-0.1-1.4s-0.3-1-0.9-1.3s-1.2-0.1-1.6,0.2c-0.4,0.2-0.9,0.6-1.2,0.9c0.1,0.1-0.3,0.2-0.1,0.3c-0.1,0.2,0.1-0.1,0.2,0
		c0.1-0.1,0.2,0,0.2,0c0.2-0.1,0.4-0.1,0.7-0.2c0.4-0.3,0.6-0.4,0.9-0.5c0.1,0,0.1-0.1,0.1-0.1c0.1,0.1,0.3,0,0.3,0.1
		c0.1-0.1,0.2,0,0.2,0.1c0.1-0.1,0.1,0.1,0.1,0.1c0.1-0.1,0.1-0.1,0.1,0c0.2,0.3,0.3,0.4,0.4,1c0.1,0.1,0.1,0.3,0.1,0.3
		c-0.1,0.1,0,0.2-0.1,0.3c0,0.4,0.1,0.7,0,1.1c0.1,0.4-0.1,1-0.1,1.5c-0.2,0.2-0.1,0.3-0.1,0.4c0,0.1-0.1,0.2-0.1,0.2s0,0.2,0,0.2
		L36.2,21L36,21.5c0,0.1,0,0.1,0,0.1c0,0.1-0.1,0.1-0.1,0.1c-0.1,0.2-0.1,0.3-0.2,0.4c-0.1,0.3-0.3,0.5-0.4,0.8
		c-0.3,0.3-0.3,0.7-0.6,0.9c-0.1,0.1,0,0.2-0.1,0.2c0,0.2-0.1,0-0.2,0.1c0,0.1-0.2,0.2-0.2,0.3c-0.1,0.1-0.3,0.1-0.3,0.1
		c0,0,0,0.1-0.1,0C33.6,24.5,33.8,24.8,33.8,24.9z M35.4,22.7C35.4,22.7,35.4,22.8,35.4,22.7L35.4,22.7z"/>
</g>
<g>
	<path class="st0" d="M20.3,25.2c0.1,0.1,0.2,0.3,0.3,0.6c0.1,0.2,0.2,0.5,0.2,0.7c0.3,0.8,0.7,1.6,1.2,2.1c0.3,0.4,0.6,0.7,0.9,0.9
		c0.3,0.1,0.7,0.2,1.2,0.1c0.1-0.1,0.3-0.1,0.4-0.2c0.3,0,0.7-0.2,1-0.4c0.3-0.2,0.7-0.4,0.8-0.6c0.3-0.2,0.6-0.3,0.8-0.4
		c0.2-0.1,0.3,0,0.4-0.2c0.1,0,0.2,0,0.3-0.1c0.1,0.1,0.2,0,0.2,0.1c0.1-0.2,0.2,0.1,0.2-0.1c-0.1,0.1,0.1,0,0.1,0.1
		c0,0.1,0,0.2,0,0.2c-0.2,0.2-0.4,0.3-0.5,0.3c-0.2,0.2-0.3,0.2-0.4,0.2c-0.1,0.1-0.1,0.1-0.2,0.1c-0.4,0.3-0.7,0.5-1.1,0.7
		c-0.4,0.3-1,0.6-1.6,0.7c-0.3,0.1-0.6,0.1-0.9,0.1c-0.3,0-0.7-0.1-1-0.2c-1.2-0.6-1.9-1.6-2.3-2.6c-0.1-0.3-0.2-0.4-0.3-0.8
		c-0.1-0.1-0.1-0.2-0.2-0.3c0-0.1-0.1,0,0,0c0,0.1,0,0.1,0,0c-0.1-0.2-0.1-0.2-0.2-0.4c0.1-0.2,0.1-0.2,0.2-0.4
		c0-0.1,0.1-0.1,0.1-0.3c0.1-0.1,0.1-0.1,0.1-0.2c0.1,0.1,0.1,0.1,0.1,0C20.3,25.1,20.3,25.3,20.3,25.2z"/>
</g>
<g>
	<path class="st0" d="M25.5,12.4c0.1,0.2-0.1,0.7-0.2,1c-0.1,0.3-0.1,0.9-0.2,1.2c-0.1,1.5-0.1,2.8,0.4,4c0.2,0.8,0.5,1.4,0.9,2.1
		c0.4,0.6,0.8,1.1,1.3,1.8c0.2,0.2,0.4,0.6,0.5,0.8c0.1,0.4-0.1,0.9-0.2,1.3c-0.1,0.4-0.4,0.8-0.8,1.1c-0.3,0.3-0.8,0.5-1.2,0.6
		c-0.2,0-0.4,0-0.6,0h-0.3c-0.1,0-0.2-0.1-0.3-0.1c-0.4-0.2-0.7-0.4-0.9-0.7c-0.2-0.2-0.3-0.4-0.4-0.6c-0.2-0.3-0.1-0.4-0.3-0.7
		c0-0.1,0-0.2-0.1-0.4c0.1-0.1-0.1-0.2,0.1-0.3c-0.2-0.2,0.1-0.2-0.1-0.4c0.2,0.1,0-0.1,0.1-0.2c0.1,0,0.2,0.1,0.3,0.1
		c0.3,0.3,0.4,0.6,0.5,0.8c0.2,0.3,0.3,0.4,0.4,0.7c0.1,0.1,0.2,0.2,0.2,0.2c0.3,0.3,0.6,0.5,0.8,0.6c0.3,0.1,0.6,0.1,0.8,0
		c0.3-0.1,0.6-0.4,0.8-0.7c0.2-0.3,0.3-0.8,0.3-1c-0.1-0.3-0.4-0.6-0.7-1c-0.3-0.4-0.6-0.8-0.8-1.2c-0.5-0.8-0.9-1.6-1.3-2.5
		C24.2,18,24.1,17,24.1,16c0.1-0.5,0.1-0.8,0.1-1.3c0-0.2,0-0.4,0-0.6c0-0.1,0-0.1-0.1,0c0,0.1-0.1,0.1-0.1,0c0.1-0.2,0-0.4,0.1-0.7
		c0.2-0.2,0.3-0.2,0.4-0.4c0.1-0.1,0.2-0.1,0.3-0.3c0.1-0.1,0.2-0.1,0.3-0.2c0,0.1,0.1,0.1,0.1,0.1C25.5,12.3,25.4,12.6,25.5,12.4z"
		/>
</g>
<g>
	<path class="st0" d="M16.8,16.5c0.1-0.1,0.2-0.1,0.2-0.1c0.1,0,0.2,0,0.3,0c0.3-0.1,0.6-0.1,0.9-0.2c0.2,0,0.3,0,0.5,0
		c0.2-0.1,0.3-0.1,0.4-0.2c0.1-0.1,0.1-0.1,0.1-0.1c0.1,0,0.2-0.1,0.4-0.2c0.1-0.1,0.3-0.2,0.3-0.2c0.1,0,0.2,0,0.4,0.1
		c0.1,0,0.1,0.1,0.2,0.1c0.1,0.1,0.1,0.1,0.1,0.1c0.1,0.1,0.1,0.1,0.1,0.2c0.1-0.1,0.1,0.1,0.1,0.1c0,0.1,0.1,0.1,0.1,0.1
		c0,0.1,0,0.1,0,0.2c-0.1,0.1-0.2,0.1-0.2,0c-0.1,0-0.2,0-0.2-0.1c0,0-0.1,0.1-0.1,0c-0.2,0.1-0.3,0.1-0.4,0.2
		c-0.3,0.2-0.8,0.3-1.2,0.4c-0.4,0.1-0.8,0.2-1.2,0.3c-0.1,0-0.2,0-0.3,0c-0.1,0-0.1,0.1-0.1,0.1l0,0l0,0c-0.1,0-0.1,0.1-0.2,0.1
		C17,17.1,17,17.1,17,17c-0.1-0.1,0-0.1-0.1-0.1c0-0.1-0.1-0.1-0.1-0.1c0-0.1,0-0.1,0-0.1C16.8,16.6,16.9,16.5,16.8,16.5z"/>
</g>
<g>
	<path class="st0" d="M32.5,16.8c-0.1,0.1-0.2,0.1-0.2,0.1C32.2,17,32,17,32,16.9c-0.3,0.1-0.7,0-0.9,0.1c-0.2,0-0.3-0.1-0.6-0.1
		c-0.2,0-0.3,0-0.6-0.1c-0.1,0-0.1,0-0.2,0.1c-0.1-0.1-0.3,0-0.4-0.1c-0.1,0-0.3-0.1-0.4-0.1c-0.1-0.1-0.2-0.2-0.3-0.3
		c-0.1-0.1,0-0.2-0.1-0.2c0-0.1,0-0.1,0-0.2c0.1-0.1,0-0.1,0.1-0.2c-0.1,0,0-0.1,0-0.1c0.1-0.1,0-0.1,0.1-0.1s0.1-0.1,0.1-0.1
		c0.1,0.1,0.1,0.1,0.1,0.2c0.1,0.1,0.1,0.1,0.1,0.2c0,0,0.1,0,0.1,0.1c0.2,0.1,0.3,0.1,0.4,0.2c0.4,0,0.8,0.1,1.2,0.1
		c0.4,0.1,0.8,0,1.2,0c0.1,0.1,0.2,0,0.3,0c0.1,0,0.1-0.1,0.1-0.1l0,0l0,0c0.1,0,0.1-0.1,0.1-0.1l0.1,0.3c0.1,0.1,0.1,0.1,0.1,0.1
		c0,0.1,0.1,0.1,0.1,0.1c0,0.1,0,0.1,0,0.1C32.5,16.7,32.5,16.8,32.5,16.8z"/>
</g>
<g>
	<g>
		<path class="st0" d="M13.8,10.8C13.4,11.1,13.9,9.6,14,9c-0.1-0.3,0.2-1.3,0.3-1.9l0.3-1.3c0.1-0.2,0.1-0.4,0.2-0.5
			c0.1-0.1,0.1-0.3,0.2-0.1c0.3,0.2,0.7,0.7,1.2,1.2c0.2-0.7,0.3-1.3,0.4-2l0.3-1.8l0.3,0.2l1.3,0.9l0.3-0.4l0.7-0.9l1.2-1.5
			l0.9,1.1l0.4,0.4L22,2l0.1-0.1l0.2-0.3L23.9,0l0.8,1.8l0.2,0.5l0.1,0.2L26.7,2c1.1-0.4,1.8-0.8,3.1-1.4l-0.1,0.3l-0.4,1.2L29,2.8
			l-0.1,0.1l-0.2,0.4l0.4,0.1h0.4h0.6L33,3.4l-1.6,1.8l0.8,0.2l1.8,0.4L33,7.8l1.9,0.4c-0.1,0.4-0.3,0.8-0.4,1.2l-0.2,0.5l-0.1,0.4
			c-0.2,0.6-0.3,1.2-0.4,1.8c-0.3,1.5-0.2,2.4-0.5,3.4c0,0.3,0,0.8,0,1c0.1,0.3,0.2,0.7,0.3,1c0.2,0.7,0.4,1.4,0.6,2
			c0.3,1.4,0.4,2.9-0.1,4.1c-0.2,1-0.6,2-1.2,3c-0.7,1.3-1.4,2.3-2.4,3.4c-0.9,1-1.9,2.1-3.3,3.3c0.1-0.1-0.2,0-0.3,0.1
			c-0.2,0.3-0.8,0.8-1.7,1.2c-0.4,0.2-0.9,0.3-1.4,0.4c-0.6,0.1-1.1-0.1-1.4-0.2c-1.1-0.4-2.3-1.2-3.5-2.3c-1.3-1-2.5-2.3-3.7-3.6
			c-0.6-0.9-0.8-1.9-1-2.9s-0.3-2-0.4-3.1v-0.6v-0.3c0-0.1,0-0.1,0-0.2c0-0.3-0.1-0.6-0.2-0.9c-0.1-0.3-0.2-0.7-0.3-1L13,19.6
			c-0.1-0.2-0.1-0.3-0.3-0.6l-0.1-1.2v-1c0-0.7,0-1.4,0-2c0.1-1.4,0.1-2.7,0.4-4c0.3-0.2,0.1,0.8,0.3,1c0.1,0.3,0.2-1.8,0.2-0.6
			c0.3-0.3,0.1,1.7,0,1.9c0,1.1-0.1,1.8-0.1,2.5l0.2,3.1c0.4,0.9,1,2.1,1.1,3.4c0,1.2,0.1,2.4,0.2,3.5c0.3,1.9,0.7,2.5,1.6,3.7
			c0.9,0.8,2,1.9,3.4,3c0.7,0.5,1.4,1,2.2,1.4c0.4,0.2,0.8,0.3,1.1,0.4c0.2,0,0.3,0,0.5,0c0.2-0.1,0.3-0.1,0.6-0.2
			c1.5-0.4,2.5-1.4,3.3-2.1l2.4-2.4c1.1-1.7,2-3.3,2.9-5.2c0.2-0.4,0.4-0.9,0.5-1.4c0.1-0.4,0.1-0.9,0.1-1.5
			c-0.1-1.1-0.5-2.3-0.9-3.6c-0.1-0.4-0.2-0.8-0.2-1.4l0.1-1.2c0.1-0.8,0.1-1.5,0.2-2.3c0.1-0.8,0.2-1.5,0.4-2.3
			c0.1-0.4,0.2-0.8,0.3-1.1L33.5,9c-0.1,0-0.1,0-0.1-0.1l-0.2-0.1l-1.8-0.4l1.1-2.1l-3-0.6l0.3-0.4c0.3-0.3,0.7-0.7,1-1.1
			c-0.2,0-0.4,0-0.6-0.1c-0.1,0-0.7-0.1-0.8-0.2c-0.5,0.1-1.3,0.1-2,0.1l0.5-1.6L28,2.3c0-0.1,0,0,0-0.1l0,0L28,2.2l-1.2,0.3
			c-0.3,0.2-0.5,0.3-0.7,0.4C25.9,3,25.8,3,25.3,3.3l-0.8,0.3l-0.8-2.1l-1.9,2l-0.9-1.2L20.5,2l-0.2,0.3l-0.1,0.1l-0.2,0.3l-1.4,1.8
			l-1.3-0.9l0.1,0.1l-0.7,3.5l-0.2,0.6C16.2,7.4,16,7,15.7,6.7c-0.1-0.2-0.2-0.3-0.4-0.4c-0.1-0.1-0.1-0.1-0.1-0.1v0.1
			c0,0.1,0,0.1,0,0.1c-0.1,0.1,0.1,0.2-0.1,0.1l0,0c0,0,0,0-0.1,0.1L15,6.9l-0.2,0.6c-0.1,0.3-0.2,0.5-0.3,0.7
			C14.2,9.4,14.1,10.8,13.8,10.8z"/>
	</g>
</g>
<g>
	<path class="st0" d="M33.7,39.4C33.7,39.3,33.7,39.3,33.7,39.4C33.7,39.4,33.7,39.4,33.7,39.4c-0.1,0-0.1,0-0.1,0
		c-0.1,0,0-0.1-0.1-0.1c0,0,0,0,0,0c0,0-0.1,0-0.1,0c0,0.1,0,0,0,0.1c-0.1,0-0.2,0-0.3,0c0,0,0,0.1-0.1,0.1c0-0.1,0-0.1,0-0.1
		c0,0,0,0.1-0.1,0.1c0-0.1-0.1,0.1-0.1,0c0,0,0.1,0,0.1-0.1c0,0-0.1,0-0.1,0c0,0,0,0.1,0,0.1c0,0,0-0.1,0-0.1c0,0-0.1,0-0.2,0.1
		c0,0,0-0.1-0.1-0.1c0,0,0.1,0.1,0,0.1l-0.1-0.1c0,0.1-0.1,0-0.1,0c0,0.1-0.1,0.1-0.1,0.1c0-0.1,0,0-0.1,0c0,0,0,0,0.1,0
		c-0.1,0-0.1,0-0.2,0c0,0.1,0.1,0,0.1,0.1c-0.1,0,0,0.1-0.1,0l0-0.1c-0.1,0,0,0.1-0.1,0.1c-0.1,0-0.1,0-0.2,0c0,0,0-0.1,0-0.1
		c-0.1,0-0.1,0,0,0.1c-0.1,0-0.1,0.1-0.1,0.1c0,0,0.1,0,0-0.1c0,0.1-0.1,0-0.1,0c0,0,0,0,0,0c0,0,0,0,0,0.1c-0.1,0-0.1-0.1-0.1,0
		c0,0-0.1,0-0.1,0c0-0.1-0.1-0.1-0.1,0c0,0,0.1,0,0.1,0c-0.1,0-0.1,0-0.1,0c0-0.1-0.1,0-0.1,0c0,0,0,0,0-0.1c0,0,0.1,0,0.1,0
		c0,0,0-0.1-0.1,0l0,0.1c-0.1,0-0.1,0-0.2,0c0-0.1,0-0.1-0.1-0.1c0,0.1-0.1,0-0.1,0c0,0.1,0.1,0,0.1,0.1c-0.1,0.1-0.1,0-0.2,0
		c0,0-0.1,0-0.1,0.1c0-0.1-0.1,0-0.2,0c0,0,0,0,0-0.1c0,0-0.1,0-0.1,0c0,0,0,0,0,0.1c0,0,0.1,0,0.1,0c-0.1,0-0.1,0-0.1,0
		c-0.1,0-0.1,0-0.1,0c0,0,0-0.1,0-0.1c0,0,0,0,0,0c-0.1,0-0.1,0-0.2,0c0,0.1,0,0.1-0.1,0.1c0,0,0-0.1,0-0.1c0,0,0.1,0,0,0.1
		c0,0,0,0-0.1,0c0.1-0.1-0.1-0.1-0.2,0c0.1,0,0,0.1,0.1,0.1c-0.1,0-0.4,0.1-0.5,0c0.1,0,0-0.1,0-0.1c0,0-0.1-0.1-0.1,0l0.1,0.1
		c-0.1,0-0.1,0-0.2-0.1c0,0.1-0.1,0.1-0.1,0.1c0,0,0,0.1-0.1,0c0,0,0.1,0,0-0.1c-0.1,0-0.1,0.1-0.2,0.1c0,0,0,0,0-0.1
		c0,0,0.1,0,0.1,0c0,0,0-0.1-0.1-0.1c0,0,0,0,0,0c0,0-0.1,0-0.2,0l-0.1,0.1c0-0.1,0-0.1,0-0.1c-0.1,0-0.1,0-0.1,0.1
		c0.1,0,0.1,0.1,0,0.1c0.1-0.1-0.1-0.1-0.1-0.1c0,0,0.1,0,0.1,0c-0.1,0-0.1,0-0.1,0c0,0.1,0,0.1-0.1,0.1c0,0,0,0-0.1,0
		c0,0,0,0,0-0.1c0.1,0,0.1,0,0.1,0c0,0,0,0-0.1,0c0,0,0,0.1,0,0.1l-0.1,0c0.1,0-0.1-0.1-0.1,0c0.1,0,0,0.1,0,0.1c0,0-0.1,0.1-0.1,0
		c0,0,0,0,0.1,0c0,0,0-0.1,0-0.1c-0.1,0,0,0.1-0.1,0.1c0,0-0.1-0.1,0-0.1c0.1,0.1,0.1,0,0.1,0c-0.1,0-0.1,0-0.2,0c0,0.1-0.1,0-0.1,0
		c0,0.1,0,0.1-0.1,0.1c0,0,0.1,0,0.1-0.1c0,0,0,0-0.1,0c0,0,0,0.1-0.1,0.1c-0.1-0.1,0,0-0.1,0c0,0,0-0.1,0.1-0.1
		c-0.1,0,0,0.1-0.1,0.1c0.1,0,0-0.1,0-0.1c0,0-0.1,0-0.1,0c0,0,0.1,0,0.1,0c-0.1,0-0.1,0-0.2,0c0,0,0-0.1,0-0.1
		c-0.1,0-0.1-0.1-0.2,0c0.1,0-0.1,0.1-0.1,0.1c0,0,0-0.1,0-0.1c0,0,0,0.1,0,0c-0.1,0,0,0.1-0.1,0.1c0-0.1,0-0.1,0-0.1
		c0,0.1-0.1,0-0.2,0c0,0.1,0,0,0,0.1c0.1,0,0.1-0.1,0.2,0c-0.1,0,0,0.1,0,0.1c-0.1,0,0-0.1-0.1,0c0,0-0.1,0.1-0.1,0.1
		c-0.3-0.1-0.8,0.1-1.1,0l0,0c0.1,0,0.2,0,0.2-0.1c0,0,0,0,0,0.1c0.1,0,0.2,0,0.2,0c0,0,0,0.1,0,0.1c0,0,0-0.1,0-0.1l0,0
		c0.1,0,0.1,0,0.2-0.1c0.1,0.1,0.1,0,0.2,0c0,0,0,0,0,0c0.1,0-0.1-0.1,0-0.1c0.1,0,0.1,0.1,0.2,0c0-0.1,0-0.1,0-0.1
		c-0.1,0-0.2,0-0.3,0.1c-0.1-0.1-0.1,0-0.2,0c0,0,0,0.1-0.1,0.1c0.1,0,0.1,0,0-0.1c-0.1,0-0.2,0-0.2,0c0-0.1,0,0-0.1,0l0,0l-0.3,0.1
		c0,0,0,0,0,0c0,0.1-0.1,0-0.1,0c0,0,0,0.1,0,0.1c0-0.1-0.1,0-0.1,0l0,0c-0.1,0-0.1,0-0.2,0c0-0.1-0.2,0-0.2,0c0,0,0.1,0,0,0
		c-0.1-0.1-0.2,0-0.3-0.1c0,0,0,0.1-0.1,0c0,0,0,0,0,0c0,0,0,0-0.1,0c0,0.1-0.1,0-0.1,0.1c0,0-0.1-0.1-0.1-0.1c-0.1,0-0.1,0-0.2,0.1
		c-0.1,0,0-0.1,0-0.1c0,0.1-0.1,0-0.1,0c0,0.1-0.2,0.1-0.3,0c0,0,0,0-0.1,0c0-0.1,0,0-0.1,0c0,0,0-0.1,0-0.1c0,0,0,0.1,0,0.1
		c0-0.1-0.1,0-0.1,0c0-0.1-0.1,0,0-0.1c-0.1,0,0,0.1-0.1,0.1c0-0.1-0.1,0-0.1,0c0,0,0.1-0.1,0-0.1c0,0,0,0-0.1,0.1l0-0.1
		c-0.1,0-0.2,0-0.3,0c0,0,0,0.1-0.1,0.1c0-0.1-0.1,0-0.1,0c0,0,0.1-0.1,0-0.1c0,0-0.1,0-0.1,0.1c0-0.1-0.1,0-0.1-0.1
		c-0.1,0-0.1,0-0.2,0c0,0.1,0,0.1-0.1,0.1c0-0.1-0.4-0.1-0.4-0.1c0,0,0-0.1,0-0.1s0,0.1-0.1,0.1c0,0-0.1-0.1-0.1-0.1
		c0,0,0,0-0.1,0.1c0,0,0,0,0,0c0,0,0,0,0.1,0c-0.1,0-0.1,0-0.1,0c0,0-0.1,0-0.1,0c0,0,0,0,0,0c0,0-0.1,0-0.1,0c-0.1,0-0.1,0-0.1,0
		c0-0.1-0.1,0-0.2-0.1c0,0,0,0.1,0,0.1c0,0-0.1-0.1-0.1-0.1c0,0,0,0,0,0c0-0.1-0.1,0-0.2-0.1c0,0,0,0.1,0,0.1c0-0.1-0.1,0-0.1-0.1
		c-0.1,0-0.1,0-0.1,0c-0.1,0,0.1,0.1,0,0.1c-0.1,0,0-0.1-0.1-0.1c0,0-0.1,0-0.1,0c0.1,0,0,0,0-0.1c0,0.1,0,0.1-0.1,0.1
		c0,0,0,0,0.1,0c0,0-0.2,0-0.2,0c-0.1-0.1-0.4-0.1-0.5-0.1l0,0c-0.1,0-0.1,0.1-0.1,0c0-0.1-0.1-0.1-0.2,0c0,0,0,0,0,0
		c0,0-0.1,0-0.2,0c0,0-0.1,0-0.2,0c0-0.1,0-0.1-0.1-0.1c0,0,0,0.1,0,0.1c-0.1,0,0.1-0.1-0.1-0.1c0,0,0,0.1,0,0.1c0-0.1-0.1,0-0.1,0
		c0,0,0,0,0,0c0,0-0.1,0,0-0.1c-0.1,0-0.1,0-0.1,0c0-0.1-0.1,0-0.1,0c0,0,0,0,0,0c0,0-0.1,0-0.1,0c0,0,0,0,0,0c-0.1,0-0.1,0-0.1,0
		c0-0.1,0-0.1-0.1-0.1c0,0.1-0.2,0-0.2,0c0-0.1-0.1-0.1-0.1-0.1c-0.1,0-0.1,0-0.2,0c0,0.1-0.1-0.1-0.1,0c0,0,0,0,0,0.1l-0.1,0
		c0.1-0.1-0.1,0-0.1,0l-0.1-0.1c0,0.1-0.1,0-0.1,0c0,0,0,0.1,0,0.1c0,0,0-0.1,0-0.1c0,0.1-0.1,0-0.1,0c0,0,0,0,0,0
		c0-0.1-0.1,0-0.2,0c0,0,0,0,0,0c-0.1,0-0.1,0-0.2-0.1c0,0.1,0,0.1-0.1,0.1c0-0.1,0-0.1,0-0.1c-0.1,0-0.1,0-0.2,0
		c0-0.1,0.1-0.1,0-0.1c-0.1,0.1-0.1,0-0.2,0c0,0,0,0.1,0,0.1c0,0,0-0.1-0.1,0c0,0,0,0,0,0c0-0.1-0.1,0-0.2,0c0.1,0-0.1-0.1-0.1-0.1
		c0,0,0,0,0,0c0-0.1-0.1,0-0.2-0.1c0,0.1-0.1,0-0.1,0.1c-0.1,0-0.1,0-0.1,0c-0.1,0-0.2,0-0.2,0c0,0,0,0,0,0.1c0,0-0.1,0-0.1,0
		c0.1,0,0.2,0.1,0.2,0.2c-0.1-0.1-0.1,0-0.2,0c0,0.1-0.1,0-0.2,0c0,0-0.1,0-0.1-0.1c-0.1,0,0,0.1,0,0.1c-0.1,0-0.1,0-0.2,0
		c0,0.1,0,0,0,0.1c-0.1,0-0.1,0-0.1,0c0.1,0.1,0.1,0.1,0.2,0.1c0,0.1,0,0.1,0,0.2c0.2,0,0.5,0.2,0.7,0.2c0,0,0.1,0,0.2,0.1
		c0,0,0,0,0,0c0,0.1,0.1,0,0.1,0c0,0,0,0,0,0c0.1,0,0.3,0.1,0.6,0.1c0,0,0,0.1,0.1,0.1c0.1,0,0.2,0,0.3,0.1c0,0,0-0.1,0-0.1
		c0.1,0.1,0.1,0.1,0.2,0.1c0,0,0.1,0.1,0.1,0c-0.1,0,0-0.1,0-0.1c0,0-0.1,0-0.1,0c0,0,0-0.1,0.1-0.1c0.1,0,0,0.1,0,0.2
		c0.1,0,0.1,0,0.1,0c0,0,0.1,0,0.1,0c0,0.1,0.1,0,0.2,0.1c0,0,0.1,0,0.1,0c0,0,0.2,0.1,0.2,0c-0.1,0-0.1,0-0.2,0c0,0,0,0,0.1,0
		c0,0.1,0.1,0,0.1,0.1c0,0,0-0.1,0.1,0c0,0-0.1,0,0,0.1c0.1,0,0.2,0,0.2-0.1c0.1,0,0.1,0.1,0.1,0.1c0.1-0.1,0.2,0,0.3-0.1
		c0,0,0,0.1,0,0.1c0,0,0.1-0.1,0.1,0c0,0.1-0.1,0-0.1,0.1c0.1,0,0.1,0,0.1,0c0,0-0.1,0-0.1-0.1c0.1,0,0,0.1,0.1,0c0,0,0,0.1,0,0.1
		c0.2,0,0.2,0,0.4,0c0.1,0,0.1,0,0.1,0c0,0-0.1,0-0.1,0c0.1,0,0.2,0.1,0.3,0c0,0,0,0.1,0,0.1c0,0,0,0,0,0c0,0.1,0.1,0,0.2,0
		c0.1,0.1,0.3,0.1,0.3,0.1c0,0-0.1-0.1,0,0c0.1,0,0.1,0.1,0.1,0.1c0-0.1,0.1-0.1,0.1,0c0,0-0.1,0-0.1,0c0.1,0,0.2,0.1,0.2,0
		c0,0,0,0,0,0c0.1,0,0.2,0.1,0.2,0c0,0-0.1,0-0.1-0.1c0,0,0.1,0,0.1,0c0,0-0.1-0.1,0,0c0.1,0,0,0.1,0,0.1c0,0,0.1,0,0,0.1
		c0,0,0.2,0,0.1,0c0,0-0.1,0-0.1,0c0,0,0.1-0.1,0.1,0c-0.1,0,0,0,0.1,0c0,0.1-0.1,0.1,0,0.1c0-0.1,0-0.1,0-0.1c0.1,0,0,0.1,0,0.1
		c0,0,0.1,0,0.1,0c0,0,0,0.1,0,0.1c0.1,0,0.3,0,0.4,0c-0.1,0-0.1,0-0.1,0c0.1,0,0.1,0,0.2,0l0,0c0.1,0,0.1,0,0.2,0
		c0-0.1,0.1,0,0.1-0.1c0,0-0.1,0.1,0,0.1c0-0.1,0.1,0,0.2,0c0,0,0-0.1,0.1,0c0,0,0.1,0,0.1,0.1c0.1,0,0.4,0,0.3,0.1
		c0.1,0,0.1,0,0.1-0.1c0,0.1,0.3,0.1,0.3,0.1c0,0-0.1-0.1,0-0.1c0,0,0.1,0,0.1,0c0,0,0,0,0,0.1c0.1,0,0.1-0.1,0.1,0c0,0,0,0,0,0
		c0.1,0,0.1,0,0.1,0c0-0.1,0-0.1,0.1-0.1c0,0,0,0,0,0.1c0.1,0,0.1-0.1,0.1,0c0,0.1-0.1,0-0.1,0.1c0.1,0,0.2,0.1,0.2,0
		c-0.1,0-0.1-0.1,0-0.1l0,0.1c0.1,0,0.1-0.1,0.1-0.1c0,0.1,0.1,0.1,0,0.2c0.1,0,0.2,0,0.2-0.1c0,0,0.1,0,0,0.1c0.3,0,0.4,0,0.7,0
		c0.1,0.1,0.3,0,0.3,0c0.1,0,0.2,0,0.2,0c0,0.1,0.1,0.1,0.1,0c0.1,0,0,0.1,0.1,0.1s0.1-0.1,0.1-0.1c0.1,0,0.1,0,0.1,0
		c0,0-0.1,0-0.1,0c0.1,0,0.1,0,0.2,0c0,0,0,0,0-0.1c0.1,0-0.1-0.1,0-0.1c0.1,0,0,0.1,0.1,0.1c0,0,0-0.1,0.1-0.1
		c0,0.1-0.1,0.1-0.1,0.1c0.1,0,0.1,0,0.3,0c0,0,0,0,0,0c0,0,0.1,0,0.2,0c0,0,0-0.1,0.1-0.1c0,0,0,0.1,0.1,0.1c0-0.1,0.2,0,0.1,0
		l-0.1,0c0,0,0,0,0-0.1c0.1,0,0.2,0,0.2,0.1c0,0,0.1,0,0.1,0c0-0.1,0.1-0.1,0.1-0.1c0,0,0,0.1,0,0.1c0,0,0-0.1,0,0l0,0.1
		c0.1,0,0.1,0,0.2,0c0,0,0,0,0,0c0,0,0,0.1,0,0c0,0,0,0,0-0.1c0.1,0,0,0,0.1,0c0.1,0,0.1,0.1,0.2,0.1c0-0.1,0-0.1,0-0.1
		c0,0.1,0,0.1,0,0.1c0,0-0.1,0-0.1,0c0.1,0,0-0.1,0.1-0.1c0,0,0.1,0,0.2,0c0,0,0,0,0,0c0,0,0.1,0,0.1,0c0,0.1,0.2-0.1,0.2,0.1
		c0.1,0,0.1-0.1,0.2,0c0-0.1,0-0.1,0.1-0.1c0,0.1,0.1,0,0.1,0c0,0.1,0.1,0,0.2,0c0,0,0,0,0.1,0c0,0.1,0.1,0,0.2,0
		c0-0.1,0-0.1,0.1-0.1c0.1,0,0.1,0,0.2,0c0,0,0.1,0,0.1,0c0-0.1,0-0.1,0.1-0.1c0.1,0,0.1,0.1,0.2,0.1c0,0,0.1,0,0.1-0.1
		c0.2,0,0.2,0,0.3,0.1c0.1-0.2,0.3,0,0.5-0.1c0,0,0,0,0,0c0.1,0,0.2,0,0.3-0.1c0,0,0.1,0,0.2,0c0,0,0-0.1,0.1-0.1
		c0.1,0,0.3-0.1,0.4,0c0.1,0,0-0.1,0-0.1c0,0,0,0,0,0.1c0.1-0.1,0.2-0.1,0.3-0.1c0,0,0,0,0.1,0.1c0,0,0,0,0,0c0.2,0,0.2,0,0.3,0
		c0,0,0,0,0.1,0.1c0.1,0,0.1,0,0.2-0.1c0,0.1,0.1,0,0.2,0c0,0,0,0,0,0c0,0,0-0.1,0.1-0.1c0.1,0,0.2,0,0.3-0.1c0.1,0.1,0.1,0,0.3,0
		c0-0.1,0.1-0.1,0.2,0c0.1,0,0.2,0,0.3,0c0.1,0,0.2,0,0.3-0.1c0,0.1,0.1,0,0.2,0c0,0,0.1,0,0.1,0c0.1-0.1,0.2-0.1,0.3,0
		c0-0.1,0.1,0,0.1-0.1c0.1,0.1,0.2,0,0.3,0c0,0,0.1,0,0.2,0c0,0-0.1,0-0.1,0c0,0,0,0,0.1,0c-0.1,0,0,0,0,0.1c0.1,0,0.1-0.1,0.1-0.1
		c0,0,0.1,0,0.2-0.1c0,0-0.1,0.1,0,0.1c0,0,0,0,0.1,0c0,0,0-0.1,0-0.1c0.1,0,0.2-0.1,0.3-0.1c0,0,0.1,0,0.1-0.1c0,0,0,0,0.1,0
		c0-0.1,0.1-0.1,0.2-0.1c0,0,0-0.1,0.1,0c0-0.1,0-0.1,0-0.1c-0.1,0-0.4,0-0.4,0.1c0,0,0,0,0-0.1c-0.1,0-0.3,0-0.4,0.1
		c0-0.1-0.1,0-0.2,0c-0.1,0,0-0.1-0.1,0c0,0.1-0.2,0-0.2,0.1c0-0.1,0.1,0,0.1-0.1c0,0,0,0,0,0c0.1,0,0.1,0,0.2,0c0,0,0-0.1,0.1-0.1
		c0,0,0,0,0,0.1c0.1,0,0.2,0,0.2-0.1c0.3-0.1,0.4,0,0.7-0.1c-0.2,0-0.4,0-0.6,0c0,0.1,0,0.1-0.1,0.1l0-0.1c-0.1,0-0.1,0-0.2,0
		c0,0,0-0.1-0.1,0c0,0,0,0,0,0C33.9,39.3,33.8,39.3,33.7,39.4z M24.7,41C24.7,41,24.7,41,24.7,41C24.7,41,24.7,41,24.7,41z M24.7,41
		C24.6,40.9,24.8,40.9,24.7,41L24.7,41z M15.9,38.4C15.9,38.4,15.9,38.4,15.9,38.4C15.9,38.5,15.9,38.4,15.9,38.4z M20.4,39.4
		L20.4,39.4L20.4,39.4L20.4,39.4L20.4,39.4z M25.5,40C25.5,40,25.5,39.9,25.5,40C25.6,39.9,25.5,39.9,25.5,40z M28.7,39.7
		c0.1,0,0.1,0,0.2,0C29,39.8,28.7,39.8,28.7,39.7z M32.6,39.4C32.5,39.4,32.6,39.3,32.6,39.4L32.6,39.4z M33,39.3
		C33,39.4,33,39.3,33,39.3C33,39.4,33,39.3,33,39.3z M33.4,39.3C33.4,39.3,33.4,39.3,33.4,39.3C33.4,39.3,33.4,39.3,33.4,39.3z
		 M34.1,39.3L34.1,39.3C34.1,39.4,34.1,39.4,34.1,39.3z M32.7,39.4C32.7,39.4,32.7,39.4,32.7,39.4C32.8,39.4,32.7,39.4,32.7,39.4z
		 M32,39.4C32,39.4,32,39.4,32,39.4C32.1,39.4,32,39.4,32,39.4z M33.1,39.4C33.1,39.4,33.1,39.4,33.1,39.4
		C33.1,39.4,33.1,39.4,33.1,39.4z M32.3,39.4C32.3,39.4,32.3,39.4,32.3,39.4C32.3,39.4,32.3,39.4,32.3,39.4z M33.5,39.4
		C33.5,39.4,33.5,39.4,33.5,39.4C33.6,39.4,33.5,39.4,33.5,39.4z M32.8,39.5C32.7,39.5,32.7,39.4,32.8,39.5
		C32.8,39.5,32.8,39.5,32.8,39.5z M33.7,39.4C33.7,39.4,33.7,39.4,33.7,39.4C33.7,39.4,33.7,39.4,33.7,39.4z M33.2,39.5
		C33.2,39.5,33.2,39.5,33.2,39.5C33.2,39.5,33.2,39.5,33.2,39.5z M33.6,39.5c-0.1,0-0.1,0-0.2,0C33.4,39.5,33.6,39.4,33.6,39.5z
		 M29.8,39.6C29.9,39.6,29.8,39.7,29.8,39.6C29.7,39.6,29.9,39.6,29.8,39.6z M29.8,39.6L29.8,39.6L29.8,39.6L29.8,39.6L29.8,39.6z
		 M30.4,39.6C30.4,39.6,30.4,39.5,30.4,39.6C30.5,39.6,30.4,39.6,30.4,39.6z M33.4,39.5C33.4,39.5,33.4,39.5,33.4,39.5
		C33.4,39.5,33.4,39.5,33.4,39.5z M15.7,38.4L15.7,38.4L15.7,38.4L15.7,38.4L15.7,38.4z M33.3,39.5C33.2,39.5,33.3,39.5,33.3,39.5
		C33.3,39.5,33.3,39.5,33.3,39.5z M15,38.3C15,38.3,15,38.3,15,38.3C15.1,38.3,15,38.3,15,38.3z M15.2,38.3
		C15.2,38.3,15.2,38.3,15.2,38.3C15.2,38.3,15.2,38.4,15.2,38.3z M15.8,38.5C15.8,38.5,15.9,38.5,15.8,38.5
		C15.9,38.5,15.9,38.5,15.8,38.5z M15.9,38.5C15.9,38.5,15.9,38.5,15.9,38.5C16,38.5,15.9,38.5,15.9,38.5z M29.4,39.6
		C29.4,39.6,29.5,39.6,29.4,39.6C29.5,39.7,29.5,39.6,29.4,39.6z M17,38.7C17,38.7,17,38.7,17,38.7C17,38.7,17,38.8,17,38.7z
		 M31.7,39.6C31.7,39.6,31.8,39.6,31.7,39.6C31.8,39.6,31.7,39.6,31.7,39.6z M15,38.3C15,38.3,15,38.3,15,38.3
		C15,38.3,15,38.4,15,38.3z M16.3,38.6C16.3,38.6,16.3,38.6,16.3,38.6C16.4,38.6,16.3,38.6,16.3,38.6z M17.1,38.8
		C17.1,38.8,17.2,38.8,17.1,38.8C17.2,38.8,17.1,38.8,17.1,38.8z M18.5,39.1C18.5,39.1,18.6,39.1,18.5,39.1
		C18.6,39.1,18.5,39.1,18.5,39.1z M28.9,39.7C28.9,39.7,28.9,39.7,28.9,39.7C28.9,39.7,28.9,39.7,28.9,39.7z M33.5,39.6
		C33.5,39.6,33.5,39.6,33.5,39.6C33.5,39.6,33.5,39.6,33.5,39.6z M17.2,38.8C17.2,38.8,17.2,38.8,17.2,38.8
		C17.2,38.8,17.2,38.8,17.2,38.8z M18.3,39.1C18.3,39.1,18.3,39,18.3,39.1C18.3,39,18.3,39.1,18.3,39.1z M28,39.7
		C28,39.7,28,39.7,28,39.7L28,39.7C28,39.7,28,39.7,28,39.7z M28.8,39.7C28.8,39.7,28.8,39.7,28.8,39.7
		C28.8,39.7,28.8,39.7,28.8,39.7z M14.8,38.3C14.8,38.3,14.8,38.3,14.8,38.3C14.8,38.4,14.7,38.3,14.8,38.3z M19.7,39.3
		C19.7,39.3,19.7,39.3,19.7,39.3C19.7,39.3,19.7,39.3,19.7,39.3z M28.3,39.7C28.3,39.7,28.4,39.7,28.3,39.7
		C28.4,39.7,28.3,39.7,28.3,39.7z M30.2,39.7C30.2,39.7,30.2,39.7,30.2,39.7C30.2,39.7,30.2,39.7,30.2,39.7z M20.5,39.5
		C20.5,39.5,20.5,39.5,20.5,39.5C20.5,39.5,20.5,39.5,20.5,39.5z M20.7,39.5C20.6,39.5,20.7,39.5,20.7,39.5
		C20.7,39.5,20.7,39.5,20.7,39.5z M28.5,39.8C28.5,39.7,28.5,39.7,28.5,39.8C28.5,39.7,28.5,39.8,28.5,39.8z M14.7,38.4
		C14.7,38.3,14.7,38.3,14.7,38.4C14.7,38.4,14.7,38.4,14.7,38.4z M16.1,38.7C16.1,38.7,16.1,38.6,16.1,38.7
		C16.1,38.7,16.1,38.7,16.1,38.7z M19.3,39.3C19.3,39.3,19.5,39.3,19.3,39.3L19.3,39.3C19.3,39.3,19.3,39.3,19.3,39.3z M27.7,39.8
		C27.7,39.7,27.7,39.8,27.7,39.8C27.7,39.8,27.7,39.8,27.7,39.8z M27.8,39.8C27.7,39.8,27.7,39.7,27.8,39.8
		C27.8,39.8,27.8,39.8,27.8,39.8z M27.3,39.8C27.3,39.8,27.3,39.8,27.3,39.8C27.4,39.8,27.3,39.8,27.3,39.8z M28,39.8
		C28,39.8,28,39.8,28,39.8C28,39.8,28,39.8,28,39.8z M19.9,39.4C19.9,39.4,19.9,39.4,19.9,39.4C19.9,39.4,19.9,39.5,19.9,39.4z
		 M21.1,39.6C21.1,39.6,21.2,39.6,21.1,39.6C21.2,39.6,21.2,39.6,21.1,39.6z M21.5,39.7C21.5,39.6,21.5,39.6,21.5,39.7
		C21.5,39.6,21.5,39.7,21.5,39.7z M27.5,39.8C27.5,39.8,27.5,39.8,27.5,39.8C27.5,39.8,27.5,39.8,27.5,39.8z M28,39.8
		C28,39.8,28,39.8,28,39.8C28.1,39.8,28,39.8,28,39.8z M21.4,39.7C21.4,39.7,21.5,39.7,21.4,39.7C21.4,39.7,21.4,39.7,21.4,39.7z
		 M21.8,39.7C21.8,39.7,21.8,39.7,21.8,39.7C21.8,39.7,21.8,39.7,21.8,39.7z M27.7,39.8C27.7,39.8,27.8,39.8,27.7,39.8
		C27.8,39.8,27.8,39.8,27.7,39.8z M27.9,39.8C27.9,39.8,27.9,39.8,27.9,39.8C27.9,39.8,27.9,39.8,27.9,39.8z M14.8,38.4
		C14.8,38.4,14.8,38.4,14.8,38.4C14.8,38.5,14.8,38.5,14.8,38.4z M14.8,38.5C14.8,38.5,14.8,38.5,14.8,38.5
		C14.8,38.5,14.8,38.5,14.8,38.5z M19.4,39.4C19.4,39.4,19.4,39.4,19.4,39.4C19.5,39.4,19.4,39.4,19.4,39.4z M22,39.7
		C22,39.7,22,39.7,22,39.7C22,39.7,22,39.8,22,39.7z M26.4,39.8C26.4,39.8,26.4,39.9,26.4,39.8C26.4,39.9,26.4,39.9,26.4,39.8
		C26.3,39.9,26.3,39.9,26.4,39.8C26.3,39.8,26.4,39.9,26.4,39.8z M18.3,39.2C18.3,39.2,18.3,39.2,18.3,39.2
		C18.3,39.2,18.3,39.2,18.3,39.2z M25.3,39.9C25.3,39.9,25.3,39.9,25.3,39.9C25.4,39.9,25.3,39.9,25.3,39.9z M25.7,39.9
		C25.7,39.9,25.7,39.9,25.7,39.9C25.7,39.9,25.7,39.9,25.7,39.9z M26.9,39.9C26.9,39.8,26.9,39.9,26.9,39.9
		C26.9,39.9,26.9,39.9,26.9,39.9z M15,38.5C15,38.5,15,38.5,15,38.5C15,38.5,15,38.5,15,38.5z M23,39.9C22.9,39.9,23,39.9,23,39.9
		C23,39.8,23,39.9,23,39.9z M23.8,39.9C23.8,39.9,23.8,39.9,23.8,39.9C23.8,39.9,23.8,39.9,23.8,39.9z M23.9,39.9
		C23.9,39.9,24,39.9,23.9,39.9C24,39.9,24,39.9,23.9,39.9z M24.9,39.9C24.9,39.9,24.9,39.9,24.9,39.9C24.9,39.9,24.9,39.9,24.9,39.9
		z M14.8,38.5C14.8,38.5,14.8,38.5,14.8,38.5C14.9,38.5,14.8,38.5,14.8,38.5z M21.4,39.7C21.4,39.7,21.4,39.7,21.4,39.7
		C21.4,39.7,21.4,39.7,21.4,39.7z M25,39.9C25,39.9,25,39.9,25,39.9C25,39.9,25,39.9,25,39.9z M25.1,39.9
		C25.2,39.9,25.2,39.9,25.1,39.9C25.2,40,25.1,39.9,25.1,39.9z M25.2,39.9C25.2,39.9,25.2,39.9,25.2,39.9
		C25.2,39.9,25.2,39.9,25.2,39.9z M26.2,39.9C26.2,39.9,26.2,39.9,26.2,39.9C26.3,39.9,26.2,39.9,26.2,39.9z M26.3,39.9
		C26.3,39.9,26.3,39.9,26.3,39.9C26.3,39.9,26.3,39.9,26.3,39.9z M20.8,39.8c-0.1,0-0.2,0-0.3,0.1c0-0.1-0.1-0.1-0.2-0.1
		c-0.1,0-0.1,0-0.3,0l0-0.1c-0.1,0.1-0.1,0-0.2,0c0,0,0,0,0-0.1c-0.1,0.1-0.2-0.1-0.3,0c0,0,0-0.1,0,0c0-0.1-0.1,0-0.2,0
		c-0.1,0-0.1,0-0.1-0.1c-0.1,0-0.1,0-0.1,0c0,0.1-0.1,0.1-0.2,0c0,0,0.1,0,0.1,0c-0.1-0.1-0.2,0-0.3-0.1c0-0.1,0.1,0,0.1,0
		c0,0,0,0,0.1,0c0.2,0,0.4,0.1,0.7,0.1c0.1,0,0.1,0,0.1,0c0,0,0.1,0,0.1,0c0.1,0,0.4,0,0.6,0.1c0,0,0,0,0.1,0c0.1,0,0,0.1,0.1,0
		c0,0,0.1,0,0.2,0c0.1,0,0.2,0.1,0.3,0c0,0,0,0.1,0.1,0.1c0,0.1-0.1,0-0.1,0.1c0,0-0.1,0-0.1,0c0,0,0,0,0,0
		C20.9,39.9,20.8,39.9,20.8,39.8z M24.8,40C24.8,39.9,24.8,39.9,24.8,40C24.8,40,24.8,40,24.8,40z M22.4,39.9
		C22.4,39.9,22.4,39.9,22.4,39.9C22.5,39.9,22.4,39.9,22.4,39.9z M22.9,39.9C22.9,39.9,22.9,39.9,22.9,39.9
		C23,39.9,22.9,39.9,22.9,39.9z M23.2,39.9C23.2,39.9,23.2,39.9,23.2,39.9C23.2,39.9,23.2,39.9,23.2,39.9z M23.7,40
		C23.7,39.9,23.8,39.9,23.7,40C23.7,40,23.7,40,23.7,40z M23.9,40C23.9,40,24,39.9,23.9,40C24,40,23.9,40,23.9,40z M24.1,40
		C24.1,39.9,24.1,39.9,24.1,40C24.1,39.9,24.1,40,24.1,40z M24.2,40C24.3,40,24.3,40,24.2,40C24.2,40,24.2,40,24.2,40L24.2,40z
		 M24.4,40C24.3,39.9,24.4,40.1,24.4,40L24.4,40z M21.9,39.9c0,0,0,0.1,0.1,0c0,0.1-0.2,0-0.2,0c0,0,0,0,0,0c-0.1,0-0.2,0-0.3,0
		c0-0.1-0.1,0-0.1-0.1c-0.1,0,0,0.1-0.1,0c-0.1,0-0.1-0.1-0.1-0.1c0.1,0,0-0.1,0-0.1c0.1,0,0.2,0,0.3,0.1c0,0,0,0,0,0
		c0.1-0.1,0.2,0,0.3,0C21.8,39.9,21.9,39.8,21.9,39.9C21.9,39.9,21.9,39.9,21.9,39.9z M21.9,39.9C21.9,39.8,21.9,39.8,21.9,39.9
		C21.9,39.9,21.9,39.9,21.9,39.9z M22.1,39.9C22.1,39.9,22.1,39.9,22.1,39.9C22.2,39.9,22.2,39.9,22.1,39.9z M23.1,39.9
		C23.2,39.9,23.2,40,23.1,39.9C23.1,40,23.2,40,23.1,39.9z M23.6,40C23.6,39.9,23.6,40,23.6,40C23.6,40.1,23.6,40,23.6,40z M24.7,40
		C24.7,40,24.8,40,24.7,40C24.8,40,24.7,40,24.7,40z M27.9,40C27.9,40,27.9,39.9,27.9,40C27.9,40,27.9,40,27.9,40z M22.4,39.9
		C22.3,39.9,22.4,39.9,22.4,39.9C22.3,40,22.3,40,22.3,40c0,0,0,0,0,0c0-0.1-0.2,0-0.2,0c-0.1,0,0,0,0-0.1c0,0,0,0,0,0
		C22.2,39.9,22.3,39.9,22.4,39.9C22.3,40,22.3,39.9,22.4,39.9z M23.1,40c0,0.1-0.2,0-0.2,0c0,0,0,0-0.1,0c-0.1,0-0.2,0-0.2,0
		C22.8,40,22.9,39.9,23.1,40z M23.5,40C23.5,39.9,23.5,40.1,23.5,40C23.4,40,23.5,40,23.5,40z M24,40C24,40,24,40,24,40
		C23.9,40,24.1,40,24,40C24.1,40.1,24,40,24,40C24.1,40.1,23.9,40,24,40z M24.3,40C24.3,40,24.3,40,24.3,40C24.3,40,24.3,40,24.3,40
		z M28.8,40C28.7,40,28.8,40,28.8,40C28.8,40,28.8,40,28.8,40z M24.3,40C24.3,40,24.3,40,24.3,40C24.3,40,24.3,40,24.3,40z M22.5,40
		C22.5,40,22.5,40,22.5,40C22.5,40,22.5,40,22.5,40z M23.5,40.1C23.6,40,23.6,40.1,23.5,40.1C23.6,40.1,23.5,40.1,23.5,40.1z
		 M24.2,40.1C24.1,40.1,24.2,40,24.2,40.1C24.2,40.1,24.2,40.1,24.2,40.1z M23.2,40.1C23.2,40,23.2,40,23.2,40.1
		C23.3,40.1,23.2,40.1,23.2,40.1z M33.8,39.9C33.8,39.9,33.8,39.9,33.8,39.9C33.8,39.9,33.8,39.9,33.8,39.9z M14.6,38.7
		C14.6,38.6,14.6,38.7,14.6,38.7C14.7,38.7,14.6,38.7,14.6,38.7z M22.8,40.1C22.8,40,22.9,40.1,22.8,40.1
		C22.9,40.1,22.8,40,22.8,40.1z M23.4,40.1C23.4,40,23.4,40.1,23.4,40.1C23.5,40.1,23.4,40.1,23.4,40.1z M23.8,40.1
		C23.8,40.1,23.9,40.1,23.8,40.1C23.9,40.1,23.9,40.1,23.8,40.1z M33.8,40C33.8,39.9,33.8,39.9,33.8,40C33.9,39.9,33.9,40,33.8,40z
		 M23.8,40.1C23.7,40,23.8,40.2,23.8,40.1L23.8,40.1z M24,40.1C24,40.1,24,40.1,24,40.1C24,40.1,24,40.1,24,40.1z M33.5,40
		C33.5,40,33.5,40,33.5,40C33.6,40,33.5,40.1,33.5,40L33.5,40z M27,40.2C27,40.1,27,40.1,27,40.2C27,40.1,27,40.2,27,40.2z M33.6,40
		C33.6,40,33.6,40,33.6,40C33.7,40,33.6,40,33.6,40z M23.8,40.2C23.8,40.2,23.8,40.2,23.8,40.2C23.8,40.2,23.8,40.2,23.8,40.2z
		 M22.6,40.2C22.5,40.2,22.6,40.1,22.6,40.2C22.6,40.2,22.6,40.2,22.6,40.2z M24.5,40.2C24.5,40.2,24.5,40.2,24.5,40.2
		C24.6,40.2,24.5,40.2,24.5,40.2z M24,40.2C24,40.2,24,40.2,24,40.2C24,40.3,24,40.2,24,40.2z M14.2,38.7
		C14.2,38.7,14.2,38.7,14.2,38.7C14.2,38.8,14.2,38.7,14.2,38.7z M25.3,40.3C25.2,40.2,25.2,40.3,25.3,40.3
		C25.1,40.2,25.3,40.2,25.3,40.3z M25,40.3C24.9,40.3,25,40.3,25,40.3C25,40.3,25,40.3,25,40.3z M27.8,40.3
		C27.8,40.3,27.8,40.3,27.8,40.3C27.9,40.3,27.8,40.3,27.8,40.3z M14.3,38.8C14.3,38.8,14.3,38.8,14.3,38.8
		C14.3,38.8,14.3,38.8,14.3,38.8z M30.5,40.3C30.5,40.3,30.6,40.3,30.5,40.3C30.6,40.3,30.5,40.3,30.5,40.3z M19.4,39.9
		C19.4,39.9,19.4,39.9,19.4,39.9C19.4,39.9,19.4,39.9,19.4,39.9z M21.4,40.2C21.3,40.2,21.4,40.2,21.4,40.2
		C21.4,40.2,21.4,40.2,21.4,40.2z M18.2,39.7c0,0.1-0.1,0-0.1,0c-0.1,0-0.2,0-0.3,0c-0.1,0-0.1-0.1-0.1-0.1c0.1,0,0.1,0,0.2,0
		C18,39.7,18,39.6,18.2,39.7z M28,40.4C28,40.4,28,40.4,28,40.4C28,40.3,28,40.4,28,40.4z M29.8,40.4C29.8,40.3,29.8,40.4,29.8,40.4
		C29.9,40.3,29.8,40.4,29.8,40.4z M17,39.5C17,39.5,17,39.5,17,39.5C17,39.5,17,39.5,17,39.5z M17.5,39.6
		C17.5,39.6,17.6,39.6,17.5,39.6C17.6,39.6,17.6,39.6,17.5,39.6z M17.5,39.7C17.5,39.6,17.6,39.7,17.5,39.7
		C17.6,39.7,17.6,39.7,17.5,39.7z M30.4,40.4C30.4,40.4,30.4,40.4,30.4,40.4C30.5,40.4,30.4,40.4,30.4,40.4z M19.3,40
		C19.3,40,19.3,40,19.3,40C19.3,40,19.3,40,19.3,40z M19.6,40.1C19.6,40.1,19.6,40.1,19.6,40.1C19.6,40.1,19.6,40.1,19.6,40.1z
		 M19.9,40.1C19.9,40.1,19.9,40.1,19.9,40.1C20,40.1,19.9,40.1,19.9,40.1z M29.8,40.5C29.8,40.4,29.8,40.4,29.8,40.5
		C29.8,40.5,29.8,40.5,29.8,40.5z M20,40.2C20,40.2,20,40.1,20,40.2C20,40.2,20,40.2,20,40.2z M29.4,40.5
		C29.4,40.4,29.5,40.5,29.4,40.5C29.5,40.5,29.5,40.5,29.4,40.5z M18.1,39.8C18.1,39.8,18.1,39.8,18.1,39.8
		C18.1,39.8,18.1,39.9,18.1,39.8z M20.7,40.3C20.7,40.3,20.7,40.3,20.7,40.3C20.7,40.3,20.7,40.3,20.7,40.3z M18.2,39.9
		C18.1,39.9,18.2,39.9,18.2,39.9C18.2,39.9,18.2,39.9,18.2,39.9z M18.9,40C18.9,40,18.9,40,18.9,40C18.9,40,18.9,40,18.9,40z
		 M19.2,40.1C19.2,40.1,19.2,40.1,19.2,40.1C19.2,40.1,19.2,40.1,19.2,40.1z M25.3,40.6C25.3,40.6,25.3,40.6,25.3,40.6
		C25.4,40.5,25.3,40.6,25.3,40.6z M26.7,40.6C26.7,40.5,26.7,40.5,26.7,40.6C26.7,40.5,26.7,40.6,26.7,40.6z M26.9,40.5
		C26.9,40.5,26.9,40.5,26.9,40.5C26.9,40.5,26.9,40.5,26.9,40.5z M27,40.6C27,40.5,27,40.6,27,40.6C27,40.6,27,40.5,27,40.6z
		 M18.1,39.9C18.1,39.9,18.1,39.9,18.1,39.9C18.1,39.9,18.1,39.9,18.1,39.9z M19.5,40.1C19.5,40.1,19.5,40.1,19.5,40.1
		C19.5,40.2,19.5,40.1,19.5,40.1z M24.8,40.6C24.8,40.6,24.8,40.6,24.8,40.6C24.8,40.6,24.8,40.6,24.8,40.6z M19.1,40.1
		C19.1,40.1,19.1,40.1,19.1,40.1C19.1,40.1,19.1,40.1,19.1,40.1z M20.1,40.3C20.1,40.2,20.2,40.2,20.1,40.3
		C20.2,40.3,20.1,40.3,20.1,40.3z M26.7,40.6C26.7,40.6,26.8,40.6,26.7,40.6C26.8,40.6,26.7,40.6,26.7,40.6z M18.1,39.9L18.1,39.9
		L18.1,39.9L18.1,39.9L18.1,39.9z M18.7,40C18.7,40,18.7,40,18.7,40C18.7,40.1,18.7,40,18.7,40C18.6,40.1,18.6,40,18.7,40z
		 M22.7,40.6C22.7,40.6,22.7,40.5,22.7,40.6C22.8,40.6,22.7,40.6,22.7,40.6z M24.6,40.6C24.6,40.6,24.6,40.6,24.6,40.6
		C24.7,40.6,24.6,40.6,24.6,40.6z M15.9,39.5C15.9,39.5,16,39.5,15.9,39.5C16,39.5,16,39.5,15.9,39.5z M17.6,39.8L17.6,39.8
		C17.6,39.9,17.6,39.9,17.6,39.8z M22.8,40.6C22.8,40.6,22.8,40.6,22.8,40.6C22.8,40.6,22.8,40.6,22.8,40.6z M26.8,40.6
		C26.8,40.6,26.8,40.6,26.8,40.6L26.8,40.6z M15.3,39.4C15.3,39.4,15.4,39.4,15.3,39.4C15.4,39.4,15.3,39.4,15.3,39.4z M15.5,39.4
		C15.5,39.4,15.6,39.4,15.5,39.4C15.6,39.4,15.5,39.4,15.5,39.4z M17.3,39.8C17.3,39.8,17.3,39.8,17.3,39.8
		C17.3,39.8,17.3,39.8,17.3,39.8z M20.9,40.4C20.8,40.4,20.9,40.4,20.9,40.4C20.9,40.4,20.9,40.4,20.9,40.4z M25.1,40.7
		C25.1,40.7,25.2,40.7,25.1,40.7C25.2,40.7,25.2,40.7,25.1,40.7z M16.7,39.7C16.6,39.7,16.7,39.7,16.7,39.7
		C16.7,39.7,16.7,39.7,16.7,39.7z M16.9,39.7C16.9,39.7,16.9,39.7,16.9,39.7C16.9,39.7,16.9,39.7,16.9,39.7z M18.5,40.1
		C18.5,40.1,18.5,40.1,18.5,40.1C18.5,40,18.5,40.1,18.5,40.1z M19.6,40.3C19.6,40.3,19.6,40.2,19.6,40.3
		C19.6,40.3,19.6,40.3,19.6,40.3z M25.1,40.7C25.1,40.7,25.1,40.7,25.1,40.7C25.1,40.7,25.1,40.7,25.1,40.7z M26.3,40.7
		C26.3,40.7,26.3,40.7,26.3,40.7C26.3,40.7,26.3,40.7,26.3,40.7z M16.7,39.7C16.7,39.7,16.8,39.7,16.7,39.7
		C16.8,39.7,16.7,39.7,16.7,39.7z M16.9,39.8C16.9,39.8,16.9,39.8,16.9,39.8C17,39.8,16.9,39.8,16.9,39.8z M17,39.8
		C17,39.8,17,39.8,17,39.8C17,39.8,17,39.8,17,39.8z M19.5,40.2C19.5,40.2,19.5,40.2,19.5,40.2C19.5,40.3,19.5,40.3,19.5,40.2z
		 M19.8,40.3C19.8,40.3,19.8,40.3,19.8,40.3C19.8,40.3,19.8,40.3,19.8,40.3z M23.1,40.7C23.1,40.7,23.1,40.6,23.1,40.7
		C23.1,40.7,23.1,40.7,23.1,40.7z M18.5,40.1C18.5,40.1,18.5,40.1,18.5,40.1C18.5,40.1,18.5,40.1,18.5,40.1z M19.1,40.2
		C19.1,40.2,19.1,40.2,19.1,40.2C19.2,40.2,19.1,40.2,19.1,40.2z M24.3,40.7C24.3,40.7,24.3,40.7,24.3,40.7
		C24.3,40.7,24.3,40.7,24.3,40.7z M18.4,40.1C18.3,40.1,18.4,40.1,18.4,40.1C18.4,40.1,18.4,40.1,18.4,40.1z M18.8,40.2
		C18.8,40.2,18.8,40.2,18.8,40.2C18.8,40.2,18.8,40.2,18.8,40.2z M19,40.2C19,40.2,19,40.2,19,40.2C19,40.2,19,40.2,19,40.2z
		 M19,40.2C19,40.2,19,40.2,19,40.2C19.1,40.2,19,40.2,19,40.2z M19.7,40.3C19.6,40.3,19.7,40.4,19.7,40.3
		C19.7,40.4,19.7,40.3,19.7,40.3z M20.1,40.4C20.1,40.4,20.1,40.4,20.1,40.4C20.1,40.4,20.1,40.4,20.1,40.4z M25,40.8
		C25,40.7,25,40.7,25,40.8C25,40.7,25,40.8,25,40.8z M19.3,40.3C19.3,40.3,19.3,40.3,19.3,40.3C19.4,40.3,19.3,40.3,19.3,40.3z
		 M20.6,40.5C20.6,40.5,20.6,40.5,20.6,40.5C20.6,40.5,20.6,40.5,20.6,40.5z M20.7,40.5C20.7,40.4,20.7,40.5,20.7,40.5
		C20.7,40.5,20.7,40.5,20.7,40.5z M20.8,40.5C20.8,40.5,20.8,40.5,20.8,40.5C20.8,40.5,20.8,40.5,20.8,40.5z M21,40.5
		C21,40.5,21,40.5,21,40.5C21.1,40.5,21,40.6,21,40.5z M22.8,40.7C22.8,40.7,22.9,40.7,22.8,40.7C22.9,40.7,22.8,40.7,22.8,40.7z
		 M21.1,40.6L21.1,40.6L21.1,40.6L21.1,40.6L21.1,40.6z M21.4,40.6C21.4,40.6,21.4,40.6,21.4,40.6C21.4,40.6,21.4,40.6,21.4,40.6z
		 M21.6,40.6C21.6,40.6,21.7,40.6,21.6,40.6C21.6,40.6,21.6,40.6,21.6,40.6z M26.1,40.8C26.1,40.8,26.1,40.7,26.1,40.8
		C26.1,40.8,26.1,40.8,26.1,40.8z M26.6,40.8C26.6,40.7,26.6,40.7,26.6,40.8C26.7,40.8,26.7,40.8,26.6,40.8z M25,40.8
		C25,40.8,25,40.8,25,40.8C25,40.8,25,40.8,25,40.8z M25.3,40.8C25.3,40.8,25.3,40.8,25.3,40.8C25.3,40.8,25.3,40.8,25.3,40.8z
		 M21,40.6C21,40.6,21,40.6,21,40.6C21,40.6,21,40.6,21,40.6z M22.1,40.7C22.1,40.7,22.1,40.7,22.1,40.7
		C22.1,40.7,22.1,40.7,22.1,40.7z M22.4,40.8C22.3,40.7,22.4,40.7,22.4,40.8C22.4,40.7,22.4,40.8,22.4,40.8z M22.9,40.8
		C22.9,40.8,22.9,40.8,22.9,40.8C22.9,40.8,22.9,40.8,22.9,40.8z M25.7,40.8C25.7,40.8,25.7,40.8,25.7,40.8
		C25.7,40.8,25.7,40.8,25.7,40.8z M21.1,40.6C21.1,40.6,21.1,40.6,21.1,40.6C21.1,40.7,21.1,40.6,21.1,40.6z M21.3,40.7
		C21.3,40.7,21.3,40.6,21.3,40.7C21.3,40.6,21.3,40.7,21.3,40.7z M22.5,40.8C22.5,40.8,22.5,40.7,22.5,40.8
		C22.5,40.8,22.5,40.8,22.5,40.8z M23.1,40.8C23.2,40.8,23.2,40.9,23.1,40.8C23.1,40.9,23.1,40.8,23.1,40.8z M22.1,40.8
		C22.1,40.7,22.2,40.7,22.1,40.8C22.2,40.7,22.1,40.8,22.1,40.8z M22.3,40.8C22.3,40.7,22.3,40.8,22.3,40.8
		C22.3,40.8,22.3,40.8,22.3,40.8z M23.5,40.8C23.5,40.8,23.5,40.8,23.5,40.8C23.5,40.9,23.5,40.8,23.5,40.8z M24.3,40.9
		C24.4,40.9,24.4,40.9,24.3,40.9C24.4,40.9,24.3,40.9,24.3,40.9z M25,40.9C25,40.8,25,40.8,25,40.9C25.1,40.8,25.1,40.9,25,40.9z
		 M25.3,40.9C25.3,40.8,25.2,40.9,25.3,40.9C25.3,40.9,25.2,40.9,25.3,40.9C25.2,40.9,25.2,40.9,25.3,40.9z M25.4,40.9
		C25.4,40.8,25.4,40.8,25.4,40.9C25.4,40.9,25.4,40.9,25.4,40.9z M22.1,40.8C22.1,40.8,22.1,40.8,22.1,40.8
		C22.1,40.8,22.1,40.8,22.1,40.8z M22.6,40.8C22.6,40.8,22.6,40.8,22.6,40.8C22.6,40.8,22.6,40.8,22.6,40.8z M23.3,40.9
		C23.2,40.9,23.1,40.8,23.3,40.9L23.3,40.9z M24.4,40.9C24.4,40.8,24.5,40.9,24.4,40.9C24.5,40.9,24.5,40.9,24.4,40.9z M25.4,40.9
		C25.3,40.9,25.4,40.9,25.4,40.9C25.4,40.9,25.4,40.9,25.4,40.9z M25.5,40.9C25.5,40.8,25.4,41,25.5,40.9L25.5,40.9z M25.5,40.9
		C25.5,40.9,25.5,40.9,25.5,40.9C25.5,40.9,25.5,40.9,25.5,40.9z M23.7,40.9C23.7,40.9,23.8,40.9,23.7,40.9
		C23.8,40.9,23.7,40.9,23.7,40.9z M25.6,40.9C25.6,40.9,25.6,40.9,25.6,40.9C25.6,40.9,25.6,40.9,25.6,40.9z M23.4,40.9
		C23.5,40.8,23.3,40.9,23.4,40.9L23.4,40.9z M23.7,40.9C23.7,40.9,23.7,40.9,23.7,40.9C23.7,40.9,23.7,40.9,23.7,40.9z M24.2,40.9
		C24.2,40.9,24.1,41,24.2,40.9C24.1,40.9,24.1,40.9,24.2,40.9z M24.2,40.9C24.2,40.9,24.2,40.9,24.2,40.9
		C24.2,41,24.2,40.9,24.2,40.9z M23.4,40.9C23.5,40.8,23.6,40.9,23.4,40.9C23.5,41,23.5,40.9,23.4,40.9z M24,40.9
		C24,40.9,24,40.9,24,40.9C24.1,41,24.1,41,24,40.9z M25.4,40.9C25.4,40.9,25.4,40.9,25.4,40.9C25.5,40.9,25.4,40.9,25.4,40.9z
		 M23.2,40.9C23.2,40.9,23.2,40.9,23.2,40.9C23.2,40.9,23.2,40.9,23.2,40.9z M23.6,41C23.5,41,23.6,40.9,23.6,41
		C23.6,41,23.6,41,23.6,41z M23.9,41C23.9,41,23.9,41,23.9,41C23.9,41,23.9,41,23.9,41z"/>
</g>
<g>
	<path class="st0" d="M49.8,46.3c-0.1-0.1,0.1,0.2,0.1,0.4C50.1,46.7,49.8,46.3,49.8,46.3z"/>
	<path class="st0" d="M48.1,47l0.1-0.1C48.2,46.9,48.2,47,48.1,47L48.1,47z"/>
	<path class="st0" d="M39,39.9c0,0.1,0.2,0.2-0.1,0.2c0.7,0.2,0.7,0.3,1.2,0.5c-0.1,0-0.7-0.2-0.3,0c0.2,0.1,0.6,0.2,0.8,0.2
		c0.3,0.2,0.9,0.4,1,0.5c0.6,0.2,0.6,0.3,1.1,0.4c-0.1,0.1-1.1-0.2-1.7-0.5c0.1,0.1,0.4,0.2,0.6,0.3c-0.4-0.1,0,0.1-0.3,0
		c0.3,0.1,0.8,0.4,1.4,0.7c-0.2-0.2,0.1,0,0.4,0.2c-0.4-0.1,0.2,0.1,0.1,0.2c0.4,0.1,0.9,0.5,1.2,0.5c0.1,0.1,0.1,0.1,0.1,0.1
		c0.4,0.2,1.1,0.5,0.9,0.3c0.4,0.3,0.5,0.4,0.9,0.6c0,0.1-0.1,0-0.2-0.1c0,0.1,0.4,0.3,0.4,0.2c0.1,0.1,0.1,0.1,0.1,0.2
		c0.2,0.2,0.4,0.3,0.6,0.4c0.1,0.1,0.3,0.3,0.3,0.4c0.3,0.3,0.1,0.1,0.2,0.1c0.1,0.2,0.4,0.6,0.6,0.9c0.2,0.2,0.3,0.4,0.4,0.3
		c0.2,0.2,0.2,0.3,0.1,0.3c0,0,0.1,0.1,0.1,0.1l1-0.8c0,0,0.3,0.1,0.3,0l-1.4-1.8l-0.3-0.4c-0.1-0.1-0.3-0.3-0.4-0.4
		c-0.3-0.3-0.5-0.4-0.7-0.6c0,0,0,0.1,0.1,0.1c-0.1-0.1-0.5-0.4-0.5-0.3c-0.1-0.1-0.1-0.1-0.1-0.1c-0.4-0.3-0.9-0.5-1.2-0.6
		c-1.2-0.7-3.7-1.6-4.9-2.1c-0.4-0.1-0.2,0.1-0.7,0c-0.6-0.2-0.8-0.3-1.4-0.4C38.5,39.7,38.7,39.8,39,39.9z M42,41.8
		c0-0.1-0.2-0.1-0.1-0.1C42,41.7,42.1,41.7,42,41.8z M48.7,46.3c0-0.1-0.1-0.2-0.1-0.2C48.7,46.2,48.8,46.4,48.7,46.3z M48.4,46.1
		c0,0,0.1,0.1,0.1,0.1C48.6,46.3,48.5,46.2,48.4,46.1z M48.5,46.1c-0.1-0.1-0.2-0.3-0.2-0.3C48.4,45.9,48.6,46.1,48.5,46.1z
		 M47.7,44.9L47.7,44.9c-0.1-0.1-0.2-0.1-0.2-0.2C47.6,44.8,47.6,44.8,47.7,44.9z M45,43.2c0-0.1-0.2-0.1-0.1-0.1
		C44.9,43.1,45.1,43.2,45,43.2z M44.1,42.5c0-0.1-0.2-0.1-0.1-0.1C44.1,42.4,44.2,42.5,44.1,42.5z M44.2,42.8
		c-0.1-0.1-0.3-0.2-0.3-0.2C44,42.7,44.2,42.8,44.2,42.8z M43.7,42.6c0-0.1-0.2-0.1-0.1-0.1C43.6,42.5,43.8,42.6,43.7,42.6z
		 M43.1,42C43.1,42,43.1,41.9,43.1,42C43.1,42,43.2,42,43.1,42z M43.1,42.1c0-0.1-0.2-0.1-0.1-0.1C43,42,43.2,42.1,43.1,42.1z
		 M42.5,41.9c-0.2-0.1,0.3,0,0.3,0.1C42.6,41.9,42.6,42,42.5,41.9z M42.5,41.8c0,0,0.1,0.1,0.2,0.1C42.7,41.8,42.5,41.8,42.5,41.8z
		 M42.5,41.5c-0.2-0.1-0.5-0.2-0.6-0.3C42.1,41.3,42.5,41.4,42.5,41.5z M40.5,40.4c-0.1,0-0.2-0.1-0.2-0.1
		C40.4,40.3,40.6,40.4,40.5,40.4z M39.7,40.2c0,0-0.2,0-0.2-0.1C39.6,40.1,39.7,40.1,39.7,40.2z"/>
	<path class="st0" d="M48.1,43.5c-0.1,0-0.1-0.1-0.2-0.1C47.9,43.4,48,43.4,48.1,43.5z"/>
	<path class="st0" d="M48.9,44.4c-0.1-0.1,0.1,0.1,0.1,0.2C49,44.6,48.9,44.5,48.9,44.4z"/>
	<path class="st0" d="M48.1,43.5c0.1,0,0.1,0.1,0.1,0.1C48.1,43.6,48.1,43.5,48.1,43.5z"/>
</g>
<g>
	<path class="st0" d="M2.7,42.5c0,0-0.1,0.1-0.1,0.1C2.6,42.6,2.7,42.6,2.7,42.5z"/>
	<path class="st0" d="M2.7,42.5c0.1-0.1,0.2-0.1,0.2-0.1C2.8,42.4,2.8,42.5,2.7,42.5z"/>
	<path class="st0" d="M2.5,45.9L2.7,46h0C2.6,46,2.6,46,2.5,45.9z"/>
	<path class="st0" d="M2.3,45.6c0,0,0.2-0.2,0.4-0.3c0.2-0.3,0.5-0.7,0.6-0.9c0.1,0.1-0.1,0.3,0.2-0.1c0-0.1,0.2-0.3,0.3-0.4
		c0.1-0.1,0.4-0.3,0.6-0.4c0-0.1-0.1-0.1,0.1-0.2c0,0.1,0.4-0.2,0.4-0.2c-0.1,0.1-0.2,0.1-0.2,0.1c0.4-0.2,0.4-0.3,0.9-0.6
		c-0.2,0.2,0.5-0.1,0.9-0.3c0-0.1,0-0.1,0.1-0.1c0.3,0,0.8-0.4,1.2-0.5c-0.1-0.1,0.5-0.3,0.1-0.2c0.4-0.2,0.7-0.4,0.4-0.2
		c0.6-0.3,1.2-0.6,1.4-0.7c-0.3,0.1,0.1-0.1-0.3,0c0.2-0.1,0.4-0.2,0.6-0.3c-0.6,0.3-1.6,0.6-1.7,0.5c0.5-0.1,0.5-0.3,1.1-0.4
		c0.1-0.1,0.7-0.3,1-0.5c0.2-0.1,0.6-0.2,0.8-0.2c0.3-0.2-0.3,0-0.3,0c0.4-0.2,0.5-0.3,1.2-0.5c-0.2,0-0.1-0.1-0.1-0.2
		c0.3-0.1,0.5-0.2,0.4-0.2c-0.6,0.2-0.8,0.2-1.4,0.4c-0.4,0.1-0.3-0.1-0.7,0c-1.2,0.5-3.7,1.4-4.9,2.1c-0.3,0.1-0.7,0.3-1.2,0.6
		c0,0.1,0,0.1-0.1,0.1c0,0-0.4,0.2-0.5,0.3c0,0,0.1-0.1,0.1-0.1c-0.2,0.1-0.4,0.3-0.7,0.6c-0.1,0.1-0.3,0.3-0.4,0.4l-0.3,0.4
		l-1.4,1.8c-0.1,0.1-0.2,0.1-0.3,0.3c-0.1,0.1-0.2,0.3-0.3,0.4L2.3,45.6z M8.9,40.7c0.1,0-0.1,0.1-0.1,0.1
		C8.7,40.7,8.8,40.7,8.9,40.7z M11.2,39.1c0,0.1-0.2,0.1-0.2,0.1C11,39.1,11.2,39.1,11.2,39.1z M10.4,39.4c0.1,0-0.1,0.1-0.2,0.1
		C10.2,39.4,10.4,39.4,10.4,39.4z M8.9,40.3c-0.1,0.1-0.4,0.2-0.6,0.3C8.3,40.4,8.7,40.3,8.9,40.3z M8.3,40.8c0,0.1-0.2,0.1-0.2,0.1
		C8.2,40.9,8.3,40.8,8.3,40.8z M8.3,41C8.2,41,8.2,41,8,41C8,41,8.5,40.9,8.3,41z M7.7,41.1c-0.1,0,0.1-0.1,0.1-0.1
		C7.9,41,7.7,41.1,7.7,41.1z M7.7,41C7.7,41,7.7,41,7.7,41C7.6,41,7.7,41,7.7,41z M7.2,41.5c0.1,0-0.1,0.1-0.1,0.1
		C6.9,41.6,7.2,41.5,7.2,41.5z M6.8,41.4c0.1,0-0.1,0.1-0.1,0.1C6.6,41.5,6.7,41.4,6.8,41.4z M6.9,41.7c0,0-0.2,0.1-0.3,0.2
		C6.6,41.8,6.8,41.7,6.9,41.7z M5.9,42.1c0.1,0-0.1,0.1-0.1,0.1C5.7,42.2,5.9,42.1,5.9,42.1z M3.3,43.8c-0.1,0.1-0.1,0.1-0.2,0.2
		l-0.1-0.1C3.2,43.9,3.2,43.8,3.3,43.8z M2.5,44.9c0,0-0.1,0.2-0.2,0.3C2.2,45.1,2.4,44.9,2.5,44.9z M2.3,45.2
		c-0.1,0.1-0.1,0.2-0.1,0.1C2.2,45.2,2.3,45.2,2.3,45.2z M2.2,45.2c0.1-0.1-0.1,0.1-0.1,0.2C2,45.4,2.1,45.3,2.2,45.2z"/>
	<path class="st0" d="M0,46c0-0.1,0.1-0.2,0.1-0.2C0.1,45.9,0,46,0,46z"/>
	<path class="st0" d="M1.8,43.6c0-0.1,0.1-0.2,0.1-0.2C1.9,43.5,1.8,43.7,1.8,43.6z"/>
</g>
</svg>
