<?xml version="1.0" encoding="utf-8"?>
<!-- Generator: Adobe Illustrator 19.2.1, SVG Export Plug-In . SVG Version: 6.00 Build 0)  -->
<svg version="1.1" id="Layer_1" xmlns="http://www.w3.org/2000/svg" xmlns:xlink="http://www.w3.org/1999/xlink" x="0px" y="0px"
	 viewBox="0 0 50 50" style="enable-background:new 0 0 50 50;" xml:space="preserve">
<style type="text/css">
	.st0{fill:#FBC04E;}
	.st1{display:none;}
	.st2{display:inline;fill:#FFFFFF;}
	.st3{fill:#262626;}
</style>
<polygon class="st0" points="0,0 50,50 50,0 "/>
<g class="st1">
	<path class="st2" d="M9.7,32.2l-0.9,0.9l-4.4-4.4l2.5-2.5L7.7,27l-1.6,1.6l1.1,1.1l1.5-1.5L9.5,29L8,30.5L9.7,32.2z"/>
	<path class="st2" d="M11.4,21.7l2.9,2.9c0.3,0.3,0.5,0.7,0.6,1.1s0.1,0.8-0.1,1.2c-0.1,0.4-0.4,0.8-0.8,1.2
		c-0.6,0.6-1.2,0.9-1.8,0.9s-1.2-0.2-1.7-0.7l-2.8-2.8l0.9-0.9l2.7,2.7c0.3,0.3,0.7,0.5,1,0.5s0.6-0.1,0.9-0.4
		c0.3-0.3,0.4-0.6,0.4-0.9s-0.2-0.6-0.5-1l-2.7-2.7L11.4,21.7z"/>
	<path class="st2" d="M20.8,21.1l-1.2,1.2l-5.3-1.4l0,0c0.6,0.6,1.1,1,1.3,1.2l2.1,2.1L16.9,25l-4.4-4.4l1.2-1.2l5.2,1.4l0,0
		c-0.6-0.5-1-0.9-1.3-1.2l-2.1-2.1l0.8-0.8L20.8,21.1z"/>
	<path class="st2" d="M23.3,14.1c0.7,0.7,1.1,1.5,1,2.3c0,0.8-0.4,1.6-1.2,2.4L21.9,20l-4.4-4.4l1.4-1.4c0.7-0.7,1.5-1.1,2.2-1.1
		S22.6,13.4,23.3,14.1z M22.3,15.1c-0.9-0.9-1.8-1-2.7-0.2l-0.5,0.5l2.9,2.9l0.4-0.4C23.3,17,23.3,16.1,22.3,15.1z"/>
	<path class="st2" d="M29,12.9l-2.5,2.5L22,11l2.5-2.5l0.8,0.8l-1.6,1.6l1,1l1.5-1.5l0.8,0.8l-1.5,1.5l1.1,1.1l1.6-1.6L29,12.9z"/>
	<path class="st2" d="M31.3,6.1c0.7,0.7,1.1,1.5,1,2.3s-0.4,1.6-1.2,2.4L29.9,12l-4.4-4.4l1.4-1.4c0.7-0.7,1.5-1.1,2.2-1.1
		S30.6,5.4,31.3,6.1z M30.4,7.1c-0.9-0.9-1.8-1-2.7-0.2l-0.5,0.5l2.9,2.9l0.4-0.4C31.4,9,31.3,8,30.4,7.1z"/>
</g>
<g>
	<path class="st3" d="M23.1,14.6l-2.5-2.5L25,7.7l2.5,2.5L26.7,11l-1.6-1.6l-1,1l1.5,1.5l-0.8,0.8l-1.5-1.5l-1.1,1.1l1.6,1.6
		L23.1,14.6z"/>
	<path class="st3" d="M30.9,13.7l0.9,0.9l-5.9,2.9l-1-1l3-5.9l0.9,0.9L27,14.9c-0.1,0.2-0.2,0.4-0.4,0.7c-0.2,0.3-0.3,0.4-0.3,0.5
		c0.2-0.2,0.6-0.4,1.2-0.7L30.9,13.7z"/>
	<path class="st3" d="M30.6,22.1l-2.5-2.5l4.4-4.4l2.5,2.5l-0.8,0.8l-1.6-1.6l-1,1l1.5,1.5l-0.8,0.8l-1.4-1.6l-1.1,1.1l1.6,1.6
		L30.6,22.1z"/>
	<path class="st3" d="M35.4,26.9l-1.2-1.2l1.4-5.2l0,0c-0.5,0.6-0.9,1.1-1.2,1.3l-2.1,2.1l-0.8-0.8l4.4-4.5l1.2,1.2L35.7,25l0,0
		c0.5-0.6,0.9-1,1.2-1.3l2-2l0.8,0.8L35.4,26.9z"/>
	<path class="st3" d="M38.2,29.7l-0.9-0.9l3.6-3.6L39.7,24l0.8-0.8l3.3,3.3L43,27.3l-1.2-1.2L38.2,29.7z"/>
</g>
</svg>
