<?xml version="1.0" encoding="utf-8"?>
<!-- Generator: Adobe Illustrator 15.0.0, SVG Export Plug-In . SVG Version: 6.00 Build 0)  -->
<!DOCTYPE svg PUBLIC "-//W3C//DTD SVG 1.1//EN" "http://www.w3.org/Graphics/SVG/1.1/DTD/svg11.dtd">
<svg version="1.1" id="Layer_1" xmlns="http://www.w3.org/2000/svg" xmlns:xlink="http://www.w3.org/1999/xlink" x="0px" y="0px"
	 width="40px" height="40px" viewBox="0 0 40 40" enable-background="new 0 0 40 40" xml:space="preserve">
<rect x="8" y="6.939" fill="#FFFFFF" width="22.667" height="25.667"/>
<path fill="#36609F" d="M33.75,0H6.25C2.799,0,0,2.8,0,6.25v27.5C0,37.202,2.799,40,6.25,40h27.5c3.452,0,6.25-2.798,6.25-6.25V6.25
	C40,2.8,37.202,0,33.75,0z M24.284,20.007h-2.803c0,4.48,0,9.993,0,9.993h-4.152c0,0,0-5.459,0-9.993h-1.975v-3.529h1.975v-2.285
	c0-1.634,0.776-4.192,4.19-4.192l3.076,0.013v3.428c0,0-1.87,0-2.232,0c-0.364,0-0.882,0.183-0.882,0.961v2.076h3.167L24.284,20.007
	z"/>
</svg>
