<?xml version="1.0" encoding="utf-8"?>
<!-- Generator: Adobe Illustrator 15.0.0, SVG Export Plug-In . SVG Version: 6.00 Build 0)  -->
<!DOCTYPE svg PUBLIC "-//W3C//DTD SVG 1.1//EN" "http://www.w3.org/Graphics/SVG/1.1/DTD/svg11.dtd">
<svg version="1.1" id="Layer_1" xmlns="http://www.w3.org/2000/svg" xmlns:xlink="http://www.w3.org/1999/xlink" x="0px" y="0px"
	 width="40px" height="40px" viewBox="0 0 40 40" enable-background="new 0 0 40 40" xml:space="preserve">
<path fill="#1DB5B6" d="M0.942,39.059c1.258,1.256,3.293,1.256,4.551,0l9.562-9.561c2.543,1.684,5.586,2.668,8.863,2.668
	C32.801,32.166,40,24.967,40,16.083C40,7.2,32.801,0,23.918,0S7.836,7.2,7.836,16.083c0,3.277,0.984,6.323,2.667,8.864L0.942,34.51
	C-0.316,35.766-0.312,37.803,0.942,39.059z M13.465,16.083c0-5.764,4.688-10.454,10.453-10.454s10.453,4.69,10.453,10.454
	c0,5.765-4.688,10.454-10.453,10.454S13.465,21.848,13.465,16.083z"/>
</svg>
